<svg width="40" height="40" viewBox="0 0 40 40" fill="none" xmlns="http://www.w3.org/2000/svg">
<g clip-path="url(#clip0_1067_1765)">
<path d="M16.3796 25.0882H15.3158V22.8844C15.3158 22.5318 15.0301 22.2461 14.6775 22.2461C14.3249 22.2461 14.0392 22.5318 14.0392 22.8844V25.0882H12.6217V20.3312C12.6217 19.9787 12.336 19.6929 11.9834 19.6929C11.6308 19.6929 11.3451 19.9787 11.3451 20.3312V25.0882H9.92776V22.8844C9.92776 22.5318 9.64205 22.2461 9.28946 22.2461C8.93686 22.2461 8.65116 22.5318 8.65116 22.8844V25.0882H7.23363V20.3312C7.23363 19.9787 6.94793 19.6929 6.59533 19.6929C6.24273 19.6929 5.95703 19.9787 5.95703 20.3312V25.7265C5.95703 26.079 6.24273 26.3648 6.59533 26.3648H16.3796C16.7322 26.3648 17.0179 26.079 17.0179 25.7265C17.0179 25.374 16.7321 25.0882 16.3796 25.0882Z" fill="black"/>
<path d="M16.3796 4.53198H6.59533C6.24273 4.53198 5.95703 4.81777 5.95703 5.17028C5.95703 5.52279 6.24273 5.80858 6.59533 5.80858H16.3796C16.7322 5.80858 17.0179 5.52279 17.0179 5.17028C17.0179 4.81777 16.7321 4.53198 16.3796 4.53198Z" fill="black"/>
<path d="M16.3796 7.56421H6.59533C6.24273 7.56421 5.95703 7.85 5.95703 8.20251C5.95703 8.55502 6.24273 8.8408 6.59533 8.8408H16.3796C16.7322 8.8408 17.0179 8.55502 17.0179 8.20251C17.0179 7.85 16.7321 7.56421 16.3796 7.56421Z" fill="black"/>
<path d="M6.59533 11.8728H11.4874C11.84 11.8728 12.1257 11.587 12.1257 11.2345C12.1257 10.882 11.84 10.5962 11.4874 10.5962H6.59533C6.24273 10.5962 5.95703 10.882 5.95703 11.2345C5.95703 11.587 6.24273 11.8728 6.59533 11.8728Z" fill="black"/>
<path d="M16.3796 13.6284H6.59533C6.24273 13.6284 5.95703 13.9142 5.95703 14.2667C5.95703 14.6192 6.24273 14.905 6.59533 14.905H16.3796C16.7322 14.905 17.0179 14.6192 17.0179 14.2667C17.0179 13.9142 16.7321 13.6284 16.3796 13.6284Z" fill="black"/>
<path d="M16.3796 16.6606H6.59533C6.24273 16.6606 5.95703 16.9464 5.95703 17.2989C5.95703 17.6515 6.24273 17.9372 6.59533 17.9372H16.3796C16.7322 17.9372 17.0179 17.6515 17.0179 17.2989C17.0179 16.9464 16.7321 16.6606 16.3796 16.6606Z" fill="black"/>
<path d="M19.9996 4.99365C19.647 4.99365 19.3613 5.27944 19.3613 5.63195V27.1509C19.3613 27.5034 19.647 27.7892 19.9996 27.7892C20.3522 27.7892 20.6379 27.5034 20.6379 27.1509V5.63195C20.6379 5.27935 20.3522 4.99365 19.9996 4.99365Z" fill="black"/>
<path d="M39.3617 6.23407H37.4468V1.76598C37.4468 1.41347 37.1611 1.12769 36.8085 1.12769H22.4453C21.5248 1.12769 20.6551 1.4796 20 2.0956C19.3449 1.4796 18.4751 1.12769 17.5547 1.12769H3.19149C2.83889 1.12769 2.55319 1.41347 2.55319 1.76598V6.23407H0.638298C0.285702 6.23407 0 6.51986 0 6.87237V34.237C0 34.5896 0.285702 34.8753 0.638298 34.8753H17.4329L18.1475 35.7088C18.2688 35.8502 18.4458 35.9316 18.6321 35.9316L21.3684 35.9313C21.5547 35.9313 21.7318 35.8499 21.853 35.7084L22.567 34.8753H26.0637V37.2125C26.0637 38.1276 26.8083 38.8721 27.7235 38.8721H29.0852C30.0002 38.8721 30.7446 38.1276 30.7446 37.2125V34.8753H39.3617C39.7143 34.8753 40 34.5895 40 34.237V6.87237C40 6.51986 39.7143 6.23407 39.3617 6.23407ZM29.4681 10.7445V32.2339H27.3404V10.7445H29.4681ZM27.3404 33.5105H29.4681V34.7871H27.3404V33.5105ZM27.6596 9.46794L28.4043 7.68071L29.1489 9.46794H27.6596ZM29.0853 37.5956H27.7236C27.5159 37.5956 27.3404 37.4202 27.3404 37.2126V36.0637H29.4681V37.2126C29.4681 37.4202 29.2928 37.5956 29.0853 37.5956ZM38.7234 33.5987H30.7447V10.1062C30.7447 10.085 30.7436 10.0638 30.7414 10.0427C30.7397 10.025 30.7369 10.0078 30.7337 9.99058C30.7331 9.98734 30.7328 9.98403 30.7322 9.98079C30.7234 9.93696 30.7102 9.89475 30.6929 9.85458L28.9935 5.77569C28.8945 5.53781 28.662 5.38283 28.4043 5.38283C28.1467 5.38283 27.9142 5.53773 27.8151 5.7756L26.1152 9.85492C26.0981 9.89492 26.0849 9.93696 26.0762 9.98071C26.0755 9.98428 26.0752 9.98786 26.0746 9.99143C26.0715 10.0083 26.0686 10.0253 26.0669 10.0426C26.0648 10.0637 26.0637 10.0849 26.0637 10.1062V33.5987H22.4451C22.1184 33.5987 21.8141 33.7539 21.6217 34.0163L21.0746 34.6547L18.9253 34.6549L18.3778 34.0164C18.1851 33.7539 17.8808 33.5987 17.5544 33.5987H1.2766V7.51066H2.55319V29.1307C2.55319 29.4832 2.83889 29.769 3.19149 29.769H17.5547C18.2649 29.769 18.9273 30.0953 19.3617 30.6492V31.536C18.8221 31.2196 18.2011 31.0456 17.5547 31.0456H3.19149C2.83889 31.0456 2.55319 31.3313 2.55319 31.6839C2.55319 32.0364 2.83889 32.3222 3.19149 32.3222H17.5547C18.3255 32.3222 19.0409 32.706 19.4686 33.3488C19.4826 33.3697 19.4974 33.389 19.5133 33.4077C19.5174 33.4126 19.522 33.4172 19.5263 33.422C19.5381 33.4351 19.5503 33.4477 19.5631 33.4598C19.5689 33.4651 19.5746 33.4703 19.5804 33.4754C19.5939 33.4872 19.6079 33.4983 19.6223 33.509C19.6271 33.5124 19.6317 33.5162 19.6365 33.5196C19.6564 33.5335 19.6771 33.5463 19.6986 33.5579C19.7197 33.5692 19.7416 33.579 19.7639 33.5879C19.7692 33.5901 19.7746 33.5919 19.78 33.5938C19.7974 33.6002 19.8151 33.6059 19.8332 33.6107C19.8397 33.6125 19.8464 33.6143 19.853 33.6159C19.8708 33.62 19.8888 33.6233 19.9071 33.6261C19.9135 33.627 19.9198 33.6282 19.9263 33.629C19.9506 33.6318 19.9751 33.6336 20.0002 33.6336C20.0254 33.6336 20.0498 33.6318 20.074 33.629C20.0807 33.6282 20.0872 33.6269 20.0939 33.6259C20.1118 33.6233 20.1296 33.6199 20.1471 33.6159C20.154 33.6142 20.1608 33.6124 20.1676 33.6106C20.1854 33.6057 20.2028 33.6001 20.2199 33.5938C20.2255 33.5918 20.2311 33.5899 20.2367 33.5877C20.2586 33.5789 20.2801 33.5692 20.3008 33.5582C20.3233 33.5462 20.3438 33.5334 20.3637 33.5196C20.3688 33.5161 20.3735 33.5122 20.3786 33.5084C20.3928 33.498 20.4065 33.4871 20.4197 33.4755C20.4257 33.4703 20.4316 33.465 20.4374 33.4595C20.45 33.4476 20.4621 33.4352 20.4737 33.4222C20.4782 33.4173 20.4828 33.4125 20.4871 33.4074C20.5029 33.3889 20.5176 33.3696 20.5311 33.3494C20.9591 32.7059 21.6746 32.3221 22.4455 32.3221H24.1492C24.5018 32.3221 24.7875 32.0363 24.7875 31.6838C24.7875 31.3313 24.5018 31.0455 24.1492 31.0455H22.4455C21.7991 31.0455 21.1781 31.2194 20.6386 31.5359V30.6491C21.0728 30.0953 21.7353 29.7689 22.4455 29.7689H24.1492C24.5018 29.7689 24.7875 29.4831 24.7875 29.1306C24.7875 28.7781 24.5018 28.4923 24.1492 28.4923H22.4455C21.5249 28.4923 20.6553 28.8439 20.0002 29.4594C19.345 28.8439 18.4754 28.4923 17.555 28.4923H3.82979V2.40428H17.5547C18.3254 2.40428 19.0408 2.78845 19.4684 3.43194C19.5867 3.60998 19.7862 3.71696 20 3.71696C20.2138 3.71696 20.4133 3.60998 20.5317 3.43194C20.9591 2.78845 21.6746 2.40437 22.4453 2.40437H36.1702V28.4924H32.6596C32.307 28.4924 32.0213 28.7782 32.0213 29.1307C32.0213 29.4833 32.307 29.769 32.6596 29.769H36.8085C37.1611 29.769 37.4468 29.4833 37.4468 29.1307V7.51066H38.7234V33.5987Z" fill="black"/>
<path d="M36.8087 31.0457H32.6598C32.3072 31.0457 32.0215 31.3314 32.0215 31.684C32.0215 32.0365 32.3072 32.3223 32.6598 32.3223H36.8087C37.1613 32.3223 37.447 32.0365 37.447 31.684C37.447 31.3314 37.1613 31.0457 36.8087 31.0457Z" fill="black"/>
</g>
<defs>
<clipPath id="clip0_1067_1765">
<rect width="40" height="40" fill="white"/>
</clipPath>
</defs>
</svg>