<svg width="516" height="498" viewBox="0 0 516 498" fill="none" xmlns="http://www.w3.org/2000/svg">
<path d="M76.2823 93.3206C56.5422 119.166 44.3907 150.184 41.236 182.781L16.9492 179.168C20.746 142.005 34.779 106.695 57.4271 77.3164L76.2823 93.3206Z" stroke="#808080" stroke-linecap="round" stroke-linejoin="round"/>
<path d="M288.771 382.754C254.667 397.791 217.065 402.604 180.373 396.629C143.681 390.654 109.42 374.138 81.6094 349.019L97.8911 330.299C122.214 352.249 152.17 366.679 184.249 371.9C216.327 377.121 249.201 372.915 279.02 359.776L288.771 382.754Z" stroke="#808080" stroke-linecap="round" stroke-linejoin="round"/>
<path d="M211.113 200.064V1.00016C159.896 0.93489 110.718 21.449 74.2381 58.0958L90.9336 76.4861L97.9817 84.2246L110.306 97.7503L198.401 194.395L203.573 200.103L204.259 200.855L206.6 203.412L207.401 204.296L208.695 205.614L210.647 207.763L207.337 208.751L153.616 332.738C140.17 326.684 127.731 318.531 116.746 308.573L202.229 210.267L194.211 212.654L76.6952 247.641L59.2884 252.822L49.3435 255.775L25.7422 262.802C36.5989 296.051 55.87 325.791 81.6095 349.019L97.8782 330.299C122.202 352.249 152.157 366.679 184.236 371.9C216.315 377.121 249.189 372.915 279.007 359.776L274.934 350.087L267.743 333.146C254.612 338.963 240.688 342.706 226.451 344.246L211.113 200.064ZM211.113 200.064L195.827 55.8811C170.988 58.5731 147.293 67.9302 127.157 82.9985L211.113 200.064Z" stroke="#808080" stroke-linecap="round" stroke-linejoin="round"/>
<path d="M84.1972 100.097C65.6803 124.426 54.3246 153.617 51.4528 184.271L41.2363 182.781C44.3958 150.194 56.5471 119.185 76.2827 93.3477L84.1972 100.097Z" stroke="#808080" stroke-linecap="round" stroke-linejoin="round"/>
<path d="M202.243 210.267L205.126 206.945L207.079 204.704L207.467 204.256L211.114 200.063H203.639H201.622H158.493H68.8594" stroke="#808080" stroke-linecap="round" stroke-linejoin="round"/>
<path d="M50.7539 200.063H40.4081H1.61133" stroke="#808080" stroke-linecap="round" stroke-linejoin="round"/>
<path d="M81.5975 349.019L59.8066 374.079" stroke="#808080" stroke-linecap="round" stroke-linejoin="round"/>
<path d="M97.8789 330.299L104.746 322.402L116.76 308.573" stroke="#808080" stroke-linecap="round" stroke-linejoin="round"/>
<path d="M381.82 200.063C381.83 234.005 372.102 267.209 353.834 295.587C335.567 323.964 309.558 346.276 279.008 359.776L274.883 350.086C300.294 338.864 322.421 321.124 339.109 298.594C355.797 276.065 366.477 249.514 370.109 221.527C373.741 193.54 370.201 165.071 359.833 138.894C349.466 112.716 332.625 89.7209 310.951 72.1486L317.417 63.8828C337.523 80.1692 353.758 100.877 364.91 124.458C376.062 148.039 381.843 173.885 381.82 200.063Z" stroke="#808080" stroke-linecap="round" stroke-linejoin="round"/>
<path d="M310.951 72.1485L299.674 86.6498C290.181 78.9177 279.749 72.4663 268.637 67.4553L275.956 50.5547C288.479 56.1987 300.239 63.4558 310.951 72.1485Z" stroke="#808080" stroke-linecap="round" stroke-linejoin="round"/>
<path d="M317.404 63.8838L352.076 19.457H390.872" stroke="#808080" stroke-linecap="round" stroke-linejoin="round"/>
<path d="M299.673 86.584L211.113 200.063" stroke="#808080" stroke-linecap="round" stroke-linejoin="round"/>
<path d="M198.699 82.972L195.828 55.8809C170.989 58.5729 147.294 67.9299 127.158 82.9983L142.936 105.001C159.29 92.7696 178.53 85.1692 198.699 82.972Z" stroke="#808080" stroke-linecap="round" stroke-linejoin="round"/>
<path d="M223.98 321.453L226.451 344.247C240.688 342.706 254.612 338.963 267.743 333.147L258.691 311.79C247.686 316.837 235.974 320.098 223.98 321.453Z" stroke="#808080" stroke-linecap="round" stroke-linejoin="round"/>
<path d="M226.452 344.246C201.625 346.962 176.534 342.993 153.682 332.738L207.403 208.751L202.294 210.267L116.812 308.573C101.751 294.974 89.6967 278.268 81.4476 259.561C73.1984 240.854 68.9429 220.574 68.963 200.064C68.963 195.634 69.1569 191.244 69.5578 186.881C71.9514 159.619 81.8994 133.613 98.2416 111.896C102.004 106.889 106.082 102.137 110.45 97.6712C115.666 92.3245 121.287 87.4052 127.262 82.959L211.218 200.024L226.452 344.246Z" stroke="#808080" stroke-linecap="round" stroke-linejoin="round"/>
<path d="M279.655 41.8672L275.918 50.4889" stroke="#808080" stroke-linecap="round" stroke-linejoin="round"/>
<path d="M268.597 67.3896L211.113 200.064" stroke="#808080" stroke-linecap="round" stroke-linejoin="round"/>
<path d="M192.879 28.1309L193.875 37.5303L195.827 55.8811" stroke="#808080" stroke-linecap="round" stroke-linejoin="round"/>
<path d="M211.115 200.064L55.9277 130.194" stroke="#808080" stroke-linecap="round" stroke-linejoin="round"/>
<path d="M69.6738 215.646L51.6721 217.636C51.0591 211.8 50.7526 205.934 50.7539 200.063H68.8591C68.8558 205.269 69.1278 210.47 69.6738 215.646Z" stroke="#808080" stroke-linecap="round" stroke-linejoin="round"/>
<path d="M51.6719 217.637L42.4512 218.652" stroke="#808080" stroke-linecap="round" stroke-linejoin="round"/>
<path d="M211.115 200.063L74.1621 302.126" stroke="#808080" stroke-linecap="round" stroke-linejoin="round"/>
<path d="M142.572 358.261L146.31 349.639L153.629 332.738" stroke="#808080" stroke-linecap="round" stroke-linejoin="round"/>
<path d="M207.35 208.751L207.945 207.367L208.552 205.969L208.707 205.614L211.113 200.063" stroke="#808080" stroke-linecap="round" stroke-linejoin="round"/>
<path d="M230.668 395.33L228.353 362.597L226.4 344.246" stroke="#808080" stroke-linecap="round" stroke-linejoin="round"/>
<path d="M311.236 339.672L305.752 332.039L295.07 317.129" stroke="#808080" stroke-linecap="round" stroke-linejoin="round"/>
<path d="M211.113 200.063L366.3 269.933" stroke="#808080" stroke-linecap="round" stroke-linejoin="round"/>
<path d="M211.113 200.064L379.776 181.476" stroke="#808080" stroke-linecap="round" stroke-linejoin="round"/>
<path d="M348.066 98.001L340.578 103.591" stroke="#808080" stroke-linecap="round" stroke-linejoin="round"/>
<path d="M325.952 114.479L211.113 200.064" stroke="#808080" stroke-linecap="round" stroke-linejoin="round"/>
<path d="M211.113 90.6182C195.232 105.7 154.586 120.939 107.189 153.251C107.189 153.251 110.151 262.472 211.113 322.178V90.6182Z" fill="#F9C09B" stroke="#263238" stroke-linecap="round" stroke-linejoin="round"/>
<path d="M211.113 90.6182C226.994 105.7 267.64 120.939 315.037 153.251C315.037 153.251 312.075 262.472 211.113 322.178V90.6182Z" fill="#263238" stroke="#263238" stroke-linecap="round" stroke-linejoin="round"/>
<path d="M211.113 99.9121C191.947 113.477 158.725 126.397 114.807 156.349C114.807 156.349 117.561 257.555 211.113 312.871C304.665 257.555 307.407 156.415 307.407 156.415C263.502 126.397 230.434 113.477 211.113 99.9121Z" fill="#263238" stroke="#263238" stroke-linecap="round" stroke-linejoin="round"/>
<path d="M307.407 156.415C263.437 126.463 230.434 113.544 211.113 99.9785V312.871C304.665 257.555 307.407 156.415 307.407 156.415Z" fill="#F9C09B" stroke="#263238" stroke-linecap="round" stroke-linejoin="round"/>
<path d="M247.595 201.949H175.821C175.047 201.958 174.278 201.811 173.559 201.517C172.841 201.223 172.186 200.787 171.632 200.235C171.079 199.683 170.637 199.025 170.333 198.299C170.029 197.573 169.868 196.793 169.859 196.004V162.268C169.859 139.237 188.624 120.491 211.708 120.491C234.792 120.491 253.609 139.277 253.609 162.268V195.964C253.604 196.761 253.444 197.549 253.138 198.282C252.832 199.015 252.387 199.679 251.827 200.236C251.268 200.793 250.606 201.231 249.88 201.525C249.153 201.819 248.377 201.963 247.595 201.949ZM181.783 190.084H241.633V162.268C241.404 154.333 238.151 146.801 232.564 141.27C226.977 135.74 219.496 132.646 211.708 132.646C203.92 132.646 196.439 135.74 190.852 141.27C185.265 146.801 182.012 154.333 181.783 162.268V190.084Z" fill="white" stroke="#263238" stroke-linecap="round" stroke-linejoin="round"/>
<path d="M256.803 185.694H165.424V262.749H256.803V185.694Z" fill="white" stroke="#263238" stroke-linecap="round" stroke-linejoin="round"/>
<path d="M220.62 217.689C220.527 215.062 219.437 212.574 217.581 210.749C215.725 208.924 213.247 207.904 210.668 207.904C208.089 207.904 205.611 208.924 203.755 210.749C201.899 212.574 200.81 215.062 200.717 217.689C200.719 219.488 201.202 221.252 202.113 222.792C203.024 224.332 204.33 225.589 205.89 226.43L204.221 243.937H217.011L215.343 226.43C216.922 225.603 218.249 224.352 219.179 222.811C220.109 221.27 220.607 219.499 220.62 217.689Z" fill="#263238" stroke="#263238" stroke-linecap="round" stroke-linejoin="round"/>
<path d="M436.885 35.7242H462.84V19.4564H447.774L446.248 15.4883H436.885V35.7242Z" fill="#F9C09B" stroke="#263238" stroke-miterlimit="10"/>
<path d="M436.885 62.0103H462.84V45.7557H447.774L446.248 41.7744H436.885V62.0103Z" fill="#F9C09B" stroke="#263238" stroke-miterlimit="10"/>
<path d="M436.885 88.3106H462.84V72.0428H447.774L446.248 68.0615H436.885V88.3106Z" fill="#263238" stroke="#263238" stroke-miterlimit="10"/>
<path d="M436.885 253.244H462.84V236.976H447.774L446.248 233.008H436.885V253.244Z" fill="#F9C09B" stroke="#263238" stroke-miterlimit="10"/>
<path d="M436.885 279.531H462.84V263.276H447.774L446.248 259.295H436.885V279.531Z" fill="#F9C09B" stroke="#263238" stroke-miterlimit="10"/>
<path d="M436.885 305.831H462.84V289.563H447.774L446.248 285.595H436.885V305.831Z" fill="#263238" stroke="#263238" stroke-miterlimit="10"/>
<path d="M436.885 333.66H462.84V317.392H447.774L446.248 313.424H436.885V333.66Z" fill="#F9C09B" stroke="#263238" stroke-miterlimit="10"/>
<path d="M436.885 359.947H462.84V343.692H447.774L446.248 339.711H436.885V359.947Z" fill="#F9C09B" stroke="#263238" stroke-miterlimit="10"/>
<path d="M436.885 386.248H462.84V369.98H447.774L446.248 366.012H436.885V386.248Z" fill="#263238" stroke="#263238" stroke-miterlimit="10"/>
<path d="M398.307 166.328C398.119 163.695 398.119 161.051 398.307 158.418" stroke="#263238" stroke-linecap="round" stroke-linejoin="round"/>
<path d="M406.726 165.643C406.571 163.418 406.571 161.184 406.726 158.959" stroke="#263238" stroke-linecap="round" stroke-linejoin="round"/>
<path d="M398.139 162.387L406.583 162.32" stroke="#263238" stroke-linecap="round" stroke-linejoin="round"/>
<path d="M398.32 157.39C398.543 154.76 398.941 152.148 399.51 149.572" stroke="#263238" stroke-linecap="round" stroke-linejoin="round"/>
<path d="M406.74 158.102C406.934 155.885 407.271 153.683 407.749 151.511" stroke="#263238" stroke-linecap="round" stroke-linejoin="round"/>
<path d="M398.785 153.461L407.126 154.779" stroke="#263238" stroke-linecap="round" stroke-linejoin="round"/>
<path d="M399.742 148.57C400.361 146.003 401.169 143.486 402.161 141.043" stroke="#263238" stroke-linecap="round" stroke-linejoin="round"/>
<path d="M407.941 150.654C408.468 148.489 409.146 146.365 409.972 144.3" stroke="#263238" stroke-linecap="round" stroke-linejoin="round"/>
<path d="M400.816 144.761L408.847 147.437" stroke="#263238" stroke-linecap="round" stroke-linejoin="round"/>
<path d="M402.549 140.094C403.573 137.668 404.765 135.32 406.118 133.067" stroke="#263238" stroke-linecap="round" stroke-linejoin="round"/>
<path d="M410.309 143.495C411.176 141.448 412.182 139.466 413.322 137.562" stroke="#263238" stroke-linecap="round" stroke-linejoin="round"/>
<path d="M404.205 136.521L411.706 140.475" stroke="#263238" stroke-linecap="round" stroke-linejoin="round"/>
<path d="M406.648 132.197C407.334 131.076 408.071 129.995 408.86 128.941L411.291 125.869" stroke="#263238" stroke-linecap="round" stroke-linejoin="round"/>
<path d="M413.775 136.824C414.354 135.874 414.98 134.955 415.651 134.069L417.707 131.433" stroke="#263238" stroke-linecap="round" stroke-linejoin="round"/>
<path d="M408.859 128.941L415.649 134.07" stroke="#263238" stroke-linecap="round" stroke-linejoin="round"/>
<path d="M411.926 125.065C412.805 124.102 413.736 123.18 414.642 122.23C415.107 121.769 415.534 121.281 416.025 120.912L417.512 119.594" stroke="#263238" stroke-linecap="round" stroke-linejoin="round"/>
<path d="M418.236 130.786L420.538 128.4C420.926 128.005 421.288 127.583 421.702 127.214L422.995 126.159" stroke="#263238" stroke-linecap="round" stroke-linejoin="round"/>
<path d="M414.641 122.23L420.538 128.4" stroke="#263238" stroke-linecap="round" stroke-linejoin="round"/>
<path d="M418.301 118.922C419.272 118.045 420.305 117.243 421.392 116.522C422.465 115.797 423.525 115.033 424.625 114.334" stroke="#263238" stroke-linecap="round" stroke-linejoin="round"/>
<path d="M423.629 125.593C424.44 124.855 425.304 124.181 426.215 123.576C427.134 122.97 428.026 122.258 428.944 121.73" stroke="#263238" stroke-linecap="round" stroke-linejoin="round"/>
<path d="M421.393 116.522L426.229 123.575" stroke="#263238" stroke-linecap="round" stroke-linejoin="round"/>
<path d="M425.518 113.847L428.932 111.961C430.109 111.421 431.311 110.933 432.501 110.419" stroke="#263238" stroke-linecap="round" stroke-linejoin="round"/>
<path d="M429.721 121.308L432.605 119.726L435.618 118.421" stroke="#263238" stroke-linecap="round" stroke-linejoin="round"/>
<path d="M428.932 111.961L432.604 119.726" stroke="#263238" stroke-linecap="round" stroke-linejoin="round"/>
<path d="M433.445 110.01C434.635 109.522 435.902 109.206 437.131 108.784L438.98 108.204L440.881 107.795" stroke="#263238" stroke-linecap="round" stroke-linejoin="round"/>
<path d="M436.406 118.078C437.428 117.656 438.488 117.393 439.523 117.05L441.101 116.549L442.704 116.206" stroke="#263238" stroke-linecap="round" stroke-linejoin="round"/>
<path d="M437.131 108.784L439.523 117.05" stroke="#263238" stroke-linecap="round" stroke-linejoin="round"/>
<path d="M441.877 107.637C443.134 107.338 444.408 107.122 445.692 106.991C446.985 106.859 448.278 106.675 449.572 106.596" stroke="#263238" stroke-linecap="round" stroke-linejoin="round"/>
<path d="M443.545 116.034C444.607 115.763 445.688 115.578 446.778 115.48C447.864 115.375 448.951 115.204 450.037 115.138" stroke="#263238" stroke-linecap="round" stroke-linejoin="round"/>
<path d="M445.691 106.938L446.778 115.481" stroke="#263238" stroke-linecap="round" stroke-linejoin="round"/>
<path d="M450.566 106.517L454.446 106.464L458.326 106.78" stroke="#263238" stroke-linecap="round" stroke-linejoin="round"/>
<path d="M450.891 115.125L454.175 115.072L457.447 115.349" stroke="#263238" stroke-linecap="round" stroke-linejoin="round"/>
<path d="M454.447 106.464L454.176 115.072" stroke="#263238" stroke-linecap="round" stroke-linejoin="round"/>
<path d="M459.334 106.859C460.627 107.018 461.92 107.308 463.214 107.532C463.847 107.65 464.507 107.756 465.115 107.888L466.99 108.428" stroke="#263238" stroke-linecap="round" stroke-linejoin="round"/>
<path d="M458.301 115.415C459.387 115.547 460.46 115.797 461.534 115.982C462.064 116.074 462.607 116.166 463.15 116.285L464.715 116.733" stroke="#263238" stroke-linecap="round" stroke-linejoin="round"/>
<path d="M463.163 107.532L461.533 115.983" stroke="#263238" stroke-linecap="round" stroke-linejoin="round"/>
<path d="M467.908 108.719C470.398 109.446 472.835 110.349 475.202 111.421" stroke="#263238" stroke-linecap="round" stroke-linejoin="round"/>
<path d="M465.543 116.984C467.641 117.602 469.698 118.36 471.699 119.252" stroke="#263238" stroke-linecap="round" stroke-linejoin="round"/>
<path d="M471.594 109.944L468.658 118.026" stroke="#263238" stroke-linecap="round" stroke-linejoin="round"/>
<path d="M476.107 111.896L479.56 113.702C480.685 114.348 481.746 115.112 482.832 115.824" stroke="#263238" stroke-linecap="round" stroke-linejoin="round"/>
<path d="M472.461 119.66L475.384 121.189C476.328 121.73 477.22 122.389 478.151 122.982" stroke="#263238" stroke-linecap="round" stroke-linejoin="round"/>
<path d="M479.56 113.701L475.383 121.189" stroke="#263238" stroke-linecap="round" stroke-linejoin="round"/>
<path d="M483.686 116.378C484.759 117.113 485.791 117.909 486.776 118.764C487.809 119.56 488.794 120.418 489.725 121.335" stroke="#263238" stroke-linecap="round" stroke-linejoin="round"/>
<path d="M478.863 123.456C479.766 124.073 480.63 124.747 481.45 125.473C482.332 126.141 483.17 126.867 483.959 127.648" stroke="#263238" stroke-linecap="round" stroke-linejoin="round"/>
<path d="M486.777 118.764L481.475 125.474" stroke="#263238" stroke-linecap="round" stroke-linejoin="round"/>
<path d="M490.449 122.06C491.354 122.996 492.324 123.879 493.178 124.868L495.648 127.926" stroke="#263238" stroke-linecap="round" stroke-linejoin="round"/>
<path d="M484.592 128.256C485.355 129.06 486.183 129.798 486.894 130.629L488.989 133.265" stroke="#263238" stroke-linecap="round" stroke-linejoin="round"/>
<path d="M493.178 124.867L486.893 130.628" stroke="#263238" stroke-linecap="round" stroke-linejoin="round"/>
<path d="M496.295 128.729C497.82 130.868 499.206 133.105 500.446 135.426" stroke="#263238" stroke-linecap="round" stroke-linejoin="round"/>
<path d="M489.531 133.871C490.811 135.679 491.978 137.568 493.023 139.527" stroke="#263238" stroke-linecap="round" stroke-linejoin="round"/>
<path d="M498.467 131.999L491.367 136.653" stroke="#263238" stroke-linecap="round" stroke-linejoin="round"/>
<path d="M500.926 136.323L501.831 138.063L502.594 139.896C503.073 141.109 503.642 142.308 504.03 143.561" stroke="#263238" stroke-linecap="round" stroke-linejoin="round"/>
<path d="M493.424 140.292L494.2 141.768L494.833 143.311C495.234 144.352 495.739 145.354 496.127 146.409" stroke="#263238" stroke-linecap="round" stroke-linejoin="round"/>
<path d="M502.593 139.896L494.834 143.311" stroke="#263238" stroke-linecap="round" stroke-linejoin="round"/>
<path d="M504.34 144.55C504.715 145.868 505.129 147.055 505.452 148.333L506.254 152.209" stroke="#263238" stroke-linecap="round" stroke-linejoin="round"/>
<path d="M496.309 147.252C496.619 148.32 496.981 149.374 497.266 150.455L497.938 153.725" stroke="#263238" stroke-linecap="round" stroke-linejoin="round"/>
<path d="M505.452 148.333L497.266 150.455" stroke="#263238" stroke-linecap="round" stroke-linejoin="round"/>
<path d="M506.459 153.225C506.829 155.845 507.036 158.487 507.08 161.134" stroke="#263238" stroke-linecap="round" stroke-linejoin="round"/>
<path d="M498.119 154.582C498.418 156.767 498.591 158.968 498.636 161.174" stroke="#263238" stroke-linecap="round" stroke-linejoin="round"/>
<path d="M506.888 157.152L498.469 157.904" stroke="#263238" stroke-linecap="round" stroke-linejoin="round"/>
<path d="M507.08 162.136C507.08 162.795 507.08 163.454 507.08 164.113L506.925 166.077C506.796 167.396 506.783 168.714 506.537 170.032" stroke="#263238" stroke-linecap="round" stroke-linejoin="round"/>
<path d="M498.649 162.123C498.649 162.677 498.649 163.23 498.649 163.784L498.52 165.458C498.466 166.571 498.354 167.68 498.184 168.78" stroke="#263238" stroke-linecap="round" stroke-linejoin="round"/>
<path d="M506.938 166.078L498.52 165.458" stroke="#263238" stroke-linecap="round" stroke-linejoin="round"/>
<path d="M506.369 171.034C506.123 172.352 505.942 173.671 505.644 174.923L504.584 178.733" stroke="#263238" stroke-linecap="round" stroke-linejoin="round"/>
<path d="M498.029 169.598C497.809 170.692 497.667 171.799 497.408 172.88L496.516 176.097" stroke="#263238" stroke-linecap="round" stroke-linejoin="round"/>
<path d="M505.645 174.924L497.42 172.92" stroke="#263238" stroke-linecap="round" stroke-linejoin="round"/>
<path d="M504.3 179.722C503.443 182.214 502.423 184.645 501.248 186.999" stroke="#263238" stroke-linecap="round" stroke-linejoin="round"/>
<path d="M496.295 176.98C495.562 179.078 494.698 181.125 493.709 183.111" stroke="#263238" stroke-linecap="round" stroke-linejoin="round"/>
<path d="M502.89 183.413L495.092 180.091" stroke="#263238" stroke-linecap="round" stroke-linejoin="round"/>
<path d="M500.782 187.922L499.89 189.675C499.567 190.242 499.192 190.783 498.855 191.349L496.734 194.645" stroke="#263238" stroke-linecap="round" stroke-linejoin="round"/>
<path d="M493.322 183.888L492.572 185.377C492.3 185.865 491.977 186.313 491.692 186.788L489.895 189.596" stroke="#263238" stroke-linecap="round" stroke-linejoin="round"/>
<path d="M498.856 191.349L491.691 186.788" stroke="#263238" stroke-linecap="round" stroke-linejoin="round"/>
<path d="M496.102 195.463L493.657 198.6C492.843 199.629 491.873 200.512 490.98 201.461" stroke="#263238" stroke-linecap="round" stroke-linejoin="round"/>
<path d="M489.351 190.269L487.294 192.905C486.609 193.775 485.781 194.513 485.031 195.318" stroke="#263238" stroke-linecap="round" stroke-linejoin="round"/>
<path d="M493.658 198.533L487.295 192.878" stroke="#263238" stroke-linecap="round" stroke-linejoin="round"/>
<path d="M490.27 202.133C489.355 203.074 488.384 203.954 487.36 204.769C486.387 205.64 485.363 206.45 484.295 207.195" stroke="#263238" stroke-linecap="round" stroke-linejoin="round"/>
<path d="M484.423 195.963C483.656 196.76 482.835 197.5 481.965 198.178C481.147 198.918 480.283 199.605 479.379 200.234" stroke="#263238" stroke-linecap="round" stroke-linejoin="round"/>
<path d="M487.36 204.756L481.967 198.125" stroke="#263238" stroke-linecap="round" stroke-linejoin="round"/>
<path d="M483.467 207.828C482.368 208.54 481.346 209.357 480.195 209.977L476.781 211.783" stroke="#263238" stroke-linecap="round" stroke-linejoin="round"/>
<path d="M478.631 200.656C477.7 201.263 476.846 201.975 475.876 202.476L472.992 204.071" stroke="#263238" stroke-linecap="round" stroke-linejoin="round"/>
<path d="M480.195 209.911L475.928 202.476" stroke="#263238" stroke-linecap="round" stroke-linejoin="round"/>
<path d="M475.876 212.244C473.524 213.348 471.1 214.287 468.621 215.052" stroke="#263238" stroke-linecap="round" stroke-linejoin="round"/>
<path d="M472.28 204.453C470.29 205.38 468.242 206.172 466.15 206.826" stroke="#263238" stroke-linecap="round" stroke-linejoin="round"/>
<path d="M472.293 213.787L469.254 205.745" stroke="#263238" stroke-linecap="round" stroke-linejoin="round"/>
<path d="M467.651 215.355C466.419 215.758 465.162 216.076 463.887 216.305C462.608 216.608 461.313 216.837 460.008 216.99" stroke="#263238" stroke-linecap="round" stroke-linejoin="round"/>
<path d="M465.323 207.076C464.284 207.42 463.22 207.684 462.142 207.867C461.082 208.136 460.007 208.334 458.922 208.46" stroke="#263238" stroke-linecap="round" stroke-linejoin="round"/>
<path d="M463.886 216.304L462.141 207.867" stroke="#263238" stroke-linecap="round" stroke-linejoin="round"/>
<path d="M459.064 217.057C457.771 217.175 456.478 217.426 455.184 217.413H451.305" stroke="#263238" stroke-linecap="round" stroke-linejoin="round"/>
<path d="M458.068 208.554C456.984 208.714 455.892 208.815 454.797 208.857H451.512" stroke="#263238" stroke-linecap="round" stroke-linejoin="round"/>
<path d="M455.196 217.465L454.795 208.856" stroke="#263238" stroke-linecap="round" stroke-linejoin="round"/>
<path d="M450.308 217.491C447.703 217.367 445.11 217.054 442.549 216.555" stroke="#263238" stroke-linecap="round" stroke-linejoin="round"/>
<path d="M450.658 208.883C448.487 208.769 446.327 208.504 444.191 208.092" stroke="#263238" stroke-linecap="round" stroke-linejoin="round"/>
<path d="M446.441 217.175L447.385 208.619" stroke="#263238" stroke-linecap="round" stroke-linejoin="round"/>
<path d="M441.604 216.37C440.332 216.134 439.075 215.817 437.841 215.421C436.584 215.103 435.349 214.702 434.143 214.222" stroke="#263238" stroke-linecap="round" stroke-linejoin="round"/>
<path d="M443.312 207.934C442.235 207.738 441.172 207.469 440.13 207.13C439.072 206.862 438.031 206.527 437.014 206.128" stroke="#263238" stroke-linecap="round" stroke-linejoin="round"/>
<path d="M437.842 215.421L440.131 207.129" stroke="#263238" stroke-linecap="round" stroke-linejoin="round"/>
<path d="M433.198 213.853C431.996 213.339 430.754 212.93 429.603 212.337L426.15 210.465" stroke="#263238" stroke-linecap="round" stroke-linejoin="round"/>
<path d="M436.211 205.811C435.203 205.376 434.155 205.047 433.185 204.493L430.275 202.964" stroke="#263238" stroke-linecap="round" stroke-linejoin="round"/>
<path d="M429.604 212.337L433.186 204.532" stroke="#263238" stroke-linecap="round" stroke-linejoin="round"/>
<path d="M425.259 210.043C423.112 208.567 420.862 207.262 418.793 205.574" stroke="#263238" stroke-linecap="round" stroke-linejoin="round"/>
<path d="M429.487 202.555C427.676 201.236 425.75 200.208 424.068 198.784" stroke="#263238" stroke-linecap="round" stroke-linejoin="round"/>
<path d="M422 207.881L426.759 200.762" stroke="#263238" stroke-linecap="round" stroke-linejoin="round"/>
<path d="M418.068 204.941C416.062 203.267 414.178 201.447 412.43 199.496" stroke="#263238" stroke-linecap="round" stroke-linejoin="round"/>
<path d="M423.421 198.283C421.733 196.863 420.143 195.326 418.662 193.683" stroke="#263238" stroke-linecap="round" stroke-linejoin="round"/>
<path d="M415.158 202.318L420.965 196.056" stroke="#263238" stroke-linecap="round" stroke-linejoin="round"/>
<path d="M411.743 198.745C410.04 196.755 408.472 194.65 407.049 192.443" stroke="#263238" stroke-linecap="round" stroke-linejoin="round"/>
<path d="M418.082 193.037C416.64 191.375 415.313 189.613 414.111 187.764" stroke="#263238" stroke-linecap="round" stroke-linejoin="round"/>
<path d="M409.287 195.674L416.012 190.453" stroke="#263238" stroke-linecap="round" stroke-linejoin="round"/>
<path d="M406.495 191.573C405.12 189.334 403.901 186.999 402.848 184.586" stroke="#263238" stroke-linecap="round" stroke-linejoin="round"/>
<path d="M413.644 186.999C412.484 185.106 411.456 183.132 410.566 181.093" stroke="#263238" stroke-linecap="round" stroke-linejoin="round"/>
<path d="M404.555 188.146L412.017 184.099" stroke="#263238" stroke-linecap="round" stroke-linejoin="round"/>
<path d="M402.432 183.651C401.439 181.21 400.609 178.704 399.949 176.149" stroke="#263238" stroke-linecap="round" stroke-linejoin="round"/>
<path d="M410.218 180.302C409.379 178.239 408.679 176.121 408.123 173.961" stroke="#263238" stroke-linecap="round" stroke-linejoin="round"/>
<path d="M401.074 179.946L409.066 177.164" stroke="#263238" stroke-linecap="round" stroke-linejoin="round"/>
<path d="M399.742 175.161C399.137 172.593 398.705 169.985 398.449 167.356" stroke="#263238" stroke-linecap="round" stroke-linejoin="round"/>
<path d="M407.904 173.117C407.396 170.947 407.029 168.745 406.805 166.525" stroke="#263238" stroke-linecap="round" stroke-linejoin="round"/>
<path d="M398.916 171.284L407.244 169.834" stroke="#263238" stroke-linecap="round" stroke-linejoin="round"/>
<path d="M453.023 128.4C457.695 128.46 462.301 129.53 466.537 131.541C470.772 133.551 474.54 136.457 477.59 140.064C480.641 143.671 482.905 147.898 484.232 152.465C485.56 157.031 485.92 161.833 485.289 166.552" stroke="#263238" stroke-width="2" stroke-miterlimit="10"/>
<path d="M421.869 149.928C424.289 143.53 428.571 138.039 434.139 134.191C439.707 130.344 446.296 128.323 453.023 128.401" stroke="#F9C09B" stroke-width="5" stroke-miterlimit="10"/>
<path d="M458.573 195.041C452.814 196.115 446.878 195.606 441.376 193.567C435.874 191.528 431.004 188.031 427.266 183.438C423.529 178.844 421.059 173.318 420.111 167.429C419.163 161.54 419.77 155.499 421.871 149.929" stroke="#263238" stroke-width="2" stroke-miterlimit="10"/>
<path d="M485.29 166.552C484.345 173.563 481.254 180.091 476.457 185.206C471.659 190.321 465.4 193.763 458.572 195.04" stroke="#F9C09B" stroke-width="5" stroke-miterlimit="10"/>
<path d="M178.059 362.597H204.014V346.329H188.948L187.422 342.348H178.059V362.597Z" fill="#F9C09B" stroke="#263238" stroke-miterlimit="10"/>
<path d="M178.059 388.883H204.014V372.616H188.948L187.422 368.647H178.059V388.883Z" fill="#F9C09B" stroke="#263238" stroke-miterlimit="10"/>
<path d="M178.059 415.171H204.014V398.903H188.948L187.422 394.935H178.059V415.171Z" fill="#263238" stroke="#263238" stroke-miterlimit="10"/>
<path d="M219.441 362.597H245.396V346.329H230.33L228.804 342.348H219.441V362.597Z" fill="#F9C09B" stroke="#263238" stroke-miterlimit="10"/>
<path d="M219.441 388.883H245.396V372.616H230.33L228.804 368.647H219.441V388.883Z" fill="#263238" stroke="#263238" stroke-miterlimit="10"/>
<path d="M219.441 415.171H245.396V398.903H230.33L228.804 394.935H219.441V415.171Z" fill="#F9C09B" stroke="#263238" stroke-miterlimit="10"/>
<path d="M178.059 31.7032H204.014V15.4354H188.948L187.422 11.4541H178.059V31.7032Z" fill="#F9C09B" stroke="#263238" stroke-miterlimit="10"/>
<path d="M178.059 57.9898H204.014V41.722H188.948L187.422 37.7539H178.059V57.9898Z" fill="#F9C09B" stroke="#263238" stroke-miterlimit="10"/>
<path d="M178.059 84.277H204.014V68.0091H188.948L187.422 64.041H178.059V84.277Z" fill="#F9C09B" stroke="#263238" stroke-miterlimit="10"/>
<path d="M219.441 31.7032H245.396V15.4354H230.33L228.804 11.4541H219.441V31.7032Z" fill="#263238" stroke="#263238" stroke-miterlimit="10"/>
<path d="M219.441 57.9898H245.396V41.722H230.33L228.804 37.7539H219.441V57.9898Z" fill="#F9C09B" stroke="#263238" stroke-miterlimit="10"/>
<path d="M219.441 84.277H245.396V68.0091H230.33L228.804 64.041H219.441V84.277Z" fill="#263238" stroke="#263238" stroke-miterlimit="10"/>
<path d="M364.916 497.999C404.199 497.999 436.044 492.982 436.044 486.793C436.044 480.605 404.199 475.588 364.916 475.588C325.634 475.588 293.789 480.605 293.789 486.793C293.789 492.982 325.634 497.999 364.916 497.999Z" fill="#263238"/>
<path d="M351.699 471.383C351.699 471.383 338.12 480.281 330.684 481.929C323.248 483.577 320.985 485.884 327.128 488.85C333.271 491.817 352.022 492.805 360.752 490.828C369.481 488.85 372.714 491.487 373.684 487.532C374.403 483.82 374.292 479.99 373.361 476.327C372.714 473.36 356.872 468.746 351.699 471.383Z" fill="white" stroke="#263238" stroke-linecap="round" stroke-linejoin="round"/>
<path d="M333.918 293.412C333.918 293.412 335.534 319.119 340.061 339.223C344.587 359.327 346.85 386.352 349.113 401.183C351.376 416.014 352.993 440.403 353.316 451.279C353.64 462.155 354.286 465.45 353.64 466.439C352.993 467.428 351.376 467.757 351.376 469.076C351.376 470.394 351.053 473.36 351.053 473.36C351.053 473.36 353.963 475.997 361.722 478.963C369.482 481.929 374.655 483.577 374.655 483.577C376.981 481.299 378.465 478.272 378.858 475.008C379.827 469.076 376.918 462.155 376.918 458.2C376.918 454.245 385.324 419.639 382.414 405.468C379.504 391.296 373.685 375.147 373.685 366.578C373.685 358.009 376.918 332.631 376.918 332.631C376.918 332.631 385.324 318.46 385.647 308.243C385.847 302.199 385.739 296.149 385.324 290.116C385.324 290.116 347.174 295.719 333.918 293.412Z" fill="#263238" stroke="#263238" stroke-linecap="round" stroke-linejoin="round"/>
<path d="M340.578 201.646C337.631 209.838 336.032 218.47 335.845 227.194C335.845 240.443 333.957 269.129 332.056 281.653C330.155 294.177 328.758 294.915 332.056 296.84C335.354 298.765 345.066 300.94 359.485 299.978C373.905 299.015 389.229 294.19 389.992 292.068C390.755 289.945 390.225 287.006 389.514 284.158C388.802 281.311 392.1 250.897 385.026 225.599C377.952 200.301 372.96 187.513 369.65 184.139L366.339 180.764L340.578 201.646Z" fill="#F9C09B" stroke="#263238" stroke-linecap="round" stroke-linejoin="round"/>
<path d="M318.347 137.522C318.347 137.522 317.881 146.447 319.058 149.585C320.235 152.722 320.713 156.321 319.537 158.734C318.36 161.146 315.98 164.007 317.635 165.484C318.728 166.416 319.916 167.225 321.179 167.896C321.179 167.896 325.912 176.571 328.279 181.396C330.645 186.221 331.822 187.42 334.189 186.458C335.909 185.713 337.57 184.832 339.155 183.821C339.155 183.821 345.776 191.533 346.72 193.458C347.57 194.88 348.696 196.11 350.031 197.07L366.118 179.22C363.343 176.069 361.39 172.256 360.441 168.133C358.786 161.146 358.32 160.224 359.976 157.046C361.631 153.869 364.942 153.672 363.041 145.96C361.14 138.248 363.752 135.835 356.898 131.023C350.044 126.211 337.034 125.473 333.258 125.473C330.216 125.388 327.229 126.314 324.748 128.11C322.834 129.573 318.347 137.522 318.347 137.522Z" fill="white" stroke="#263238" stroke-linecap="round" stroke-linejoin="round"/>
<path d="M333.711 119.699C333.711 119.699 316.692 125.236 314.313 127.412C311.933 129.587 317.869 142.836 317.869 142.836L329.689 135.835L324.736 141.913C324.736 141.913 322.15 142.625 331.357 142.15C340.565 141.676 345.066 138.288 345.066 138.288C345.066 138.288 339.156 145.037 339.634 146.962C340.113 148.887 343.41 152.024 344.354 153.474C345.298 154.925 346.721 153 346.721 153C346.721 153 348.144 159.024 348.609 157.574C349.059 155.426 349.374 153.251 349.553 151.062C349.553 151.062 351.687 146.25 354.726 147.45C357.765 148.649 359.446 156.361 357.313 159.987C355.978 162.168 353.855 163.726 351.402 164.324C351.402 164.324 356.368 169.861 357.778 168.661C359.188 167.462 359.679 165.049 360.623 163.836C361.567 162.623 373.387 152.275 374.849 144.8C376.31 137.325 365.628 119.251 357.351 117.564C349.075 115.876 333.711 119.699 333.711 119.699Z" fill="#263238" stroke="#263238" stroke-linecap="round" stroke-linejoin="round"/>
<path d="M319.627 150.877L321.554 158.787C321.646 159.207 321.865 159.586 322.181 159.87C322.497 160.154 322.893 160.329 323.313 160.369C325.473 160.567 329.417 160.765 329.934 159.723C330.646 158.286 329.702 148.887 328.512 147.437C327.063 145.657 323.766 147.081 322.162 147.858C321.513 148.227 320.887 148.637 320.287 149.084C320.02 149.287 319.815 149.564 319.698 149.882C319.581 150.2 319.557 150.545 319.627 150.877Z" fill="white" stroke="#263238" stroke-linecap="round" stroke-linejoin="round"/>
<path d="M330.168 151.26L349.799 149.335L330.258 153.435L330.168 151.26Z" fill="#263238" stroke="#263238" stroke-linecap="round" stroke-linejoin="round"/>
<path d="M350.265 164.324C350.265 164.324 353.11 172.761 351.209 175.161C349.308 177.56 343.178 181.436 343.178 181.436" fill="white"/>
<path d="M350.265 164.324C350.265 164.324 353.11 172.761 351.209 175.161C349.308 177.56 343.178 181.436 343.178 181.436" stroke="#263238" stroke-linecap="round" stroke-linejoin="round"/>
<path d="M366.119 174.409C366.119 174.409 335.858 202.608 336.569 203.333C337.28 204.058 342.673 212.429 342.673 212.429C346.809 206.138 351.269 200.074 356.032 194.263C361.019 188.89 366.281 183.79 371.796 178.984L366.119 174.409Z" fill="#263238" stroke="#263238" stroke-linecap="round" stroke-linejoin="round"/>
<path d="M294.992 250.079C294.992 250.079 286.483 250.079 284.827 252.017C283.172 253.955 287.66 255.866 289.315 256.104C291.386 256.094 293.45 255.855 295.471 255.392L294.992 250.079Z" fill="white" stroke="#263238" stroke-linecap="round" stroke-linejoin="round"/>
<path d="M298.729 247.918C298.729 247.918 294.94 246.467 293.996 249.605C293.052 252.743 295.418 262.129 296.828 262.379C298.237 262.63 298.962 261.654 298.962 258.767C298.962 255.88 298.729 247.918 298.729 247.918Z" fill="white" stroke="#263238" stroke-linecap="round" stroke-linejoin="round"/>
<path d="M305.338 247.377C305.338 247.377 300.372 244.49 298.471 246.652C296.57 248.814 298.717 261.601 298.717 261.601C300.126 262.327 302.493 253.889 304.627 251.24C305.591 250.115 306.456 248.906 307.213 247.627L305.338 247.377Z" fill="white" stroke="#263238" stroke-linecap="round" stroke-linejoin="round"/>
<path d="M336.077 247.68C336.077 247.68 323.791 259.242 321.657 259.242C319.523 259.242 310.781 248.88 308.66 247.68C306.539 246.48 303.694 253.217 302.983 255.392C302.447 257.765 302.131 260.183 302.039 262.616C302.182 262.81 302.371 262.963 302.589 263.06C302.806 263.158 303.045 263.196 303.281 263.173C303.518 263.149 303.744 263.063 303.939 262.924C304.134 262.785 304.29 262.598 304.393 262.379C305.868 259.816 307.211 257.176 308.415 254.469L309.837 256.407" fill="white"/>
<path d="M336.077 247.68C336.077 247.68 323.791 259.242 321.657 259.242C319.523 259.242 310.781 248.88 308.66 247.68C306.539 246.48 303.694 253.217 302.983 255.392C302.447 257.765 302.131 260.183 302.039 262.616C302.182 262.81 302.371 262.963 302.589 263.06C302.806 263.158 303.045 263.196 303.281 263.173C303.518 263.149 303.744 263.063 303.939 262.924C304.134 262.785 304.29 262.598 304.393 262.379C305.868 259.816 307.211 257.176 308.415 254.469L309.837 256.407" stroke="#263238" stroke-linecap="round" stroke-linejoin="round"/>
<path d="M316.459 255.867C316.459 255.867 309.126 257.08 307.949 259.242C306.772 261.404 306.527 261.655 309.126 261.879C311.725 262.103 317.881 262.841 318.825 261.641C319.769 260.442 317.403 256.104 316.459 255.867Z" fill="white" stroke="#263238" stroke-linecap="round" stroke-linejoin="round"/>
<path d="M273.899 270.566L244.582 205.257L262.545 206.219L287.853 267.441L273.899 270.566Z" fill="#7D7D7D" stroke="#263238" stroke-linecap="round" stroke-linejoin="round"/>
<path d="M286.197 262.853L273.188 268.641H344.354L334.667 262.379L286.197 262.853Z" fill="#7D7D7D" stroke="#263238" stroke-linecap="round" stroke-linejoin="round"/>
<path d="M363.274 201.157C363.274 201.157 354.287 202.845 352.864 211.044C351.441 219.244 355.45 250.594 355.45 251.292V257.08C355.45 258.517 361.128 258.042 367.749 261.166C374.37 264.291 378.392 269.366 378.392 265.504C378.392 261.641 377.448 215.408 377.448 215.408" fill="#F9C09B"/>
<path d="M363.274 201.157C363.274 201.157 354.287 202.845 352.864 211.044C351.441 219.244 355.45 250.594 355.45 251.292V257.08C355.45 258.517 361.128 258.042 367.749 261.166C374.37 264.291 378.392 269.366 378.392 265.504C378.392 261.641 377.448 215.408 377.448 215.408" stroke="#263238" stroke-linecap="round" stroke-linejoin="round"/>
<path d="M377.926 233.931L381.715 220.682" stroke="#263238" stroke-linecap="round" stroke-linejoin="round"/>
<path d="M350.975 253.217L352.151 263.579C352.151 263.579 377.925 279.003 378.637 278.528C379.348 278.054 380.059 276.59 380.059 274.191C380.059 271.792 383.835 259.241 379.348 256.354C374.86 253.467 358.359 252.979 358.359 252.979C358.359 252.979 353.574 252.017 350.975 253.217Z" fill="#263238" stroke="#263238" stroke-linecap="round" stroke-linejoin="round"/>
<path d="M354.053 263.104C354.053 263.104 329.701 272.016 313.859 272.979C298.017 273.941 296.129 272.979 296.129 272.979C296.129 272.979 294.707 267.191 292.34 265.754C289.974 264.317 282.408 265.504 280.986 264.541C279.563 263.579 279.576 260.455 278.632 259.479C277.688 258.504 273.459 259.005 273.459 259.005C273.459 259.005 271.338 260.204 271.338 261.892C271.338 263.579 269.916 274.429 271.804 275.391C273.692 276.353 298.289 281.178 307.51 281.178C316.73 281.178 343.927 283.815 357.868 281.653C371.809 279.491 377.021 277.804 376.555 273.941C376.089 270.078 358.54 262.129 354.053 263.104Z" fill="white" stroke="#263238" stroke-linecap="round" stroke-linejoin="round"/>
<path d="M272.244 260.455L272.723 273.216" stroke="#263238" stroke-linecap="round" stroke-linejoin="round"/>
<path d="M276.033 259.242L276.732 271.779" stroke="#263238" stroke-linecap="round" stroke-linejoin="round"/>
<path d="M280.987 264.516C280.987 264.516 280.043 267.416 281.698 268.616C283.353 269.815 289.742 270.791 289.742 270.791" fill="white"/>
<path d="M280.987 264.516C280.987 264.516 280.043 267.416 281.698 268.616C283.353 269.815 289.742 270.791 289.742 270.791" stroke="#263238" stroke-linecap="round" stroke-linejoin="round"/>
<path d="M351.454 229.118H340.1V248.154H351.454V229.118Z" fill="white" stroke="#263238" stroke-linecap="round" stroke-linejoin="round"/>
</svg>