<svg width="523" height="506" viewBox="0 0 523 506" fill="none" xmlns="http://www.w3.org/2000/svg">
<path d="M357.188 399.622H351.9V421.151H357.188V399.622Z" fill="#263238"/>
<path d="M358.111 399.622V405.513H362.245V415.249H358.111V421.151H368.514V399.622H358.111Z" fill="#263238"/>
<path d="M360.779 406.407H351.9V414.364H360.779V406.407Z" fill="#263238"/>
<path d="M373.801 399.622H368.514V421.151H373.801V399.622Z" fill="#263238"/>
<path d="M374.725 399.622V405.513H378.869V415.249H374.725V421.151H385.138V399.622H374.725Z" fill="#263238"/>
<path d="M377.392 406.407H368.514V414.364H377.392V406.407Z" fill="#263238"/>
<path d="M390.426 399.622H385.139V421.151H390.426V399.622Z" fill="#263238"/>
<path d="M391.35 399.622V405.513H395.483V415.249H391.35V421.151H401.763V399.622H391.35Z" fill="#263238"/>
<path d="M394.017 406.407H385.139V414.364H394.017V406.407Z" fill="#263238"/>
<path d="M407.051 399.622H401.764V421.151H407.051V399.622Z" fill="#263238"/>
<path d="M407.975 399.622V405.513H412.108V415.249H407.975V421.151H418.377V399.622H407.975Z" fill="#263238"/>
<path d="M410.642 406.407H401.764V414.364H410.642V406.407Z" fill="#263238"/>
<path d="M423.665 399.622H418.377V421.151H423.665V399.622Z" fill="#263238"/>
<path d="M424.59 399.622V405.513H428.723V415.249H424.59V421.151H435.004V399.622H424.59Z" fill="#263238"/>
<path d="M427.255 406.407H418.377V414.364H427.255V406.407Z" fill="#263238"/>
<path d="M440.292 399.622H435.004V421.151H440.292V399.622Z" fill="#263238"/>
<path d="M441.215 399.622V405.513H445.348V415.249H441.215V421.151H451.629V399.622H441.215Z" fill="#263238"/>
<path d="M443.882 406.407H435.004V414.364H443.882V406.407Z" fill="#263238"/>
<path d="M456.905 399.622H451.617V421.151H456.905V399.622Z" fill="#263238"/>
<path d="M457.828 399.622V405.513H461.973V415.249H457.828V421.151H468.242V399.622H457.828Z" fill="#263238"/>
<path d="M460.495 406.407H451.617V414.364H460.495V406.407Z" fill="#263238"/>
<path d="M474.973 420.786C473.776 420.954 472.569 421.05 471.359 421.074L469.57 421.151H468.242V399.622H469.57L470.413 399.567C470.966 399.568 471.518 399.524 472.064 399.435L474.973 420.786Z" fill="#263238"/>
<path d="M472.629 399.356L473.61 405.169C474.742 405.003 475.861 404.763 476.958 404.45L479.96 413.767C478.409 414.198 476.832 414.538 475.238 414.784L476.219 420.608C480.942 419.885 485.5 418.389 489.693 416.187L478.736 397.399C476.829 398.373 474.764 399.034 472.629 399.356Z" fill="#263238"/>
<path d="M478.067 413.314C476.434 413.71 474.776 414.001 473.103 414.187C471.452 414.276 469.639 414.397 468.242 414.364V406.407C469.812 406.407 470.944 406.319 472.26 406.274C473.524 406.131 474.778 405.91 476.012 405.611L478.067 413.314Z" fill="#263238"/>
<path d="M495.696 412.253C494.738 412.96 493.768 413.656 492.787 414.331C491.806 415.005 490.732 415.557 489.693 416.154L478.736 397.366L480.156 396.537C480.595 396.217 481.034 395.896 481.484 395.587L495.696 412.253Z" fill="#263238"/>
<path d="M481.912 395.2L485.953 399.621L487.223 398.516L488.377 397.3L496.02 403.71C495.478 404.285 494.947 404.815 494.393 405.423L492.603 406.981L496.644 411.402C500.26 408.418 503.3 404.849 505.626 400.859L485.999 390.315C484.959 392.168 483.574 393.824 481.912 395.2Z" fill="#263238"/>
<path d="M494.208 404.34C491.855 406.649 489.173 408.629 486.242 410.22L482.189 403.268C484.412 402.073 486.449 400.585 488.239 398.848L494.208 404.34Z" fill="#263238"/>
<path d="M508.615 394.57C507.822 396.769 506.825 398.896 505.637 400.925L486.01 390.382C486.538 389.457 486.986 388.492 487.349 387.497L508.615 394.57Z" fill="#263238"/>
<path d="M487.568 386.988L493.445 388.757L493.884 387.165L494.091 386.37L494.218 385.552L504.251 387.154L504.067 388.259L503.778 389.365C503.57 390.105 503.374 390.856 503.154 391.575L509.031 393.332C509.366 392.227 509.654 391.122 509.943 390.017C510.232 388.911 510.359 387.806 510.543 386.646C510.724 385.519 510.824 384.382 510.844 383.242L510.924 381.54V380.357H488.434V381.584L488.377 382.369C488.381 382.891 488.338 383.412 488.25 383.927C488.134 384.435 488.123 384.966 487.972 385.463C487.822 385.961 487.707 386.491 487.568 386.988Z" fill="#263238"/>
<path d="M503.038 388.581C502.297 391.734 501.092 394.77 499.459 397.599L492.209 393.709C493.442 391.569 494.351 389.273 494.911 386.89L503.038 388.581Z" fill="#263238"/>
<path d="M510.924 375.308H488.434V380.369H510.924V375.308Z" fill="#263238"/>
<path d="M488.434 374.435H494.587V370.479H504.77V374.435H510.924V364.467H488.434V374.435Z" fill="#263238"/>
<path d="M503.836 371.882H495.523V380.381H503.836V371.882Z" fill="#263238"/>
<path d="M510.74 358.442C510.82 359.548 510.878 360.752 510.924 361.902V364.466H488.434V361.968C488.434 361.437 488.353 360.863 488.342 360.365L510.74 358.442Z" fill="#263238"/>
<path d="M488.296 359.825L494.415 359.118L494.149 357.493C494.08 356.951 493.884 356.388 493.757 355.89L503.593 353.404C503.778 354.155 504.032 354.896 504.148 355.614L504.517 357.902L510.624 357.195C510.076 352.642 508.676 348.221 506.491 344.143L486.414 353.868C487.424 355.724 488.062 357.744 488.296 359.825Z" fill="#263238"/>
<path d="M503.085 355.183C503.259 355.978 503.351 356.774 503.49 357.57C503.49 357.968 503.628 358.365 503.663 358.774L503.732 359.979C503.732 360.764 503.836 361.626 503.836 362.344V364.466H495.523V362.344C495.523 361.648 495.466 361.095 495.442 360.465V359.548C495.442 359.25 495.35 358.951 495.304 358.642C495.188 358.045 495.131 357.437 494.992 356.84L503.085 355.183Z" fill="#263238"/>
<path d="M502.636 338.295L503.71 339.687C504.068 340.163 504.356 340.671 504.679 341.157C505.338 342.132 505.936 343.143 506.469 344.185L486.392 353.911C486.161 353.431 485.891 352.969 485.584 352.529C485.434 352.308 485.318 352.065 485.156 351.855L484.648 351.225L502.636 338.295Z" fill="#263238"/>
<path d="M484.314 350.785L489.116 347.094C488.754 346.663 488.368 346.249 487.962 345.856C487.612 345.435 487.226 345.043 486.807 344.684L493.815 337.622C494.415 338.135 494.978 338.685 495.501 339.269C496.059 339.825 496.587 340.408 497.083 341.015L501.897 337.335C498.91 333.774 495.305 330.731 491.241 328.339L479.453 346.674C481.304 347.771 482.948 349.161 484.314 350.785Z" fill="#263238"/>
<path d="M494.333 339.39C496.658 341.721 498.604 344.374 500.106 347.258L492.694 350.839C491.547 348.654 490.065 346.646 488.295 344.882L494.333 339.39Z" fill="#263238"/>
<path d="M484.716 325.222C485.852 325.632 486.962 326.104 488.041 326.636C489.134 327.143 490.194 327.711 491.216 328.338L479.428 346.673C478.971 346.377 478.488 346.118 477.985 345.899C477.503 345.65 477.001 345.435 476.484 345.258L484.716 325.222Z" fill="#263238"/>
<path d="M475.943 345.07L478.021 339.545C476.947 339.167 475.848 338.861 474.73 338.627L476.808 329.09C478.374 329.424 479.917 329.852 481.427 330.372L483.505 324.846C479.015 323.316 474.288 322.524 469.523 322.503V344.032C471.708 344.037 473.877 344.388 475.943 345.07Z" fill="#263238"/>
<path d="M478.24 330.339C481.514 331.107 484.634 332.384 487.476 334.119L483.123 340.893C482.037 340.251 480.907 339.678 479.74 339.18C478.559 338.735 477.348 338.365 476.115 338.075L478.24 330.339Z" fill="#263238"/>
<path d="M466.256 322.149C466.798 322.205 467.341 322.337 467.895 322.37C468.449 322.404 469.05 322.37 469.558 322.459V343.988C468.403 343.988 467.145 343.888 465.944 343.811C464.743 343.733 463.543 343.512 462.342 343.347L466.256 322.149Z" fill="#263238"/>
<path d="M461.06 343.125L462.318 337.356C460.751 337.027 459.208 336.599 457.7 336.074L461.164 326.912C462.239 327.285 463.338 327.591 464.454 327.829L465.724 322.06C463.6 321.625 461.572 320.835 459.732 319.729L447.887 338.03C451.934 340.45 456.392 342.174 461.06 343.125Z" fill="#263238"/>
<path d="M462.007 328.162C464.459 328.84 466.993 329.211 469.546 329.267V337.213C466.172 337.172 462.821 336.692 459.582 335.788L462.007 328.162Z" fill="#263238"/>
<path d="M457.054 317.829L457.666 318.371L458.336 318.835L458.994 319.321C459.213 319.476 459.467 319.597 459.698 319.73L447.887 338.032C447.368 337.722 446.848 337.435 446.352 337.103L444.886 336.064L443.442 335.014C442.981 334.65 442.53 334.252 442.08 333.909L457.054 317.829Z" fill="#263238"/>
<path d="M441.111 333.046L445.36 328.78C444.761 328.263 444.197 327.71 443.674 327.122C443.111 326.571 442.582 325.988 442.092 325.376L450.059 319.309C450.415 319.745 450.801 320.159 451.213 320.547C451.566 320.968 451.952 321.364 452.368 321.729L456.616 317.463C455.044 316.02 453.74 314.33 452.76 312.468L432.648 322.105C434.789 326.192 437.652 329.894 441.111 333.046Z" fill="#263238"/>
<path d="M450.197 320.791C451.859 322.632 453.806 324.22 455.969 325.499L451.594 332.263C448.719 330.574 446.13 328.476 443.916 326.041L450.197 320.791Z" fill="#263238"/>
<path d="M451.547 309.539C451.868 310.547 452.277 311.526 452.771 312.468L432.659 322.105C431.573 320.028 430.676 317.865 429.98 315.64L451.547 309.539Z" fill="#263238"/>
<path d="M429.657 314.468L435.614 312.976C435.391 312.249 435.206 311.511 435.06 310.766L434.702 308.467L444.804 307.362L445.058 308.998C445.127 309.539 445.335 310.103 445.451 310.589L451.408 309.097C451.252 308.602 451.136 308.096 451.062 307.583C450.963 307.071 450.894 306.555 450.854 306.036C450.854 305.494 450.796 305.019 450.761 304.433V301.892H428.26V304.378C428.26 305.483 428.352 306.589 428.421 307.76C428.491 308.932 428.722 310.026 428.883 311.153C429.067 312.273 429.325 313.38 429.657 314.468Z" fill="#263238"/>
<path d="M444.066 308.577C444.47 310.992 445.269 313.33 446.433 315.507L438.998 319.065C437.47 316.183 436.415 313.093 435.869 309.903L444.066 308.577Z" fill="#263238"/>
<path d="M450.762 296.798H428.271V301.859H450.762V296.798Z" fill="#263238"/>
<path d="M428.271 295.913H434.425V291.956H444.608V295.913H450.762V285.944H428.271V295.913Z" fill="#263238"/>
<path d="M443.674 293.359H435.361V301.858H443.674V293.359Z" fill="#263238"/>
<path d="M450.762 280.882H428.271V285.944H450.762V280.882Z" fill="#263238"/>
<path d="M428.271 280.011H434.425V276.043H444.608V280.011H450.762V270.042H428.271V280.011Z" fill="#263238"/>
<path d="M443.674 277.445H435.361V285.944H443.674V277.445Z" fill="#263238"/>
<path d="M438.351 265.001L415.572 242.08V210.207" stroke="#263238" stroke-width="9" stroke-linecap="round" stroke-linejoin="round"/>
<path d="M439.955 265.001L462.734 242.08V210.207" stroke="#263238" stroke-width="9" stroke-linecap="round" stroke-linejoin="round"/>
<path d="M443.401 281.531C452.636 280.103 458.912 271.779 457.419 262.939C455.927 254.1 447.232 248.092 437.997 249.521C428.763 250.949 422.487 259.273 423.979 268.113C425.472 276.952 434.167 282.96 443.401 281.531Z" fill="#263238" stroke="#263238" stroke-miterlimit="10"/>
<path d="M449.671 269.133C451.743 264.372 449.391 258.904 444.418 256.921C439.444 254.937 433.733 257.188 431.66 261.949C429.588 266.71 431.94 272.177 436.914 274.161C441.887 276.145 447.599 273.894 449.671 269.133Z" fill="white" stroke="#263238" stroke-miterlimit="10"/>
<path d="M207.18 395.709H201.881V417.238H207.18V395.709Z" fill="#263238"/>
<path d="M200.968 417.238V411.336H196.812V401.6H200.968V395.709H190.531V417.238H200.968Z" fill="#263238"/>
<path d="M207.192 402.495H198.291V410.452H207.192V402.495Z" fill="#263238"/>
<path d="M186.457 395.488C187.115 395.577 187.797 395.555 188.466 395.61H189.459H189.967H190.533V417.138H189.771H188.951L187.3 417.061C186.203 416.995 185.107 416.984 184.01 416.851L186.457 395.488Z" fill="#263238"/>
<path d="M182.878 416.729L183.674 410.893L181.365 410.551C180.585 410.469 179.813 410.328 179.056 410.131L181.285 400.626C181.879 400.785 182.485 400.9 183.097 400.969L184.91 401.234L185.706 395.388C184.409 395.242 183.124 395.005 181.862 394.681L179.957 394.228L178.121 393.564L170.201 413.723L173.261 414.773L176.413 415.568C178.536 416.101 180.697 416.489 182.878 416.729Z" fill="#263238"/>
<path d="M182.463 401.765C183.791 401.93 185.118 402.196 186.458 402.306L190.533 402.494V410.451C188.963 410.451 187.312 410.308 185.707 410.23C184.102 410.153 182.509 409.799 180.904 409.578L182.463 401.765Z" fill="#263238"/>
<path d="M174.542 392.029C175.718 392.641 176.937 393.173 178.19 393.621L170.27 413.779C168.197 413.052 166.176 412.195 164.221 411.215L174.542 392.029Z" fill="#263238"/>
<path d="M163.192 410.672L166.125 405.489L162.188 403.201L167.833 395.1L170.974 396.935L173.918 391.752L172.244 390.768C171.67 390.466 171.118 390.126 170.593 389.751C169.517 389.032 168.491 388.245 167.522 387.397L152.594 403.5C154.206 404.887 155.903 406.182 157.674 407.379C158.555 407.994 159.468 408.565 160.41 409.092L163.192 410.672Z" fill="#263238"/>
<path d="M168.492 396.505L170.212 397.511C170.789 397.864 171.367 398.085 172.025 398.384L173.837 399.224C174.449 399.511 175.096 399.688 175.731 399.92L172.798 407.369C172.048 407.081 171.263 406.86 170.489 406.529L168.307 405.523C167.58 405.169 166.818 404.882 166.137 404.473L164.059 403.269L168.492 396.505Z" fill="#263238"/>
<path d="M164.693 384.702L166.032 386.117L167.522 387.399L152.594 403.501L150.158 401.357C149.396 400.594 148.657 399.81 147.918 399.036L164.693 384.702Z" fill="#263238"/>
<path d="M147.146 398.229L151.822 394.394C151.299 393.853 150.814 393.281 150.367 392.681L148.993 390.913L157.283 385.265L158.437 386.68C158.783 387.166 159.169 387.624 159.592 388.05L164.267 384.215C163.818 383.754 163.409 383.259 163.044 382.734L161.889 381.242L160.873 379.629C160.51 379.106 160.186 378.56 159.903 377.993L139.953 387.94C140.44 388.867 140.976 389.771 141.558 390.647L143.267 393.311L145.206 395.808C145.804 396.65 146.452 397.458 147.146 398.229Z" fill="#263238"/>
<path d="M157.328 386.812C157.744 387.32 158.102 387.917 158.564 388.337L159.926 389.773C160.361 390.265 160.823 390.734 161.311 391.177L162.812 392.481L157.294 398.427L155.504 396.869C154.892 396.36 154.35 395.763 153.83 395.178L152.202 393.465C151.648 392.89 151.209 392.238 150.713 391.63L157.328 386.812Z" fill="#263238"/>
<path d="M158.206 374.512C158.663 375.705 159.203 376.868 159.822 377.993L139.872 387.939C138.853 386.067 137.955 384.137 137.182 382.159L158.206 374.512Z" fill="#263238"/>
<path d="M136.79 381.133L142.563 379.143C142.297 378.447 142.008 377.762 141.789 377.066L141.212 374.922L151.071 372.501L151.522 374.214C151.695 374.778 151.937 375.319 152.134 375.872L157.906 373.894C157.019 371.536 156.415 369.088 156.105 366.6L133.857 369.02C134.348 373.152 135.332 377.216 136.79 381.133Z" fill="#263238"/>
<path d="M150.529 373.971C150.691 374.596 150.899 375.209 151.152 375.805L151.845 377.618C152.071 378.224 152.341 378.815 152.653 379.386L153.53 381.132L146.164 384.779L145.114 382.679C144.737 381.994 144.409 381.285 144.132 380.557L143.301 378.347C142.999 377.627 142.749 376.889 142.551 376.137L150.529 373.971Z" fill="#263238"/>
<path d="M155.932 362.742L156.047 364.687C156.105 365.317 156.047 365.969 156.174 366.599L133.857 369.02C133.615 366.931 133.569 364.787 133.465 362.742H155.932Z" fill="#263238"/>
<path d="M133.442 361.858H139.607V357.89H149.778V361.858H155.943V356.863L155.932 354.343L155.782 351.237L133.326 352.508L133.442 354.387V356.863V361.858Z" fill="#263238"/>
<path d="M148.865 359.295V361.428C148.865 362.135 148.865 362.875 148.865 363.494C148.969 364.787 148.958 366.08 149.119 367.362L140.865 368.257C140.668 366.721 140.657 365.163 140.564 363.616C140.564 362.82 140.564 362.146 140.564 361.405V359.272L148.865 359.295Z" fill="#263238"/>
<path d="M155.019 344.993C155.422 347.067 155.677 349.164 155.781 351.27L133.325 352.541C133.274 351.265 133.124 349.994 132.875 348.74L155.019 344.993Z" fill="#263238"/>
<path d="M132.782 348.054L138.821 346.949C138.567 345.844 138.209 344.672 137.932 343.534L147.687 340.782C148.057 342.208 148.484 343.622 148.842 345.059L154.892 343.954C154.684 342.937 154.384 341.931 154.118 340.926C153.853 339.92 153.61 338.903 153.252 337.92L152.098 334.991L151.52 333.521C151.324 333.046 151.07 332.582 150.839 332.106L130.393 340.926C130.531 341.213 130.693 341.489 130.82 341.777L131.143 342.661L131.824 344.418C132.055 345.004 132.159 345.634 132.332 346.23C132.505 346.827 132.702 347.435 132.782 348.054Z" fill="#263238"/>
<path d="M147.192 342.473L147.792 344.683C147.954 345.446 148.058 346.208 148.185 346.982L148.543 349.28C148.646 350.043 148.646 350.817 148.704 351.59L140.403 352.065C140.403 351.413 140.403 350.772 140.288 350.131L139.976 348.308C139.861 347.667 139.791 347.026 139.664 346.396L139.156 344.517L147.192 342.473Z" fill="#263238"/>
<path d="M147.712 326.438C148.254 327.355 148.866 328.217 149.363 329.178L150.794 332.03L130.394 340.926L129.54 339.213C129.234 338.645 128.899 338.092 128.535 337.555L147.712 326.438Z" fill="#263238"/>
<path d="M128.141 336.992L133.348 333.842C132.71 332.838 132.004 331.874 131.235 330.957L139.317 325.034C140.275 326.183 141.154 327.39 141.949 328.648L147.156 325.498L146.302 324.172C146.002 323.741 145.667 323.332 145.344 322.912L143.404 320.425C142.769 319.585 141.984 318.856 141.268 318.082C140.552 317.309 139.825 316.524 139.052 315.806L123.246 331.112C123.708 331.554 124.124 332.052 124.574 332.505C125.035 332.95 125.467 333.422 125.867 333.919L127.021 335.433C127.218 335.688 127.425 335.92 127.61 336.185L128.141 336.992Z" fill="#263238"/>
<path d="M139.537 326.802C141.425 329.321 143.049 332.012 144.386 334.836L136.824 338.152C135.707 335.799 134.353 333.557 132.783 331.454L139.537 326.802Z" fill="#263238"/>
<path d="M134.075 311.65C134.514 311.971 134.964 312.28 135.391 312.612L136.615 313.717L139.051 315.85L123.246 331.157L121.756 329.875L121.017 329.223C120.763 329.024 120.486 328.847 120.221 328.648L134.075 311.65Z" fill="#263238"/>
<path d="M119.668 328.217L123.363 323.498L121.885 322.393C121.377 322.062 120.846 321.774 120.326 321.465L125.66 313.176C126.318 313.563 126.988 313.928 127.623 314.348L129.47 315.663L133.164 310.944C132.287 310.336 131.444 309.684 130.532 309.12L127.761 307.496L126.364 306.7C125.891 306.446 125.394 306.236 124.91 306.004L121.966 304.655L112.914 324.36L114.68 325.178C114.969 325.322 115.281 325.432 115.569 325.587L116.401 326.084L118.086 327.057C118.641 327.433 119.137 327.853 119.668 328.217Z" fill="#263238"/>
<path d="M126.548 314.778C127.887 315.64 129.157 316.613 130.45 317.53C131.743 318.447 132.863 319.597 134.076 320.636L128.234 326.283C127.218 325.432 126.248 324.526 125.22 323.708C124.193 322.89 123.073 322.128 121.953 321.409L126.548 314.778Z" fill="#263238"/>
<path d="M115.764 302.477C116.827 302.786 117.854 303.173 118.893 303.582C119.937 303.921 120.962 304.312 121.964 304.753L112.913 324.458C112.313 324.184 111.691 323.955 111.054 323.773C110.43 323.563 109.819 323.309 109.184 323.121L115.764 302.477Z" fill="#263238"/>
<path d="M108.515 322.89L110.201 317.221L108.412 316.79C107.826 316.617 107.228 316.487 106.622 316.403L108.492 306.832C109.273 306.939 110.044 307.098 110.801 307.307L113.041 307.849L114.715 302.179C112.633 301.597 110.511 301.15 108.365 300.842L105.144 300.378C104.071 300.29 102.985 300.256 101.912 300.201L100.838 321.708C101.496 321.708 102.154 321.708 102.812 321.796L104.752 322.095C106.024 322.274 107.282 322.54 108.515 322.89Z" fill="#263238"/>
<path d="M109.889 308.025C111.459 308.434 113.053 308.744 114.576 309.252C116.1 309.761 117.648 310.258 119.114 310.91L115.766 318.193C114.611 317.64 113.249 317.287 112.002 316.811C110.755 316.336 109.393 316.148 108.1 315.795L109.889 308.025Z" fill="#263238"/>
<path d="M95.6758 300.156L97.3268 300.09H98.666C99.0585 300.09 99.6589 300.09 100.202 300.09L101.852 300.167L100.779 321.674L99.7743 321.618C99.3898 321.597 99.0043 321.597 98.6198 321.618H97.3037L96.2992 321.685L95.6758 300.156Z" fill="#263238"/>
<path d="M95.6526 321.718L95.3524 315.828L93.5052 315.916C92.8933 315.916 92.3507 316.082 91.681 316.159L90.261 306.511C91.023 306.412 91.7734 306.268 92.57 306.213L94.8791 306.102L94.5674 300.212C93.4937 300.278 92.4084 300.3 91.3347 300.411L88.1136 300.875C85.9685 301.192 83.8474 301.642 81.7637 302.223L87.9173 322.89C89.1692 322.534 90.4464 322.264 91.7388 322.083L93.6784 321.785C94.3365 321.785 94.9945 321.785 95.6526 321.718Z" fill="#263238"/>
<path d="M91.9824 307.175C93.5872 307.031 95.2035 306.987 96.8199 306.909C97.6511 306.854 98.3323 306.909 99.1289 306.909L101.542 307.02L101.149 314.966L99.1289 314.866C98.4016 314.866 97.5934 314.866 96.9469 314.866C95.5961 314.955 94.2453 314.977 92.906 315.088L91.9824 307.175Z" fill="#263238"/>
<path d="M75.4727 304.291L78.5783 303.185C79.6054 302.795 80.6583 302.47 81.7302 302.213L87.9184 322.891C87.2715 323.036 86.6383 323.231 86.025 323.476L84.1547 324.128L75.4727 304.291Z" fill="#263238"/>
<path d="M83.5313 324.436L81.0375 319.043C79.883 319.574 78.7977 320.027 77.7356 320.601L72.7826 312.092C74.1219 311.373 75.542 310.787 76.9158 310.135L74.4336 304.742C72.4496 305.582 70.5217 306.538 68.661 307.605L65.8786 309.229C64.9781 309.804 64.1353 310.445 63.2578 311.064L76.7889 328.249C77.3199 327.884 77.8279 327.475 78.3706 327.144L80.0562 326.171C81.1765 325.526 82.337 324.946 83.5313 324.436Z" fill="#263238"/>
<path d="M74.6641 312.169C77.5472 310.751 80.5669 309.604 83.6809 308.743L85.99 316.391C83.3828 317.106 80.8541 318.061 78.4394 319.242L74.6641 312.169Z" fill="#263238"/>
<path d="M58.2012 315.153L60.6488 313.02C61.4454 312.291 62.3805 311.727 63.2464 311.075L76.7775 328.261C76.2316 328.627 75.7075 329.021 75.2073 329.443L73.7295 330.736L58.2012 315.153Z" fill="#263238"/>
<path d="M73.2089 331.156L68.8679 326.979L66.3741 329.576L58.581 323.321C59.6201 322.215 60.6361 321.11 61.6983 320.06L57.3572 315.883C56.6068 316.623 55.891 317.397 55.1521 318.159C54.4046 318.908 53.6994 319.693 53.0393 320.513C51.6839 322.135 50.4309 323.833 49.2871 325.597L68.3368 337.047C69.0397 335.978 69.8109 334.952 70.6458 333.974C71.0424 333.475 71.4745 333.002 71.9389 332.56C72.3314 332.096 72.7471 331.609 73.2089 331.156Z" fill="#263238"/>
<path d="M60.3828 322.756L62.0107 321.032C62.5764 320.479 63.1652 319.982 63.7887 319.451L65.5897 317.893C66.2016 317.396 66.8712 316.954 67.5178 316.479L72.5169 322.888C71.9742 323.275 71.3623 323.64 70.9005 324.06L69.4112 325.364C68.9148 325.806 68.3837 326.215 67.9219 326.679L66.5711 328.116L60.3828 322.756Z" fill="#263238"/>
<path d="M46.1133 331.146C46.6097 330.195 47.06 329.234 47.5911 328.305L49.2998 325.598L68.3494 337.047L67.2988 338.683C66.9871 339.235 66.7216 339.788 66.4329 340.396L46.1133 331.146Z" fill="#263238"/>
<path d="M66.1089 340.993L60.4979 338.573L60.0938 339.357L59.7821 340.186L59.1471 341.844L49.5761 338.672L50.3727 336.594L50.7768 335.556L51.2733 334.561L45.6623 332.141C45.1847 333.073 44.7683 334.032 44.4154 335.014L43.2609 337.954C42.9145 338.937 42.6836 339.954 42.395 340.96C42.1063 341.966 41.8293 342.971 41.6445 343.988L63.7191 348.121C63.8114 347.502 64.0423 346.906 64.1809 346.298C64.3194 345.69 64.481 345.082 64.6889 344.485L65.37 342.728C65.5632 342.13 65.8105 341.55 66.1089 340.993Z" fill="#263238"/>
<path d="M50.9609 337.512C51.5205 336.057 52.1721 334.636 52.9121 333.257C53.6303 331.859 54.4441 330.507 55.3481 329.212L62.2753 333.445C61.5411 334.526 60.8816 335.652 60.3011 336.815C59.6755 337.956 59.1353 339.138 58.6847 340.352L50.9609 337.512Z" fill="#263238"/>
<path d="M40.7793 350.265C40.7793 349.734 40.7793 349.159 40.8947 348.684L41.1372 347.115L41.6452 343.987L63.7197 348.121L63.4311 350.01L63.2695 350.95C63.2522 351.27 63.2522 351.591 63.2695 351.911L40.7793 350.265Z" fill="#263238"/>
<path d="M63.1759 352.575L57.0223 352.244C57.0223 353.415 56.8722 354.543 56.9068 355.935H46.7239C46.7239 354.675 46.7932 353.15 46.8625 351.691L40.7204 351.349L40.5703 354.454V361.958H63.0605V354.465L63.1759 352.575Z" fill="#263238"/>
<path d="M47.6602 354.52L47.9026 349.889C48.0873 348.353 48.3644 346.828 48.6069 345.292L56.7578 346.817C56.5731 348.099 56.3306 349.37 56.169 350.652L55.9727 354.52H47.6602Z" fill="#263238"/>
<path d="M63.0605 361.957H40.5703V367.03H63.0605V361.957Z" fill="#263238"/>
<path d="M63.0605 367.914H56.9068V371.882H46.7239V367.914H40.5703V377.905H63.0605V367.914Z" fill="#263238"/>
<path d="M55.9727 361.957H47.6602V370.478H55.9727V361.957Z" fill="#263238"/>
<path d="M63.0605 377.904H40.5703V382.977H63.0605V377.904Z" fill="#263238"/>
<path d="M63.0605 383.862H56.9068V387.83H46.7239V383.862H40.5703V393.853H63.0605V383.862Z" fill="#263238"/>
<path d="M55.9727 377.904H47.6602V386.425H55.9727V377.904Z" fill="#263238"/>
<path d="M63.0605 393.853H40.5703V398.925H63.0605V393.853Z" fill="#263238"/>
<path d="M55.9727 393.853H47.6602V402.373H55.9727V393.853Z" fill="#263238"/>
<path d="M63.0605 398.925H56.9068V402.903H46.7239V398.925H40.5703V408.916H63.0605V398.925Z" fill="#263238"/>
<path d="M55.9727 392.968H47.6602V401.489H55.9727V392.968Z" fill="#263238"/>
<path d="M54.7363 407.247L77.5151 430.168V462.041" stroke="#263238" stroke-width="9" stroke-linecap="round" stroke-linejoin="round"/>
<path d="M53.1321 407.247L30.3418 430.168V462.041" stroke="#263238" stroke-width="9" stroke-linecap="round" stroke-linejoin="round"/>
<path d="M55.1377 422.677C64.3708 421.243 70.6408 412.915 69.1421 404.076C67.6433 395.238 58.9434 389.236 49.7103 390.671C40.4771 392.106 34.2072 400.433 35.7059 409.272C37.2047 418.11 45.9046 424.112 55.1377 422.677Z" fill="#263238" stroke="#263238" stroke-miterlimit="10"/>
<path d="M52.4043 415.514C57.499 415.514 61.629 411.561 61.629 406.684C61.629 401.807 57.499 397.854 52.4043 397.854C47.3097 397.854 43.1797 401.807 43.1797 406.684C43.1797 411.561 47.3097 415.514 52.4043 415.514Z" fill="white" stroke="#263238" stroke-miterlimit="10"/>
<path d="M152.906 178.367C157.801 179.587 162.861 180.097 167.914 179.881L167.557 175.77C167.303 175.77 142.157 177.483 122.761 155.324L119.459 157.977C128.03 168.036 139.758 175.186 152.906 178.367Z" fill="#263238"/>
<path d="M119.054 202.307C145.112 179.994 166.389 187.155 166.609 187.232L168.098 183.364C167.14 183.022 144.142 175.286 116.145 199.234L119.054 202.307Z" fill="#263238"/>
<path d="M119.032 222.388C145.713 220.929 168.757 192.825 169.727 191.62L166.332 189.101C166.102 189.377 143.496 216.918 118.789 218.277L119.032 222.388Z" fill="#263238"/>
<path d="M121.918 157.977L116.318 152.131" stroke="#263238" stroke-miterlimit="10"/>
<path d="M120.394 197.642L113.744 205.146" stroke="#263238" stroke-miterlimit="10"/>
<path d="M122.993 219.778C119.244 219.81 115.503 219.439 111.84 218.673" stroke="#263238" stroke-miterlimit="10"/>
<path d="M107.325 204.008L100.732 205.102" stroke="#263238" stroke-miterlimit="10"/>
<path d="M110.499 207.024L102.256 214.517" stroke="#263238" stroke-miterlimit="10"/>
<path d="M113.755 208.163L113.408 214.12" stroke="#263238" stroke-miterlimit="10"/>
<path d="M108.768 167.714L94.2559 164.299" stroke="#263238" stroke-miterlimit="10"/>
<path d="M119.735 171.062L97.4414 171.847" stroke="#263238" stroke-miterlimit="10"/>
<path d="M113.847 161.747L100.916 156.807" stroke="#263238" stroke-miterlimit="10"/>
<path d="M150.48 217.192L144.107 226.642" stroke="#263238" stroke-miterlimit="10"/>
<path d="M145.827 215.347L131.211 229.272" stroke="#263238" stroke-miterlimit="10"/>
<path d="M144.581 204.849L133.717 205.689" stroke="#263238" stroke-miterlimit="10"/>
<path d="M90.5371 186.458L92.9963 190.746L89.498 194.316L94.5202 193.388L96.9794 197.676L97.6144 192.824L102.637 191.907L98.0184 189.829L98.6534 184.978L95.1552 188.547L90.5371 186.458Z" fill="#F9C09B" stroke="#263238" stroke-width="0.5" stroke-linecap="round" stroke-linejoin="round"/>
<path d="M97.4082 138.239L99.8674 142.516L96.3691 146.086L101.391 145.168L103.85 149.456L104.497 144.605L109.508 143.676L104.89 141.599L105.525 136.747L102.026 140.317L97.4082 138.239Z" fill="#F9C09B" stroke="#263238" stroke-width="0.5" stroke-linecap="round" stroke-linejoin="round"/>
<path d="M371.412 381.144C366.708 381.542 362.095 382.623 357.73 384.349L359.405 387.852C359.624 387.753 381.156 378.657 405.586 392.273L407.606 388.957C396.736 382.687 384.041 379.946 371.412 381.144Z" fill="#263238"/>
<path d="M393.278 349.835C377.727 377.354 356.622 377.464 356.426 377.464V381.31C357.396 381.31 380.186 381.166 396.834 351.636L393.278 349.835Z" fill="#263238"/>
<path d="M386.697 332.163C363.699 341.524 352.708 373.231 352.246 374.568L356.079 375.762C356.183 375.452 366.978 344.375 388.267 335.711L386.697 332.163Z" fill="#263238"/>
<path d="M405.4 389.698L412.258 393.157" stroke="#263238" stroke-miterlimit="10"/>
<path d="M393.635 354.343L397.018 345.733" stroke="#263238" stroke-miterlimit="10"/>
<path d="M384.041 335.656C387.331 334.494 390.746 333.689 394.224 333.258" stroke="#263238" stroke-miterlimit="10"/>
<path d="M403.033 344.783L408.471 341.832" stroke="#263238" stroke-miterlimit="10"/>
<path d="M399.258 343.093L404.026 334.009" stroke="#263238" stroke-miterlimit="10"/>
<path d="M396.014 343.071L394.352 337.733" stroke="#263238" stroke-miterlimit="10"/>
<path d="M413.758 377.154L427.647 375.762" stroke="#263238" stroke-miterlimit="10"/>
<path d="M402.998 377.53L422.348 370.092" stroke="#263238" stroke-miterlimit="10"/>
<path d="M411.254 383.95L424.265 384.37" stroke="#263238" stroke-miterlimit="10"/>
<path d="M360.709 346.253L363.203 336.008" stroke="#263238" stroke-miterlimit="10"/>
<path d="M365.418 346.475L373.684 329.798" stroke="#263238" stroke-miterlimit="10"/>
<path d="M369.979 355.317L379.261 351.294" stroke="#263238" stroke-miterlimit="10"/>
<path d="M423.606 355.152L420.027 352.123L421.92 347.924L417.81 350.256L414.231 347.228L415.27 351.692L411.16 354.013L415.917 354.444L416.956 358.909L418.849 354.721L423.606 355.152Z" fill="#F9C09B" stroke="#263238" stroke-width="0.5" stroke-linecap="round" stroke-linejoin="round"/>
<path d="M433.489 399.654L429.91 396.626L431.803 392.427L427.693 394.759L424.114 391.73L425.153 396.195L421.043 398.527L425.8 398.947L426.839 403.412L428.732 399.223L433.489 399.654Z" fill="#F9C09B" stroke="#263238" stroke-width="0.5" stroke-linecap="round" stroke-linejoin="round"/>
<path d="M372.922 326.074L369.332 323.057L371.237 318.857L367.127 321.189L363.536 318.161L364.587 322.626L360.477 324.947L365.222 325.378L366.272 329.843L368.166 325.654L372.922 326.074Z" fill="#F9C09B" stroke="#263238" stroke-width="0.5" stroke-linecap="round" stroke-linejoin="round"/>
<path d="M132.828 278.474V281.325" stroke="#263238" stroke-linecap="round" stroke-linejoin="round"/>
<path d="M132.828 247.22V275.888" stroke="#263238" stroke-linecap="round" stroke-linejoin="round"/>
<path d="M127.84 256.879V285.182" stroke="#263238" stroke-linecap="round" stroke-linejoin="round"/>
<path d="M395.16 248.071V252.304" stroke="#263238" stroke-linecap="round" stroke-linejoin="round"/>
<path d="M395.16 201.653V244.235" stroke="#263238" stroke-linecap="round" stroke-linejoin="round"/>
<path d="M390.16 215.987V258.039" stroke="#263238" stroke-linecap="round" stroke-linejoin="round"/>
<path d="M327.227 311.74H322.805" stroke="#263238" stroke-linecap="round" stroke-linejoin="round"/>
<path d="M375.716 311.74H331.232" stroke="#263238" stroke-linecap="round" stroke-linejoin="round"/>
<path d="M360.742 306.954H316.812" stroke="#263238" stroke-linecap="round" stroke-linejoin="round"/>
<path d="M173.156 311.74H168.723" stroke="#263238" stroke-linecap="round" stroke-linejoin="round"/>
<path d="M221.646 311.74H177.162" stroke="#263238" stroke-linecap="round" stroke-linejoin="round"/>
<path d="M206.672 306.954H162.73" stroke="#263238" stroke-linecap="round" stroke-linejoin="round"/>
<path d="M285.295 294.079H237.705V339.634H285.295V294.079Z" fill="white" stroke="#263238" stroke-miterlimit="10"/>
<path d="M285.295 294.079H237.705V306.103H285.295V294.079Z" fill="#263238" stroke="#263238" stroke-miterlimit="10"/>
<path d="M238.295 315.376H284.892" stroke="#263238" stroke-miterlimit="10"/>
<path d="M238.295 324.096H284.892" stroke="#263238" stroke-miterlimit="10"/>
<path d="M238.295 332.825H284.892" stroke="#263238" stroke-miterlimit="10"/>
<path d="M281.877 304.91V313.32" stroke="#263238" stroke-miterlimit="10"/>
<path d="M281.877 315.52V321.731" stroke="#263238" stroke-miterlimit="10"/>
<path d="M281.877 324.526V330.737" stroke="#263238" stroke-miterlimit="10"/>
<path d="M231.644 123.485H291.344C293.837 123.485 296.227 124.433 297.99 126.12C299.752 127.807 300.742 130.096 300.742 132.481V154.198H222.234V132.481C222.234 130.096 223.225 127.807 224.987 126.12C226.749 124.433 229.14 123.485 231.632 123.485H231.644Z" fill="#263238" stroke="#263238" stroke-miterlimit="10"/>
<path d="M379.111 134.184H143.888C141.49 134.184 139.547 136.044 139.547 138.339V296.643C139.547 298.938 141.49 300.798 143.888 300.798H379.111C381.508 300.798 383.452 298.938 383.452 296.643V138.339C383.452 136.044 381.508 134.184 379.111 134.184Z" fill="#263238" stroke="#263238" stroke-miterlimit="10"/>
<path d="M370.106 141.897H152.87C150.473 141.897 148.529 143.758 148.529 146.053V288.929C148.529 291.224 150.473 293.084 152.87 293.084H370.106C372.503 293.084 374.447 291.224 374.447 288.929V146.053C374.447 143.758 372.503 141.897 370.106 141.897Z" fill="#F9C09B" stroke="#263238" stroke-miterlimit="10"/>
<path d="M292.729 129.056C292.727 128.506 292.554 127.968 292.233 127.512C291.912 127.055 291.457 126.7 290.925 126.491C290.393 126.282 289.809 126.228 289.245 126.337C288.681 126.446 288.164 126.712 287.758 127.102C287.353 127.492 287.077 127.988 286.965 128.528C286.854 129.068 286.912 129.627 287.133 130.136C287.353 130.644 287.726 131.078 288.204 131.384C288.683 131.689 289.245 131.852 289.82 131.852C290.203 131.852 290.582 131.78 290.936 131.639C291.289 131.499 291.611 131.292 291.881 131.033C292.151 130.773 292.365 130.465 292.511 130.125C292.656 129.786 292.73 129.423 292.729 129.056Z" fill="white" stroke="#263238" stroke-miterlimit="10"/>
<path d="M281.809 129.056C281.809 128.502 281.637 127.961 281.316 127.501C280.994 127.041 280.537 126.683 280.003 126.472C279.468 126.26 278.881 126.206 278.314 126.314C277.747 126.423 277.226 126.69 276.818 127.083C276.41 127.475 276.133 127.974 276.022 128.517C275.91 129.06 275.97 129.623 276.192 130.134C276.415 130.644 276.791 131.08 277.273 131.386C277.755 131.692 278.321 131.854 278.899 131.852C279.282 131.852 279.662 131.779 280.015 131.639C280.369 131.498 280.69 131.292 280.961 131.032C281.231 130.772 281.445 130.464 281.591 130.125C281.736 129.786 281.81 129.422 281.809 129.056Z" fill="white" stroke="#263238" stroke-miterlimit="10"/>
<path d="M270.887 129.056C270.887 128.502 270.715 127.961 270.394 127.501C270.072 127.041 269.615 126.683 269.081 126.472C268.547 126.26 267.959 126.206 267.392 126.314C266.825 126.423 266.304 126.69 265.896 127.083C265.488 127.475 265.211 127.974 265.1 128.517C264.988 129.06 265.048 129.623 265.271 130.134C265.493 130.644 265.87 131.08 266.351 131.386C266.833 131.692 267.399 131.854 267.977 131.852C268.36 131.852 268.74 131.779 269.093 131.639C269.447 131.498 269.768 131.292 270.039 131.032C270.309 130.772 270.523 130.464 270.669 130.125C270.814 129.786 270.888 129.422 270.887 129.056Z" fill="white" stroke="#263238" stroke-miterlimit="10"/>
<path d="M281.877 333.545V339.756" stroke="#263238" stroke-miterlimit="10"/>
<path d="M61.4083 468.772H461.59C465.029 468.772 468.326 470.08 470.758 472.408C473.189 474.735 474.555 477.892 474.555 481.184V505H48.4199V481.184C48.4199 479.552 48.756 477.936 49.4091 476.429C50.0621 474.922 51.0191 473.553 52.2255 472.4C53.4319 471.247 54.8639 470.333 56.4396 469.711C58.0153 469.088 59.7038 468.77 61.4083 468.772Z" fill="white" stroke="#263238" stroke-miterlimit="10"/>
<path d="M179.633 338.562H343.357C345.059 338.562 346.745 338.883 348.318 339.506C349.891 340.13 351.32 341.044 352.524 342.197C353.728 343.349 354.683 344.717 355.335 346.223C355.987 347.729 356.322 349.343 356.322 350.973V504.999H166.668V350.973C166.668 347.681 168.034 344.524 170.465 342.197C172.897 339.869 176.195 338.562 179.633 338.562Z" fill="white" stroke="#263238" stroke-miterlimit="10"/>
<path d="M319.849 373.253H203.138C200.74 373.253 198.797 375.113 198.797 377.408V453.013C198.797 455.308 200.74 457.168 203.138 457.168H319.849C322.246 457.168 324.19 455.308 324.19 453.013V377.408C324.19 375.113 322.246 373.253 319.849 373.253Z" fill="#263238" stroke="#263238" stroke-miterlimit="10"/>
<path d="M213.355 469.094C213.355 467.9 212.986 466.734 212.293 465.741C211.6 464.749 210.616 463.976 209.464 463.519C208.312 463.062 207.045 462.943 205.822 463.176C204.599 463.408 203.476 463.983 202.594 464.827C201.713 465.671 201.112 466.746 200.869 467.917C200.626 469.087 200.751 470.3 201.228 471.403C201.705 472.506 202.513 473.448 203.55 474.111C204.586 474.774 205.805 475.128 207.052 475.128C208.724 475.128 210.327 474.492 211.509 473.361C212.691 472.229 213.355 470.694 213.355 469.094Z" fill="#263238" stroke="#263238" stroke-miterlimit="10"/>
<path d="M228.343 475.128C231.824 475.128 234.646 472.426 234.646 469.094C234.646 465.761 231.824 463.06 228.343 463.06C224.861 463.06 222.039 465.761 222.039 469.094C222.039 472.426 224.861 475.128 228.343 475.128Z" fill="#263238" stroke="#263238" stroke-miterlimit="10"/>
<path d="M249.62 475.128C253.102 475.128 255.924 472.426 255.924 469.094C255.924 465.761 253.102 463.06 249.62 463.06C246.139 463.06 243.316 465.761 243.316 469.094C243.316 472.426 246.139 475.128 249.62 475.128Z" fill="#263238" stroke="#263238" stroke-miterlimit="10"/>
<path d="M266.303 474.641V482.94H274.973V474.641H266.303Z" fill="#263238" stroke="#263238" stroke-miterlimit="10"/>
<path d="M266.303 463.7V472H274.973V463.7H266.303Z" fill="#263238" stroke="#263238" stroke-miterlimit="10"/>
<path d="M277.34 474.641V482.94H286.01V474.641H277.34Z" fill="#263238" stroke="#263238" stroke-miterlimit="10"/>
<path d="M277.34 463.7V472H286.01V463.7H277.34Z" fill="#263238" stroke="#263238" stroke-miterlimit="10"/>
<path d="M288.377 474.641V482.94H297.047V474.641H288.377Z" fill="#263238" stroke="#263238" stroke-miterlimit="10"/>
<path d="M288.377 463.7V472H297.047V463.7H288.377Z" fill="#263238" stroke="#263238" stroke-miterlimit="10"/>
<path d="M239.378 364.19H203.126C202.289 364.19 201.486 363.873 200.894 363.307C200.301 362.742 199.966 361.975 199.963 361.173C199.966 360.372 200.301 359.605 200.894 359.039C201.486 358.474 202.289 358.156 203.126 358.156H239.378C240.214 358.156 241.016 358.474 241.607 359.04C242.198 359.606 242.53 360.373 242.53 361.173C242.53 361.57 242.449 361.962 242.29 362.328C242.132 362.694 241.9 363.027 241.607 363.307C241.314 363.587 240.967 363.809 240.585 363.961C240.202 364.112 239.792 364.19 239.378 364.19Z" fill="white" stroke="#263238" stroke-miterlimit="10"/>
<path d="M214.153 366.455C217.635 366.455 220.457 363.754 220.457 360.421C220.457 357.088 217.635 354.387 214.153 354.387C210.672 354.387 207.85 357.088 207.85 360.421C207.85 363.754 210.672 366.455 214.153 366.455Z" fill="#263238" stroke="#263238" stroke-miterlimit="10"/>
<path d="M355.732 366.334L337.906 383.619V464.263L356.298 481.548" stroke="#263238" stroke-miterlimit="10"/>
<path d="M167.406 366.334L185.243 383.619V464.263L166.852 481.548" stroke="#263238" stroke-miterlimit="10"/>
<path d="M201.533 414.708H230.165L248.245 388.902L265.552 414.708H278.182L289.508 430.832L299.241 414.984H316.94" stroke="#F9C09B" stroke-width="2" stroke-linecap="round" stroke-linejoin="round"/>
<path d="M0 505H523" stroke="#263238" stroke-width="2" stroke-miterlimit="10"/>
<path d="M153.621 437.332C152.293 435.343 152.605 432.912 154.302 431.862C155.999 430.812 158.447 431.607 159.775 433.597C161.102 435.586 160.779 438.017 159.082 439.067C157.385 440.117 154.937 439.322 153.621 437.332Z" fill="white" stroke="#263238" stroke-linecap="round" stroke-linejoin="round"/>
<path d="M145.528 438.017C145.604 437.968 145.685 437.927 145.771 437.896L155.111 433.895C155.57 433.699 156.092 433.685 156.562 433.857C157.032 434.029 157.411 434.373 157.616 434.812C157.821 435.252 157.835 435.752 157.656 436.202C157.476 436.651 157.117 437.014 156.658 437.211L147.306 441.2C146.869 441.402 146.367 441.435 145.906 441.292C145.444 441.148 145.059 440.839 144.829 440.43C144.6 440.021 144.544 439.542 144.675 439.095C144.805 438.647 145.111 438.265 145.528 438.028V438.017Z" fill="white" stroke="#263238" stroke-miterlimit="10"/>
<path d="M29.602 229.075C28.2858 227.086 28.5976 224.654 30.2947 223.549C31.9919 222.444 34.4395 223.295 35.7556 225.284C37.0718 227.274 36.7716 229.705 35.0744 230.81C33.3773 231.915 30.9297 231.064 29.602 229.075Z" fill="white" stroke="#263238" stroke-linecap="round" stroke-linejoin="round"/>
<path d="M21.509 229.76L21.763 229.639L31.1031 225.638C31.5624 225.443 32.0838 225.431 32.5525 225.604C33.0213 225.777 33.399 226.121 33.6027 226.561C33.8063 227.001 33.8191 227.5 33.6383 227.948C33.4575 228.397 33.0979 228.759 32.6386 228.954L23.2985 232.943C22.8659 233.113 22.3828 233.124 21.9424 232.974C21.5019 232.823 21.1352 232.522 20.913 232.128C20.6907 231.734 20.6287 231.275 20.7387 230.84C20.8488 230.405 21.1231 230.024 21.509 229.771V229.76Z" fill="white" stroke="#263238" stroke-miterlimit="10"/>
<path d="M488.086 282.001C487.578 284.311 485.57 285.858 483.607 285.46C481.644 285.062 480.455 282.863 480.963 280.564C481.471 278.265 483.48 276.707 485.443 277.105C487.405 277.503 488.594 279.724 488.086 282.001Z" fill="white" stroke="#263238" stroke-linecap="round" stroke-linejoin="round"/>
<path d="M494.38 286.952L494.114 286.874L484.509 283.481C484.065 283.296 483.713 282.955 483.524 282.529C483.335 282.103 483.323 281.623 483.491 281.189C483.66 280.755 483.995 280.399 484.429 280.195C484.863 279.99 485.363 279.952 485.825 280.088L495.419 283.481C495.859 283.645 496.22 283.96 496.43 284.365C496.64 284.77 496.684 285.236 496.554 285.67C496.424 286.105 496.129 286.478 495.727 286.715C495.324 286.952 494.844 287.036 494.38 286.952Z" fill="white" stroke="#263238" stroke-miterlimit="10"/>
<path d="M427.106 455.234C426.586 457.544 424.577 459.091 422.615 458.693C420.652 458.296 419.463 456.096 419.971 453.798C420.479 451.499 422.488 449.941 424.462 450.338C426.436 450.736 427.579 452.924 427.106 455.234Z" fill="white" stroke="#263238" stroke-linecap="round" stroke-linejoin="round"/>
<path d="M433.351 460.163L433.085 460.086L423.491 456.693C423.055 456.504 422.71 456.164 422.526 455.742C422.341 455.319 422.33 454.846 422.495 454.416C422.661 453.986 422.99 453.632 423.417 453.425C423.843 453.218 424.336 453.174 424.796 453.3L434.401 456.693C434.846 456.855 435.211 457.171 435.423 457.578C435.635 457.985 435.68 458.454 435.547 458.892C435.415 459.329 435.115 459.703 434.708 459.938C434.302 460.174 433.817 460.254 433.351 460.163Z" fill="white" stroke="#263238" stroke-miterlimit="10"/>
<path d="M383.488 445.477L378.212 443.023L372.947 445.477L371.643 451.003L375.291 455.423H381.144L384.793 451.003L383.488 445.477ZM379.701 452.539H376.734L374.875 450.329L375.533 447.521L378.212 446.273L380.89 447.521L381.548 450.329L379.701 452.539Z" fill="white" stroke="#263238" stroke-linecap="round" stroke-linejoin="round"/>
<path d="M472.791 178.469L467.515 176.005L462.238 178.469L460.945 183.995L464.594 188.416H470.436L474.084 183.995L472.791 178.469ZM469.004 185.531H466.025L464.178 183.321L464.836 180.514L467.515 179.221L470.193 180.47L470.851 183.277L469.004 185.531Z" fill="white" stroke="#263238" stroke-linecap="round" stroke-linejoin="round"/>
<path d="M425.455 150.84L420.179 148.375L414.902 150.84L413.609 156.365L417.258 160.786H423.1L426.748 156.365L425.455 150.84ZM421.668 157.902H418.689L416.842 155.691L417.5 152.884L420.179 151.591L422.857 152.84L423.515 155.647L421.668 157.902Z" fill="white" stroke="#263238" stroke-linecap="round" stroke-linejoin="round"/>
<path d="M146.843 489.982L141.567 487.562L136.303 490.026L134.998 495.552L138.646 499.973H144.5L148.137 495.552L146.843 489.982ZM143.091 497.044H140.089L138.231 494.833L138.889 492.026L141.567 490.778L144.246 491.982L144.904 494.789L143.091 497.044Z" fill="white" stroke="#263238" stroke-linecap="round" stroke-linejoin="round"/>
<path d="M100.664 383.885L95.3876 381.465L90.123 383.929L88.8184 389.455L92.4667 393.876H98.3201L101.957 389.455L100.664 383.885ZM96.9116 390.947H93.9098L92.051 388.737L92.7091 385.93L95.3876 384.681L98.0661 385.886L98.7242 388.693L96.9116 390.947Z" fill="white" stroke="#263238" stroke-linecap="round" stroke-linejoin="round"/>
<path d="M59.1345 245.099L53.8583 242.635L48.5937 245.099L47.2891 250.625L50.9374 255.046H56.7908L60.4391 250.625L59.1345 245.099ZM55.3477 252.161H52.3805L50.5217 249.951L51.1914 247.144L53.8583 245.895L56.5022 247.1L57.1949 249.951L55.3477 252.161Z" fill="white" stroke="#263238" stroke-linecap="round" stroke-linejoin="round"/>
<path d="M241.642 318.471L236.378 316.018L231.101 318.471L229.797 323.997L233.445 328.418H239.299L242.947 323.997L241.642 318.471ZM237.855 325.533H234.888L233.041 323.323L233.699 320.516L236.378 319.267L239.056 320.516L239.714 323.323L237.855 325.533Z" fill="white" stroke="#263238" stroke-linecap="round" stroke-linejoin="round"/>
<path d="M5.8418 73.5205H186.513V117.672" stroke="#263238" stroke-linecap="round" stroke-linejoin="round"/>
<path d="M4.38672 87.4555H123.014L140.794 73.5967" stroke="#263238" stroke-linecap="round" stroke-linejoin="round"/>
<path d="M159.115 73.5988L142.675 54.6895H5.11328" stroke="#263238" stroke-linecap="round" stroke-linejoin="round"/>
<path d="M6.56836 40.7529H109.898L123.857 54.7222" stroke="#263238" stroke-linecap="round" stroke-linejoin="round"/>
<path d="M114.991 73.3777L105.535 65.8516H5.8418" stroke="#263238" stroke-linecap="round" stroke-linejoin="round"/>
<path d="M190.946 112.478L186.421 118.755L182.576 112.699" stroke="#263238" stroke-linecap="round" stroke-linejoin="round"/>
<path d="M5.8418 99.25H159.013V117.994" stroke="#263238" stroke-linecap="round" stroke-linejoin="round"/>
<path d="M163.456 112.799L158.931 119.076L155.086 113.009" stroke="#263238" stroke-linecap="round" stroke-linejoin="round"/>
<path d="M116.318 47.252H206.799V118.314" stroke="#263238" stroke-linecap="round" stroke-linejoin="round"/>
<path d="M211.232 113.118L206.706 119.396L202.861 113.328" stroke="#263238" stroke-linecap="round" stroke-linejoin="round"/>
<path d="M513.554 73.5205H332.883V117.672" stroke="#263238" stroke-linecap="round" stroke-linejoin="round"/>
<path d="M515.011 87.4555H396.383L378.604 73.5967" stroke="#263238" stroke-linecap="round" stroke-linejoin="round"/>
<path d="M360.281 73.5988L376.722 54.6895H514.283" stroke="#263238" stroke-linecap="round" stroke-linejoin="round"/>
<path d="M512.827 40.7529H409.497L395.539 54.7222" stroke="#263238" stroke-linecap="round" stroke-linejoin="round"/>
<path d="M404.406 73.3777L413.862 65.8516H513.555" stroke="#263238" stroke-linecap="round" stroke-linejoin="round"/>
<path d="M328.451 112.478L332.977 118.755L336.821 112.699" stroke="#263238" stroke-linecap="round" stroke-linejoin="round"/>
<path d="M513.555 99.25H360.373V117.994" stroke="#263238" stroke-linecap="round" stroke-linejoin="round"/>
<path d="M355.939 112.799L360.465 119.076L364.31 113.009" stroke="#263238" stroke-linecap="round" stroke-linejoin="round"/>
<path d="M403.08 47.252H312.6V118.314" stroke="#263238" stroke-linecap="round" stroke-linejoin="round"/>
<path d="M308.166 113.118L312.692 119.396L316.536 113.328" stroke="#263238" stroke-linecap="round" stroke-linejoin="round"/>
<path d="M260.379 2.3916V118.191" stroke="#263238" stroke-linecap="round" stroke-linejoin="round"/>
<path d="M274.939 1V69.1114L260.461 86.1309" stroke="#263238" stroke-linecap="round" stroke-linejoin="round"/>
<path d="M260.461 103.682L240.719 87.9333V1.69727" stroke="#263238" stroke-linecap="round" stroke-linejoin="round"/>
<path d="M226.148 3.08984V56.5688L240.753 69.9192" stroke="#263238" stroke-linecap="round" stroke-linejoin="round"/>
<path d="M260.241 61.4296L252.367 52.3783V2.3916" stroke="#263238" stroke-linecap="round" stroke-linejoin="round"/>
<path d="M255.936 112.998L260.461 119.275L264.317 113.208" stroke="#263238" stroke-linecap="round" stroke-linejoin="round"/>
<path d="M287.258 2.3916V118.191" stroke="#263238" stroke-linecap="round" stroke-linejoin="round"/>
<path d="M282.824 112.998L287.35 119.275L291.195 113.208" stroke="#263238" stroke-linecap="round" stroke-linejoin="round"/>
<path d="M232.938 62.7012V118.192" stroke="#263238" stroke-linecap="round" stroke-linejoin="round"/>
<path d="M228.492 112.998L233.029 119.275L236.874 113.208" stroke="#263238" stroke-linecap="round" stroke-linejoin="round"/>
<path d="M223.243 246.732V250.633H213.291V264.514H225.517V268.47H208.742V229.458H225.517V233.415H213.291V246.732H223.243Z" fill="#263238"/>
<path d="M238.783 229.458C245.191 229.458 247.87 232.575 247.87 238.377V241.549C247.87 245.848 246.299 248.522 242.801 249.572C246.53 250.677 247.927 253.54 247.927 257.717V263.784C247.791 265.387 248.073 266.997 248.747 268.47H244.129C243.493 266.968 243.236 265.344 243.378 263.729V257.607C243.378 253.186 241.219 251.804 237.433 251.804H234.235V268.47H229.697V229.458H238.783ZM237.629 247.848C241.231 247.848 243.401 246.743 243.401 242.499V238.752C243.401 235.238 242.062 233.403 238.679 233.403H234.258V247.837L237.629 247.848Z" fill="#263238"/>
<path d="M261.723 229.458C268.13 229.458 270.809 232.575 270.809 238.377V241.549C270.809 245.848 269.239 248.522 265.741 249.572C269.47 250.677 270.867 253.54 270.867 257.717V263.784C270.731 265.387 271.012 266.997 271.686 268.47H267.068C266.433 266.968 266.176 265.344 266.318 263.729V257.607C266.318 253.186 264.159 251.804 260.372 251.804H257.174V268.47H252.637V229.458H261.723ZM260.568 247.848C264.182 247.848 266.341 246.743 266.341 242.499V238.752C266.341 235.238 265.002 233.403 261.619 233.403H257.197V247.837L260.568 247.848Z" fill="#263238"/>
<path d="M275.23 238.874C275.23 232.917 278.313 229.071 284.547 229.071C290.782 229.071 293.922 232.917 293.922 238.874V259.054C293.922 264.956 290.84 268.857 284.547 268.857C278.255 268.857 275.23 264.956 275.23 259.054V238.874ZM279.71 259.275C279.71 262.845 281.292 264.901 284.547 264.901C287.803 264.901 289.385 262.845 289.385 259.275V238.653C289.385 235.139 287.861 233.028 284.547 233.028C281.234 233.028 279.71 235.139 279.71 238.653V259.275Z" fill="#263238"/>
<path d="M307.315 229.458C313.711 229.458 316.389 232.575 316.389 238.377V241.549C316.389 245.848 314.819 248.522 311.332 249.572C315.05 250.677 316.447 253.54 316.447 257.717V263.784C316.311 265.387 316.592 266.997 317.267 268.47H312.649C312.002 266.971 311.741 265.345 311.887 263.729V257.607C311.887 253.186 309.739 251.804 305.952 251.804H302.743V268.47H298.229V229.458H307.315ZM306.16 247.848C309.774 247.848 311.933 246.743 311.933 242.499V238.752C311.933 235.238 310.593 233.403 307.222 233.403H302.789V247.837L306.16 247.848Z" fill="#263238"/>
<path d="M264.213 205.019C264.213 202.057 265.645 199.869 268.831 199.869C272.017 199.869 273.53 202.079 273.53 205.019V215.43C273.53 218.392 272.11 220.569 268.831 220.569C265.552 220.569 264.213 218.359 264.213 215.43V205.019ZM265.61 215.518C265.61 217.729 266.522 219.353 268.866 219.353C271.209 219.353 272.179 217.729 272.179 215.518V204.931C272.179 202.72 271.232 201.096 268.866 201.096C266.499 201.096 265.61 202.72 265.61 204.931V215.518Z" fill="#263238"/>
<path d="M250.701 220.226H249.42V199.869H251.244L257.617 217.054V199.869H258.899V220.226H257.352L250.701 202.079V220.226Z" fill="#263238"/>
<path d="M262.008 150.606L241.804 184.103C241.68 184.308 241.615 184.541 241.615 184.778C241.615 185.015 241.681 185.248 241.805 185.453C241.929 185.658 242.107 185.828 242.322 185.946C242.537 186.064 242.78 186.126 243.028 186.126H283.436C283.684 186.126 283.927 186.064 284.142 185.946C284.356 185.828 284.535 185.658 284.659 185.453C284.783 185.248 284.848 185.015 284.849 184.778C284.849 184.541 284.784 184.308 284.66 184.103L264.456 150.606C264.333 150.399 264.155 150.227 263.94 150.107C263.725 149.988 263.481 149.925 263.232 149.925C262.983 149.925 262.739 149.988 262.524 150.107C262.309 150.227 262.131 150.399 262.008 150.606Z" fill="#263238" stroke="#263238" stroke-miterlimit="10"/>
<path d="M262.008 154.651L245.464 182.081C245.34 182.286 245.275 182.519 245.275 182.756C245.276 182.993 245.341 183.226 245.465 183.431C245.589 183.636 245.768 183.806 245.982 183.924C246.197 184.042 246.44 184.104 246.688 184.103H279.777C280.024 184.104 280.268 184.042 280.482 183.924C280.697 183.806 280.875 183.636 280.999 183.431C281.123 183.226 281.189 182.993 281.189 182.756C281.189 182.519 281.124 182.286 281 182.081L264.456 154.651C264.333 154.444 264.155 154.272 263.94 154.152C263.725 154.033 263.481 153.97 263.232 153.97C262.984 153.97 262.739 154.033 262.525 154.152C262.31 154.272 262.132 154.444 262.008 154.651Z" fill="white" stroke="#263238" stroke-miterlimit="10"/>
<path d="M261.904 170.211V159.812H264.479V170.211L264.144 177.041H262.228L261.904 170.211ZM264.41 178.865V181.937H261.939V178.865H264.41Z" fill="#263238"/>
</svg>