<svg width="538" height="537" viewBox="0 0 538 537" fill="none" xmlns="http://www.w3.org/2000/svg">
<path d="M509.42 322.413L536.591 312.82" stroke="#263238" stroke-linecap="round" stroke-linejoin="round"/>
<path d="M47.543 485.272L497.936 326.45" stroke="#263238" stroke-linecap="round" stroke-linejoin="round"/>
<path d="M15.2598 496.662L32.642 490.523" stroke="#263238" stroke-linecap="round" stroke-linejoin="round"/>
<path d="M416.711 246L155.902 338.003V113.843L416.711 21.8525V246Z" fill="white"/>
<path d="M198.124 169.087V169.565L194.982 170.732V170.009C194.982 167.465 193.86 166.368 191.403 167.232C188.947 168.095 187.737 170.067 187.737 173.066V179.391C188.112 178.307 188.746 177.317 189.591 176.496C190.435 175.675 191.469 175.045 192.613 174.653C196.491 173.288 198.211 175.295 198.211 179.321V183.604C198.309 185.68 197.692 187.73 196.45 189.453C195.209 191.176 193.409 192.48 191.316 193.173C186.665 194.818 184.383 192.799 184.383 188.505V174.14C184.383 169.659 186.54 166.123 191.316 164.431C196.092 162.739 198.124 164.769 198.124 169.087ZM187.737 183.324V187.56C187.737 190.092 188.859 191.236 191.316 190.372C192.453 189.967 193.417 189.226 194.063 188.262C194.709 187.297 195.001 186.162 194.894 185.028V180.791C194.894 178.259 193.735 177.127 191.316 177.979C190.176 178.381 189.209 179.121 188.563 180.086C187.916 181.052 187.626 182.189 187.737 183.324Z" fill="#263238"/>
<path d="M201.141 168.083C201.042 166.011 201.659 163.964 202.901 162.246C204.143 160.529 205.944 159.232 208.037 158.549C212.688 156.903 214.97 158.875 214.97 163.216V177.733C215.068 179.815 214.446 181.872 213.197 183.597C211.949 185.323 210.139 186.626 208.037 187.314C203.423 188.948 201.141 186.929 201.141 182.646V168.083ZM204.458 181.666C204.458 184.21 205.618 185.33 208.037 184.478C209.176 184.081 210.144 183.343 210.791 182.379C211.438 181.415 211.728 180.279 211.616 179.145V164.22C211.616 161.641 210.493 160.497 208.037 161.373C206.897 161.78 205.93 162.525 205.284 163.494C204.638 164.463 204.348 165.603 204.458 166.741V181.666Z" fill="#263238"/>
<path d="M226.579 156.728V165.644C226.656 166.957 226.277 168.258 225.5 169.354C224.722 170.449 223.588 171.281 222.265 171.724C219.334 172.751 217.963 171.42 217.963 168.678V159.774C217.887 158.463 218.264 157.163 219.039 156.068C219.814 154.973 220.945 154.141 222.265 153.694C225.195 152.597 226.579 153.963 226.579 156.728ZM220.107 158.887V168.083C220.107 169.611 220.718 170.417 222.265 169.868C222.958 169.611 223.543 169.15 223.932 168.554C224.321 167.958 224.493 167.261 224.422 166.566V157.312C224.422 155.771 223.773 154.978 222.265 155.491C221.566 155.752 220.977 156.219 220.587 156.821C220.198 157.424 220.03 158.129 220.107 158.829V158.887ZM236.529 148.816L224.634 181.234L222.614 181.946L234.509 149.517L236.529 148.816ZM241.405 162.026V170.895C241.49 172.21 241.115 173.514 240.336 174.611C239.558 175.709 238.418 176.538 237.091 176.975C234.16 178.013 232.789 176.683 232.789 173.941V165.06C232.716 163.755 233.095 162.463 233.87 161.376C234.646 160.289 235.775 159.465 237.091 159.027C240.071 157.895 241.405 159.261 241.405 161.968V162.026ZM234.933 164.185V173.334C234.933 174.874 235.582 175.668 237.091 175.154C237.787 174.891 238.374 174.423 238.762 173.822C239.151 173.22 239.321 172.517 239.248 171.817V162.563C239.248 161.034 238.599 160.229 237.091 160.789C236.389 161.047 235.798 161.513 235.408 162.116C235.018 162.719 234.851 163.426 234.933 164.127V164.185Z" fill="#263238"/>
<path d="M399.279 200.35L168.971 279.562V283.191L399.279 203.979V200.35Z" fill="#E5E5E5"/>
<path d="M399.279 179.671L168.971 258.895V262.513L399.279 183.3V179.671Z" fill="#E5E5E5"/>
<path d="M399.279 159.004L168.971 238.216V241.846L399.279 162.621V159.004Z" fill="#E5E5E5"/>
<path d="M399.279 138.326L168.971 217.55V221.168L399.279 141.955V138.326Z" fill="#E5E5E5"/>
<path d="M251.691 168.421V172.039L399.279 121.277V117.659L251.691 168.421Z" fill="#E5E5E5"/>
<path d="M251.691 147.743V151.372L399.279 100.61V96.9805L251.691 147.743Z" fill="#E5E5E5"/>
<path d="M251.691 127.077V130.694L399.279 79.9319V76.3027L251.691 127.077Z" fill="#E5E5E5"/>
<path d="M399.404 50.6182C395.376 64.8083 386.71 92.3833 374.702 114.859C357.743 146.6 305.061 206.674 268.114 236.151C231.167 265.629 169.693 300.987 169.693 300.987L399.404 222.802V50.6182Z" fill="#F9C09B"/>
<path d="M171.115 300.264C171.115 300.264 363.704 204.014 397.11 53.8389" stroke="#263238" stroke-width="4" stroke-linecap="round" stroke-linejoin="round"/>
<path d="M169.207 132.911V309.622" stroke="#263238" stroke-linecap="round" stroke-linejoin="round"/>
<path d="M162.051 304.429L401.861 221.949" stroke="#263238" stroke-linecap="round" stroke-linejoin="round"/>
<path d="M185.057 296.879V304.091" stroke="#263238" stroke-linecap="round" stroke-linejoin="round"/>
<path d="M200.643 291.512V298.735" stroke="#263238" stroke-linecap="round" stroke-linejoin="round"/>
<path d="M216.242 286.154V293.366" stroke="#263238" stroke-linecap="round" stroke-linejoin="round"/>
<path d="M231.84 280.787V287.999" stroke="#263238" stroke-linecap="round" stroke-linejoin="round"/>
<path d="M247.439 275.419V282.642" stroke="#263238" stroke-linecap="round" stroke-linejoin="round"/>
<path d="M263.027 270.062V277.274" stroke="#263238" stroke-linecap="round" stroke-linejoin="round"/>
<path d="M278.625 264.694V271.906" stroke="#263238" stroke-linecap="round" stroke-linejoin="round"/>
<path d="M294.225 259.327V266.539" stroke="#263238" stroke-linecap="round" stroke-linejoin="round"/>
<path d="M309.824 253.959V261.182" stroke="#263238" stroke-linecap="round" stroke-linejoin="round"/>
<path d="M325.41 248.603V255.814" stroke="#263238" stroke-linecap="round" stroke-linejoin="round"/>
<path d="M341.01 243.235V250.447" stroke="#263238" stroke-linecap="round" stroke-linejoin="round"/>
<path d="M356.609 237.867V245.091" stroke="#263238" stroke-linecap="round" stroke-linejoin="round"/>
<path d="M372.209 232.51V239.722" stroke="#263238" stroke-linecap="round" stroke-linejoin="round"/>
<path d="M387.807 227.143V234.354" stroke="#263238" stroke-linecap="round" stroke-linejoin="round"/>
<path d="M402.271 221.833V229.045" stroke="#263238" stroke-linecap="round" stroke-linejoin="round"/>
<path d="M185.143 135.688L242.127 115.068" stroke="#263238" stroke-linecap="round" stroke-linejoin="round"/>
<path d="M185.143 144.931L242.127 124.311" stroke="#263238" stroke-linecap="round" stroke-linejoin="round"/>
<path d="M185.143 154.173L242.127 133.553" stroke="#263238" stroke-linecap="round" stroke-linejoin="round"/>
<path d="M248.064 353.733L227.141 361.108V350.186L248.064 342.799V353.733Z" stroke="#263238" stroke-linecap="round" stroke-linejoin="round"/>
<path d="M294.261 337.477L273.338 344.864V333.93L294.261 326.555V337.477Z" stroke="#263238" stroke-linecap="round" stroke-linejoin="round"/>
<path d="M340.461 321.234L319.537 328.609V317.687L340.461 310.3V321.234Z" stroke="#263238" stroke-linecap="round" stroke-linejoin="round"/>
<path d="M386.66 304.977L365.736 312.352V301.43L386.66 294.055V304.977Z" stroke="#263238" stroke-linecap="round" stroke-linejoin="round"/>
<path d="M494.357 88.3223L431.387 110.529V56.4063L494.357 34.1992V88.3223Z" stroke="#263238" stroke-linecap="round" stroke-linejoin="round"/>
<path d="M431.051 51.9372L457.062 43.0801" stroke="#263238" stroke-linecap="round" stroke-linejoin="round"/>
<path d="M431.051 48.1794L457.062 39.3223" stroke="#263238" stroke-linecap="round" stroke-linejoin="round"/>
<path d="M431.051 44.4099L457.062 35.5645" stroke="#263238" stroke-linecap="round" stroke-linejoin="round"/>
<path d="M437.498 102.571L444.431 87.9843L457.287 88.4394L468.671 63.9101L483.024 64.5986L490.68 43.5352" stroke="#263238" stroke-linecap="round" stroke-linejoin="round"/>
<path d="M435.029 66.9208L489.944 47.4678" stroke="#263238" stroke-linecap="round" stroke-linejoin="round"/>
<path d="M435.029 73.6308L489.944 54.1895" stroke="#263238" stroke-linecap="round" stroke-linejoin="round"/>
<path d="M435.029 80.3408L489.944 60.8994" stroke="#263238" stroke-linecap="round" stroke-linejoin="round"/>
<path d="M435.029 87.0624L489.944 67.6094" stroke="#263238" stroke-linecap="round" stroke-linejoin="round"/>
<path d="M435.029 93.7724L489.944 74.3193" stroke="#263238" stroke-linecap="round" stroke-linejoin="round"/>
<path d="M435.029 100.482L489.944 81.041" stroke="#263238" stroke-linecap="round" stroke-linejoin="round"/>
<path d="M260.73 48.0446C271.26 36.8858 272.257 21.6075 262.955 13.9196C253.654 6.23177 237.577 9.04553 227.046 20.2044C216.515 31.3632 215.519 46.6414 224.82 54.3293C234.122 62.0172 250.199 59.2034 260.73 48.0446Z" stroke="#263238" stroke-linecap="round" stroke-linejoin="round"/>
<path d="M261.344 12.7847C256.78 9.82067 250.658 8.75875 243.887 10.3341V34.1983L261.344 12.7847Z" stroke="#263238" stroke-linecap="round" stroke-linejoin="round"/>
<path d="M278.688 27.5822L307.803 17.6748" stroke="#263238" stroke-linecap="round" stroke-linejoin="round"/>
<path d="M278.688 23.3693L307.803 13.4619" stroke="#263238" stroke-linecap="round" stroke-linejoin="round"/>
<path d="M278.688 19.1574L307.803 9.25" stroke="#263238" stroke-linecap="round" stroke-linejoin="round"/>
<path d="M135.117 137.066L64.6152 161.933V101.345L135.117 76.4775V137.066Z" stroke="#263238" stroke-linecap="round" stroke-linejoin="round"/>
<path d="M116.4 90.5986V137.172L128.246 132.994V86.4209L116.4 90.5986Z" stroke="#263238" stroke-linecap="round" stroke-linejoin="round"/>
<path d="M86.8105 147.614L98.3696 143.53V107.868L86.8105 111.941V147.614Z" stroke="#263238" stroke-linecap="round" stroke-linejoin="round"/>
<path d="M113.157 99.4199L101.598 103.504V142.387L113.157 138.314V99.4199Z" stroke="#263238" stroke-linecap="round" stroke-linejoin="round"/>
<path d="M83.5687 99.957L71.4609 104.216V153.018L83.5687 148.747V99.957Z" stroke="#263238" stroke-linecap="round" stroke-linejoin="round"/>
<path d="M64.2402 96.3283L93.3686 86.4209" stroke="#263238" stroke-linecap="round" stroke-linejoin="round"/>
<path d="M64.2402 92.1261L93.3686 82.207" stroke="#263238" stroke-linecap="round" stroke-linejoin="round"/>
<path d="M64.2402 87.9142L93.3686 77.9951" stroke="#263238" stroke-linecap="round" stroke-linejoin="round"/>
<path d="M85.0135 340.873L31.8691 359.626V366.814L85.0135 348.073V340.873Z" stroke="#263238" stroke-linecap="round" stroke-linejoin="round"/>
<path d="M90.2257 357.981L31.8691 378.566V371.366L90.2257 350.781V357.981Z" stroke="#263238" stroke-linecap="round" stroke-linejoin="round"/>
<path d="M71.9955 368.962L31.8691 383.117V390.317L71.9955 376.162V368.962Z" stroke="#263238" stroke-linecap="round" stroke-linejoin="round"/>
<path d="M82.7191 376.921L31.8691 394.869V402.057L82.7191 384.121V376.921Z" stroke="#263238" stroke-linecap="round" stroke-linejoin="round"/>
<path d="M25.1484 346.16L49.2641 337.956" stroke="#263238" stroke-linecap="round" stroke-linejoin="round"/>
<path d="M25.1484 342.67L49.2641 334.467" stroke="#263238" stroke-linecap="round" stroke-linejoin="round"/>
<path d="M25.1484 339.182L49.2641 330.979" stroke="#263238" stroke-linecap="round" stroke-linejoin="round"/>
<path d="M96.0993 387.715L25.5977 412.571V351.983L96.0993 327.115V387.715Z" stroke="#263238" stroke-linecap="round" stroke-linejoin="round"/>
<path opacity="0.15" d="M378.805 172.169L379.029 172.916L399.741 239.747L396.91 303.276L412.023 315.436L412.734 355.31L417.796 373.562L424.293 368.824L420.677 352.603L422.123 312.063L434.405 313.405L440.902 346.523L458.234 384.367L456.763 364.098L452.436 344.493L457.486 185.006L433.657 168.785C433.657 168.785 436.55 154.595 427.161 148.515C417.771 142.435 406.936 144.454 404.716 151.211C402.496 157.968 404.005 168.108 404.716 170.139C405.427 172.169 406.162 180.945 406.162 180.945L414.829 191.086L409.779 196.489L378.805 172.169Z" fill="black"/>
<path d="M445.427 304.932C445.427 304.932 444.492 321.141 448.008 331.212C451.525 341.283 455.029 366.221 455.029 366.221C455.029 366.221 455.49 378.042 455.49 381.333C455.49 384.623 461.812 389.863 463.208 387.891C464.531 386.173 465.41 384.191 465.775 382.101C466.141 380.012 465.984 377.871 465.316 375.848C463.445 369.943 461.101 364.68 461.101 364.027C461.101 363.373 463.445 335.343 463.208 329.648C462.972 323.954 462.036 318.702 462.036 316.077V302.33L445.427 304.932Z" fill="white" stroke="#263238" stroke-linecap="round" stroke-linejoin="round"/>
<path d="M465.317 375.895C464.581 373.561 463.77 371.332 463.047 369.441L463.209 375.895L456.9 376.782L455.254 372.475C455.366 375.871 455.491 379.711 455.491 381.379C455.491 384.658 461.813 389.91 463.209 387.938C464.532 386.22 465.411 384.238 465.776 382.148C466.142 380.058 465.985 377.918 465.317 375.895Z" fill="#F9C09B" stroke="#263238" stroke-linecap="round" stroke-linejoin="round"/>
<path d="M425.589 299.483C424.117 305.89 423.336 312.418 423.258 318.971C423.258 329.042 427.934 360.351 427.934 360.351C427.934 360.351 421.849 366.268 419.978 369.115C418.108 371.962 414.591 373.934 416.237 375.685C417.883 377.435 422.784 375.02 425.589 374.366C428.395 373.713 429.804 370.865 430.976 369.337C432.148 367.808 434.48 366.921 434.954 363.198C435.233 360.945 435.313 358.673 435.191 356.407C435.191 355.532 435.652 341.085 436.824 332.986C437.996 324.888 439.867 314.152 439.867 306.053C439.867 297.954 425.589 299.483 425.589 299.483Z" fill="white" stroke="#263238" stroke-linecap="round" stroke-linejoin="round"/>
<path d="M433.494 362.112C432.224 364.161 430.361 365.832 428.12 366.932L423.431 365.403H423.02C421.902 366.591 420.869 367.846 419.927 369.161C418.057 372.008 414.541 373.98 416.187 375.731C417.832 377.481 422.733 375.066 425.539 374.412C428.344 373.759 429.753 370.911 430.925 369.383C432.097 367.854 434.429 366.967 434.903 363.244C435.09 361.692 435.165 360.42 435.19 359.382C434.576 360.265 434.009 361.176 433.494 362.112Z" fill="#F9C09B" stroke="#263238" stroke-linecap="round" stroke-linejoin="round"/>
<path d="M421.848 237.763C421.848 237.763 416.237 249.374 416.237 256.819C416.237 264.264 414.828 292.89 414.828 292.89C418.81 299.37 425.106 304.329 432.609 306.893C445.478 311.491 469.581 302.727 469.581 302.727C469.581 302.727 470.516 262.911 469.581 255.687C468.646 248.464 466.738 240.389 466.738 240.389L423.681 232.943L421.848 237.763Z" fill="#263238" stroke="#263238" stroke-linecap="round" stroke-linejoin="round"/>
<path d="M421.848 237.763L422.533 238.288C427.942 242.203 433.842 245.483 440.103 248.056C450.864 252.432 466.288 250.028 466.288 250.028L469.568 221.123L480.329 186.534L444.966 177.735C444.966 177.735 434.205 197.667 432.796 203.793C431.387 209.92 430.688 218.03 430.451 219.781C430.215 221.531 421.848 237.763 421.848 237.763Z" fill="white" stroke="#263238" stroke-linecap="round" stroke-linejoin="round"/>
<path d="M383.655 173.172L376.348 171.223C376.348 171.223 371.921 166.836 371.36 165.12C370.799 163.405 367.968 162.191 369.54 161.958C370.187 161.835 370.856 161.859 371.492 162.027C372.128 162.196 372.711 162.504 373.193 162.926C373.966 163.662 374.228 164.642 375.014 165.12C375.799 165.599 377.096 164.875 376.834 164.152C376.572 163.428 373.704 159.029 373.193 158.049C372.682 157.068 369.802 154.875 369.802 153.661C369.802 152.447 371.36 153.661 372.408 154.139C373.455 154.618 377.882 159.752 379.178 160.242C381.046 161.08 382.662 162.339 383.879 163.907C384.874 165.435 385.662 167.074 386.224 168.785L383.655 173.172Z" fill="white" stroke="#263238" stroke-linecap="round" stroke-linejoin="round"/>
<path d="M455.029 175.401C455.029 175.401 433.257 173.429 431.624 174.304C429.99 175.18 411.037 188.973 411.037 188.973L386.235 167.968L381.322 172.344L409.166 206.279L426.948 201.471C426.948 201.471 427.646 212.195 428.12 215.696C428.594 219.197 425.077 224.892 422.272 230.586C419.466 236.281 411.498 248.756 411.498 248.756C411.498 248.756 413.381 252.922 415.239 254.019C417.097 255.116 420.85 257.088 420.85 257.088C420.85 257.088 428.806 234.087 430.439 228.392C432.073 222.698 433.718 219.197 433.955 216.793C434.192 214.389 446.587 188.541 446.587 188.541L455.029 175.401Z" fill="#F9C09B" stroke="#263238" stroke-linecap="round" stroke-linejoin="round"/>
<path d="M426.949 201.423L429.992 186.533" stroke="#808080" stroke-linecap="round" stroke-linejoin="round"/>
<path d="M448.108 174.794C444.507 178.479 441.407 182.567 438.881 186.965C434.903 194.41 432.559 217.843 432.796 220.025C432.796 220.317 432.858 220.62 432.871 220.9C433.382 219.553 433.75 218.161 433.968 216.746C434.205 214.342 446.599 188.494 446.599 188.494L455.029 175.401C455.029 175.401 451.986 175.086 448.108 174.794Z" fill="#F9C09B" stroke="#263238" stroke-linecap="round" stroke-linejoin="round"/>
<path d="M411.037 188.938L406.822 191.563" stroke="#808080" stroke-linecap="round" stroke-linejoin="round"/>
<path d="M449.642 166.602C449.642 166.602 451.774 171.9 451.774 174.047C451.774 176.195 445.689 189.591 445.689 189.591L460.653 195.729C460.653 195.729 468.134 179.299 468.371 177.338C468.608 175.378 466.501 169.45 467.91 161.573C469.319 153.696 470.242 152.587 467.436 152.155C464.63 151.724 453.159 153.462 451.064 156.31C450.03 157.821 449.366 159.527 449.121 161.307C448.875 163.086 449.053 164.895 449.642 166.602Z" fill="white" stroke="#263238" stroke-linecap="round" stroke-linejoin="round"/>
<path d="M456.65 166.661L451.138 171.457L450.266 168.447L456.65 166.661Z" fill="#263238" stroke="#263238" stroke-linecap="round" stroke-linejoin="round"/>
<path d="M468.597 176.674C468.597 176.674 458.297 197.912 454.082 206.898C449.868 215.883 447.536 220.901 447.536 223.095C447.536 225.289 444.73 263.6 444.73 263.6C447.037 265.713 449.844 267.289 452.923 268.198C457.831 269.458 463.021 269.385 467.886 267.988C471.864 266.891 477.238 261.418 477.238 261.418C477.238 261.418 471.627 227.039 471.627 226.409C471.627 225.779 477.475 209.979 478.647 208.006C479.819 206.034 488.934 189.615 489.408 188.087C489.882 186.558 468.597 176.674 468.597 176.674Z" fill="#F9C09B" stroke="#263238" stroke-linecap="round" stroke-linejoin="round"/>
<path d="M454.082 206.91C449.879 215.883 447.535 220.913 447.535 223.107C453.585 216.673 459.065 209.789 463.92 202.522C468.307 195.255 472.165 187.718 475.466 179.965C471.663 178.109 468.583 176.674 468.583 176.674C468.583 176.674 458.296 197.912 454.082 206.91Z" fill="#F9C09B" stroke="#263238" stroke-linecap="round" stroke-linejoin="round"/>
<path d="M413.382 221.122C413.382 221.122 412.908 217.4 412.908 215.871C412.972 214.795 413.291 213.747 413.843 212.802C414.165 216.309 415.198 219.727 416.886 222.873C419.455 227.039 420.864 229.442 420.864 229.442C420.864 229.442 414.08 224.191 413.382 221.122Z" fill="white" stroke="#263238" stroke-linecap="round" stroke-linejoin="round"/>
<path d="M432.322 234.915V229.886C432.322 229.886 425.314 227.914 422.035 226.595C418.755 225.276 413.381 221.122 413.381 221.122C413.381 221.122 416.885 229.011 418.294 230.761C419.703 232.512 420.626 236.234 421.798 237.763C422.937 239.722 423.877 241.777 424.603 243.901C425.662 245.028 426.84 246.053 428.12 246.958C430.494 248.714 433.19 250.05 436.075 250.903L432.097 238.416L432.322 234.915Z" fill="white" stroke="#263238" stroke-linecap="round" stroke-linejoin="round"/>
<path d="M443.794 236.888H438.644L432.322 234.916L432.098 238.417L422.733 237.973C422.733 237.973 420.626 237.752 422.97 239.292C424.572 240.317 426.059 241.49 427.409 242.793C428.345 243.668 429.517 245.64 431.861 245.64C434.205 245.64 440.515 242.793 441.924 242.793C443.333 242.793 446.6 240.821 446.6 240.821L443.794 236.888Z" fill="white" stroke="#263238" stroke-linecap="round" stroke-linejoin="round"/>
<path d="M471.465 207.796L475.368 230.855L442.623 236.234L444.493 243.236C444.493 243.236 489.383 243.761 490.854 243.539C492.326 243.318 488.947 193.757 488.947 193.757C488.947 193.757 489.184 187.619 488.947 186.534C488.71 185.449 480.53 183.243 480.53 183.243" fill="#F9C09B"/>
<path d="M471.465 207.796L475.368 230.855L442.623 236.234L444.493 243.236C444.493 243.236 489.383 243.761 490.854 243.539C492.326 243.318 488.947 193.757 488.947 193.757C488.947 193.757 489.184 187.619 488.947 186.534C488.71 185.449 480.53 183.243 480.53 183.243" stroke="#263238" stroke-linecap="round" stroke-linejoin="round"/>
<path d="M476.938 139.635C476.938 139.635 480.616 133.882 483.696 133.111C486.776 132.341 491.265 133.111 493.322 136.612C495.38 140.113 494.956 148.503 493.322 150.802C491.689 153.101 487.175 153.86 484.307 153.136C481.439 152.413 478.371 149.635 477.96 147.196C477.549 144.758 476.938 139.635 476.938 139.635Z" fill="#263238" stroke="#263238" stroke-linecap="round" stroke-linejoin="round"/>
<path d="M463.21 165.319C463.21 165.319 470.791 164.747 473.659 161.818C476.527 158.889 482.463 153.965 480.418 145.341C478.373 136.717 472.637 134.033 468.123 132.306C463.609 130.579 456.9 133.263 456.9 133.263C456.9 133.263 456.127 133.66 455.043 134.301C454.456 134.512 452.811 135.095 451.165 135.562C449.12 136.134 447.274 136.332 447.424 138.432C447.494 138.92 447.735 139.371 448.11 139.716C447.921 139.976 447.762 140.254 447.636 140.545C446.202 143.8 445.379 148.597 444.967 149.367C444.556 150.137 440.254 150.709 440.254 151.852C440.254 152.996 442.311 156.077 442.311 156.077C442.311 156.077 442.311 166.579 442.71 167.956C443.109 169.333 451.726 167.77 451.726 167.77L456.639 166.603L458.16 166.101" fill="white"/>
<path d="M463.21 165.319C463.21 165.319 470.791 164.747 473.659 161.818C476.527 158.889 482.463 153.965 480.418 145.341C478.373 136.717 472.637 134.033 468.123 132.306C463.609 130.579 456.9 133.263 456.9 133.263C456.9 133.263 456.127 133.66 455.043 134.301C454.456 134.512 452.811 135.095 451.165 135.562C449.12 136.134 447.274 136.332 447.424 138.432C447.494 138.92 447.735 139.371 448.11 139.716C447.921 139.976 447.762 140.254 447.636 140.545C446.202 143.8 445.379 148.597 444.967 149.367C444.556 150.137 440.254 150.709 440.254 151.852C440.254 152.996 442.311 156.077 442.311 156.077C442.311 156.077 442.311 166.579 442.71 167.956C443.109 169.333 451.726 167.77 451.726 167.77L456.639 166.603L458.16 166.101" stroke="#263238" stroke-linecap="round" stroke-linejoin="round"/>
<path d="M459.518 164.362C459.518 164.362 462.311 164.747 465.503 165.027C467.997 164.619 471.8 163.732 473.658 161.865C476.526 158.994 482.461 154.011 480.416 145.388C478.371 136.764 472.636 134.08 468.122 132.353C463.608 130.626 456.899 133.31 456.899 133.31C456.899 133.31 456.126 133.707 455.041 134.348C454.455 134.558 452.809 135.142 451.163 135.609C449.118 136.18 447.273 136.379 447.423 138.479C447.493 138.967 447.734 139.418 448.108 139.763C448.108 139.763 448.246 141.163 451.113 142.097C452.506 142.609 453.946 143 455.415 143.264C454.76 144.443 454.401 145.746 454.364 147.074C454.328 148.403 454.615 149.722 455.203 150.931C456.33 153.209 457.777 155.336 459.505 157.256C459.505 157.256 461.999 154 464.019 156.089C464.888 157.005 465.384 158.179 465.42 159.404C465.457 160.629 465.031 161.826 464.219 162.787C462.797 164.747 459.518 164.362 459.518 164.362Z" fill="#263238" stroke="#263238" stroke-linecap="round" stroke-linejoin="round"/>
<path d="M448.135 149.997C447.997 150.849 447.524 151.479 447.062 151.42C446.601 151.362 446.352 150.615 446.489 149.763C446.626 148.911 447.1 148.281 447.549 148.34C447.997 148.398 448.259 149.145 448.135 149.997Z" fill="#263238"/>
<path d="M447.299 145.936C447.299 145.936 449.144 145.469 449.656 148.141" stroke="#263238" stroke-linecap="round" stroke-linejoin="round"/>
<path opacity="0.15" d="M176.201 473.859L77.1195 475.609L77.6308 465.667C78.3664 462.166 79.2518 457.673 79.551 454.873C80.1122 449.598 84.1148 422.56 84.5388 421.159C84.9627 419.759 89.9754 399.419 90.1749 398.591L94.215 386.198C95.4619 393.97 99.2027 417.81 99.2027 425.244C99.2027 433.342 99.6267 448.081 102.445 455.748C102.594 456.145 102.732 456.576 102.869 457.02L103.268 465.807L132.059 469.308L132.808 466.157L123.081 458.817L122.433 450.345C122.695 441.009 123.119 430.507 123.68 426.574C124.74 419.362 126.872 379.313 126.897 378.904C126.922 378.496 125.114 386.606 124.802 380.713C125.544 380.32 126.191 379.788 126.702 379.149C127.213 378.51 127.577 377.779 127.77 377.002C128.183 375.126 128.47 373.228 128.63 371.319C130.65 369.417 135.538 364.317 140.09 359.369C151.312 347.07 151.312 345.658 151.312 345.191C151.312 342.577 147.26 333.86 147.085 333.522L130.438 298.513C130.326 297.778 129.566 292.76 127.67 289.878C126.215 288.085 124.423 286.555 122.383 285.362C118.293 281.802 112.296 276.983 111.248 276.983C110.625 276.854 107.782 274.462 105.5 272.315C104.412 271.382 103.211 270.571 101.921 269.899L102.856 266.55C104.215 266.295 105.54 265.903 106.809 265.383C108.343 264.672 109.303 260.786 110.924 253.971L111.31 252.372C112.051 248.917 112.299 245.385 112.046 241.869C113.086 239.969 113.753 237.91 114.016 235.79C114.258 233.654 114.317 231.504 114.191 229.36C113.929 225.555 109.777 222.906 107.32 221.669C103.579 219.802 98.5917 218.53 96.4969 219.639C94.6661 220.767 93.309 222.453 92.6563 224.412H92.1326C88.658 225.081 85.4328 226.595 82.7806 228.799C82.2818 229.255 81.7456 229.698 81.197 230.153C77.8677 232.895 73.7154 236.315 75.2865 246.806C75.8975 250.831 80.8853 260.249 82.3442 261.626C82.5686 261.824 82.7432 262.023 82.9302 262.221L82.4315 265.372C78.0173 265.033 74.2516 265.08 73.1792 266.084C72.3687 266.842 68.366 268.242 65.9719 269.083C65.0367 269.409 64.2512 269.689 63.8023 269.864C63.3534 270.039 62.4306 270.285 61.3084 270.588C57.5676 271.568 51.9065 273.062 50.3229 275.104C48.7393 277.146 33.1651 303.904 27.5539 314.605C26.9187 315.623 26.3563 316.68 25.8705 317.768C25.6874 318.112 25.5533 318.476 25.4715 318.853C25.0919 319.791 25.0054 320.811 25.2221 321.794C26.1199 324.291 51.0461 346.486 52.9789 348.097C55.373 350.092 58.8644 352.613 58.9018 352.636C59.0084 352.714 59.1405 352.756 59.2759 352.753H59.4255C59.4255 352.753 59.8619 352.636 60.3981 352.449L54.9366 370.339C54.9114 370.437 54.9131 370.54 54.9414 370.638C54.9697 370.736 55.0238 370.826 55.0987 370.899C56.9468 372.44 58.961 373.797 61.1089 374.948C61.2336 383.315 63.6027 396.525 63.6027 398.416C63.6027 399.186 63.3658 402.64 63.0666 406.993C62.5054 415.406 61.7199 426.936 61.7199 432C61.7199 437.835 63.0292 455.433 63.9394 465.655L64.7749 479.799L178.583 479.472L176.201 473.859ZM126.236 341.305L127.782 343.184C127.371 343.919 126.748 345.039 125.999 346.405C126.074 345.261 126.161 343.499 126.236 341.305ZM48.9263 318.818C51.1209 316.484 53.0662 314.15 54.0512 312.867L62.705 334.537C62.705 334.899 62.9543 336.684 63.0666 338.773L48.9263 318.818Z" fill="black"/>
<path d="M176.6 211.248C177.147 215.525 176.983 219.855 176.113 224.085C174.642 230.281 173.42 236.022 171.949 236.711C170.605 237.239 169.205 237.631 167.771 237.878L166.524 242.231L147.883 239.477L149.13 231.67C149.13 231.67 164.579 208.728 176.6 211.248Z" fill="white" stroke="#263238" stroke-linecap="round" stroke-linejoin="round"/>
<path d="M157.496 196.825C157.496 196.825 151.897 197.84 148.456 201.061C145.014 204.282 139.353 206.663 141.136 218.565C141.735 222.556 146.735 231.857 148.032 233.059C149.328 234.261 149.528 235.276 153.618 236.081C157.708 236.887 164.603 237.097 165.676 236.49C166.748 235.883 168.444 232.557 171.25 229.138C174.055 225.719 175.414 219.184 175.414 216.967C175.421 216.341 175.606 215.729 175.951 215.193C177.491 212.874 178.478 210.27 178.843 207.561C179.088 205.461 179.146 203.345 179.018 201.236C178.594 194.795 165.302 190.36 162.234 191.971C160.349 193.079 158.968 194.799 158.356 196.802L157.496 196.825Z" fill="#263238" stroke="#263238" stroke-linecap="round" stroke-linejoin="round"/>
<path d="M172.822 231.321C172.822 231.321 171.151 233.083 170.527 230.936C170.239 229.112 170.383 227.251 170.951 225.486C170.951 225.486 170.951 223.152 172.198 223.339C173.445 223.525 173.233 228.205 173.233 228.205" fill="white"/>
<path d="M172.822 231.321C172.822 231.321 171.151 233.083 170.527 230.936C170.239 229.112 170.383 227.251 170.951 225.486C170.951 225.486 170.951 223.152 172.198 223.339C173.445 223.525 173.233 228.205 173.233 228.205" stroke="#263238" stroke-linecap="round" stroke-linejoin="round"/>
<path d="M94.0271 285.524C94.0271 285.524 90.2863 291.289 91.0843 293.541C91.8824 295.793 116.247 317.604 118.654 319.611C121.061 321.618 124.552 324.115 124.552 324.115C124.552 324.115 128.829 323.112 129.64 320.113C130.09 318.459 130.448 316.784 130.712 315.095L112.232 289.037L105.274 285.279" fill="#F9C09B"/>
<path d="M94.0271 285.524C94.0271 285.524 90.2863 291.289 91.0843 293.541C91.8824 295.793 116.247 317.604 118.654 319.611C121.061 321.618 124.552 324.115 124.552 324.115C124.552 324.115 128.829 323.112 129.64 320.113C130.09 318.459 130.448 316.784 130.712 315.095L112.232 289.037L105.274 285.279" stroke="#263238" stroke-linecap="round" stroke-linejoin="round"/>
<path d="M126.959 344.42C126.959 344.42 127.495 382.008 127.495 384.26C127.495 386.512 125.625 410.073 125.625 417.845C125.625 425.617 128.032 455.432 128.568 458.688C129.104 461.944 127.234 465.958 129.64 467.709C132.047 469.459 136.872 469.716 138.743 467.709C140.613 465.701 139.279 456.179 139.279 456.179C139.279 456.179 141.686 445.676 142.222 440.647C142.758 435.617 146.773 408.322 147.309 406.805C147.845 405.288 152.933 384.283 152.933 384.283L157.758 369.498C157.758 369.498 163.108 402.079 163.108 411.1C163.108 420.12 163.644 434.147 166.325 441.44C169.006 448.734 171.412 467.51 171.412 467.51C171.412 467.51 170.602 475.025 170.602 476.531C170.602 478.036 172.747 479.53 174.617 479.53H178.695C179.921 479.175 181.091 478.669 182.173 478.024L189.406 477.032C192.885 476.531 199.044 474.022 201.177 473.018C203.309 472.015 205.204 468.759 204.132 468.759C203.06 468.759 188.595 465.748 187.261 465.503L185.914 465.246C185.771 463.327 185.771 461.401 185.914 459.482C186.189 457.229 184.854 456.984 184.854 452.97C184.854 448.956 185.378 419.642 186.45 412.372C187.523 405.102 189.668 364.76 189.668 364.76C189.668 364.76 190.204 352.484 188.87 345.471C187.867 340.697 186.432 336.013 184.58 331.467C184.58 331.467 161.824 332.716 149.766 330.965C142.944 330.026 136.225 328.518 129.69 326.461C129.69 326.461 127.234 338.901 126.959 344.42Z" fill="#263238" stroke="#263238" stroke-linecap="round" stroke-linejoin="round"/>
<path d="M91.4102 290.788C91.4102 289.177 114.117 249.828 116.075 247.296C118.032 244.763 127.609 242.931 129.317 242.243C131.025 241.554 137.659 239.489 138.893 238.345C140.128 237.201 146.737 237.423 156.35 238.8C165.964 240.177 170.578 244.542 170.578 244.542C170.578 244.542 175.728 249.361 176.7 249.361C177.673 249.361 190.205 259.467 191.177 261.031C192.15 262.594 191.464 310.159 190.728 318.876C189.993 327.593 186.988 330.126 185.042 333.568C183.097 337.011 173.82 353.546 172.785 354.001C171.75 354.456 151.886 355.542 139.38 351.667C126.873 347.793 120.9 342.402 120.9 342.402C120.9 342.402 127.646 320.288 128.619 317.079C129.591 313.87 128.619 306.285 128.619 306.285L119.541 283.564C119.541 283.564 111.448 294.347 106.785 295.724" fill="#F9C09B"/>
<path d="M91.4102 290.788C91.4102 289.177 114.117 249.828 116.075 247.296C118.032 244.763 127.609 242.931 129.317 242.243C131.025 241.554 137.659 239.489 138.893 238.345C140.128 237.201 146.737 237.423 156.35 238.8C165.964 240.177 170.578 244.542 170.578 244.542C170.578 244.542 175.728 249.361 176.7 249.361C177.673 249.361 190.205 259.467 191.177 261.031C192.15 262.594 191.464 310.159 190.728 318.876C189.993 327.593 186.988 330.126 185.042 333.568C183.097 337.011 173.82 353.546 172.785 354.001C171.75 354.456 151.886 355.542 139.38 351.667C126.873 347.793 120.9 342.402 120.9 342.402C120.9 342.402 127.646 320.288 128.619 317.079C129.591 313.87 128.619 306.285 128.619 306.285L119.541 283.564C119.541 283.564 111.448 294.347 106.785 295.724" stroke="#263238" stroke-linecap="round" stroke-linejoin="round"/>
<path d="M157.023 311.594C157.996 312.936 158.994 314.219 160.004 315.433" stroke="#263238" stroke-linecap="round" stroke-linejoin="round"/>
<path d="M140.227 280.846C144.286 290.419 149.178 299.665 154.853 308.491" stroke="#263238" stroke-linecap="round" stroke-linejoin="round"/>
<path d="M141.287 266.165C141.287 266.165 144.28 280.168 147.634 288.874" stroke="#263238" stroke-linecap="round" stroke-linejoin="round"/>
<path d="M114.827 263.668C114.59 262.221 114.403 260.879 114.291 259.7L114.827 263.668Z" fill="white"/>
<path d="M114.827 263.668C114.59 262.221 114.403 260.879 114.291 259.7" stroke="#263238" stroke-linecap="round" stroke-linejoin="round"/>
<path d="M119.44 283.577C119.44 283.577 117.283 275.793 115.699 268.406L119.44 283.577Z" fill="white"/>
<path d="M119.44 283.577C119.44 283.577 117.283 275.793 115.699 268.406" stroke="#263238" stroke-linecap="round" stroke-linejoin="round"/>
<path d="M183.47 336.439C183.47 336.439 178.569 343.324 178.569 344.235C178.569 345.145 177.584 347.736 178.07 348.377C178.557 349.019 186.911 353.197 187.884 352.963C188.992 352.744 190.015 352.242 190.838 351.513C191.661 350.784 192.252 349.856 192.547 348.832C193.058 346.406 193.387 343.95 193.532 341.481L183.47 336.439Z" fill="white" stroke="#263238" stroke-linecap="round" stroke-linejoin="round"/>
<path d="M178.57 344.176C178.57 344.176 184.456 348.54 185.441 348.318C186.426 348.097 183.683 344.607 183.683 344.607C183.683 344.607 185.154 345.774 184.668 342.764" fill="white"/>
<path d="M178.57 344.176C178.57 344.176 184.456 348.54 185.441 348.318C186.426 348.097 183.683 344.607 183.683 344.607C183.683 344.607 185.154 345.774 184.668 342.764" stroke="#263238" stroke-linecap="round" stroke-linejoin="round"/>
<path d="M185.678 346.941L190.591 349.462" stroke="#263238" stroke-linecap="round" stroke-linejoin="round"/>
<path d="M175.689 293.075L193.782 315.025C193.782 315.025 181.762 336.381 182.56 339.135C183.358 341.889 191.388 344.409 192.86 343.487C194.331 342.565 216.103 319.612 216.103 317.091C216.103 314.57 211.925 305.608 211.925 305.608L195.254 270.483C195.254 270.483 194.518 264.975 192.548 261.988C190.578 259 183.47 255.336 183.47 255.336" fill="#F9C09B"/>
<path d="M175.689 293.075L193.782 315.025C193.782 315.025 181.762 336.381 182.56 339.135C183.358 341.889 191.388 344.409 192.86 343.487C194.331 342.565 216.103 319.612 216.103 317.091C216.103 314.57 211.925 305.608 211.925 305.608L195.254 270.483C195.254 270.483 194.518 264.975 192.548 261.988C190.578 259 183.47 255.336 183.47 255.336" stroke="#263238" stroke-linecap="round" stroke-linejoin="round"/>
<path d="M193.783 315.025L198.085 321.024" stroke="#263238" stroke-linecap="round" stroke-linejoin="round"/>
<path d="M178.695 278.394C178.695 278.394 184.307 269.666 192.137 269.315" stroke="#263238" stroke-linecap="round" stroke-linejoin="round"/>
<path d="M186.176 330.604C186.176 330.604 174.392 344.887 173.32 345.891C172.248 346.894 168.232 353.651 168.232 353.651L176.537 356.907C176.537 356.907 180.24 341.655 186.176 330.604Z" fill="#8A8A8A" stroke="#263238" stroke-linecap="round" stroke-linejoin="round"/>
<path d="M136.062 240.166C136.062 240.166 156.949 239.664 171.949 246.689L136.062 240.166Z" fill="#F9C09B"/>
<path d="M136.062 240.166C136.062 240.166 156.949 239.664 171.949 246.689" stroke="#263238" stroke-linecap="round" stroke-linejoin="round"/>
<path d="M309.96 406.958C309.96 406.958 307.142 414.193 301.231 415.185C295.321 416.177 284.685 405.289 291.331 399.723C297.977 394.156 307.129 403.014 309.96 406.958Z" fill="#263238" stroke="#263238" stroke-linecap="round" stroke-linejoin="round"/>
<path d="M319.088 371.448C319.088 371.448 310.359 391.508 313.826 401.369C317.292 411.229 339.126 418.476 345.448 405.651C351.77 392.827 337.717 374.739 332.442 370.795C327.168 366.85 320.846 368.157 319.088 371.448Z" fill="#263238" stroke="#263238" stroke-linecap="round" stroke-linejoin="round"/>
<path d="M370.4 380.001C370.4 380.001 355.287 392.838 353.529 405.674C351.771 418.511 361.958 423.097 372.507 421.452C383.056 419.806 388.319 394.822 385.151 383.304C381.984 371.786 370.4 380.001 370.4 380.001Z" fill="#263238" stroke="#263238" stroke-linecap="round" stroke-linejoin="round"/>
<path d="M373.218 451.022C373.218 451.022 356.36 451.688 355.649 459.249C354.938 466.811 363.031 468.457 371.111 461.875C379.191 455.293 380.239 451.361 373.218 451.022Z" fill="#263238" stroke="#263238" stroke-linecap="round" stroke-linejoin="round"/>
<path d="M331.396 466.811C331.396 466.811 329.638 474.699 323.316 477.663C316.994 480.627 305.747 474.372 311.72 464.827C317.693 455.281 328.229 462.866 331.396 466.811Z" fill="#263238" stroke="#263238" stroke-linecap="round" stroke-linejoin="round"/>
<path d="M316.632 442.154C316.632 442.154 313.477 435.572 301.17 439.82C288.863 444.067 283.962 450.672 291.681 452.983C299.399 455.293 316.632 442.154 316.632 442.154Z" fill="#263238" stroke="#263238" stroke-linecap="round" stroke-linejoin="round"/>
<path d="M351.77 363.279C351.77 363.279 353.877 367.889 358.091 366.897C362.306 365.905 363.366 360 370.05 361.645C376.733 363.291 382.344 370.514 382.344 367.235C382.344 363.956 373.915 355.391 364.426 355.391C354.937 355.391 352.119 358.95 351.77 363.279Z" fill="#263238" stroke="#263238" stroke-linecap="round" stroke-linejoin="round"/>
<path d="M351.209 518.32L325.971 527.002L322.754 497.105L354.439 486.124L351.209 518.32Z" fill="white" stroke="#263238" stroke-linecap="round" stroke-linejoin="round"/>
<path d="M354.439 486.124L368.117 495.413L336.433 506.382L322.754 497.105L354.439 486.124Z" fill="white" stroke="#263238" stroke-linecap="round" stroke-linejoin="round"/>
<path d="M353.616 488.049L364.09 495.167L338.067 504.211L327.58 497.093L353.616 488.049Z" fill="#263238" stroke="#263238" stroke-linecap="round" stroke-linejoin="round"/>
<path d="M334.389 412.897C334.389 412.897 341.746 433.039 343.317 450.24C344.888 467.441 343.317 494.957 343.317 494.957" stroke="#263238" stroke-linecap="round" stroke-linejoin="round"/>
<path d="M360.112 419.771C360.112 419.771 351.72 442.865 349.613 457.616C347.505 472.366 346.994 494.958 346.994 494.958" stroke="#263238" stroke-linecap="round" stroke-linejoin="round"/>
<path d="M355.923 461.047C355.923 461.047 352.244 462.039 350.137 495.449" stroke="#263238" stroke-linecap="round" stroke-linejoin="round"/>
<path d="M331.396 466.811C331.396 466.811 334.913 463.999 337.02 470.382C339.127 476.765 338.068 494.468 338.068 494.468" stroke="#263238" stroke-linecap="round" stroke-linejoin="round"/>
<path d="M340.473 463.637C343.228 478.037 340.685 493.977 340.685 493.977" stroke="#263238" stroke-linecap="round" stroke-linejoin="round"/>
<path d="M316.633 442.153C316.633 442.153 331.771 439.434 338.068 455.153C338.691 456.727 339.219 458.332 339.651 459.961" stroke="#263238" stroke-linecap="round" stroke-linejoin="round"/>
<path d="M379.777 426.913C379.777 426.913 382.945 420.343 395.239 424.579C407.534 428.815 412.459 435.432 404.728 437.731C396.997 440.03 379.777 426.913 379.777 426.913Z" fill="#263238" stroke="#263238" stroke-linecap="round" stroke-linejoin="round"/>
<path d="M366.334 429.796C362.601 432.302 359.809 435.847 358.354 439.925C352.044 455.644 352.767 494.468 352.767 494.468" stroke="#263238" stroke-linecap="round" stroke-linejoin="round"/>
<path d="M379.777 426.913C376.22 426.448 372.595 426.912 369.303 428.255" stroke="#263238" stroke-linecap="round" stroke-linejoin="round"/>
<path d="M326.533 416.959C330.477 421.418 333.497 426.528 335.436 432.024C343.841 454.628 346.995 483.615 345.412 494.433" stroke="#263238" stroke-linecap="round" stroke-linejoin="round"/>
<path d="M309.961 406.958C309.961 406.958 317.28 408.032 324.7 415.127" stroke="#263238" stroke-linecap="round" stroke-linejoin="round"/>
<path d="M347.867 438.15C347.356 466.671 346.994 494.957 346.994 494.957" stroke="#263238" stroke-linecap="round" stroke-linejoin="round"/>
<path d="M351.77 363.279C351.77 363.279 350.137 361.855 349.089 387.4C348.678 397.331 348.279 415.792 347.93 434.661" stroke="#263238" stroke-linecap="round" stroke-linejoin="round"/>
<path d="M364.889 527.609L339.651 536.291L336.434 506.382L368.118 495.413L364.889 527.609Z" fill="white" stroke="#263238" stroke-linecap="round" stroke-linejoin="round"/>
<path d="M336.433 506.383L322.754 497.105L325.971 527.003L339.65 536.292L336.433 506.383Z" fill="white" stroke="#263238" stroke-linecap="round" stroke-linejoin="round"/>
</svg>