<svg width="20" height="18" viewBox="0 0 20 18" fill="none" xmlns="http://www.w3.org/2000/svg">
<path d="M17.633 4.46251C17.646 4.65098 17.646 4.83838 17.646 5.02578C17.646 10.7608 13.593 17.3692 6.186 17.3692C3.904 17.3692 1.784 16.6573 0 15.4209C0.324 15.4608 0.636 15.4748 0.973 15.4748C2.856 15.4748 4.589 14.7898 5.974 13.6213C4.203 13.5814 2.719 12.3321 2.207 10.6132C2.456 10.6531 2.706 10.68 2.968 10.68C3.329 10.68 3.692 10.6261 4.029 10.5324C2.182 10.1297 0.799 8.38384 0.799 6.27509V6.22124C1.336 6.54326 1.959 6.74466 2.619 6.77158C1.534 5.99399 0.823 4.66391 0.823 3.15934C0.823 2.35375 1.022 1.61493 1.371 0.970891C3.354 3.60199 6.335 5.32195 9.677 5.51042C9.615 5.18733 9.577 4.85238 9.577 4.51636C9.577 2.12543 11.373 0.178223 13.605 0.178223C14.765 0.178223 15.812 0.701642 16.548 1.54816C17.458 1.35969 18.33 0.996739 19.104 0.500244C18.805 1.50723 18.168 2.35375 17.333 2.89117C18.144 2.7964 18.93 2.55515 19.652 2.21913C19.104 3.07857 18.419 3.84431 17.633 4.46251Z" fill="#3F5652"/>
</svg>