<svg width="18" height="20" viewBox="0 0 18 20" fill="none" xmlns="http://www.w3.org/2000/svg">
<path fill-rule="evenodd" clip-rule="evenodd" d="M13.5 0.0805664H4.5C2.02522 0.0805664 0 2.26075 0 4.92704V14.62C0 17.2853 2.02522 19.4665 4.5 19.4665H13.5C15.9748 19.4665 18 17.2853 18 14.62V4.92704C18 2.26075 15.9748 0.0805664 13.5 0.0805664ZM9 13.8121C6.92865 13.8121 5.24993 12.0034 5.24993 9.77352C5.24993 7.54269 6.92865 5.73471 9 5.73471C11.0704 5.73471 12.7501 7.54269 12.7501 9.77352C12.7501 12.0034 11.0704 13.8121 9 13.8121ZM12.7501 4.52309C12.7501 5.19214 13.2532 5.73471 13.8751 5.73471C14.497 5.73471 15.0001 5.19214 15.0001 4.52309C15.0001 3.85403 14.497 3.31147 13.8751 3.31147C13.2532 3.31147 12.7501 3.85403 12.7501 4.52309Z" fill="#3F5652"/>
</svg>