<svg width="68" height="18" viewBox="0 0 68 18" fill="none" xmlns="http://www.w3.org/2000/svg">
<path d="M12.3891 4.54199C12.3891 4.69824 12.3031 4.77637 12.1312 4.77637C11.8344 4.77637 10.6586 4.71777 8.60391 4.60059C8.55703 6.57715 8.53359 7.95605 8.53359 8.7373C8.53359 9.65918 8.56875 11.0459 8.63906 12.8975C8.71719 14.749 8.75625 16.1357 8.75625 17.0576C8.75625 17.2061 8.72109 17.2998 8.65078 17.3389C8.62734 17.3545 8.51797 17.374 8.32266 17.3975C7.85391 17.46 7.16641 17.4912 6.26016 17.4912C5.25234 17.4912 4.54531 17.46 4.13906 17.3975C3.92031 17.3584 3.81094 17.2373 3.81094 17.0342C3.81094 16.1123 3.85 14.7295 3.92812 12.8857C4.00625 11.042 4.04531 9.65918 4.04531 8.7373C4.04531 8.12793 4.01406 6.76855 3.95156 4.65918C2.38906 4.81543 1.14297 4.89355 0.213281 4.89355C0.0882812 4.89355 0.0257812 4.85449 0.0257812 4.77637C0.0257812 4.6748 0.0804687 4.37402 0.189844 3.87402C0.314844 3.32715 0.385156 2.99512 0.400781 2.87793C0.424219 2.51074 0.451562 2.14355 0.482812 1.77637C0.5375 1.19043 0.63125 0.897461 0.764062 0.897461C0.779687 0.897461 0.834375 0.901367 0.928125 0.90918C2.19375 1.07324 4.06484 1.15527 6.54141 1.15527C7.24453 1.15527 8.54141 1.08105 10.432 0.932617C11.4477 0.854492 11.9594 0.81543 11.9672 0.81543C12.1234 0.81543 12.2133 0.827148 12.2367 0.850586C12.2602 0.866211 12.2758 0.94043 12.2836 1.07324C12.2836 1.28418 12.2758 1.57715 12.2602 1.95215C12.2445 2.36621 12.2367 2.65918 12.2367 2.83105C12.2367 3.02637 12.2602 3.31543 12.307 3.69824C12.3617 4.07324 12.3891 4.35449 12.3891 4.54199ZM25.7547 13.7529C25.7547 14.0889 25.6883 14.7061 25.5555 15.6045C25.4148 16.5811 25.2898 17.1631 25.1805 17.3506C25.0867 17.499 24.9578 17.5732 24.7938 17.5732C24.7234 17.5732 24.6063 17.5615 24.4422 17.5381C23.8719 17.46 22.2078 17.4209 19.45 17.4209C18.8484 17.4209 17.9539 17.417 16.7664 17.4092C15.5789 17.4014 14.6883 17.3975 14.0945 17.3975C13.8367 17.3975 13.7078 17.2842 13.7078 17.0576C13.7078 16.1826 13.7547 14.8701 13.8484 13.1201C13.95 11.3623 14.0008 10.0459 14.0008 9.1709C14.0008 8.28027 13.9539 6.62012 13.8602 4.19043C13.8367 3.56543 13.7938 2.63184 13.7313 1.38965L13.7195 1.22559C13.7039 1.0459 13.8016 0.956055 14.0125 0.956055C14.5906 0.956055 15.4578 0.97168 16.6141 1.00293C17.7781 1.03418 18.6492 1.0498 19.2273 1.0498C19.7977 1.0498 20.657 1.03418 21.8055 1.00293C22.9539 0.97168 23.8133 0.956055 24.3836 0.956055C24.7898 0.956055 25.0242 1.1084 25.0867 1.41309C25.1258 1.59277 25.1844 2.13965 25.2625 3.05371C25.3484 3.95996 25.3914 4.51074 25.3914 4.70605C25.3914 4.87012 25.3133 4.95215 25.157 4.95215C25.1102 4.95215 25.0281 4.94824 24.9109 4.94043C22.8328 4.76855 20.9656 4.68262 19.3094 4.68262C18.8953 4.68262 18.6414 4.78027 18.5477 4.97559C18.5086 5.06934 18.4891 5.37012 18.4891 5.87793C18.4891 6.40918 18.5672 6.76074 18.7234 6.93262C18.8563 7.08105 19.1102 7.15527 19.4852 7.15527C19.5633 7.15527 19.7156 7.15137 19.9422 7.14355C20.1688 7.12793 20.3563 7.12012 20.5047 7.12012C21.4891 7.12012 22.4852 7.09277 23.493 7.03809C23.5789 7.03027 23.7938 7.01074 24.1375 6.97949C24.4031 6.94824 24.6141 6.93262 24.7703 6.93262C24.9578 6.93262 25.0516 7.02246 25.0516 7.20215C25.0516 7.03809 24.9813 7.63574 24.8406 8.99512C24.7781 9.62012 24.7469 10.2451 24.7469 10.8701C24.7469 11.0264 24.6336 11.1045 24.407 11.1045C24.407 11.1045 24.0555 11.0654 23.3523 10.9873C22.907 10.9404 21.8914 10.917 20.3055 10.917H19.0633C18.743 10.917 18.5555 10.9951 18.5008 11.1514C18.493 11.1904 18.4891 11.4326 18.4891 11.8779C18.4891 12.4717 18.5281 12.8545 18.6063 13.0264C18.7391 13.3232 19.2391 13.499 20.1063 13.5537C20.0906 13.5537 20.6609 13.5537 21.8172 13.5537C22.2313 13.5537 22.8445 13.5186 23.657 13.4482C24.4773 13.3701 25.0906 13.3311 25.4969 13.3311C25.6688 13.3311 25.7547 13.4717 25.7547 13.7529ZM40.3625 15.8389C40.3625 16.6045 40.3273 17.0576 40.257 17.1982C40.1711 17.3701 39.9055 17.4561 39.4602 17.4561C39.3898 17.4561 39.2336 17.4561 38.9914 17.4561C38.757 17.4482 38.5578 17.4443 38.3937 17.4443C38.2375 17.4443 37.9992 17.4365 37.6789 17.4209C37.3664 17.4053 37.132 17.3975 36.9758 17.3975C36.8508 17.3975 36.2883 16.6475 35.2883 15.1475C34.2883 13.6475 33.7687 12.8936 33.7297 12.8857C33.5656 13.0186 33.0031 13.8076 32.0422 15.2529C31.1203 16.6357 30.5812 17.3506 30.425 17.3975C30.3156 17.4287 30.0227 17.4443 29.5461 17.4443C27.9445 17.4443 27.1437 17.3623 27.1437 17.1982C27.1437 17.0342 27.132 16.7998 27.1086 16.4951C27.093 16.1904 27.0852 15.9639 27.0852 15.8154C27.0852 14.8467 27.1437 14.2764 27.2609 14.1045C27.2687 14.0967 27.9133 13.2412 29.1945 11.5381C30.2336 10.1631 30.7531 9.37793 30.7531 9.18262C30.7531 8.9873 30.2336 8.21387 29.1945 6.8623C28.5383 6.02637 27.8859 5.18652 27.2375 4.34277C27.1672 4.24121 27.1242 4.07324 27.1086 3.83887C27.1008 3.6748 27.1008 3.45215 27.1086 3.1709C27.132 2.83496 27.1437 2.64746 27.1437 2.6084C27.1437 2.45215 27.1281 2.20996 27.0969 1.88184C27.0734 1.55371 27.0617 1.31152 27.0617 1.15527C27.0617 1.00684 27.1984 0.932617 27.4719 0.932617C27.6516 0.932617 27.9172 0.944336 28.2687 0.967773C28.6203 0.991211 28.882 1.00293 29.0539 1.00293C29.2102 1.00293 29.4406 0.995117 29.7453 0.979492C30.05 0.963867 30.2766 0.956055 30.425 0.956055C30.55 0.956055 31.1164 1.71777 32.1242 3.24121C33.1398 4.75684 33.6711 5.51465 33.718 5.51465C33.8742 5.4209 34.4484 4.62402 35.4406 3.12402C36.3859 1.67871 36.9289 0.956055 37.0695 0.956055H39.8586C40.132 0.956055 40.2687 1.02246 40.2687 1.15527V4.00293C40.2687 4.20605 39.6633 5.09277 38.4523 6.66309C37.2492 8.2334 36.6477 9.06543 36.6477 9.15918C36.6477 9.29199 37.1789 10.0615 38.2414 11.4678C39.4914 13.1162 40.1437 13.9795 40.1984 14.0576C40.3078 14.2295 40.3625 14.8232 40.3625 15.8389ZM54.3141 13.7529C54.3141 14.0889 54.2477 14.7061 54.1148 15.6045C53.9742 16.5811 53.8492 17.1631 53.7398 17.3506C53.6461 17.499 53.5172 17.5732 53.3531 17.5732C53.2828 17.5732 53.1656 17.5615 53.0016 17.5381C52.4313 17.46 50.7672 17.4209 48.0094 17.4209C47.4078 17.4209 46.5133 17.417 45.3258 17.4092C44.1383 17.4014 43.2477 17.3975 42.6539 17.3975C42.3961 17.3975 42.2672 17.2842 42.2672 17.0576C42.2672 16.1826 42.3141 14.8701 42.4078 13.1201C42.5094 11.3623 42.5602 10.0459 42.5602 9.1709C42.5602 8.28027 42.5133 6.62012 42.4195 4.19043C42.3961 3.56543 42.3531 2.63184 42.2906 1.38965L42.2789 1.22559C42.2633 1.0459 42.3609 0.956055 42.5719 0.956055C43.15 0.956055 44.0172 0.97168 45.1734 1.00293C46.3375 1.03418 47.2086 1.0498 47.7867 1.0498C48.357 1.0498 49.2164 1.03418 50.3648 1.00293C51.5133 0.97168 52.3727 0.956055 52.943 0.956055C53.3492 0.956055 53.5836 1.1084 53.6461 1.41309C53.6852 1.59277 53.7438 2.13965 53.8219 3.05371C53.9078 3.95996 53.9508 4.51074 53.9508 4.70605C53.9508 4.87012 53.8727 4.95215 53.7164 4.95215C53.6695 4.95215 53.5875 4.94824 53.4703 4.94043C51.3922 4.76855 49.525 4.68262 47.8688 4.68262C47.4547 4.68262 47.2008 4.78027 47.107 4.97559C47.068 5.06934 47.0484 5.37012 47.0484 5.87793C47.0484 6.40918 47.1266 6.76074 47.2828 6.93262C47.4156 7.08105 47.6695 7.15527 48.0445 7.15527C48.1227 7.15527 48.275 7.15137 48.5016 7.14355C48.7281 7.12793 48.9156 7.12012 49.0641 7.12012C50.0484 7.12012 51.0445 7.09277 52.0523 7.03809C52.1383 7.03027 52.3531 7.01074 52.6969 6.97949C52.9625 6.94824 53.1734 6.93262 53.3297 6.93262C53.5172 6.93262 53.6109 7.02246 53.6109 7.20215C53.6109 7.03809 53.5406 7.63574 53.4 8.99512C53.3375 9.62012 53.3063 10.2451 53.3063 10.8701C53.3063 11.0264 53.193 11.1045 52.9664 11.1045C52.9664 11.1045 52.6148 11.0654 51.9117 10.9873C51.4664 10.9404 50.4508 10.917 48.8648 10.917H47.6227C47.3023 10.917 47.1148 10.9951 47.0602 11.1514C47.0523 11.1904 47.0484 11.4326 47.0484 11.8779C47.0484 12.4717 47.0875 12.8545 47.1656 13.0264C47.2984 13.3232 47.7984 13.499 48.6656 13.5537C48.65 13.5537 49.2203 13.5537 50.3766 13.5537C50.7906 13.5537 51.4039 13.5186 52.2164 13.4482C53.0367 13.3701 53.65 13.3311 54.0563 13.3311C54.2281 13.3311 54.3141 13.4717 54.3141 13.7529ZM66.7539 17.5967C66.082 17.5967 65.207 17.5811 64.1289 17.5498C62.7227 17.5186 61.8477 17.499 61.5039 17.4912L58 17.4443C57.6484 17.4521 57.1445 17.4365 56.4883 17.3975C56.2617 17.3584 56.1484 17.2373 56.1484 17.0342C56.1484 16.1826 56.1602 14.9092 56.1836 13.2139C56.2148 11.5107 56.2305 10.2334 56.2305 9.38184C56.2305 8.47559 56.2031 7.12012 56.1484 5.31543C56.0938 3.50293 56.0664 2.14355 56.0664 1.2373C56.0664 1.06543 56.1836 0.979492 56.418 0.979492C56.6523 0.979492 57 0.991211 57.4609 1.01465C57.9297 1.03809 58.2773 1.0498 58.5039 1.0498C58.7617 1.0498 59.1445 1.03809 59.6523 1.01465C60.1602 0.983398 60.543 0.967773 60.8008 0.967773C60.918 0.967773 60.9727 1.04199 60.9648 1.19043L60.9531 1.34277C60.8594 2.81152 60.7539 5.01855 60.6367 7.96387L60.625 11.0576C60.625 12.0576 60.6289 12.7881 60.6367 13.249C60.6445 13.3428 60.6523 13.4365 60.6602 13.5303C60.668 13.624 60.7266 13.6826 60.8359 13.7061C60.8438 13.7061 60.9453 13.7061 61.1406 13.7061C61.8438 13.7061 62.8945 13.6709 64.293 13.6006C65.6992 13.5225 66.7539 13.4834 67.457 13.4834C67.668 13.4834 67.7734 13.5732 67.7734 13.7529C67.7734 15.0889 67.6758 16.2412 67.4805 17.21C67.4414 17.4131 67.3594 17.5342 67.2344 17.5732C67.1953 17.5889 67.0352 17.5967 66.7539 17.5967Z" fill="#252B42"/>
</svg>