<svg width="392" height="129" viewBox="0 0 392 129" fill="none" xmlns="http://www.w3.org/2000/svg">
<path d="M115.251 24.336C115.123 24.336 114.995 24.296 114.867 24.216C114.755 24.136 114.675 23.944 114.627 23.64L113.475 13.968L113.163 12.216C113.035 11.432 112.915 10.848 112.803 10.464C112.691 10.08 112.571 9.768 112.443 9.528C112.315 9.288 112.211 9.096 112.131 8.952C112.067 8.792 112.035 8.64 112.035 8.496C112.035 8.336 112.115 8.192 112.275 8.064C112.451 7.92 112.659 7.8 112.899 7.704C113.155 7.608 113.411 7.536 113.667 7.488C113.939 7.424 114.171 7.392 114.363 7.392C114.779 7.392 115.123 7.728 115.395 8.4C115.667 9.072 115.891 10.192 116.067 11.76L117.219 21.768L116.403 22.056L120.171 12.216C120.363 11.736 120.483 11.344 120.531 11.04C120.579 10.736 120.603 10.456 120.603 10.2C120.603 9.944 120.619 9.656 120.651 9.336C120.683 9.032 120.827 8.76 121.083 8.52C121.355 8.28 121.659 8.072 121.995 7.896C122.347 7.72 122.675 7.584 122.979 7.488C123.299 7.392 123.531 7.344 123.675 7.344C124.107 7.344 124.323 7.48 124.323 7.752C124.323 7.832 124.307 7.928 124.275 8.04C124.243 8.136 124.195 8.248 124.131 8.376L118.083 22.752C117.987 22.976 117.819 23.216 117.579 23.472C117.339 23.712 117.027 23.912 116.643 24.072C116.259 24.248 115.795 24.336 115.251 24.336ZM107.475 24.336C107.347 24.336 107.219 24.296 107.091 24.216C106.979 24.136 106.899 23.944 106.851 23.64L105.651 13.344C105.555 12.48 105.459 11.824 105.363 11.376C105.283 10.912 105.195 10.568 105.099 10.344C105.003 10.104 104.907 9.896 104.811 9.72C104.683 9.464 104.563 9.264 104.451 9.12C104.355 8.96 104.307 8.808 104.307 8.664C104.307 8.504 104.395 8.352 104.571 8.208C104.747 8.048 104.971 7.912 105.243 7.8C105.515 7.672 105.795 7.576 106.083 7.512C106.371 7.432 106.619 7.392 106.827 7.392C107.067 7.392 107.291 7.528 107.499 7.8C107.723 8.056 107.923 8.504 108.099 9.144C108.275 9.768 108.411 10.64 108.507 11.76L109.467 21.768L108.531 22.056L113.691 10.608L113.955 14.328L110.355 22.872C110.211 23.224 109.891 23.56 109.395 23.88C108.915 24.184 108.275 24.336 107.475 24.336ZM126.647 24.288C126.359 24.288 126.135 24.112 125.975 23.76C125.831 23.408 125.759 23.016 125.759 22.584C125.759 21.96 125.831 20.944 125.975 19.536L127.175 7.68H130.871C132.007 7.68 132.903 7.664 133.559 7.632C134.231 7.584 134.735 7.544 135.071 7.512C135.423 7.464 135.679 7.44 135.839 7.44C136.015 7.44 136.135 7.472 136.199 7.536C136.279 7.584 136.319 7.728 136.319 7.968C136.319 8.256 136.263 8.568 136.151 8.904C136.039 9.24 135.887 9.528 135.695 9.768C135.519 10.008 135.311 10.128 135.071 10.128C134.911 10.128 134.647 10.104 134.279 10.056C133.911 10.008 133.495 9.952 133.031 9.888L129.911 9.48L128.831 20.184C128.799 20.52 128.783 20.856 128.783 21.192C128.783 21.528 128.807 21.864 128.855 22.2L133.991 21.192C134.279 21.128 134.519 21.08 134.711 21.048C134.919 21 135.055 20.976 135.119 20.976C135.311 20.976 135.407 21.088 135.407 21.312C135.407 21.712 135.335 22.12 135.191 22.536C135.063 22.952 134.879 23.304 134.639 23.592C134.399 23.864 134.103 24 133.751 24H133.031C131.239 24 129.831 24.048 128.807 24.144C127.783 24.24 127.063 24.288 126.647 24.288ZM127.871 16.44L128.183 14.592H129.335C130.023 14.592 130.671 14.568 131.279 14.52C131.887 14.472 132.399 14.424 132.815 14.376C133.231 14.328 133.495 14.304 133.607 14.304C133.735 14.304 133.831 14.344 133.895 14.424C133.959 14.488 133.991 14.584 133.991 14.712C133.991 14.952 133.831 15.2 133.511 15.456C133.191 15.712 132.791 15.928 132.311 16.104C131.847 16.28 131.391 16.376 130.943 16.392L127.871 16.44ZM145.855 24.288C145.599 24.288 145.431 24.168 145.351 23.928C145.271 23.688 145.231 23.4 145.231 23.064C145.231 22.504 145.263 21.912 145.327 21.288C145.391 20.648 145.455 20.024 145.519 19.416L146.839 7.32L148.831 7.296C149.487 7.28 149.935 7.328 150.175 7.44C150.431 7.536 150.599 7.744 150.679 8.064L154.231 21.048L152.983 21L158.527 8.928C158.735 8.48 159.119 8.104 159.679 7.8C160.239 7.48 160.919 7.32 161.719 7.32C162.039 7.32 162.279 7.4 162.439 7.56C162.615 7.704 162.679 7.992 162.631 8.424L160.999 24.192H159.079C158.871 24.192 158.711 24.064 158.599 23.808C158.487 23.552 158.431 23.192 158.431 22.728C158.431 22.072 158.447 21.36 158.479 20.592C158.527 19.824 158.591 19.088 158.671 18.384L159.559 10.8L159.703 10.896L156.559 17.664C155.919 19.04 155.399 20.136 154.999 20.952C154.599 21.752 154.271 22.352 154.015 22.752C153.775 23.152 153.567 23.416 153.391 23.544C153.215 23.656 153.031 23.712 152.839 23.712C152.631 23.712 152.455 23.672 152.311 23.592C152.183 23.496 152.079 23.304 151.999 23.016L148.423 10.776L148.639 10.752L147.967 16.968C147.823 18.232 147.759 19.24 147.775 19.992C147.791 20.744 147.839 21.328 147.919 21.744C148.015 22.144 148.103 22.456 148.183 22.68C148.263 22.904 148.303 23.112 148.303 23.304C148.303 23.48 148.207 23.632 148.015 23.76C147.823 23.872 147.583 23.968 147.295 24.048C147.007 24.128 146.727 24.184 146.455 24.216C146.199 24.264 145.999 24.288 145.855 24.288ZM164.497 24.336C164.065 24.336 163.849 24.2 163.849 23.928C163.849 23.8 163.913 23.592 164.041 23.304L171.169 8.928C171.281 8.688 171.513 8.448 171.865 8.208C172.217 7.968 172.641 7.768 173.137 7.608C173.633 7.432 174.145 7.344 174.673 7.344C174.801 7.344 174.921 7.384 175.033 7.464C175.161 7.544 175.249 7.736 175.297 8.04C175.569 9.88 175.897 11.728 176.281 13.584C176.665 15.44 177.105 17.256 177.601 19.032C177.825 19.784 178.017 20.392 178.177 20.856C178.337 21.32 178.497 21.672 178.657 21.912C178.833 22.152 178.985 22.352 179.113 22.512C179.257 22.656 179.329 22.8 179.329 22.944C179.329 23.104 179.233 23.264 179.041 23.424C178.865 23.584 178.641 23.728 178.369 23.856C178.097 23.984 177.817 24.088 177.529 24.168C177.241 24.248 176.993 24.288 176.785 24.288C176.433 24.288 176.073 23.976 175.705 23.352C175.337 22.712 174.977 21.568 174.625 19.92L172.537 9.912L172.993 9.624L168.313 19.464C168.105 19.912 167.953 20.288 167.857 20.592C167.777 20.896 167.729 21.176 167.713 21.432C167.697 21.672 167.665 21.952 167.617 22.272C167.585 22.576 167.433 22.856 167.161 23.112C166.889 23.352 166.569 23.568 166.201 23.76C165.849 23.936 165.513 24.072 165.193 24.168C164.873 24.28 164.641 24.336 164.497 24.336ZM167.521 19.44V17.64H176.449V19.44H167.521ZM192.107 24.168C191.787 24.168 191.411 23.968 190.979 23.568C190.563 23.152 190.115 22.6 189.635 21.912C189.171 21.224 188.691 20.456 188.195 19.608C187.715 18.76 187.243 17.896 186.779 17.016C186.699 16.84 186.611 16.656 186.515 16.464C186.435 16.272 186.395 16.064 186.395 15.84C186.395 15.568 186.459 15.24 186.587 14.856C186.731 14.472 187.011 13.984 187.427 13.392C187.843 12.8 188.483 12.056 189.347 11.16L190.955 9.504C191.627 8.8 192.243 8.264 192.803 7.896C193.379 7.528 193.947 7.344 194.507 7.344C195.003 7.344 195.339 7.456 195.515 7.68C195.707 7.904 195.803 8.224 195.803 8.64C195.803 9.024 195.755 9.376 195.659 9.696C195.563 10 195.443 10.24 195.299 10.416C195.155 10.592 195.003 10.68 194.843 10.68C194.683 10.68 194.499 10.656 194.291 10.608C194.083 10.544 193.835 10.512 193.547 10.512C193.355 10.512 193.139 10.568 192.899 10.68C192.659 10.776 192.371 10.968 192.035 11.256C191.699 11.544 191.275 11.984 190.763 12.576L188.147 15.576L188.579 13.968C189.075 15.312 189.651 16.52 190.307 17.592C190.979 18.664 191.611 19.552 192.203 20.256C192.795 20.96 193.227 21.432 193.499 21.672C193.867 21.976 194.155 22.192 194.363 22.32C194.587 22.432 194.747 22.512 194.843 22.56C194.939 22.608 194.987 22.696 194.987 22.824C194.987 22.968 194.883 23.12 194.675 23.28C194.483 23.44 194.235 23.592 193.931 23.736C193.627 23.864 193.307 23.968 192.971 24.048C192.651 24.128 192.363 24.168 192.107 24.168ZM183.035 24.192C182.811 24.192 182.627 24.096 182.483 23.904C182.355 23.712 182.259 23.464 182.195 23.16C182.131 22.856 182.099 22.552 182.099 22.248C182.099 21.592 182.139 20.96 182.219 20.352C182.299 19.744 182.371 19.088 182.435 18.384L183.587 7.32H185.267C185.683 7.32 185.955 7.48 186.083 7.8C186.227 8.104 186.299 8.472 186.299 8.904C186.299 9.288 186.283 9.632 186.251 9.936C186.219 10.24 186.171 10.608 186.107 11.04C186.059 11.472 185.995 12.064 185.915 12.816L184.715 24.192H183.035ZM198.783 24.288C198.495 24.288 198.271 24.112 198.111 23.76C197.967 23.408 197.895 23.016 197.895 22.584C197.895 21.96 197.967 20.944 198.111 19.536L199.311 7.68H203.007C204.143 7.68 205.039 7.664 205.695 7.632C206.367 7.584 206.871 7.544 207.207 7.512C207.559 7.464 207.815 7.44 207.975 7.44C208.151 7.44 208.271 7.472 208.335 7.536C208.415 7.584 208.455 7.728 208.455 7.968C208.455 8.256 208.399 8.568 208.287 8.904C208.175 9.24 208.023 9.528 207.831 9.768C207.655 10.008 207.447 10.128 207.207 10.128C207.047 10.128 206.783 10.104 206.415 10.056C206.047 10.008 205.631 9.952 205.167 9.888L202.047 9.48L200.967 20.184C200.935 20.52 200.919 20.856 200.919 21.192C200.919 21.528 200.943 21.864 200.991 22.2L206.127 21.192C206.415 21.128 206.655 21.08 206.847 21.048C207.055 21 207.191 20.976 207.255 20.976C207.447 20.976 207.543 21.088 207.543 21.312C207.543 21.712 207.471 22.12 207.327 22.536C207.199 22.952 207.015 23.304 206.775 23.592C206.535 23.864 206.239 24 205.887 24H205.167C203.375 24 201.967 24.048 200.943 24.144C199.919 24.24 199.199 24.288 198.783 24.288ZM200.007 16.44L200.319 14.592H201.471C202.159 14.592 202.807 14.568 203.415 14.52C204.023 14.472 204.535 14.424 204.951 14.376C205.367 14.328 205.631 14.304 205.743 14.304C205.871 14.304 205.967 14.344 206.031 14.424C206.095 14.488 206.127 14.584 206.127 14.712C206.127 14.952 205.967 15.2 205.647 15.456C205.327 15.712 204.927 15.928 204.447 16.104C203.983 16.28 203.527 16.376 203.079 16.392L200.007 16.44ZM221.135 24.192C220.879 24.192 220.695 24.016 220.583 23.664C220.471 23.296 220.415 22.896 220.415 22.464C220.415 22.032 220.439 21.552 220.487 21.024C220.551 20.48 220.639 19.744 220.751 18.816L221.783 9.696L218.567 10.392C218.375 10.424 218.207 10.456 218.063 10.488C217.935 10.504 217.839 10.512 217.775 10.512C217.599 10.512 217.471 10.456 217.391 10.344C217.311 10.232 217.279 10.096 217.295 9.936C217.311 9.536 217.367 9.168 217.463 8.832C217.575 8.496 217.711 8.224 217.871 8.016C218.031 7.792 218.207 7.68 218.399 7.68H223.559C224.791 7.68 225.751 7.656 226.439 7.608C227.143 7.56 227.663 7.52 227.999 7.488C228.351 7.44 228.615 7.416 228.791 7.416C228.951 7.416 229.063 7.448 229.127 7.512C229.191 7.576 229.231 7.704 229.247 7.896C229.263 8.216 229.215 8.552 229.103 8.904C229.007 9.256 228.871 9.56 228.695 9.816C228.535 10.056 228.367 10.176 228.191 10.176C228.079 10.176 227.911 10.16 227.687 10.128C227.463 10.08 227.207 10.04 226.919 10.008L224.639 9.696L223.055 24.192H221.135ZM231.616 24.288C231.328 24.288 231.104 24.112 230.944 23.76C230.8 23.408 230.728 23.016 230.728 22.584C230.728 21.96 230.8 20.944 230.944 19.536L232.144 7.68H235.84C236.976 7.68 237.872 7.664 238.528 7.632C239.2 7.584 239.704 7.544 240.04 7.512C240.392 7.464 240.648 7.44 240.808 7.44C240.984 7.44 241.104 7.472 241.168 7.536C241.248 7.584 241.288 7.728 241.288 7.968C241.288 8.256 241.232 8.568 241.12 8.904C241.008 9.24 240.856 9.528 240.664 9.768C240.488 10.008 240.28 10.128 240.04 10.128C239.88 10.128 239.616 10.104 239.248 10.056C238.88 10.008 238.464 9.952 238 9.888L234.88 9.48L233.8 20.184C233.768 20.52 233.752 20.856 233.752 21.192C233.752 21.528 233.776 21.864 233.824 22.2L238.96 21.192C239.248 21.128 239.488 21.08 239.68 21.048C239.888 21 240.024 20.976 240.088 20.976C240.28 20.976 240.376 21.088 240.376 21.312C240.376 21.712 240.304 22.12 240.16 22.536C240.032 22.952 239.848 23.304 239.608 23.592C239.368 23.864 239.072 24 238.72 24H238C236.208 24 234.8 24.048 233.776 24.144C232.752 24.24 232.032 24.288 231.616 24.288ZM232.84 16.44L233.152 14.592H234.304C234.992 14.592 235.64 14.568 236.248 14.52C236.856 14.472 237.368 14.424 237.784 14.376C238.2 14.328 238.464 14.304 238.576 14.304C238.704 14.304 238.8 14.344 238.864 14.424C238.928 14.488 238.96 14.584 238.96 14.712C238.96 14.952 238.8 15.2 238.48 15.456C238.16 15.712 237.76 15.928 237.28 16.104C236.816 16.28 236.36 16.376 235.912 16.392L232.84 16.44ZM243.597 24.312C243.021 24.312 242.589 24.096 242.301 23.664C242.029 23.216 241.893 22.664 241.893 22.008C241.893 21.736 241.941 21.504 242.037 21.312C242.133 21.12 242.301 21.024 242.541 21.024C242.781 21.024 243.029 21.064 243.285 21.144C243.541 21.224 243.845 21.264 244.197 21.264C244.357 21.264 244.581 21.168 244.869 20.976C245.173 20.768 245.533 20.432 245.949 19.968C246.365 19.504 246.829 18.896 247.341 18.144C247.869 17.392 248.445 16.464 249.069 15.36L249.477 15C250.213 13.656 250.885 12.504 251.493 11.544C252.117 10.568 252.709 9.776 253.269 9.168C253.829 8.544 254.389 8.088 254.949 7.8C255.525 7.496 256.125 7.344 256.749 7.344C257.133 7.344 257.413 7.456 257.589 7.68C257.781 7.888 257.877 8.16 257.877 8.496C257.877 8.912 257.805 9.296 257.661 9.648C257.533 10 257.365 10.288 257.157 10.512C256.965 10.72 256.781 10.824 256.605 10.824C256.445 10.824 256.285 10.792 256.125 10.728C255.965 10.664 255.741 10.632 255.453 10.632C255.117 10.632 254.517 11.088 253.653 12C252.789 12.912 251.837 14.344 250.797 16.296L250.317 16.656C249.869 17.584 249.405 18.504 248.925 19.416C248.445 20.328 247.933 21.152 247.389 21.888C246.845 22.624 246.261 23.216 245.637 23.664C245.029 24.096 244.349 24.312 243.597 24.312ZM254.157 24.192C253.645 24.192 253.181 23.984 252.765 23.568C252.349 23.136 251.893 22.432 251.397 21.456C250.917 20.464 250.301 19.136 249.549 17.472L249.165 16.656C248.045 14.336 247.101 12.584 246.333 11.4C245.565 10.216 244.821 9.512 244.101 9.288C243.861 9.208 243.685 9.136 243.573 9.072C243.477 9.008 243.429 8.896 243.429 8.736C243.429 8.464 243.589 8.224 243.909 8.016C244.245 7.792 244.621 7.616 245.037 7.488C245.469 7.36 245.821 7.296 246.093 7.296C246.445 7.296 246.781 7.392 247.101 7.584C247.437 7.76 247.781 8.088 248.133 8.568C248.501 9.048 248.893 9.728 249.309 10.608C249.741 11.472 250.229 12.584 250.773 13.944L251.061 14.52C251.621 15.656 252.125 16.64 252.573 17.472C253.037 18.288 253.461 18.976 253.845 19.536C254.229 20.096 254.573 20.552 254.877 20.904C255.181 21.256 255.445 21.528 255.669 21.72C255.829 21.848 255.989 21.976 256.149 22.104C256.309 22.232 256.445 22.36 256.557 22.488C256.669 22.6 256.725 22.712 256.725 22.824C256.725 22.968 256.629 23.12 256.437 23.28C256.261 23.424 256.029 23.568 255.741 23.712C255.469 23.856 255.189 23.968 254.901 24.048C254.613 24.144 254.365 24.192 254.157 24.192ZM260.513 24.288C260.225 24.288 260.001 24.112 259.841 23.76C259.697 23.408 259.625 23.016 259.625 22.584C259.625 21.96 259.697 20.944 259.841 19.536L261.041 7.68H264.737C265.873 7.68 266.769 7.664 267.425 7.632C268.097 7.584 268.601 7.544 268.937 7.512C269.289 7.464 269.545 7.44 269.705 7.44C269.881 7.44 270.001 7.472 270.065 7.536C270.145 7.584 270.185 7.728 270.185 7.968C270.185 8.256 270.129 8.568 270.017 8.904C269.905 9.24 269.753 9.528 269.561 9.768C269.385 10.008 269.177 10.128 268.937 10.128C268.777 10.128 268.513 10.104 268.145 10.056C267.777 10.008 267.361 9.952 266.897 9.888L263.777 9.48L262.697 20.184C262.665 20.52 262.649 20.856 262.649 21.192C262.649 21.528 262.673 21.864 262.721 22.2L267.857 21.192C268.145 21.128 268.385 21.08 268.577 21.048C268.785 21 268.921 20.976 268.985 20.976C269.177 20.976 269.273 21.088 269.273 21.312C269.273 21.712 269.201 22.12 269.057 22.536C268.929 22.952 268.745 23.304 268.505 23.592C268.265 23.864 267.969 24 267.617 24H266.897C265.105 24 263.697 24.048 262.673 24.144C261.649 24.24 260.929 24.288 260.513 24.288ZM261.737 16.44L262.049 14.592H263.201C263.889 14.592 264.537 14.568 265.145 14.52C265.753 14.472 266.265 14.424 266.681 14.376C267.097 14.328 267.361 14.304 267.473 14.304C267.601 14.304 267.697 14.344 267.761 14.424C267.825 14.488 267.857 14.584 267.857 14.712C267.857 14.952 267.697 15.2 267.377 15.456C267.057 15.712 266.657 15.928 266.177 16.104C265.713 16.28 265.257 16.376 264.809 16.392L261.737 16.44ZM273.285 24.288C272.997 24.288 272.773 24.112 272.613 23.76C272.469 23.408 272.397 23.016 272.397 22.584C272.397 21.96 272.469 20.944 272.613 19.536L273.861 7.32H275.781C276.293 7.32 276.573 7.528 276.621 7.944C276.669 8.344 276.637 9.032 276.525 10.008L275.421 20.184C275.389 20.52 275.373 20.856 275.373 21.192C275.373 21.528 275.397 21.864 275.445 22.2L280.605 21C280.781 20.968 280.917 20.944 281.013 20.928C281.109 20.896 281.181 20.88 281.229 20.88C281.421 20.88 281.517 20.992 281.517 21.216C281.517 21.616 281.445 22.032 281.301 22.464C281.173 22.896 280.989 23.264 280.749 23.568C280.509 23.856 280.213 24 279.861 24H279.141C277.941 24 276.957 24.024 276.189 24.072C275.437 24.12 274.837 24.168 274.389 24.216C273.941 24.264 273.573 24.288 273.285 24.288ZM36.6472 49.192C36.3912 49.192 36.2072 49.016 36.0952 48.664C35.9832 48.296 35.9272 47.896 35.9272 47.464C35.9272 47.032 35.9512 46.552 35.9992 46.024C36.0632 45.48 36.1512 44.744 36.2632 43.816L37.2952 34.696L34.0792 35.392C33.8872 35.424 33.7192 35.456 33.5752 35.488C33.4472 35.504 33.3512 35.512 33.2872 35.512C33.1112 35.512 32.9832 35.456 32.9032 35.344C32.8232 35.232 32.7912 35.096 32.8072 34.936C32.8232 34.536 32.8792 34.168 32.9752 33.832C33.0872 33.496 33.2232 33.224 33.3832 33.016C33.5432 32.792 33.7192 32.68 33.9112 32.68H39.0712C40.3032 32.68 41.2632 32.656 41.9512 32.608C42.6552 32.56 43.1752 32.52 43.5112 32.488C43.8632 32.44 44.1272 32.416 44.3032 32.416C44.4632 32.416 44.5752 32.448 44.6392 32.512C44.7032 32.576 44.7432 32.704 44.7592 32.896C44.7752 33.216 44.7272 33.552 44.6152 33.904C44.5192 34.256 44.3832 34.56 44.2072 34.816C44.0472 35.056 43.8792 35.176 43.7032 35.176C43.5912 35.176 43.4232 35.16 43.1992 35.128C42.9752 35.08 42.7192 35.04 42.4312 35.008L40.1512 34.696L38.5672 49.192H36.6472ZM48.569 41.44V39.64H57.473V41.44H48.569ZM47.153 49.192C46.929 49.192 46.745 49.096 46.601 48.904C46.473 48.712 46.377 48.464 46.313 48.16C46.249 47.856 46.217 47.552 46.217 47.248C46.217 46.592 46.257 45.96 46.337 45.352C46.417 44.744 46.489 44.088 46.553 43.384L47.705 32.32H49.385C49.801 32.32 50.073 32.48 50.201 32.8C50.345 33.104 50.417 33.472 50.417 33.904C50.417 34.288 50.401 34.632 50.369 34.936C50.337 35.24 50.289 35.608 50.225 36.04C50.177 36.472 50.113 37.064 50.033 37.816L48.833 49.192H47.153ZM56.801 49.192C56.577 49.192 56.393 49.096 56.249 48.904C56.121 48.712 56.025 48.464 55.961 48.16C55.897 47.856 55.865 47.552 55.865 47.248C55.865 46.592 55.905 45.96 55.985 45.352C56.065 44.744 56.137 44.088 56.201 43.384L57.353 32.32H59.033C59.449 32.32 59.721 32.48 59.849 32.8C59.993 33.104 60.065 33.472 60.065 33.904C60.065 34.288 60.049 34.632 60.017 34.936C59.985 35.24 59.937 35.608 59.873 36.04C59.825 36.472 59.761 37.064 59.681 37.816L58.481 49.192H56.801ZM63.9328 49.288C63.6448 49.288 63.4208 49.112 63.2608 48.76C63.1168 48.408 63.0448 48.016 63.0448 47.584C63.0448 46.96 63.1168 45.944 63.2608 44.536L64.4608 32.68H68.1568C69.2928 32.68 70.1888 32.664 70.8448 32.632C71.5168 32.584 72.0208 32.544 72.3568 32.512C72.7088 32.464 72.9648 32.44 73.1248 32.44C73.3008 32.44 73.4208 32.472 73.4848 32.536C73.5648 32.584 73.6048 32.728 73.6048 32.968C73.6048 33.256 73.5488 33.568 73.4368 33.904C73.3248 34.24 73.1728 34.528 72.9808 34.768C72.8048 35.008 72.5968 35.128 72.3568 35.128C72.1968 35.128 71.9328 35.104 71.5648 35.056C71.1968 35.008 70.7808 34.952 70.3168 34.888L67.1968 34.48L66.1168 45.184C66.0848 45.52 66.0688 45.856 66.0688 46.192C66.0688 46.528 66.0928 46.864 66.1408 47.2L71.2768 46.192C71.5648 46.128 71.8048 46.08 71.9968 46.048C72.2048 46 72.3408 45.976 72.4048 45.976C72.5968 45.976 72.6928 46.088 72.6928 46.312C72.6928 46.712 72.6208 47.12 72.4768 47.536C72.3488 47.952 72.1648 48.304 71.9248 48.592C71.6848 48.864 71.3888 49 71.0368 49H70.3168C68.5248 49 67.1168 49.048 66.0928 49.144C65.0688 49.24 64.3488 49.288 63.9328 49.288ZM65.1568 41.44L65.4688 39.592H66.6208C67.3088 39.592 67.9568 39.568 68.5648 39.52C69.1728 39.472 69.6848 39.424 70.1008 39.376C70.5168 39.328 70.7808 39.304 70.8928 39.304C71.0208 39.304 71.1168 39.344 71.1808 39.424C71.2448 39.488 71.2768 39.584 71.2768 39.712C71.2768 39.952 71.1168 40.2 70.7968 40.456C70.4768 40.712 70.0768 40.928 69.5968 41.104C69.1328 41.28 68.6768 41.376 68.2288 41.392L65.1568 41.44ZM89.0441 49.384C87.7001 49.384 86.5241 49.12 85.5161 48.592C84.5241 48.048 83.7481 47.24 83.1881 46.168C82.6281 45.096 82.3481 43.776 82.3481 42.208C82.3481 40.768 82.5721 39.448 83.0201 38.248C83.4841 37.032 84.1321 35.984 84.9641 35.104C85.7961 34.208 86.7881 33.52 87.9401 33.04C89.0921 32.544 90.3721 32.296 91.7801 32.296C93.0921 32.296 94.0761 32.44 94.7321 32.728C95.3881 33 95.7161 33.496 95.7161 34.216C95.7161 34.6 95.6441 34.928 95.5001 35.2C95.3721 35.472 95.2281 35.608 95.0681 35.608C94.9241 35.608 94.7561 35.56 94.5641 35.464C94.3881 35.368 94.1881 35.264 93.9641 35.152C93.5801 34.96 93.1561 34.76 92.6921 34.552C92.2441 34.328 91.6441 34.216 90.8921 34.216C89.9161 34.216 89.0201 34.536 88.2041 35.176C87.4041 35.816 86.7561 36.704 86.2601 37.84C85.7801 38.96 85.5401 40.272 85.5401 41.776C85.5401 43.04 85.7241 44.096 86.0921 44.944C86.4761 45.792 86.9801 46.424 87.6041 46.84C88.2281 47.256 88.9081 47.464 89.6441 47.464C90.2521 47.464 90.7961 47.352 91.2761 47.128C91.7561 46.888 92.1721 46.616 92.5241 46.312C92.8921 46.008 93.2201 45.744 93.5081 45.52C93.7961 45.28 94.0521 45.16 94.2761 45.16C94.4521 45.16 94.5961 45.2 94.7081 45.28C94.8361 45.36 94.9001 45.528 94.9001 45.784C94.9001 46.408 94.6361 46.992 94.1081 47.536C93.5801 48.08 92.8761 48.528 91.9961 48.88C91.1161 49.216 90.1321 49.384 89.0441 49.384ZM103.766 49.384C102.39 49.384 101.182 49.12 100.142 48.592C99.1178 48.048 98.3178 47.24 97.7418 46.168C97.1818 45.096 96.9018 43.776 96.9018 42.208C96.9018 40.768 97.1258 39.448 97.5738 38.248C98.0218 37.032 98.6458 35.984 99.4458 35.104C100.262 34.208 101.206 33.52 102.278 33.04C103.35 32.544 104.518 32.296 105.782 32.296C107.942 32.296 109.622 32.904 110.822 34.12C112.038 35.32 112.646 37.096 112.646 39.448C112.646 40.888 112.422 42.216 111.974 43.432C111.526 44.632 110.894 45.68 110.078 46.576C109.278 47.472 108.342 48.168 107.27 48.664C106.198 49.144 105.03 49.384 103.766 49.384ZM104.078 47.464C104.75 47.464 105.406 47.288 106.046 46.936C106.686 46.568 107.262 46.048 107.774 45.376C108.286 44.704 108.694 43.912 108.998 43C109.302 42.072 109.454 41.048 109.454 39.928C109.454 38.616 109.27 37.544 108.902 36.712C108.55 35.864 108.07 35.24 107.462 34.84C106.87 34.424 106.206 34.216 105.47 34.216C104.494 34.216 103.598 34.536 102.782 35.176C101.966 35.8 101.31 36.68 100.814 37.816C100.334 38.952 100.094 40.264 100.094 41.752C100.094 43.048 100.27 44.12 100.622 44.968C100.99 45.816 101.478 46.448 102.086 46.864C102.694 47.264 103.358 47.464 104.078 47.464ZM124.471 49.216C124.055 49.216 123.575 48.904 123.031 48.28C122.503 47.64 121.967 46.816 121.423 45.808C120.879 44.784 120.359 43.688 119.863 42.52C119.799 42.376 119.727 42.232 119.647 42.088C119.583 41.928 119.551 41.768 119.551 41.608C119.551 41.432 119.607 41.312 119.719 41.248C119.831 41.168 119.951 41.12 120.079 41.104C121.167 40.896 122.071 40.464 122.791 39.808C123.527 39.152 123.895 38.312 123.895 37.288C123.895 36.712 123.767 36.2 123.511 35.752C123.271 35.288 122.839 34.92 122.215 34.648C121.591 34.376 120.727 34.24 119.623 34.24H119.527L117.943 49.192H115.999C115.727 49.192 115.535 49.064 115.423 48.808C115.311 48.552 115.255 48.208 115.255 47.776C115.255 47.456 115.279 47.096 115.327 46.696L116.863 32.68C117.567 32.6 118.263 32.544 118.951 32.512C119.655 32.464 120.351 32.44 121.039 32.44C122.207 32.44 123.247 32.6 124.159 32.92C125.071 33.24 125.783 33.736 126.295 34.408C126.823 35.08 127.087 35.952 127.087 37.024C127.087 37.776 126.935 38.448 126.631 39.04C126.343 39.632 125.943 40.144 125.431 40.576C124.935 40.992 124.383 41.336 123.775 41.608C123.167 41.88 122.551 42.08 121.927 42.208L122.119 41.008C122.663 42.144 123.191 43.112 123.703 43.912C124.231 44.712 124.703 45.352 125.119 45.832C125.535 46.296 125.855 46.624 126.079 46.816C126.479 47.12 126.767 47.336 126.943 47.464C127.135 47.576 127.231 47.704 127.231 47.848C127.231 47.992 127.127 48.144 126.919 48.304C126.727 48.448 126.479 48.592 126.175 48.736C125.871 48.88 125.559 48.992 125.239 49.072C124.935 49.168 124.679 49.216 124.471 49.216ZM130.504 49.288C130.248 49.288 130.08 49.168 130 48.928C129.92 48.688 129.88 48.4 129.88 48.064C129.88 47.504 129.912 46.912 129.976 46.288C130.04 45.648 130.104 45.024 130.168 44.416L131.488 32.32L133.24 32.296C133.528 32.296 133.752 32.336 133.912 32.416C134.088 32.48 134.28 32.696 134.488 33.064C135.256 34.408 136.088 35.744 136.984 37.072C137.88 38.384 138.736 39.64 139.552 40.84C140.368 42.04 141.04 43.136 141.568 44.128L140.944 44.872L141.472 39.712C141.6 38.48 141.656 37.488 141.64 36.736C141.64 35.984 141.6 35.4 141.52 34.984C141.456 34.552 141.384 34.216 141.304 33.976C141.24 33.736 141.208 33.512 141.208 33.304C141.208 33.144 141.288 33.008 141.448 32.896C141.608 32.768 141.808 32.664 142.048 32.584C142.288 32.504 142.52 32.448 142.744 32.416C142.984 32.368 143.184 32.344 143.344 32.344C143.648 32.344 143.88 32.504 144.04 32.824C144.2 33.144 144.28 33.464 144.28 33.784C144.28 34.056 144.248 34.368 144.184 34.72C144.136 35.072 144.072 35.64 143.992 36.424L143.656 39.592C143.496 41.096 143.384 42.328 143.32 43.288C143.272 44.232 143.248 44.984 143.248 45.544C143.248 46.104 143.256 46.56 143.272 46.912C143.304 47.264 143.32 47.592 143.32 47.896C143.32 48.072 143.232 48.248 143.056 48.424C142.88 48.584 142.656 48.728 142.384 48.856C142.112 48.984 141.848 49.08 141.592 49.144C141.336 49.224 141.12 49.264 140.944 49.264C140.8 49.264 140.672 49.192 140.56 49.048C140.448 48.904 140.4 48.704 140.416 48.448C140.432 48.24 140.368 47.976 140.224 47.656C140.096 47.32 139.944 46.976 139.768 46.624C139.592 46.272 139.424 45.968 139.264 45.712C138.752 44.784 138.112 43.784 137.344 42.712C136.592 41.64 135.816 40.52 135.016 39.352C134.216 38.184 133.496 37 132.856 35.8L133.192 35.752L132.544 41.968C132.432 43.072 132.368 43.984 132.352 44.704C132.336 45.408 132.352 45.968 132.4 46.384C132.448 46.8 132.504 47.12 132.568 47.344C132.632 47.568 132.688 47.752 132.736 47.896C132.8 48.024 132.832 48.168 132.832 48.328C132.832 48.504 132.736 48.656 132.544 48.784C132.368 48.896 132.144 48.992 131.872 49.072C131.616 49.152 131.36 49.208 131.104 49.24C130.848 49.272 130.648 49.288 130.504 49.288ZM147.716 49.288C147.428 49.288 147.204 49.112 147.044 48.76C146.9 48.408 146.828 48.016 146.828 47.584C146.828 46.96 146.9 45.944 147.044 44.536L148.244 32.68H151.94C153.076 32.68 153.972 32.664 154.628 32.632C155.3 32.584 155.804 32.544 156.14 32.512C156.492 32.464 156.748 32.44 156.908 32.44C157.084 32.44 157.204 32.472 157.268 32.536C157.348 32.584 157.388 32.728 157.388 32.968C157.388 33.256 157.332 33.568 157.22 33.904C157.108 34.24 156.956 34.528 156.764 34.768C156.588 35.008 156.38 35.128 156.14 35.128C155.98 35.128 155.716 35.104 155.348 35.056C154.98 35.008 154.564 34.952 154.1 34.888L150.98 34.48L149.9 45.184C149.868 45.52 149.852 45.856 149.852 46.192C149.852 46.528 149.876 46.864 149.924 47.2L155.06 46.192C155.348 46.128 155.588 46.08 155.78 46.048C155.988 46 156.124 45.976 156.188 45.976C156.38 45.976 156.476 46.088 156.476 46.312C156.476 46.712 156.404 47.12 156.26 47.536C156.132 47.952 155.948 48.304 155.708 48.592C155.468 48.864 155.172 49 154.82 49H154.1C152.308 49 150.9 49.048 149.876 49.144C148.852 49.24 148.132 49.288 147.716 49.288ZM148.94 41.44L149.252 39.592H150.404C151.092 39.592 151.74 39.568 152.348 39.52C152.956 39.472 153.468 39.424 153.884 39.376C154.3 39.328 154.564 39.304 154.676 39.304C154.804 39.304 154.9 39.344 154.964 39.424C155.028 39.488 155.06 39.584 155.06 39.712C155.06 39.952 154.9 40.2 154.58 40.456C154.26 40.712 153.86 40.928 153.38 41.104C152.916 41.28 152.46 41.376 152.012 41.392L148.94 41.44ZM168.625 49.216C168.209 49.216 167.729 48.904 167.185 48.28C166.657 47.64 166.121 46.816 165.577 45.808C165.033 44.784 164.513 43.688 164.017 42.52C163.953 42.376 163.881 42.232 163.801 42.088C163.737 41.928 163.705 41.768 163.705 41.608C163.705 41.432 163.761 41.312 163.873 41.248C163.985 41.168 164.105 41.12 164.233 41.104C165.321 40.896 166.225 40.464 166.945 39.808C167.681 39.152 168.049 38.312 168.049 37.288C168.049 36.712 167.921 36.2 167.665 35.752C167.425 35.288 166.993 34.92 166.369 34.648C165.745 34.376 164.881 34.24 163.777 34.24H163.681L162.097 49.192H160.153C159.881 49.192 159.689 49.064 159.577 48.808C159.465 48.552 159.409 48.208 159.409 47.776C159.409 47.456 159.433 47.096 159.481 46.696L161.017 32.68C161.721 32.6 162.417 32.544 163.105 32.512C163.809 32.464 164.505 32.44 165.193 32.44C166.361 32.44 167.401 32.6 168.313 32.92C169.225 33.24 169.937 33.736 170.449 34.408C170.977 35.08 171.241 35.952 171.241 37.024C171.241 37.776 171.089 38.448 170.785 39.04C170.497 39.632 170.097 40.144 169.585 40.576C169.089 40.992 168.537 41.336 167.929 41.608C167.321 41.88 166.705 42.08 166.081 42.208L166.273 41.008C166.817 42.144 167.345 43.112 167.857 43.912C168.385 44.712 168.857 45.352 169.273 45.832C169.689 46.296 170.009 46.624 170.233 46.816C170.633 47.12 170.921 47.336 171.097 47.464C171.289 47.576 171.385 47.704 171.385 47.848C171.385 47.992 171.281 48.144 171.073 48.304C170.881 48.448 170.633 48.592 170.329 48.736C170.025 48.88 169.713 48.992 169.393 49.072C169.089 49.168 168.833 49.216 168.625 49.216ZM177.802 49.312C176.442 49.312 175.338 49.096 174.49 48.664C173.642 48.232 173.218 47.672 173.218 46.984C173.218 46.456 173.258 46.08 173.338 45.856C173.418 45.632 173.554 45.52 173.746 45.52C173.874 45.52 174.074 45.616 174.346 45.808C174.618 46 174.946 46.216 175.33 46.456C175.73 46.696 176.17 46.912 176.65 47.104C177.146 47.296 177.682 47.392 178.258 47.392C179.09 47.392 179.762 47.216 180.274 46.864C180.802 46.496 181.066 45.936 181.066 45.184C181.066 44.464 180.898 43.92 180.562 43.552C180.226 43.184 179.722 42.784 179.05 42.352L177.538 41.392C176.994 41.04 176.498 40.68 176.05 40.312C175.602 39.944 175.242 39.504 174.97 38.992C174.698 38.464 174.562 37.8 174.562 37C174.562 36.008 174.818 35.16 175.33 34.456C175.842 33.752 176.546 33.216 177.442 32.848C178.338 32.48 179.362 32.296 180.514 32.296C181.586 32.296 182.386 32.368 182.914 32.512C183.442 32.64 183.786 32.824 183.946 33.064C184.122 33.304 184.21 33.584 184.21 33.904C184.21 34.352 184.146 34.696 184.018 34.936C183.89 35.16 183.754 35.272 183.61 35.272C183.482 35.272 183.338 35.232 183.178 35.152C183.018 35.072 182.794 34.968 182.506 34.84C182.282 34.728 181.922 34.6 181.426 34.456C180.946 34.296 180.442 34.216 179.914 34.216C179.226 34.216 178.642 34.392 178.162 34.744C177.698 35.096 177.466 35.624 177.466 36.328C177.466 36.984 177.642 37.504 177.994 37.888C178.346 38.256 178.818 38.584 179.41 38.872L180.73 39.496C181.354 39.784 181.93 40.104 182.458 40.456C183.002 40.808 183.434 41.264 183.754 41.824C184.09 42.368 184.258 43.096 184.258 44.008C184.258 45.704 183.674 47.016 182.506 47.944C181.338 48.856 179.77 49.312 177.802 49.312ZM190.434 49.192C190.178 49.192 189.994 49.016 189.882 48.664C189.77 48.296 189.714 47.896 189.714 47.464C189.714 47.032 189.738 46.552 189.786 46.024C189.85 45.48 189.938 44.744 190.05 43.816L191.082 34.696L187.866 35.392C187.674 35.424 187.506 35.456 187.362 35.488C187.234 35.504 187.138 35.512 187.074 35.512C186.898 35.512 186.77 35.456 186.69 35.344C186.61 35.232 186.578 35.096 186.594 34.936C186.61 34.536 186.666 34.168 186.762 33.832C186.874 33.496 187.01 33.224 187.17 33.016C187.33 32.792 187.506 32.68 187.698 32.68H192.858C194.09 32.68 195.05 32.656 195.738 32.608C196.442 32.56 196.962 32.52 197.298 32.488C197.65 32.44 197.914 32.416 198.09 32.416C198.25 32.416 198.362 32.448 198.426 32.512C198.49 32.576 198.53 32.704 198.546 32.896C198.562 33.216 198.514 33.552 198.402 33.904C198.306 34.256 198.17 34.56 197.994 34.816C197.834 35.056 197.666 35.176 197.49 35.176C197.378 35.176 197.21 35.16 196.986 35.128C196.762 35.08 196.506 35.04 196.218 35.008L193.938 34.696L192.354 49.192H190.434ZM205.853 49.384C204.477 49.384 203.269 49.12 202.229 48.592C201.205 48.048 200.405 47.24 199.829 46.168C199.269 45.096 198.989 43.776 198.989 42.208C198.989 40.768 199.213 39.448 199.661 38.248C200.109 37.032 200.733 35.984 201.533 35.104C202.349 34.208 203.293 33.52 204.365 33.04C205.437 32.544 206.605 32.296 207.869 32.296C210.029 32.296 211.709 32.904 212.909 34.12C214.125 35.32 214.733 37.096 214.733 39.448C214.733 40.888 214.509 42.216 214.061 43.432C213.613 44.632 212.981 45.68 212.165 46.576C211.365 47.472 210.429 48.168 209.357 48.664C208.285 49.144 207.117 49.384 205.853 49.384ZM206.165 47.464C206.837 47.464 207.493 47.288 208.133 46.936C208.773 46.568 209.349 46.048 209.861 45.376C210.373 44.704 210.781 43.912 211.085 43C211.389 42.072 211.541 41.048 211.541 39.928C211.541 38.616 211.357 37.544 210.989 36.712C210.637 35.864 210.157 35.24 209.549 34.84C208.957 34.424 208.293 34.216 207.557 34.216C206.581 34.216 205.685 34.536 204.869 35.176C204.053 35.8 203.397 36.68 202.901 37.816C202.421 38.952 202.181 40.264 202.181 41.752C202.181 43.048 202.357 44.12 202.709 44.968C203.077 45.816 203.565 46.448 204.173 46.864C204.781 47.264 205.445 47.464 206.165 47.464ZM218.014 49.288C217.758 49.288 217.59 49.168 217.51 48.928C217.43 48.688 217.39 48.4 217.39 48.064C217.39 47.504 217.422 46.912 217.486 46.288C217.55 45.648 217.614 45.024 217.678 44.416L218.998 32.32L220.75 32.296C221.038 32.296 221.262 32.336 221.422 32.416C221.598 32.48 221.79 32.696 221.998 33.064C222.766 34.408 223.598 35.744 224.494 37.072C225.39 38.384 226.246 39.64 227.062 40.84C227.878 42.04 228.55 43.136 229.078 44.128L228.454 44.872L228.982 39.712C229.11 38.48 229.166 37.488 229.15 36.736C229.15 35.984 229.11 35.4 229.03 34.984C228.966 34.552 228.894 34.216 228.814 33.976C228.75 33.736 228.718 33.512 228.718 33.304C228.718 33.144 228.798 33.008 228.958 32.896C229.118 32.768 229.318 32.664 229.558 32.584C229.798 32.504 230.03 32.448 230.254 32.416C230.494 32.368 230.694 32.344 230.854 32.344C231.158 32.344 231.39 32.504 231.55 32.824C231.71 33.144 231.79 33.464 231.79 33.784C231.79 34.056 231.758 34.368 231.694 34.72C231.646 35.072 231.582 35.64 231.502 36.424L231.166 39.592C231.006 41.096 230.894 42.328 230.83 43.288C230.782 44.232 230.758 44.984 230.758 45.544C230.758 46.104 230.766 46.56 230.782 46.912C230.814 47.264 230.83 47.592 230.83 47.896C230.83 48.072 230.742 48.248 230.566 48.424C230.39 48.584 230.166 48.728 229.894 48.856C229.622 48.984 229.358 49.08 229.102 49.144C228.846 49.224 228.63 49.264 228.454 49.264C228.31 49.264 228.182 49.192 228.07 49.048C227.958 48.904 227.91 48.704 227.926 48.448C227.942 48.24 227.878 47.976 227.734 47.656C227.606 47.32 227.454 46.976 227.278 46.624C227.102 46.272 226.934 45.968 226.774 45.712C226.262 44.784 225.622 43.784 224.854 42.712C224.102 41.64 223.326 40.52 222.526 39.352C221.726 38.184 221.006 37 220.366 35.8L220.702 35.752L220.054 41.968C219.942 43.072 219.878 43.984 219.862 44.704C219.846 45.408 219.862 45.968 219.91 46.384C219.958 46.8 220.014 47.12 220.078 47.344C220.142 47.568 220.198 47.752 220.246 47.896C220.31 48.024 220.342 48.168 220.342 48.328C220.342 48.504 220.246 48.656 220.054 48.784C219.878 48.896 219.654 48.992 219.382 49.072C219.126 49.152 218.87 49.208 218.614 49.24C218.358 49.272 218.158 49.288 218.014 49.288ZM235.226 49.288C234.938 49.288 234.714 49.112 234.554 48.76C234.41 48.408 234.338 48.016 234.338 47.584C234.338 46.96 234.41 45.944 234.554 44.536L235.754 32.68H239.45C240.586 32.68 241.482 32.664 242.138 32.632C242.81 32.584 243.314 32.544 243.65 32.512C244.002 32.464 244.258 32.44 244.418 32.44C244.594 32.44 244.714 32.472 244.778 32.536C244.858 32.584 244.898 32.728 244.898 32.968C244.898 33.256 244.842 33.568 244.73 33.904C244.618 34.24 244.466 34.528 244.274 34.768C244.098 35.008 243.89 35.128 243.65 35.128C243.49 35.128 243.226 35.104 242.858 35.056C242.49 35.008 242.074 34.952 241.61 34.888L238.49 34.48L237.41 45.184C237.378 45.52 237.362 45.856 237.362 46.192C237.362 46.528 237.386 46.864 237.434 47.2L242.57 46.192C242.858 46.128 243.098 46.08 243.29 46.048C243.498 46 243.634 45.976 243.698 45.976C243.89 45.976 243.986 46.088 243.986 46.312C243.986 46.712 243.914 47.12 243.77 47.536C243.642 47.952 243.458 48.304 243.218 48.592C242.978 48.864 242.682 49 242.33 49H241.61C239.818 49 238.41 49.048 237.386 49.144C236.362 49.24 235.642 49.288 235.226 49.288ZM236.45 41.44L236.762 39.592H237.914C238.602 39.592 239.25 39.568 239.858 39.52C240.466 39.472 240.978 39.424 241.394 39.376C241.81 39.328 242.074 39.304 242.186 39.304C242.314 39.304 242.41 39.344 242.474 39.424C242.538 39.488 242.57 39.584 242.57 39.712C242.57 39.952 242.41 40.2 242.09 40.456C241.77 40.712 241.37 40.928 240.89 41.104C240.426 41.28 239.97 41.376 239.522 41.392L236.45 41.44ZM260.506 49.384C259.13 49.384 257.922 49.12 256.882 48.592C255.858 48.048 255.058 47.24 254.482 46.168C253.922 45.096 253.642 43.776 253.642 42.208C253.642 40.768 253.866 39.448 254.314 38.248C254.762 37.032 255.386 35.984 256.186 35.104C257.002 34.208 257.946 33.52 259.018 33.04C260.09 32.544 261.258 32.296 262.522 32.296C264.682 32.296 266.362 32.904 267.562 34.12C268.778 35.32 269.386 37.096 269.386 39.448C269.386 40.888 269.162 42.216 268.714 43.432C268.266 44.632 267.634 45.68 266.818 46.576C266.018 47.472 265.082 48.168 264.01 48.664C262.938 49.144 261.77 49.384 260.506 49.384ZM260.818 47.464C261.49 47.464 262.146 47.288 262.786 46.936C263.426 46.568 264.002 46.048 264.514 45.376C265.026 44.704 265.434 43.912 265.738 43C266.042 42.072 266.194 41.048 266.194 39.928C266.194 38.616 266.01 37.544 265.642 36.712C265.29 35.864 264.81 35.24 264.202 34.84C263.61 34.424 262.946 34.216 262.21 34.216C261.234 34.216 260.338 34.536 259.522 35.176C258.706 35.8 258.05 36.68 257.554 37.816C257.074 38.952 256.834 40.264 256.834 41.752C256.834 43.048 257.01 44.12 257.362 44.968C257.73 45.816 258.218 46.448 258.826 46.864C259.434 47.264 260.098 47.464 260.818 47.464ZM272.883 49.288C272.675 49.288 272.515 49.2 272.403 49.024C272.291 48.864 272.211 48.656 272.163 48.4C272.115 48.144 272.091 47.872 272.091 47.584C272.091 47.264 272.115 46.856 272.163 46.36C272.211 45.848 272.267 45.24 272.331 44.536L273.603 32.68H277.179C278.315 32.68 279.195 32.664 279.819 32.632C280.443 32.584 280.907 32.544 281.211 32.512C281.515 32.464 281.747 32.44 281.907 32.44C282.083 32.44 282.203 32.472 282.267 32.536C282.347 32.584 282.387 32.728 282.387 32.968C282.387 33.256 282.331 33.568 282.219 33.904C282.107 34.24 281.955 34.528 281.763 34.768C281.587 35.008 281.379 35.128 281.139 35.128C281.043 35.128 280.915 35.128 280.755 35.128C280.611 35.112 280.435 35.096 280.227 35.08C280.035 35.048 279.827 35.016 279.603 34.984L276.219 34.48L274.803 49.288H272.883ZM274.179 41.92L274.491 40.072H275.643C276.331 40.072 276.995 40.048 277.635 40C278.291 39.952 278.843 39.904 279.291 39.856C279.755 39.808 280.043 39.784 280.155 39.784C280.283 39.784 280.379 39.824 280.443 39.904C280.507 39.968 280.539 40.064 280.539 40.192C280.539 40.432 280.371 40.68 280.035 40.936C279.715 41.192 279.299 41.408 278.787 41.584C278.291 41.76 277.779 41.856 277.251 41.872L274.179 41.92ZM291.823 49.288C291.535 49.288 291.311 49.112 291.151 48.76C291.007 48.408 290.935 48.016 290.935 47.584C290.935 46.96 291.007 45.944 291.151 44.536L292.351 32.68H296.047C297.183 32.68 298.079 32.664 298.735 32.632C299.407 32.584 299.911 32.544 300.247 32.512C300.599 32.464 300.855 32.44 301.015 32.44C301.191 32.44 301.311 32.472 301.375 32.536C301.455 32.584 301.495 32.728 301.495 32.968C301.495 33.256 301.439 33.568 301.327 33.904C301.215 34.24 301.063 34.528 300.871 34.768C300.695 35.008 300.487 35.128 300.247 35.128C300.087 35.128 299.823 35.104 299.455 35.056C299.087 35.008 298.671 34.952 298.207 34.888L295.087 34.48L294.007 45.184C293.975 45.52 293.959 45.856 293.959 46.192C293.959 46.528 293.983 46.864 294.031 47.2L299.167 46.192C299.455 46.128 299.695 46.08 299.887 46.048C300.095 46 300.231 45.976 300.295 45.976C300.487 45.976 300.583 46.088 300.583 46.312C300.583 46.712 300.511 47.12 300.367 47.536C300.239 47.952 300.055 48.304 299.815 48.592C299.575 48.864 299.279 49 298.927 49H298.207C296.415 49 295.007 49.048 293.983 49.144C292.959 49.24 292.239 49.288 291.823 49.288ZM293.047 41.44L293.359 39.592H294.511C295.199 39.592 295.847 39.568 296.455 39.52C297.063 39.472 297.575 39.424 297.991 39.376C298.407 39.328 298.671 39.304 298.783 39.304C298.911 39.304 299.007 39.344 299.071 39.424C299.135 39.488 299.167 39.584 299.167 39.712C299.167 39.952 299.007 40.2 298.687 40.456C298.367 40.712 297.967 40.928 297.487 41.104C297.023 41.28 296.567 41.376 296.119 41.392L293.047 41.44ZM308.556 49.336C308.428 49.336 308.3 49.296 308.172 49.216C308.06 49.136 307.98 48.944 307.932 48.64C307.756 47.408 307.516 46.136 307.212 44.824C306.924 43.512 306.604 42.208 306.252 40.912C305.916 39.6 305.58 38.352 305.244 37.168C305.036 36.416 304.852 35.872 304.692 35.536C304.532 35.2 304.364 34.912 304.188 34.672C304.012 34.432 303.828 34.232 303.636 34.072C303.46 33.912 303.372 33.76 303.372 33.616C303.372 33.456 303.484 33.304 303.708 33.16C303.948 33.016 304.228 32.888 304.548 32.776C304.884 32.648 305.212 32.552 305.532 32.488C305.868 32.424 306.132 32.392 306.324 32.392C306.596 32.392 306.836 32.528 307.044 32.8C307.268 33.072 307.484 33.528 307.692 34.168C307.916 34.792 308.148 35.656 308.388 36.76L310.572 46.768L309.588 47.056L314.364 37.216C314.588 36.752 314.756 36.368 314.868 36.064C314.98 35.76 315.06 35.48 315.108 35.224C315.172 34.952 315.22 34.656 315.252 34.336C315.284 34.032 315.436 33.76 315.708 33.52C315.98 33.28 316.292 33.072 316.644 32.896C316.996 32.72 317.332 32.584 317.652 32.488C317.972 32.392 318.204 32.344 318.348 32.344C318.78 32.344 318.996 32.48 318.996 32.752C318.996 32.928 318.932 33.136 318.804 33.376L311.508 47.752C311.396 47.976 311.204 48.216 310.932 48.472C310.676 48.712 310.348 48.912 309.948 49.072C309.564 49.248 309.1 49.336 308.556 49.336ZM321.329 49.288C321.041 49.288 320.817 49.112 320.657 48.76C320.513 48.408 320.441 48.016 320.441 47.584C320.441 46.96 320.513 45.944 320.657 44.536L321.857 32.68H325.553C326.689 32.68 327.585 32.664 328.241 32.632C328.913 32.584 329.417 32.544 329.753 32.512C330.105 32.464 330.361 32.44 330.521 32.44C330.697 32.44 330.817 32.472 330.881 32.536C330.961 32.584 331.001 32.728 331.001 32.968C331.001 33.256 330.945 33.568 330.833 33.904C330.721 34.24 330.569 34.528 330.377 34.768C330.201 35.008 329.993 35.128 329.753 35.128C329.593 35.128 329.329 35.104 328.961 35.056C328.593 35.008 328.177 34.952 327.713 34.888L324.593 34.48L323.513 45.184C323.481 45.52 323.465 45.856 323.465 46.192C323.465 46.528 323.489 46.864 323.537 47.2L328.673 46.192C328.961 46.128 329.201 46.08 329.393 46.048C329.601 46 329.737 45.976 329.801 45.976C329.993 45.976 330.089 46.088 330.089 46.312C330.089 46.712 330.017 47.12 329.873 47.536C329.745 47.952 329.561 48.304 329.321 48.592C329.081 48.864 328.785 49 328.433 49H327.713C325.921 49 324.513 49.048 323.489 49.144C322.465 49.24 321.745 49.288 321.329 49.288ZM322.553 41.44L322.865 39.592H324.017C324.705 39.592 325.353 39.568 325.961 39.52C326.569 39.472 327.081 39.424 327.497 39.376C327.913 39.328 328.177 39.304 328.289 39.304C328.417 39.304 328.513 39.344 328.577 39.424C328.641 39.488 328.673 39.584 328.673 39.712C328.673 39.952 328.513 40.2 328.193 40.456C327.873 40.712 327.473 40.928 326.993 41.104C326.529 41.28 326.073 41.376 325.625 41.392L322.553 41.44ZM342.238 49.216C341.822 49.216 341.342 48.904 340.798 48.28C340.27 47.64 339.734 46.816 339.19 45.808C338.646 44.784 338.126 43.688 337.63 42.52C337.566 42.376 337.494 42.232 337.414 42.088C337.35 41.928 337.318 41.768 337.318 41.608C337.318 41.432 337.374 41.312 337.486 41.248C337.598 41.168 337.718 41.12 337.846 41.104C338.934 40.896 339.838 40.464 340.558 39.808C341.294 39.152 341.662 38.312 341.662 37.288C341.662 36.712 341.534 36.2 341.278 35.752C341.038 35.288 340.606 34.92 339.982 34.648C339.358 34.376 338.494 34.24 337.39 34.24H337.294L335.71 49.192H333.766C333.494 49.192 333.302 49.064 333.19 48.808C333.078 48.552 333.022 48.208 333.022 47.776C333.022 47.456 333.046 47.096 333.094 46.696L334.63 32.68C335.334 32.6 336.03 32.544 336.718 32.512C337.422 32.464 338.118 32.44 338.806 32.44C339.974 32.44 341.014 32.6 341.926 32.92C342.838 33.24 343.55 33.736 344.062 34.408C344.59 35.08 344.854 35.952 344.854 37.024C344.854 37.776 344.702 38.448 344.398 39.04C344.11 39.632 343.71 40.144 343.198 40.576C342.702 40.992 342.15 41.336 341.542 41.608C340.934 41.88 340.318 42.08 339.694 42.208L339.886 41.008C340.43 42.144 340.958 43.112 341.47 43.912C341.998 44.712 342.47 45.352 342.886 45.832C343.302 46.296 343.622 46.624 343.846 46.816C344.246 47.12 344.534 47.336 344.71 47.464C344.902 47.576 344.998 47.704 344.998 47.848C344.998 47.992 344.894 48.144 344.686 48.304C344.494 48.448 344.246 48.592 343.942 48.736C343.638 48.88 343.326 48.992 343.006 49.072C342.702 49.168 342.446 49.216 342.238 49.216ZM351.414 42.736L349.254 37.6C348.934 36.832 348.638 36.208 348.366 35.728C348.11 35.232 347.822 34.856 347.502 34.6C347.102 34.28 346.838 34.048 346.71 33.904C346.582 33.76 346.518 33.608 346.518 33.448C346.518 33.304 346.654 33.152 346.926 32.992C347.198 32.816 347.51 32.664 347.862 32.536C348.214 32.408 348.51 32.344 348.75 32.344C349.406 32.344 349.95 32.616 350.382 33.16C350.83 33.688 351.214 34.408 351.534 35.32L353.31 40.312L352.59 40.84L354.99 37.144C355.438 36.472 355.71 35.888 355.806 35.392C355.918 34.896 355.99 34.48 356.022 34.144C356.054 33.856 356.23 33.608 356.55 33.4C356.87 33.176 357.246 32.984 357.678 32.824C358.11 32.664 358.518 32.544 358.902 32.464C359.302 32.384 359.598 32.344 359.79 32.344C360.078 32.344 360.222 32.472 360.222 32.728C360.222 32.888 360.158 33.088 360.03 33.328C359.902 33.568 359.726 33.84 359.502 34.144L353.454 42.736H351.414ZM351.294 49.192C351.006 49.192 350.806 49.064 350.694 48.808C350.582 48.552 350.526 48.208 350.526 47.776C350.526 47.456 350.55 47.096 350.598 46.696L351.246 40.864L354.102 41.296L353.238 49.192H351.294ZM22.8496 74.384C21.5056 74.384 20.3296 74.12 19.3216 73.592C18.3296 73.048 17.5536 72.24 16.9936 71.168C16.4336 70.096 16.1536 68.776 16.1536 67.208C16.1536 65.768 16.3776 64.448 16.8256 63.248C17.2896 62.032 17.9376 60.984 18.7696 60.104C19.6016 59.208 20.5936 58.52 21.7456 58.04C22.8976 57.544 24.1776 57.296 25.5856 57.296C26.8976 57.296 27.8816 57.44 28.5376 57.728C29.1936 58 29.5216 58.496 29.5216 59.216C29.5216 59.6 29.4496 59.928 29.3056 60.2C29.1776 60.472 29.0336 60.608 28.8736 60.608C28.7296 60.608 28.5616 60.56 28.3696 60.464C28.1936 60.368 27.9936 60.264 27.7696 60.152C27.3856 59.96 26.9616 59.76 26.4976 59.552C26.0496 59.328 25.4496 59.216 24.6976 59.216C23.7216 59.216 22.8256 59.536 22.0096 60.176C21.2096 60.816 20.5616 61.704 20.0656 62.84C19.5856 63.96 19.3456 65.272 19.3456 66.776C19.3456 68.04 19.5296 69.096 19.8976 69.944C20.2816 70.792 20.7856 71.424 21.4096 71.84C22.0336 72.256 22.7136 72.464 23.4496 72.464C24.0576 72.464 24.6016 72.352 25.0816 72.128C25.5616 71.888 25.9776 71.616 26.3296 71.312C26.6976 71.008 27.0256 70.744 27.3136 70.52C27.6016 70.28 27.8576 70.16 28.0816 70.16C28.2576 70.16 28.4016 70.2 28.5136 70.28C28.6416 70.36 28.7056 70.528 28.7056 70.784C28.7056 71.408 28.4416 71.992 27.9136 72.536C27.3856 73.08 26.6816 73.528 25.8016 73.88C24.9216 74.216 23.9376 74.384 22.8496 74.384ZM34.0739 66.44V64.64H42.9779V66.44H34.0739ZM32.6579 74.192C32.4339 74.192 32.2499 74.096 32.1059 73.904C31.9779 73.712 31.8819 73.464 31.8179 73.16C31.7539 72.856 31.7219 72.552 31.7219 72.248C31.7219 71.592 31.7619 70.96 31.8419 70.352C31.9219 69.744 31.9939 69.088 32.0579 68.384L33.2099 57.32H34.8899C35.3059 57.32 35.5779 57.48 35.7059 57.8C35.8499 58.104 35.9219 58.472 35.9219 58.904C35.9219 59.288 35.9059 59.632 35.8739 59.936C35.8419 60.24 35.7939 60.608 35.7299 61.04C35.6819 61.472 35.6179 62.064 35.5379 62.816L34.3379 74.192H32.6579ZM42.3059 74.192C42.0819 74.192 41.8979 74.096 41.7539 73.904C41.6259 73.712 41.5299 73.464 41.4659 73.16C41.4019 72.856 41.3699 72.552 41.3699 72.248C41.3699 71.592 41.4099 70.96 41.4899 70.352C41.5699 69.744 41.6419 69.088 41.7059 68.384L42.8579 57.32H44.5379C44.9539 57.32 45.2259 57.48 45.3539 57.8C45.4979 58.104 45.5699 58.472 45.5699 58.904C45.5699 59.288 45.5539 59.632 45.5219 59.936C45.4899 60.24 45.4419 60.608 45.3779 61.04C45.3299 61.472 45.2659 62.064 45.1859 62.816L43.9859 74.192H42.3059ZM49.4616 74.192C49.2376 74.192 49.0536 74.096 48.9096 73.904C48.7816 73.712 48.6856 73.464 48.6216 73.16C48.5576 72.856 48.5256 72.552 48.5256 72.248C48.5256 71.592 48.5656 70.96 48.6456 70.352C48.7256 69.744 48.7976 69.088 48.8616 68.384L50.0136 57.32H51.6936C52.1096 57.32 52.3816 57.48 52.5096 57.8C52.6536 58.104 52.7256 58.472 52.7256 58.904C52.7256 59.288 52.7096 59.632 52.6776 59.936C52.6456 60.24 52.5976 60.608 52.5336 61.04C52.4856 61.472 52.4216 62.064 52.3416 62.816L51.1416 74.192H49.4616ZM56.5851 74.288C56.2971 74.288 56.0731 74.112 55.9131 73.76C55.7691 73.408 55.6971 73.016 55.6971 72.584C55.6971 71.96 55.7691 70.944 55.9131 69.536L57.1611 57.32H59.0811C59.5931 57.32 59.8731 57.528 59.9211 57.944C59.9691 58.344 59.9371 59.032 59.8251 60.008L58.7211 70.184C58.6891 70.52 58.6731 70.856 58.6731 71.192C58.6731 71.528 58.6971 71.864 58.7451 72.2L63.9051 71C64.0811 70.968 64.2171 70.944 64.3131 70.928C64.4091 70.896 64.4811 70.88 64.5291 70.88C64.7211 70.88 64.8171 70.992 64.8171 71.216C64.8171 71.616 64.7451 72.032 64.6011 72.464C64.4731 72.896 64.2891 73.264 64.0491 73.568C63.8091 73.856 63.5131 74 63.1611 74H62.4411C61.2411 74 60.2571 74.024 59.4891 74.072C58.7371 74.12 58.1371 74.168 57.6891 74.216C57.2411 74.264 56.8731 74.288 56.5851 74.288ZM68.3498 74.192C68.0618 74.192 67.8378 74.032 67.6778 73.712C67.5338 73.392 67.4618 73.016 67.4618 72.584C67.4618 71.96 67.5338 70.944 67.6778 69.536L68.8778 57.68C69.7418 57.6 70.5978 57.544 71.4458 57.512C72.3098 57.464 73.1098 57.44 73.8458 57.44C76.3578 57.44 78.2938 58.056 79.6538 59.288C81.0298 60.504 81.7178 62.208 81.7178 64.4C81.7178 66.256 81.3258 67.912 80.5418 69.368C79.7578 70.808 78.6218 71.944 77.1338 72.776C75.6618 73.592 73.8618 74 71.7338 74C71.0938 74 70.4938 74.032 69.9338 74.096C69.3898 74.16 68.8618 74.192 68.3498 74.192ZM70.5098 72.2C72.2378 72.2 73.6938 71.888 74.8778 71.264C76.0778 70.624 76.9818 69.744 77.5898 68.624C78.2138 67.488 78.5258 66.176 78.5258 64.688C78.5258 62.928 78.0298 61.584 77.0378 60.656C76.0618 59.712 74.4538 59.24 72.2138 59.24H71.6138L70.5338 70.184C70.5178 70.456 70.5018 70.768 70.4858 71.12C70.4858 71.472 70.4938 71.832 70.5098 72.2ZM84.1154 63.992C84.1154 63.896 84.1394 63.824 84.1874 63.776C84.2354 63.712 84.3074 63.664 84.4034 63.632C85.1074 63.36 85.6274 63 85.9634 62.552C86.2994 62.088 86.4674 61.584 86.4674 61.04C86.4674 60.864 86.4434 60.704 86.3954 60.56C86.3474 60.416 86.1794 60.12 85.8914 59.672L87.2354 60.752C86.9954 60.848 86.7474 60.896 86.4914 60.896C86.0434 60.896 85.6594 60.744 85.3394 60.44C85.0194 60.136 84.8594 59.736 84.8594 59.24C84.8594 58.648 85.0514 58.192 85.4354 57.872C85.8194 57.536 86.2594 57.368 86.7554 57.368C87.3314 57.368 87.7634 57.576 88.0514 57.992C88.3554 58.408 88.5074 58.928 88.5074 59.552C88.5074 60.384 88.3794 61.12 88.1234 61.76C87.8674 62.384 87.5394 62.904 87.1394 63.32C86.7394 63.736 86.3154 64.056 85.8674 64.28C85.4194 64.488 85.0114 64.592 84.6434 64.592C84.4994 64.592 84.3714 64.528 84.2594 64.4C84.1634 64.256 84.1154 64.12 84.1154 63.992ZM94.3808 74.312C93.0208 74.312 91.9168 74.096 91.0688 73.664C90.2208 73.232 89.7968 72.672 89.7968 71.984C89.7968 71.456 89.8368 71.08 89.9168 70.856C89.9968 70.632 90.1328 70.52 90.3248 70.52C90.4528 70.52 90.6528 70.616 90.9248 70.808C91.1968 71 91.5248 71.216 91.9088 71.456C92.3088 71.696 92.7488 71.912 93.2288 72.104C93.7248 72.296 94.2608 72.392 94.8368 72.392C95.6688 72.392 96.3408 72.216 96.8528 71.864C97.3808 71.496 97.6448 70.936 97.6448 70.184C97.6448 69.464 97.4768 68.92 97.1408 68.552C96.8048 68.184 96.3008 67.784 95.6288 67.352L94.1168 66.392C93.5728 66.04 93.0768 65.68 92.6288 65.312C92.1808 64.944 91.8208 64.504 91.5488 63.992C91.2768 63.464 91.1408 62.8 91.1408 62C91.1408 61.008 91.3968 60.16 91.9088 59.456C92.4208 58.752 93.1248 58.216 94.0208 57.848C94.9168 57.48 95.9408 57.296 97.0928 57.296C98.1648 57.296 98.9648 57.368 99.4928 57.512C100.021 57.64 100.365 57.824 100.525 58.064C100.701 58.304 100.789 58.584 100.789 58.904C100.789 59.352 100.725 59.696 100.597 59.936C100.469 60.16 100.333 60.272 100.189 60.272C100.061 60.272 99.9168 60.232 99.7568 60.152C99.5968 60.072 99.3728 59.968 99.0848 59.84C98.8608 59.728 98.5008 59.6 98.0048 59.456C97.5248 59.296 97.0208 59.216 96.4928 59.216C95.8048 59.216 95.2208 59.392 94.7408 59.744C94.2768 60.096 94.0448 60.624 94.0448 61.328C94.0448 61.984 94.2208 62.504 94.5728 62.888C94.9248 63.256 95.3968 63.584 95.9888 63.872L97.3088 64.496C97.9328 64.784 98.5088 65.104 99.0368 65.456C99.5808 65.808 100.013 66.264 100.333 66.824C100.669 67.368 100.837 68.096 100.837 69.008C100.837 70.704 100.253 72.016 99.0848 72.944C97.9168 73.856 96.3488 74.312 94.3808 74.312ZM111.588 74.288C111.3 74.288 111.076 74.112 110.916 73.76C110.772 73.408 110.7 73.016 110.7 72.584C110.7 71.96 110.772 70.944 110.916 69.536L112.116 57.68H115.812C116.948 57.68 117.844 57.664 118.5 57.632C119.172 57.584 119.676 57.544 120.012 57.512C120.364 57.464 120.62 57.44 120.78 57.44C120.956 57.44 121.076 57.472 121.14 57.536C121.22 57.584 121.26 57.728 121.26 57.968C121.26 58.256 121.204 58.568 121.092 58.904C120.98 59.24 120.828 59.528 120.636 59.768C120.46 60.008 120.252 60.128 120.012 60.128C119.852 60.128 119.588 60.104 119.22 60.056C118.852 60.008 118.436 59.952 117.972 59.888L114.852 59.48L113.772 70.184C113.74 70.52 113.724 70.856 113.724 71.192C113.724 71.528 113.748 71.864 113.796 72.2L118.932 71.192C119.22 71.128 119.46 71.08 119.652 71.048C119.86 71 119.996 70.976 120.06 70.976C120.252 70.976 120.348 71.088 120.348 71.312C120.348 71.712 120.276 72.12 120.132 72.536C120.004 72.952 119.82 73.304 119.58 73.592C119.34 73.864 119.044 74 118.692 74H117.972C116.18 74 114.772 74.048 113.748 74.144C112.724 74.24 112.004 74.288 111.588 74.288ZM112.812 66.44L113.124 64.592H114.276C114.964 64.592 115.612 64.568 116.22 64.52C116.828 64.472 117.34 64.424 117.756 64.376C118.172 64.328 118.436 64.304 118.548 64.304C118.676 64.304 118.772 64.344 118.836 64.424C118.9 64.488 118.932 64.584 118.932 64.712C118.932 64.952 118.772 65.2 118.452 65.456C118.132 65.712 117.732 65.928 117.252 66.104C116.788 66.28 116.332 66.376 115.884 66.392L112.812 66.44ZM124.361 74.192C124.073 74.192 123.849 74.032 123.689 73.712C123.545 73.392 123.473 73.016 123.473 72.584C123.473 71.96 123.545 70.944 123.689 69.536L124.889 57.68C125.753 57.6 126.609 57.544 127.457 57.512C128.321 57.464 129.121 57.44 129.857 57.44C132.369 57.44 134.305 58.056 135.665 59.288C137.041 60.504 137.729 62.208 137.729 64.4C137.729 66.256 137.337 67.912 136.553 69.368C135.769 70.808 134.633 71.944 133.145 72.776C131.673 73.592 129.873 74 127.745 74C127.105 74 126.505 74.032 125.945 74.096C125.401 74.16 124.873 74.192 124.361 74.192ZM126.521 72.2C128.249 72.2 129.705 71.888 130.889 71.264C132.089 70.624 132.993 69.744 133.601 68.624C134.225 67.488 134.537 66.176 134.537 64.688C134.537 62.928 134.041 61.584 133.049 60.656C132.073 59.712 130.465 59.24 128.225 59.24H127.625L126.545 70.184C126.529 70.456 126.513 70.768 126.497 71.12C126.497 71.472 126.505 71.832 126.521 72.2ZM146.798 74.384C145.246 74.384 143.998 74.208 143.054 73.856C142.126 73.488 141.486 72.88 141.134 72.032C140.782 71.184 140.678 70.032 140.822 68.576L141.998 57.32H143.918C144.238 57.32 144.454 57.4 144.566 57.56C144.694 57.704 144.758 57.992 144.758 58.424C144.758 58.808 144.734 59.192 144.686 59.576C144.654 59.96 144.606 60.408 144.542 60.92C144.478 61.432 144.406 62.064 144.326 62.816L143.798 67.712C143.622 69.344 143.798 70.544 144.326 71.312C144.87 72.08 145.886 72.464 147.374 72.464C148.062 72.464 148.686 72.328 149.246 72.056C149.822 71.784 150.294 71.36 150.662 70.784C151.046 70.192 151.286 69.424 151.382 68.48L151.886 63.824C151.982 62.928 152.022 62.184 152.006 61.592C151.99 61 151.942 60.512 151.862 60.128C151.782 59.728 151.71 59.4 151.646 59.144C151.582 58.872 151.55 58.632 151.55 58.424C151.55 58.232 151.67 58.056 151.91 57.896C152.166 57.72 152.462 57.584 152.798 57.488C153.134 57.392 153.43 57.344 153.686 57.344C153.926 57.344 154.11 57.424 154.238 57.584C154.382 57.728 154.478 57.912 154.526 58.136C154.59 58.36 154.622 58.576 154.622 58.784C154.622 59.056 154.598 59.44 154.55 59.936C154.502 60.416 154.446 60.912 154.382 61.424L153.638 68.288C153.462 69.936 153.094 71.2 152.534 72.08C151.99 72.96 151.238 73.568 150.278 73.904C149.334 74.224 148.174 74.384 146.798 74.384ZM163.675 74.384C162.331 74.384 161.155 74.12 160.147 73.592C159.155 73.048 158.379 72.24 157.819 71.168C157.259 70.096 156.979 68.776 156.979 67.208C156.979 65.768 157.203 64.448 157.651 63.248C158.115 62.032 158.763 60.984 159.595 60.104C160.427 59.208 161.419 58.52 162.571 58.04C163.723 57.544 165.003 57.296 166.411 57.296C167.723 57.296 168.707 57.44 169.363 57.728C170.019 58 170.347 58.496 170.347 59.216C170.347 59.6 170.275 59.928 170.131 60.2C170.003 60.472 169.859 60.608 169.699 60.608C169.555 60.608 169.387 60.56 169.195 60.464C169.019 60.368 168.819 60.264 168.595 60.152C168.211 59.96 167.787 59.76 167.323 59.552C166.875 59.328 166.275 59.216 165.523 59.216C164.547 59.216 163.651 59.536 162.835 60.176C162.035 60.816 161.387 61.704 160.891 62.84C160.411 63.96 160.171 65.272 160.171 66.776C160.171 68.04 160.355 69.096 160.723 69.944C161.107 70.792 161.611 71.424 162.235 71.84C162.859 72.256 163.539 72.464 164.275 72.464C164.883 72.464 165.427 72.352 165.907 72.128C166.387 71.888 166.803 71.616 167.155 71.312C167.523 71.008 167.851 70.744 168.139 70.52C168.427 70.28 168.683 70.16 168.907 70.16C169.083 70.16 169.227 70.2 169.339 70.28C169.467 70.36 169.531 70.528 169.531 70.784C169.531 71.408 169.267 71.992 168.739 72.536C168.211 73.08 167.507 73.528 166.627 73.88C165.747 74.216 164.763 74.384 163.675 74.384ZM171.281 74.336C170.849 74.336 170.633 74.2 170.633 73.928C170.633 73.8 170.697 73.592 170.825 73.304L177.953 58.928C178.065 58.688 178.297 58.448 178.649 58.208C179.001 57.968 179.425 57.768 179.921 57.608C180.417 57.432 180.929 57.344 181.457 57.344C181.585 57.344 181.705 57.384 181.817 57.464C181.945 57.544 182.033 57.736 182.081 58.04C182.353 59.88 182.681 61.728 183.065 63.584C183.449 65.44 183.889 67.256 184.385 69.032C184.609 69.784 184.801 70.392 184.961 70.856C185.121 71.32 185.281 71.672 185.441 71.912C185.617 72.152 185.769 72.352 185.897 72.512C186.041 72.656 186.113 72.8 186.113 72.944C186.113 73.104 186.017 73.264 185.825 73.424C185.649 73.584 185.425 73.728 185.153 73.856C184.881 73.984 184.601 74.088 184.313 74.168C184.025 74.248 183.777 74.288 183.569 74.288C183.217 74.288 182.857 73.976 182.489 73.352C182.121 72.712 181.761 71.568 181.409 69.92L179.321 59.912L179.777 59.624L175.097 69.464C174.889 69.912 174.737 70.288 174.641 70.592C174.561 70.896 174.513 71.176 174.497 71.432C174.481 71.672 174.449 71.952 174.401 72.272C174.369 72.576 174.217 72.856 173.945 73.112C173.673 73.352 173.353 73.568 172.985 73.76C172.633 73.936 172.297 74.072 171.977 74.168C171.657 74.28 171.425 74.336 171.281 74.336ZM174.305 69.44V67.64H183.233V69.44H174.305ZM190.96 74.192C190.704 74.192 190.52 74.016 190.408 73.664C190.296 73.296 190.24 72.896 190.24 72.464C190.24 72.032 190.264 71.552 190.312 71.024C190.376 70.48 190.464 69.744 190.576 68.816L191.608 59.696L188.392 60.392C188.2 60.424 188.032 60.456 187.888 60.488C187.76 60.504 187.664 60.512 187.6 60.512C187.424 60.512 187.296 60.456 187.216 60.344C187.136 60.232 187.104 60.096 187.12 59.936C187.136 59.536 187.192 59.168 187.288 58.832C187.4 58.496 187.536 58.224 187.696 58.016C187.856 57.792 188.032 57.68 188.224 57.68H193.384C194.616 57.68 195.576 57.656 196.264 57.608C196.968 57.56 197.488 57.52 197.824 57.488C198.176 57.44 198.44 57.416 198.616 57.416C198.776 57.416 198.888 57.448 198.952 57.512C199.016 57.576 199.056 57.704 199.072 57.896C199.088 58.216 199.04 58.552 198.928 58.904C198.832 59.256 198.696 59.56 198.52 59.816C198.36 60.056 198.192 60.176 198.016 60.176C197.904 60.176 197.736 60.16 197.512 60.128C197.288 60.08 197.032 60.04 196.744 60.008L194.464 59.696L192.88 74.192H190.96ZM201.466 74.192C201.242 74.192 201.058 74.096 200.914 73.904C200.786 73.712 200.69 73.464 200.626 73.16C200.562 72.856 200.53 72.552 200.53 72.248C200.53 71.592 200.57 70.96 200.65 70.352C200.73 69.744 200.802 69.088 200.866 68.384L202.018 57.32H203.698C204.114 57.32 204.386 57.48 204.514 57.8C204.658 58.104 204.73 58.472 204.73 58.904C204.73 59.288 204.714 59.632 204.682 59.936C204.65 60.24 204.602 60.608 204.538 61.04C204.49 61.472 204.426 62.064 204.346 62.816L203.146 74.192H201.466ZM214.253 74.384C212.877 74.384 211.669 74.12 210.629 73.592C209.605 73.048 208.805 72.24 208.229 71.168C207.669 70.096 207.389 68.776 207.389 67.208C207.389 65.768 207.613 64.448 208.061 63.248C208.509 62.032 209.133 60.984 209.933 60.104C210.749 59.208 211.693 58.52 212.765 58.04C213.837 57.544 215.005 57.296 216.269 57.296C218.429 57.296 220.109 57.904 221.309 59.12C222.525 60.32 223.133 62.096 223.133 64.448C223.133 65.888 222.909 67.216 222.461 68.432C222.013 69.632 221.381 70.68 220.565 71.576C219.765 72.472 218.829 73.168 217.757 73.664C216.685 74.144 215.517 74.384 214.253 74.384ZM214.565 72.464C215.237 72.464 215.893 72.288 216.533 71.936C217.173 71.568 217.749 71.048 218.261 70.376C218.773 69.704 219.181 68.912 219.485 68C219.789 67.072 219.941 66.048 219.941 64.928C219.941 63.616 219.757 62.544 219.389 61.712C219.037 60.864 218.557 60.24 217.949 59.84C217.357 59.424 216.693 59.216 215.957 59.216C214.981 59.216 214.085 59.536 213.269 60.176C212.453 60.8 211.797 61.68 211.301 62.816C210.821 63.952 210.581 65.264 210.581 66.752C210.581 68.048 210.757 69.12 211.109 69.968C211.477 70.816 211.965 71.448 212.573 71.864C213.181 72.264 213.845 72.464 214.565 72.464ZM226.415 74.288C226.159 74.288 225.991 74.168 225.911 73.928C225.831 73.688 225.791 73.4 225.791 73.064C225.791 72.504 225.823 71.912 225.887 71.288C225.951 70.648 226.015 70.024 226.079 69.416L227.399 57.32L229.151 57.296C229.439 57.296 229.663 57.336 229.823 57.416C229.999 57.48 230.191 57.696 230.399 58.064C231.167 59.408 231.999 60.744 232.895 62.072C233.791 63.384 234.647 64.64 235.463 65.84C236.279 67.04 236.951 68.136 237.479 69.128L236.855 69.872L237.383 64.712C237.511 63.48 237.567 62.488 237.551 61.736C237.551 60.984 237.511 60.4 237.431 59.984C237.367 59.552 237.295 59.216 237.215 58.976C237.151 58.736 237.119 58.512 237.119 58.304C237.119 58.144 237.199 58.008 237.359 57.896C237.519 57.768 237.719 57.664 237.959 57.584C238.199 57.504 238.431 57.448 238.655 57.416C238.895 57.368 239.095 57.344 239.255 57.344C239.559 57.344 239.791 57.504 239.951 57.824C240.111 58.144 240.191 58.464 240.191 58.784C240.191 59.056 240.159 59.368 240.095 59.72C240.047 60.072 239.983 60.64 239.903 61.424L239.567 64.592C239.407 66.096 239.295 67.328 239.231 68.288C239.183 69.232 239.159 69.984 239.159 70.544C239.159 71.104 239.167 71.56 239.183 71.912C239.215 72.264 239.231 72.592 239.231 72.896C239.231 73.072 239.143 73.248 238.967 73.424C238.791 73.584 238.567 73.728 238.295 73.856C238.023 73.984 237.759 74.08 237.503 74.144C237.247 74.224 237.031 74.264 236.855 74.264C236.711 74.264 236.583 74.192 236.471 74.048C236.359 73.904 236.311 73.704 236.327 73.448C236.343 73.24 236.279 72.976 236.135 72.656C236.007 72.32 235.855 71.976 235.679 71.624C235.503 71.272 235.335 70.968 235.175 70.712C234.663 69.784 234.023 68.784 233.255 67.712C232.503 66.64 231.727 65.52 230.927 64.352C230.127 63.184 229.407 62 228.767 60.8L229.103 60.752L228.455 66.968C228.343 68.072 228.279 68.984 228.263 69.704C228.247 70.408 228.263 70.968 228.311 71.384C228.359 71.8 228.415 72.12 228.479 72.344C228.543 72.568 228.599 72.752 228.647 72.896C228.711 73.024 228.743 73.168 228.743 73.328C228.743 73.504 228.647 73.656 228.455 73.784C228.279 73.896 228.055 73.992 227.783 74.072C227.527 74.152 227.271 74.208 227.015 74.24C226.759 74.272 226.559 74.288 226.415 74.288ZM241.683 74.336C241.251 74.336 241.035 74.2 241.035 73.928C241.035 73.8 241.099 73.592 241.227 73.304L248.355 58.928C248.467 58.688 248.699 58.448 249.051 58.208C249.403 57.968 249.827 57.768 250.323 57.608C250.819 57.432 251.331 57.344 251.859 57.344C251.987 57.344 252.107 57.384 252.219 57.464C252.347 57.544 252.435 57.736 252.483 58.04C252.755 59.88 253.083 61.728 253.467 63.584C253.851 65.44 254.291 67.256 254.787 69.032C255.011 69.784 255.203 70.392 255.363 70.856C255.523 71.32 255.683 71.672 255.843 71.912C256.019 72.152 256.171 72.352 256.299 72.512C256.443 72.656 256.515 72.8 256.515 72.944C256.515 73.104 256.419 73.264 256.227 73.424C256.051 73.584 255.827 73.728 255.555 73.856C255.283 73.984 255.003 74.088 254.715 74.168C254.427 74.248 254.179 74.288 253.971 74.288C253.619 74.288 253.259 73.976 252.891 73.352C252.523 72.712 252.163 71.568 251.811 69.92L249.723 59.912L250.179 59.624L245.499 69.464C245.291 69.912 245.139 70.288 245.043 70.592C244.963 70.896 244.915 71.176 244.899 71.432C244.883 71.672 244.851 71.952 244.803 72.272C244.771 72.576 244.619 72.856 244.347 73.112C244.075 73.352 243.755 73.568 243.387 73.76C243.035 73.936 242.699 74.072 242.379 74.168C242.059 74.28 241.827 74.336 241.683 74.336ZM244.707 69.44V67.64H253.635V69.44H244.707ZM260.196 74.288C259.908 74.288 259.684 74.112 259.524 73.76C259.38 73.408 259.308 73.016 259.308 72.584C259.308 71.96 259.38 70.944 259.524 69.536L260.772 57.32H262.692C263.204 57.32 263.484 57.528 263.532 57.944C263.58 58.344 263.548 59.032 263.436 60.008L262.332 70.184C262.3 70.52 262.284 70.856 262.284 71.192C262.284 71.528 262.308 71.864 262.356 72.2L267.516 71C267.692 70.968 267.828 70.944 267.924 70.928C268.02 70.896 268.092 70.88 268.14 70.88C268.332 70.88 268.428 70.992 268.428 71.216C268.428 71.616 268.356 72.032 268.212 72.464C268.084 72.896 267.9 73.264 267.66 73.568C267.42 73.856 267.124 74 266.772 74H266.052C264.852 74 263.868 74.024 263.1 74.072C262.348 74.12 261.748 74.168 261.3 74.216C260.852 74.264 260.484 74.288 260.196 74.288ZM275.876 78.08C275.044 78.08 274.428 77.88 274.028 77.48C273.612 77.08 273.404 76.496 273.404 75.728C273.404 75.568 273.444 75.448 273.524 75.368C273.588 75.304 273.652 75.272 273.716 75.272C273.796 75.272 273.884 75.288 273.98 75.32C274.06 75.368 274.204 75.432 274.412 75.512C274.796 75.672 275.172 75.808 275.54 75.92C275.892 76.048 276.204 76.112 276.476 76.112C276.716 76.112 276.916 75.992 277.076 75.752C277.252 75.512 277.396 75.096 277.508 74.504C277.636 73.928 277.756 73.136 277.868 72.128L279.5 57.32H281.18C281.628 57.32 281.916 57.48 282.044 57.8C282.172 58.104 282.236 58.472 282.236 58.904C282.236 59.192 282.196 59.632 282.116 60.224C282.036 60.816 281.932 61.68 281.804 62.816L280.94 70.784C280.796 72.144 280.556 73.288 280.22 74.216C279.9 75.16 279.516 75.912 279.068 76.472C278.62 77.048 278.124 77.456 277.58 77.696C277.036 77.952 276.468 78.08 275.876 78.08ZM291.756 74.384C290.38 74.384 289.172 74.12 288.132 73.592C287.108 73.048 286.308 72.24 285.732 71.168C285.172 70.096 284.892 68.776 284.892 67.208C284.892 65.768 285.116 64.448 285.564 63.248C286.012 62.032 286.636 60.984 287.436 60.104C288.252 59.208 289.196 58.52 290.268 58.04C291.34 57.544 292.508 57.296 293.772 57.296C295.932 57.296 297.612 57.904 298.812 59.12C300.028 60.32 300.636 62.096 300.636 64.448C300.636 65.888 300.412 67.216 299.964 68.432C299.516 69.632 298.884 70.68 298.068 71.576C297.268 72.472 296.332 73.168 295.26 73.664C294.188 74.144 293.02 74.384 291.756 74.384ZM292.068 72.464C292.74 72.464 293.396 72.288 294.036 71.936C294.676 71.568 295.252 71.048 295.764 70.376C296.276 69.704 296.684 68.912 296.988 68C297.292 67.072 297.444 66.048 297.444 64.928C297.444 63.616 297.26 62.544 296.892 61.712C296.54 60.864 296.06 60.24 295.452 59.84C294.86 59.424 294.196 59.216 293.46 59.216C292.484 59.216 291.588 59.536 290.772 60.176C289.956 60.8 289.3 61.68 288.804 62.816C288.324 63.952 288.084 65.264 288.084 66.752C288.084 68.048 288.26 69.12 288.612 69.968C288.98 70.816 289.468 71.448 290.076 71.864C290.684 72.264 291.348 72.464 292.068 72.464ZM309.701 74.384C308.149 74.384 306.901 74.208 305.957 73.856C305.029 73.488 304.389 72.88 304.037 72.032C303.685 71.184 303.581 70.032 303.725 68.576L304.901 57.32H306.821C307.141 57.32 307.357 57.4 307.469 57.56C307.597 57.704 307.661 57.992 307.661 58.424C307.661 58.808 307.637 59.192 307.589 59.576C307.557 59.96 307.509 60.408 307.445 60.92C307.381 61.432 307.309 62.064 307.229 62.816L306.701 67.712C306.525 69.344 306.701 70.544 307.229 71.312C307.773 72.08 308.789 72.464 310.277 72.464C310.965 72.464 311.589 72.328 312.149 72.056C312.725 71.784 313.197 71.36 313.565 70.784C313.949 70.192 314.189 69.424 314.285 68.48L314.789 63.824C314.885 62.928 314.925 62.184 314.909 61.592C314.893 61 314.845 60.512 314.765 60.128C314.685 59.728 314.613 59.4 314.549 59.144C314.485 58.872 314.453 58.632 314.453 58.424C314.453 58.232 314.573 58.056 314.813 57.896C315.069 57.72 315.365 57.584 315.701 57.488C316.037 57.392 316.333 57.344 316.589 57.344C316.829 57.344 317.013 57.424 317.141 57.584C317.285 57.728 317.381 57.912 317.429 58.136C317.493 58.36 317.525 58.576 317.525 58.784C317.525 59.056 317.501 59.44 317.453 59.936C317.405 60.416 317.349 60.912 317.285 61.424L316.541 68.288C316.365 69.936 315.997 71.2 315.437 72.08C314.893 72.96 314.141 73.568 313.181 73.904C312.237 74.224 311.077 74.384 309.701 74.384ZM329.218 74.216C328.802 74.216 328.322 73.904 327.778 73.28C327.25 72.64 326.714 71.816 326.17 70.808C325.626 69.784 325.106 68.688 324.61 67.52C324.546 67.376 324.474 67.232 324.394 67.088C324.33 66.928 324.298 66.768 324.298 66.608C324.298 66.432 324.354 66.312 324.466 66.248C324.578 66.168 324.698 66.12 324.826 66.104C325.914 65.896 326.818 65.464 327.538 64.808C328.274 64.152 328.642 63.312 328.642 62.288C328.642 61.712 328.514 61.2 328.258 60.752C328.018 60.288 327.586 59.92 326.962 59.648C326.338 59.376 325.474 59.24 324.37 59.24H324.274L322.69 74.192H320.746C320.474 74.192 320.282 74.064 320.17 73.808C320.058 73.552 320.002 73.208 320.002 72.776C320.002 72.456 320.026 72.096 320.074 71.696L321.61 57.68C322.314 57.6 323.01 57.544 323.698 57.512C324.402 57.464 325.098 57.44 325.786 57.44C326.954 57.44 327.994 57.6 328.906 57.92C329.818 58.24 330.53 58.736 331.042 59.408C331.57 60.08 331.834 60.952 331.834 62.024C331.834 62.776 331.682 63.448 331.378 64.04C331.09 64.632 330.69 65.144 330.178 65.576C329.682 65.992 329.13 66.336 328.522 66.608C327.914 66.88 327.298 67.08 326.674 67.208L326.866 66.008C327.41 67.144 327.938 68.112 328.45 68.912C328.978 69.712 329.45 70.352 329.866 70.832C330.282 71.296 330.602 71.624 330.826 71.816C331.226 72.12 331.514 72.336 331.69 72.464C331.882 72.576 331.978 72.704 331.978 72.848C331.978 72.992 331.874 73.144 331.666 73.304C331.474 73.448 331.226 73.592 330.922 73.736C330.618 73.88 330.306 73.992 329.986 74.072C329.682 74.168 329.426 74.216 329.218 74.216ZM335.251 74.288C334.995 74.288 334.827 74.168 334.747 73.928C334.667 73.688 334.627 73.4 334.627 73.064C334.627 72.504 334.659 71.912 334.723 71.288C334.787 70.648 334.851 70.024 334.915 69.416L336.235 57.32L337.987 57.296C338.275 57.296 338.499 57.336 338.659 57.416C338.835 57.48 339.027 57.696 339.235 58.064C340.003 59.408 340.835 60.744 341.731 62.072C342.627 63.384 343.483 64.64 344.299 65.84C345.115 67.04 345.787 68.136 346.315 69.128L345.691 69.872L346.219 64.712C346.347 63.48 346.403 62.488 346.387 61.736C346.387 60.984 346.347 60.4 346.267 59.984C346.203 59.552 346.131 59.216 346.051 58.976C345.987 58.736 345.955 58.512 345.955 58.304C345.955 58.144 346.035 58.008 346.195 57.896C346.355 57.768 346.555 57.664 346.795 57.584C347.035 57.504 347.267 57.448 347.491 57.416C347.731 57.368 347.931 57.344 348.091 57.344C348.395 57.344 348.627 57.504 348.787 57.824C348.947 58.144 349.027 58.464 349.027 58.784C349.027 59.056 348.995 59.368 348.931 59.72C348.883 60.072 348.819 60.64 348.739 61.424L348.403 64.592C348.243 66.096 348.131 67.328 348.067 68.288C348.019 69.232 347.995 69.984 347.995 70.544C347.995 71.104 348.003 71.56 348.019 71.912C348.051 72.264 348.067 72.592 348.067 72.896C348.067 73.072 347.979 73.248 347.803 73.424C347.627 73.584 347.403 73.728 347.131 73.856C346.859 73.984 346.595 74.08 346.339 74.144C346.083 74.224 345.867 74.264 345.691 74.264C345.547 74.264 345.419 74.192 345.307 74.048C345.195 73.904 345.147 73.704 345.163 73.448C345.179 73.24 345.115 72.976 344.971 72.656C344.843 72.32 344.691 71.976 344.515 71.624C344.339 71.272 344.171 70.968 344.011 70.712C343.499 69.784 342.859 68.784 342.091 67.712C341.339 66.64 340.563 65.52 339.763 64.352C338.963 63.184 338.243 62 337.603 60.8L337.939 60.752L337.291 66.968C337.179 68.072 337.115 68.984 337.099 69.704C337.083 70.408 337.099 70.968 337.147 71.384C337.195 71.8 337.251 72.12 337.315 72.344C337.379 72.568 337.435 72.752 337.483 72.896C337.547 73.024 337.579 73.168 337.579 73.328C337.579 73.504 337.483 73.656 337.291 73.784C337.115 73.896 336.891 73.992 336.619 74.072C336.363 74.152 336.107 74.208 335.851 74.24C335.595 74.272 335.395 74.288 335.251 74.288ZM352.463 74.288C352.175 74.288 351.951 74.112 351.791 73.76C351.647 73.408 351.575 73.016 351.575 72.584C351.575 71.96 351.647 70.944 351.791 69.536L352.991 57.68H356.687C357.823 57.68 358.719 57.664 359.375 57.632C360.047 57.584 360.551 57.544 360.887 57.512C361.239 57.464 361.495 57.44 361.655 57.44C361.831 57.44 361.951 57.472 362.015 57.536C362.095 57.584 362.135 57.728 362.135 57.968C362.135 58.256 362.079 58.568 361.967 58.904C361.855 59.24 361.703 59.528 361.511 59.768C361.335 60.008 361.127 60.128 360.887 60.128C360.727 60.128 360.463 60.104 360.095 60.056C359.727 60.008 359.311 59.952 358.847 59.888L355.727 59.48L354.647 70.184C354.615 70.52 354.599 70.856 354.599 71.192C354.599 71.528 354.623 71.864 354.671 72.2L359.807 71.192C360.095 71.128 360.335 71.08 360.527 71.048C360.735 71 360.871 70.976 360.935 70.976C361.127 70.976 361.223 71.088 361.223 71.312C361.223 71.712 361.151 72.12 361.007 72.536C360.879 72.952 360.695 73.304 360.455 73.592C360.215 73.864 359.919 74 359.567 74H358.847C357.055 74 355.647 74.048 354.623 74.144C353.599 74.24 352.879 74.288 352.463 74.288ZM353.687 66.44L353.999 64.592H355.151C355.839 64.592 356.487 64.568 357.095 64.52C357.703 64.472 358.215 64.424 358.631 64.376C359.047 64.328 359.311 64.304 359.423 64.304C359.551 64.304 359.647 64.344 359.711 64.424C359.775 64.488 359.807 64.584 359.807 64.712C359.807 64.952 359.647 65.2 359.327 65.456C359.007 65.712 358.607 65.928 358.127 66.104C357.663 66.28 357.207 66.376 356.759 66.392L353.687 66.44ZM368.931 67.736L366.771 62.6C366.451 61.832 366.155 61.208 365.883 60.728C365.627 60.232 365.339 59.856 365.019 59.6C364.619 59.28 364.355 59.048 364.227 58.904C364.099 58.76 364.035 58.608 364.035 58.448C364.035 58.304 364.171 58.152 364.443 57.992C364.715 57.816 365.027 57.664 365.379 57.536C365.731 57.408 366.027 57.344 366.267 57.344C366.923 57.344 367.467 57.616 367.899 58.16C368.347 58.688 368.731 59.408 369.051 60.32L370.827 65.312L370.107 65.84L372.507 62.144C372.955 61.472 373.227 60.888 373.323 60.392C373.435 59.896 373.507 59.48 373.539 59.144C373.571 58.856 373.747 58.608 374.067 58.4C374.387 58.176 374.763 57.984 375.195 57.824C375.627 57.664 376.035 57.544 376.419 57.464C376.819 57.384 377.115 57.344 377.307 57.344C377.595 57.344 377.739 57.472 377.739 57.728C377.739 57.888 377.675 58.088 377.547 58.328C377.419 58.568 377.243 58.84 377.019 59.144L370.971 67.736H368.931ZM368.811 74.192C368.523 74.192 368.323 74.064 368.211 73.808C368.099 73.552 368.043 73.208 368.043 72.776C368.043 72.456 368.067 72.096 368.115 71.696L368.763 65.864L371.619 66.296L370.755 74.192H368.811Z" fill="#252B42"/>
<g opacity="0.56">
<path d="M211.537 22.4703C218.093 36.2964 281.088 29.1627 283.754 16.3295C287.955 -3.89473 230.638 -2.05616 222.469 4.56269C222.166 4.80783 222.216 5.26066 222.469 5.16328C244.608 -3.35541 284.932 2.02547 281.515 16.3295C277.576 27.2261 213.035 35.0216 212.773 20.0189C212.601 10.1407 241.497 0.836523 262.4 3.80274C263.025 3.68017 262.533 3.14419 261.848 3.03053C239.433 -0.135079 206.59 9.27912 211.537 22.4703Z" fill="#252B42"/>
</g>
</svg>
