<svg width="548" height="385" viewBox="0 0 548 385" fill="none" xmlns="http://www.w3.org/2000/svg">
<path d="M23.904 51.672C23.648 51.672 23.392 51.592 23.136 51.432C22.912 51.272 22.752 50.888 22.656 50.28L20.352 30.936L19.728 27.432C19.472 25.864 19.232 24.696 19.008 23.928C18.784 23.16 18.544 22.536 18.288 22.056C18.032 21.576 17.824 21.192 17.664 20.904C17.536 20.584 17.472 20.28 17.472 19.992C17.472 19.672 17.632 19.384 17.952 19.128C18.304 18.84 18.72 18.6 19.2 18.408C19.712 18.216 20.224 18.072 20.736 17.976C21.28 17.848 21.744 17.784 22.128 17.784C22.96 17.784 23.648 18.456 24.192 19.8C24.736 21.144 25.184 23.384 25.536 26.52L27.84 46.536L26.208 47.112L33.744 27.432C34.128 26.472 34.368 25.688 34.464 25.08C34.56 24.472 34.608 23.912 34.608 23.4C34.608 22.888 34.64 22.312 34.704 21.672C34.768 21.064 35.056 20.52 35.568 20.04C36.112 19.56 36.72 19.144 37.392 18.792C38.096 18.44 38.752 18.168 39.36 17.976C40 17.784 40.464 17.688 40.752 17.688C41.616 17.688 42.048 17.96 42.048 18.504C42.048 18.664 42.016 18.856 41.952 19.08C41.888 19.272 41.792 19.496 41.664 19.752L29.568 48.504C29.376 48.952 29.04 49.432 28.56 49.944C28.08 50.424 27.456 50.824 26.688 51.144C25.92 51.496 24.992 51.672 23.904 51.672ZM8.352 51.672C8.096 51.672 7.84 51.592 7.584 51.432C7.36 51.272 7.2 50.888 7.104 50.28L4.704 29.688C4.512 27.96 4.32 26.648 4.128 25.752C3.968 24.824 3.792 24.136 3.6 23.688C3.408 23.208 3.216 22.792 3.024 22.44C2.768 21.928 2.528 21.528 2.304 21.24C2.112 20.92 2.016 20.616 2.016 20.328C2.016 20.008 2.192 19.704 2.544 19.416C2.896 19.096 3.344 18.824 3.888 18.6C4.432 18.344 4.992 18.152 5.568 18.024C6.144 17.864 6.64 17.784 7.056 17.784C7.536 17.784 7.984 18.056 8.4 18.6C8.848 19.112 9.248 20.008 9.6 21.288C9.952 22.536 10.224 24.28 10.416 26.52L12.336 46.536L10.464 47.112L20.784 24.216L21.312 31.656L14.112 48.744C13.824 49.448 13.184 50.12 12.192 50.76C11.232 51.368 9.952 51.672 8.352 51.672ZM46.6965 51.576C46.1205 51.576 45.6725 51.224 45.3525 50.52C45.0645 49.816 44.9205 49.032 44.9205 48.168C44.9205 46.92 45.0645 44.888 45.3525 42.072L47.7525 18.36H55.1445C57.4165 18.36 59.2085 18.328 60.5205 18.264C61.8645 18.168 62.8725 18.088 63.5445 18.024C64.2485 17.928 64.7605 17.88 65.0805 17.88C65.4325 17.88 65.6725 17.944 65.8005 18.072C65.9605 18.168 66.0405 18.456 66.0405 18.936C66.0405 19.512 65.9285 20.136 65.7045 20.808C65.4805 21.48 65.1765 22.056 64.7925 22.536C64.4405 23.016 64.0245 23.256 63.5445 23.256C63.2245 23.256 62.6965 23.208 61.9605 23.112C61.2245 23.016 60.3925 22.904 59.4645 22.776L53.2245 21.96L51.0645 43.368C51.0005 44.04 50.9685 44.712 50.9685 45.384C50.9685 46.056 51.0165 46.728 51.1125 47.4L61.3845 45.384C61.9605 45.256 62.4405 45.16 62.8245 45.096C63.2405 45 63.5125 44.952 63.6405 44.952C64.0245 44.952 64.2165 45.176 64.2165 45.624C64.2165 46.424 64.0725 47.24 63.7845 48.072C63.5285 48.904 63.1605 49.608 62.6805 50.184C62.2005 50.728 61.6085 51 60.9045 51H59.4645C55.8805 51 53.0645 51.096 51.0165 51.288C48.9685 51.48 47.5285 51.576 46.6965 51.576ZM49.1445 35.88L49.7685 32.184H52.0725C53.4485 32.184 54.7445 32.136 55.9605 32.04C57.1765 31.944 58.2005 31.848 59.0325 31.752C59.8645 31.656 60.3925 31.608 60.6165 31.608C60.8725 31.608 61.0645 31.688 61.1925 31.848C61.3205 31.976 61.3845 32.168 61.3845 32.424C61.3845 32.904 61.0645 33.4 60.4245 33.912C59.7845 34.424 58.9845 34.856 58.0245 35.208C57.0965 35.56 56.1845 35.752 55.2885 35.784L49.1445 35.88ZM85.1111 51.576C84.5991 51.576 84.2631 51.336 84.1031 50.856C83.9431 50.376 83.8631 49.8 83.8631 49.128C83.8631 48.008 83.9271 46.824 84.0551 45.576C84.1831 44.296 84.3111 43.048 84.4391 41.832L87.0791 17.64L91.0631 17.592C92.3751 17.56 93.2711 17.656 93.7511 17.88C94.2631 18.072 94.5991 18.488 94.7591 19.128L101.863 45.096L99.3671 45L110.455 20.856C110.871 19.96 111.639 19.208 112.759 18.6C113.879 17.96 115.239 17.64 116.839 17.64C117.479 17.64 117.959 17.8 118.279 18.12C118.631 18.408 118.759 18.984 118.663 19.848L115.399 51.384H111.559C111.143 51.384 110.823 51.128 110.599 50.616C110.375 50.104 110.263 49.384 110.263 48.456C110.263 47.144 110.295 45.72 110.359 44.184C110.455 42.648 110.583 41.176 110.743 39.768L112.519 24.6L112.807 24.792L106.519 38.328C105.239 41.08 104.199 43.272 103.399 44.904C102.599 46.504 101.943 47.704 101.431 48.504C100.951 49.304 100.535 49.832 100.183 50.088C99.8311 50.312 99.4631 50.424 99.0791 50.424C98.6631 50.424 98.3111 50.344 98.0231 50.184C97.7671 49.992 97.5591 49.608 97.3991 49.032L90.2471 24.552L90.6791 24.504L89.3351 36.936C89.0471 39.464 88.9191 41.48 88.9511 42.984C88.9831 44.488 89.0791 45.656 89.2391 46.488C89.4311 47.288 89.6071 47.912 89.7671 48.36C89.9271 48.808 90.0071 49.224 90.0071 49.608C90.0071 49.96 89.8151 50.264 89.4311 50.52C89.0471 50.744 88.5671 50.936 87.9911 51.096C87.4151 51.256 86.8551 51.368 86.3111 51.432C85.7991 51.528 85.3991 51.576 85.1111 51.576ZM122.397 51.672C121.533 51.672 121.101 51.4 121.101 50.856C121.101 50.6 121.229 50.184 121.485 49.608L135.741 20.856C135.965 20.376 136.429 19.896 137.133 19.416C137.837 18.936 138.685 18.536 139.677 18.216C140.669 17.864 141.693 17.688 142.749 17.688C143.005 17.688 143.245 17.768 143.469 17.928C143.725 18.088 143.901 18.472 143.997 19.08C144.541 22.76 145.197 26.456 145.965 30.168C146.733 33.88 147.613 37.512 148.605 41.064C149.053 42.568 149.437 43.784 149.757 44.712C150.077 45.64 150.397 46.344 150.717 46.824C151.069 47.304 151.373 47.704 151.629 48.024C151.917 48.312 152.061 48.6 152.061 48.888C152.061 49.208 151.869 49.528 151.485 49.848C151.133 50.168 150.685 50.456 150.141 50.712C149.597 50.968 149.037 51.176 148.461 51.336C147.885 51.496 147.389 51.576 146.973 51.576C146.269 51.576 145.549 50.952 144.813 49.704C144.077 48.424 143.357 46.136 142.653 42.84L138.477 22.824L139.389 22.248L130.029 41.928C129.613 42.824 129.309 43.576 129.117 44.184C128.957 44.792 128.861 45.352 128.829 45.864C128.797 46.344 128.733 46.904 128.637 47.544C128.573 48.152 128.269 48.712 127.725 49.224C127.181 49.704 126.541 50.136 125.805 50.52C125.101 50.872 124.429 51.144 123.789 51.336C123.149 51.56 122.685 51.672 122.397 51.672ZM128.445 41.88V38.28H146.301V41.88H128.445ZM177.615 51.336C176.975 51.336 176.223 50.936 175.359 50.136C174.527 49.304 173.631 48.2 172.671 46.824C171.743 45.448 170.783 43.912 169.791 42.216C168.831 40.52 167.887 38.792 166.959 37.032C166.799 36.68 166.623 36.312 166.431 35.928C166.271 35.544 166.191 35.128 166.191 34.68C166.191 34.136 166.319 33.48 166.575 32.712C166.863 31.944 167.423 30.968 168.255 29.784C169.087 28.6 170.367 27.112 172.095 25.32L175.311 22.008C176.655 20.6 177.887 19.528 179.007 18.792C180.159 18.056 181.295 17.688 182.415 17.688C183.407 17.688 184.079 17.912 184.431 18.36C184.815 18.808 185.007 19.448 185.007 20.28C185.007 21.048 184.911 21.752 184.719 22.392C184.527 23 184.287 23.48 183.999 23.832C183.711 24.184 183.407 24.36 183.087 24.36C182.767 24.36 182.399 24.312 181.983 24.216C181.567 24.088 181.071 24.024 180.495 24.024C180.111 24.024 179.679 24.136 179.199 24.36C178.719 24.552 178.143 24.936 177.471 25.512C176.799 26.088 175.951 26.968 174.927 28.152L169.695 34.152L170.559 30.936C171.551 33.624 172.703 36.04 174.015 38.184C175.359 40.328 176.623 42.104 177.807 43.512C178.991 44.92 179.855 45.864 180.399 46.344C181.135 46.952 181.711 47.384 182.127 47.64C182.575 47.864 182.895 48.024 183.087 48.12C183.279 48.216 183.375 48.392 183.375 48.648C183.375 48.936 183.167 49.24 182.751 49.56C182.367 49.88 181.871 50.184 181.263 50.472C180.655 50.728 180.015 50.936 179.343 51.096C178.703 51.256 178.127 51.336 177.615 51.336ZM159.471 51.384C159.023 51.384 158.655 51.192 158.367 50.808C158.111 50.424 157.919 49.928 157.791 49.32C157.663 48.712 157.599 48.104 157.599 47.496C157.599 46.184 157.679 44.92 157.839 43.704C157.999 42.488 158.143 41.176 158.271 39.768L160.575 17.64H163.935C164.767 17.64 165.311 17.96 165.567 18.6C165.855 19.208 165.999 19.944 165.999 20.808C165.999 21.576 165.967 22.264 165.903 22.872C165.839 23.48 165.743 24.216 165.615 25.08C165.519 25.944 165.391 27.128 165.231 28.632L162.831 51.384H159.471ZM190.968 51.576C190.392 51.576 189.944 51.224 189.624 50.52C189.336 49.816 189.192 49.032 189.192 48.168C189.192 46.92 189.336 44.888 189.624 42.072L192.024 18.36H199.416C201.688 18.36 203.48 18.328 204.792 18.264C206.136 18.168 207.144 18.088 207.816 18.024C208.52 17.928 209.032 17.88 209.352 17.88C209.704 17.88 209.944 17.944 210.072 18.072C210.232 18.168 210.312 18.456 210.312 18.936C210.312 19.512 210.2 20.136 209.976 20.808C209.752 21.48 209.448 22.056 209.064 22.536C208.712 23.016 208.296 23.256 207.816 23.256C207.496 23.256 206.968 23.208 206.232 23.112C205.496 23.016 204.664 22.904 203.736 22.776L197.496 21.96L195.336 43.368C195.272 44.04 195.24 44.712 195.24 45.384C195.24 46.056 195.288 46.728 195.384 47.4L205.656 45.384C206.232 45.256 206.712 45.16 207.096 45.096C207.512 45 207.784 44.952 207.912 44.952C208.296 44.952 208.488 45.176 208.488 45.624C208.488 46.424 208.344 47.24 208.056 48.072C207.8 48.904 207.432 49.608 206.952 50.184C206.472 50.728 205.88 51 205.176 51H203.736C200.152 51 197.336 51.096 195.288 51.288C193.24 51.48 191.8 51.576 190.968 51.576ZM193.416 35.88L194.04 32.184H196.344C197.72 32.184 199.016 32.136 200.232 32.04C201.448 31.944 202.472 31.848 203.304 31.752C204.136 31.656 204.664 31.608 204.888 31.608C205.144 31.608 205.336 31.688 205.464 31.848C205.592 31.976 205.656 32.168 205.656 32.424C205.656 32.904 205.336 33.4 204.696 33.912C204.056 34.424 203.256 34.856 202.296 35.208C201.368 35.56 200.456 35.752 199.56 35.784L193.416 35.88ZM235.671 51.384C235.159 51.384 234.791 51.032 234.567 50.328C234.343 49.592 234.231 48.792 234.231 47.928C234.231 47.064 234.279 46.104 234.375 45.048C234.503 43.96 234.679 42.488 234.903 40.632L236.967 22.392L230.535 23.784C230.151 23.848 229.815 23.912 229.527 23.976C229.271 24.008 229.079 24.024 228.951 24.024C228.599 24.024 228.343 23.912 228.183 23.688C228.023 23.464 227.959 23.192 227.991 22.872C228.023 22.072 228.135 21.336 228.327 20.664C228.551 19.992 228.823 19.448 229.143 19.032C229.463 18.584 229.815 18.36 230.199 18.36H240.519C242.983 18.36 244.903 18.312 246.279 18.216C247.687 18.12 248.727 18.04 249.399 17.976C250.103 17.88 250.631 17.832 250.983 17.832C251.303 17.832 251.527 17.896 251.655 18.024C251.783 18.152 251.863 18.408 251.895 18.792C251.927 19.432 251.831 20.104 251.607 20.808C251.415 21.512 251.143 22.12 250.791 22.632C250.471 23.112 250.135 23.352 249.783 23.352C249.559 23.352 249.223 23.32 248.775 23.256C248.327 23.16 247.815 23.08 247.239 23.016L242.679 22.392L239.511 51.384H235.671ZM256.635 51.576C256.059 51.576 255.611 51.224 255.291 50.52C255.003 49.816 254.859 49.032 254.859 48.168C254.859 46.92 255.003 44.888 255.291 42.072L257.691 18.36H265.083C267.355 18.36 269.147 18.328 270.459 18.264C271.803 18.168 272.811 18.088 273.483 18.024C274.187 17.928 274.699 17.88 275.019 17.88C275.371 17.88 275.611 17.944 275.739 18.072C275.899 18.168 275.979 18.456 275.979 18.936C275.979 19.512 275.867 20.136 275.643 20.808C275.419 21.48 275.115 22.056 274.731 22.536C274.379 23.016 273.963 23.256 273.483 23.256C273.163 23.256 272.635 23.208 271.899 23.112C271.163 23.016 270.331 22.904 269.403 22.776L263.163 21.96L261.003 43.368C260.939 44.04 260.907 44.712 260.907 45.384C260.907 46.056 260.955 46.728 261.051 47.4L271.323 45.384C271.899 45.256 272.379 45.16 272.763 45.096C273.179 45 273.451 44.952 273.579 44.952C273.963 44.952 274.155 45.176 274.155 45.624C274.155 46.424 274.011 47.24 273.723 48.072C273.467 48.904 273.099 49.608 272.619 50.184C272.139 50.728 271.547 51 270.843 51H269.403C265.819 51 263.003 51.096 260.955 51.288C258.907 51.48 257.467 51.576 256.635 51.576ZM259.083 35.88L259.707 32.184H262.011C263.387 32.184 264.683 32.136 265.899 32.04C267.115 31.944 268.139 31.848 268.971 31.752C269.803 31.656 270.331 31.608 270.555 31.608C270.811 31.608 271.003 31.688 271.131 31.848C271.259 31.976 271.323 32.168 271.323 32.424C271.323 32.904 271.003 33.4 270.363 33.912C269.723 34.424 268.923 34.856 267.963 35.208C267.035 35.56 266.123 35.752 265.227 35.784L259.083 35.88ZM280.596 51.624C279.444 51.624 278.58 51.192 278.004 50.328C277.46 49.432 277.188 48.328 277.188 47.016C277.188 46.472 277.284 46.008 277.476 45.624C277.668 45.24 278.004 45.048 278.484 45.048C278.964 45.048 279.46 45.128 279.972 45.288C280.484 45.448 281.092 45.528 281.796 45.528C282.116 45.528 282.564 45.336 283.14 44.952C283.748 44.536 284.468 43.864 285.3 42.936C286.132 42.008 287.06 40.792 288.084 39.288C289.14 37.784 290.292 35.928 291.54 33.72L292.356 33C293.828 30.312 295.172 28.008 296.388 26.088C297.636 24.136 298.82 22.552 299.94 21.336C301.06 20.088 302.18 19.176 303.3 18.6C304.452 17.992 305.652 17.688 306.9 17.688C307.668 17.688 308.228 17.912 308.58 18.36C308.964 18.776 309.156 19.32 309.156 19.992C309.156 20.824 309.012 21.592 308.724 22.296C308.468 23 308.132 23.576 307.716 24.024C307.332 24.44 306.964 24.648 306.612 24.648C306.292 24.648 305.972 24.584 305.652 24.456C305.332 24.328 304.884 24.264 304.308 24.264C303.636 24.264 302.436 25.176 300.708 27C298.98 28.824 297.076 31.688 294.996 35.592L294.036 36.312C293.14 38.168 292.212 40.008 291.252 41.832C290.292 43.656 289.268 45.304 288.18 46.776C287.092 48.248 285.924 49.432 284.676 50.328C283.46 51.192 282.1 51.624 280.596 51.624ZM301.716 51.384C300.692 51.384 299.764 50.968 298.932 50.136C298.1 49.272 297.188 47.864 296.196 45.912C295.236 43.928 294.004 41.272 292.5 37.944L291.732 36.312C289.492 31.672 287.604 28.168 286.068 25.8C284.532 23.432 283.044 22.024 281.604 21.576C281.124 21.416 280.772 21.272 280.548 21.144C280.356 21.016 280.26 20.792 280.26 20.472C280.26 19.928 280.58 19.448 281.22 19.032C281.892 18.584 282.644 18.232 283.476 17.976C284.34 17.72 285.044 17.592 285.588 17.592C286.292 17.592 286.964 17.784 287.604 18.168C288.276 18.52 288.964 19.176 289.668 20.136C290.404 21.096 291.188 22.456 292.02 24.216C292.884 25.944 293.86 28.168 294.948 30.888L295.524 32.04C296.644 34.312 297.652 36.28 298.548 37.944C299.476 39.576 300.324 40.952 301.092 42.072C301.86 43.192 302.548 44.104 303.156 44.808C303.764 45.512 304.292 46.056 304.74 46.44C305.06 46.696 305.38 46.952 305.7 47.208C306.02 47.464 306.292 47.72 306.516 47.976C306.74 48.2 306.852 48.424 306.852 48.648C306.852 48.936 306.66 49.24 306.276 49.56C305.924 49.848 305.46 50.136 304.884 50.424C304.34 50.712 303.78 50.936 303.204 51.096C302.628 51.288 302.132 51.384 301.716 51.384ZM314.428 51.576C313.852 51.576 313.404 51.224 313.084 50.52C312.796 49.816 312.652 49.032 312.652 48.168C312.652 46.92 312.796 44.888 313.084 42.072L315.484 18.36H322.876C325.148 18.36 326.94 18.328 328.252 18.264C329.596 18.168 330.604 18.088 331.276 18.024C331.98 17.928 332.492 17.88 332.812 17.88C333.164 17.88 333.404 17.944 333.532 18.072C333.692 18.168 333.772 18.456 333.772 18.936C333.772 19.512 333.66 20.136 333.436 20.808C333.212 21.48 332.908 22.056 332.524 22.536C332.172 23.016 331.756 23.256 331.276 23.256C330.956 23.256 330.428 23.208 329.692 23.112C328.956 23.016 328.124 22.904 327.196 22.776L320.956 21.96L318.796 43.368C318.732 44.04 318.7 44.712 318.7 45.384C318.7 46.056 318.748 46.728 318.844 47.4L329.116 45.384C329.692 45.256 330.172 45.16 330.556 45.096C330.972 45 331.244 44.952 331.372 44.952C331.756 44.952 331.948 45.176 331.948 45.624C331.948 46.424 331.804 47.24 331.516 48.072C331.26 48.904 330.892 49.608 330.412 50.184C329.932 50.728 329.34 51 328.636 51H327.196C323.612 51 320.796 51.096 318.748 51.288C316.7 51.48 315.26 51.576 314.428 51.576ZM316.876 35.88L317.5 32.184H319.804C321.18 32.184 322.476 32.136 323.692 32.04C324.908 31.944 325.932 31.848 326.764 31.752C327.596 31.656 328.124 31.608 328.348 31.608C328.604 31.608 328.796 31.688 328.924 31.848C329.052 31.976 329.116 32.168 329.116 32.424C329.116 32.904 328.796 33.4 328.156 33.912C327.516 34.424 326.716 34.856 325.756 35.208C324.828 35.56 323.916 35.752 323.02 35.784L316.876 35.88ZM339.973 51.576C339.397 51.576 338.949 51.224 338.629 50.52C338.341 49.816 338.197 49.032 338.197 48.168C338.197 46.92 338.341 44.888 338.629 42.072L341.125 17.64H344.965C345.989 17.64 346.549 18.056 346.645 18.888C346.741 19.688 346.677 21.064 346.453 23.016L344.245 43.368C344.181 44.04 344.149 44.712 344.149 45.384C344.149 46.056 344.197 46.728 344.293 47.4L354.613 45C354.965 44.936 355.237 44.888 355.429 44.856C355.621 44.792 355.765 44.76 355.861 44.76C356.245 44.76 356.437 44.984 356.437 45.432C356.437 46.232 356.293 47.064 356.005 47.928C355.749 48.792 355.381 49.528 354.901 50.136C354.421 50.712 353.829 51 353.125 51H351.685C349.285 51 347.317 51.048 345.781 51.144C344.277 51.24 343.077 51.336 342.181 51.432C341.285 51.528 340.549 51.576 339.973 51.576ZM9.936 118.384C9.424 118.384 9.056 118.032 8.832 117.328C8.608 116.592 8.496 115.792 8.496 114.928C8.496 114.064 8.544 113.104 8.64 112.048C8.768 110.96 8.944 109.488 9.168 107.632L11.232 89.392L4.8 90.784C4.416 90.848 4.08 90.912 3.792 90.976C3.536 91.008 3.344 91.024 3.216 91.024C2.864 91.024 2.608 90.912 2.448 90.688C2.288 90.464 2.224 90.192 2.256 89.872C2.288 89.072 2.4 88.336 2.592 87.664C2.816 86.992 3.088 86.448 3.408 86.032C3.728 85.584 4.08 85.36 4.464 85.36H14.784C17.248 85.36 19.168 85.312 20.544 85.216C21.952 85.12 22.992 85.04 23.664 84.976C24.368 84.88 24.896 84.832 25.248 84.832C25.568 84.832 25.792 84.896 25.92 85.024C26.048 85.152 26.128 85.408 26.16 85.792C26.192 86.432 26.096 87.104 25.872 87.808C25.68 88.512 25.408 89.12 25.056 89.632C24.736 90.112 24.4 90.352 24.048 90.352C23.824 90.352 23.488 90.32 23.04 90.256C22.592 90.16 22.08 90.08 21.504 90.016L16.944 89.392L13.776 118.384H9.936ZM33.7796 102.88V99.28H51.5876V102.88H33.7796ZM30.9476 118.384C30.4996 118.384 30.1316 118.192 29.8436 117.808C29.5876 117.424 29.3956 116.928 29.2676 116.32C29.1396 115.712 29.0756 115.104 29.0756 114.496C29.0756 113.184 29.1556 111.92 29.3156 110.704C29.4756 109.488 29.6196 108.176 29.7476 106.768L32.0516 84.64H35.4116C36.2436 84.64 36.7876 84.96 37.0436 85.6C37.3316 86.208 37.4756 86.944 37.4756 87.808C37.4756 88.576 37.4436 89.264 37.3796 89.872C37.3156 90.48 37.2196 91.216 37.0916 92.08C36.9956 92.944 36.8676 94.128 36.7076 95.632L34.3076 118.384H30.9476ZM50.2436 118.384C49.7956 118.384 49.4276 118.192 49.1396 117.808C48.8836 117.424 48.6916 116.928 48.5636 116.32C48.4356 115.712 48.3716 115.104 48.3716 114.496C48.3716 113.184 48.4516 111.92 48.6116 110.704C48.7716 109.488 48.9156 108.176 49.0436 106.768L51.3476 84.64H54.7076C55.5396 84.64 56.0836 84.96 56.3396 85.6C56.6276 86.208 56.7716 86.944 56.7716 87.808C56.7716 88.576 56.7396 89.264 56.6756 89.872C56.6116 90.48 56.5156 91.216 56.3876 92.08C56.2916 92.944 56.1636 94.128 56.0036 95.632L53.6036 118.384H50.2436ZM64.5071 118.576C63.9311 118.576 63.4831 118.224 63.1631 117.52C62.8751 116.816 62.7311 116.032 62.7311 115.168C62.7311 113.92 62.8751 111.888 63.1631 109.072L65.5631 85.36H72.9551C75.2271 85.36 77.0191 85.328 78.3311 85.264C79.6751 85.168 80.6831 85.088 81.3551 85.024C82.0591 84.928 82.5711 84.88 82.8911 84.88C83.2431 84.88 83.4831 84.944 83.6111 85.072C83.7711 85.168 83.8511 85.456 83.8511 85.936C83.8511 86.512 83.7391 87.136 83.5151 87.808C83.2911 88.48 82.9871 89.056 82.6031 89.536C82.2511 90.016 81.8351 90.256 81.3551 90.256C81.0351 90.256 80.5071 90.208 79.7711 90.112C79.0351 90.016 78.2031 89.904 77.2751 89.776L71.0351 88.96L68.8751 110.368C68.8111 111.04 68.7791 111.712 68.7791 112.384C68.7791 113.056 68.8271 113.728 68.9231 114.4L79.1951 112.384C79.7711 112.256 80.2511 112.16 80.6351 112.096C81.0511 112 81.3231 111.952 81.4511 111.952C81.8351 111.952 82.0271 112.176 82.0271 112.624C82.0271 113.424 81.8831 114.24 81.5951 115.072C81.3391 115.904 80.9711 116.608 80.4911 117.184C80.0111 117.728 79.4191 118 78.7151 118H77.2751C73.6911 118 70.8751 118.096 68.8271 118.288C66.7791 118.48 65.3391 118.576 64.5071 118.576ZM66.9551 102.88L67.5791 99.184H69.8831C71.2591 99.184 72.5551 99.136 73.7711 99.04C74.9871 98.944 76.0111 98.848 76.8431 98.752C77.6751 98.656 78.2031 98.608 78.4271 98.608C78.6831 98.608 78.8751 98.688 79.0031 98.848C79.1311 98.976 79.1951 99.168 79.1951 99.424C79.1951 99.904 78.8751 100.4 78.2351 100.912C77.5951 101.424 76.7951 101.856 75.8351 102.208C74.9071 102.56 73.9951 102.752 73.0991 102.784L66.9551 102.88ZM114.73 118.768C112.042 118.768 109.69 118.24 107.674 117.184C105.69 116.096 104.138 114.48 103.018 112.336C101.898 110.192 101.338 107.552 101.338 104.416C101.338 101.536 101.786 98.896 102.682 96.496C103.61 94.064 104.906 91.968 106.57 90.208C108.234 88.416 110.218 87.04 112.522 86.08C114.826 85.088 117.386 84.592 120.202 84.592C122.826 84.592 124.794 84.88 126.106 85.456C127.418 86 128.074 86.992 128.074 88.432C128.074 89.2 127.93 89.856 127.642 90.4C127.386 90.944 127.098 91.216 126.778 91.216C126.49 91.216 126.154 91.12 125.77 90.928C125.418 90.736 125.018 90.528 124.57 90.304C123.802 89.92 122.954 89.52 122.026 89.104C121.13 88.656 119.93 88.432 118.426 88.432C116.474 88.432 114.682 89.072 113.05 90.352C111.45 91.632 110.154 93.408 109.162 95.68C108.202 97.92 107.722 100.544 107.722 103.552C107.722 106.08 108.09 108.192 108.826 109.888C109.594 111.584 110.602 112.848 111.85 113.68C113.098 114.512 114.458 114.928 115.93 114.928C117.146 114.928 118.234 114.704 119.194 114.256C120.154 113.776 120.986 113.232 121.69 112.624C122.426 112.016 123.082 111.488 123.658 111.04C124.234 110.56 124.746 110.32 125.194 110.32C125.546 110.32 125.834 110.4 126.058 110.56C126.314 110.72 126.442 111.056 126.442 111.568C126.442 112.816 125.914 113.984 124.858 115.072C123.802 116.16 122.394 117.056 120.634 117.76C118.874 118.432 116.906 118.768 114.73 118.768ZM144.173 118.768C141.421 118.768 139.005 118.24 136.925 117.184C134.877 116.096 133.277 114.48 132.125 112.336C131.005 110.192 130.445 107.552 130.445 104.416C130.445 101.536 130.893 98.896 131.789 96.496C132.685 94.064 133.933 91.968 135.533 90.208C137.165 88.416 139.053 87.04 141.197 86.08C143.341 85.088 145.677 84.592 148.205 84.592C152.525 84.592 155.885 85.808 158.285 88.24C160.717 90.64 161.933 94.192 161.933 98.896C161.933 101.776 161.485 104.432 160.589 106.864C159.693 109.264 158.429 111.36 156.797 113.152C155.197 114.944 153.325 116.336 151.181 117.328C149.037 118.288 146.701 118.768 144.173 118.768ZM144.797 114.928C146.141 114.928 147.453 114.576 148.733 113.872C150.013 113.136 151.165 112.096 152.189 110.752C153.213 109.408 154.029 107.824 154.637 106C155.245 104.144 155.549 102.096 155.549 99.856C155.549 97.232 155.181 95.088 154.445 93.424C153.741 91.728 152.781 90.48 151.565 89.68C150.381 88.848 149.053 88.432 147.581 88.432C145.629 88.432 143.837 89.072 142.205 90.352C140.573 91.6 139.261 93.36 138.269 95.632C137.309 97.904 136.829 100.528 136.829 103.504C136.829 106.096 137.181 108.24 137.885 109.936C138.621 111.632 139.597 112.896 140.813 113.728C142.029 114.528 143.357 114.928 144.797 114.928ZM185.584 118.432C184.752 118.432 183.792 117.808 182.704 116.56C181.648 115.28 180.576 113.632 179.488 111.616C178.4 109.568 177.36 107.376 176.368 105.04C176.24 104.752 176.096 104.464 175.936 104.176C175.808 103.856 175.744 103.536 175.744 103.216C175.744 102.864 175.856 102.624 176.08 102.496C176.304 102.336 176.544 102.24 176.8 102.208C178.976 101.792 180.784 100.928 182.224 99.616C183.696 98.304 184.432 96.624 184.432 94.576C184.432 93.424 184.176 92.4 183.664 91.504C183.184 90.576 182.32 89.84 181.072 89.296C179.824 88.752 178.096 88.48 175.888 88.48H175.696L172.528 118.384H168.64C168.096 118.384 167.712 118.128 167.488 117.616C167.264 117.104 167.152 116.416 167.152 115.552C167.152 114.912 167.2 114.192 167.296 113.392L170.368 85.36C171.776 85.2 173.168 85.088 174.544 85.024C175.952 84.928 177.344 84.88 178.72 84.88C181.056 84.88 183.136 85.2 184.96 85.84C186.784 86.48 188.208 87.472 189.232 88.816C190.288 90.16 190.816 91.904 190.816 94.048C190.816 95.552 190.512 96.896 189.904 98.08C189.328 99.264 188.528 100.288 187.504 101.152C186.512 101.984 185.408 102.672 184.192 103.216C182.976 103.76 181.744 104.16 180.496 104.416L180.88 102.016C181.968 104.288 183.024 106.224 184.048 107.824C185.104 109.424 186.048 110.704 186.88 111.664C187.712 112.592 188.352 113.248 188.8 113.632C189.6 114.24 190.176 114.672 190.528 114.928C190.912 115.152 191.104 115.408 191.104 115.696C191.104 115.984 190.896 116.288 190.48 116.608C190.096 116.896 189.6 117.184 188.992 117.472C188.384 117.76 187.76 117.984 187.12 118.144C186.512 118.336 186 118.432 185.584 118.432ZM197.651 118.576C197.139 118.576 196.803 118.336 196.643 117.856C196.483 117.376 196.403 116.8 196.403 116.128C196.403 115.008 196.467 113.824 196.595 112.576C196.723 111.296 196.851 110.048 196.979 108.832L199.619 84.64L203.123 84.592C203.699 84.592 204.147 84.672 204.467 84.832C204.819 84.96 205.203 85.392 205.619 86.128C207.155 88.816 208.819 91.488 210.611 94.144C212.403 96.768 214.115 99.28 215.747 101.68C217.379 104.08 218.723 106.272 219.779 108.256L218.531 109.744L219.587 99.424C219.843 96.96 219.955 94.976 219.923 93.472C219.923 91.968 219.843 90.8 219.683 89.968C219.555 89.104 219.411 88.432 219.251 87.952C219.123 87.472 219.059 87.024 219.059 86.608C219.059 86.288 219.219 86.016 219.539 85.792C219.859 85.536 220.259 85.328 220.739 85.168C221.219 85.008 221.683 84.896 222.131 84.832C222.611 84.736 223.011 84.688 223.331 84.688C223.939 84.688 224.403 85.008 224.723 85.648C225.043 86.288 225.203 86.928 225.203 87.568C225.203 88.112 225.139 88.736 225.011 89.44C224.915 90.144 224.787 91.28 224.627 92.848L223.955 99.184C223.635 102.192 223.411 104.656 223.283 106.576C223.187 108.464 223.139 109.968 223.139 111.088C223.139 112.208 223.155 113.12 223.187 113.824C223.251 114.528 223.283 115.184 223.283 115.792C223.283 116.144 223.107 116.496 222.755 116.848C222.403 117.168 221.955 117.456 221.411 117.712C220.867 117.968 220.339 118.16 219.827 118.288C219.315 118.448 218.883 118.528 218.531 118.528C218.243 118.528 217.987 118.384 217.763 118.096C217.539 117.808 217.443 117.408 217.475 116.896C217.507 116.48 217.379 115.952 217.091 115.312C216.835 114.64 216.531 113.952 216.179 113.248C215.827 112.544 215.491 111.936 215.171 111.424C214.147 109.568 212.867 107.568 211.331 105.424C209.827 103.28 208.275 101.04 206.675 98.704C205.075 96.368 203.635 94 202.355 91.6L203.027 91.504L201.731 103.936C201.507 106.144 201.379 107.968 201.347 109.408C201.315 110.816 201.347 111.936 201.443 112.768C201.539 113.6 201.651 114.24 201.779 114.688C201.907 115.136 202.019 115.504 202.115 115.792C202.243 116.048 202.307 116.336 202.307 116.656C202.307 117.008 202.115 117.312 201.731 117.568C201.379 117.792 200.931 117.984 200.387 118.144C199.875 118.304 199.363 118.416 198.851 118.48C198.339 118.544 197.939 118.576 197.651 118.576ZM232.074 118.576C231.498 118.576 231.05 118.224 230.73 117.52C230.442 116.816 230.298 116.032 230.298 115.168C230.298 113.92 230.442 111.888 230.73 109.072L233.13 85.36H240.522C242.794 85.36 244.586 85.328 245.898 85.264C247.242 85.168 248.25 85.088 248.922 85.024C249.626 84.928 250.138 84.88 250.458 84.88C250.81 84.88 251.05 84.944 251.178 85.072C251.338 85.168 251.418 85.456 251.418 85.936C251.418 86.512 251.306 87.136 251.082 87.808C250.858 88.48 250.554 89.056 250.17 89.536C249.818 90.016 249.402 90.256 248.922 90.256C248.602 90.256 248.074 90.208 247.338 90.112C246.602 90.016 245.77 89.904 244.842 89.776L238.602 88.96L236.442 110.368C236.378 111.04 236.346 111.712 236.346 112.384C236.346 113.056 236.394 113.728 236.49 114.4L246.762 112.384C247.338 112.256 247.818 112.16 248.202 112.096C248.618 112 248.89 111.952 249.018 111.952C249.402 111.952 249.594 112.176 249.594 112.624C249.594 113.424 249.45 114.24 249.162 115.072C248.906 115.904 248.538 116.608 248.058 117.184C247.578 117.728 246.986 118 246.282 118H244.842C241.258 118 238.442 118.096 236.394 118.288C234.346 118.48 232.906 118.576 232.074 118.576ZM234.522 102.88L235.146 99.184H237.45C238.826 99.184 240.122 99.136 241.338 99.04C242.554 98.944 243.578 98.848 244.41 98.752C245.242 98.656 245.77 98.608 245.994 98.608C246.25 98.608 246.442 98.688 246.57 98.848C246.698 98.976 246.762 99.168 246.762 99.424C246.762 99.904 246.442 100.4 245.802 100.912C245.162 101.424 244.362 101.856 243.402 102.208C242.474 102.56 241.562 102.752 240.666 102.784L234.522 102.88ZM273.891 118.432C273.059 118.432 272.099 117.808 271.011 116.56C269.955 115.28 268.883 113.632 267.795 111.616C266.707 109.568 265.667 107.376 264.675 105.04C264.547 104.752 264.403 104.464 264.243 104.176C264.115 103.856 264.051 103.536 264.051 103.216C264.051 102.864 264.163 102.624 264.387 102.496C264.611 102.336 264.851 102.24 265.107 102.208C267.283 101.792 269.091 100.928 270.531 99.616C272.003 98.304 272.739 96.624 272.739 94.576C272.739 93.424 272.483 92.4 271.971 91.504C271.491 90.576 270.627 89.84 269.379 89.296C268.131 88.752 266.403 88.48 264.195 88.48H264.003L260.835 118.384H256.947C256.403 118.384 256.019 118.128 255.795 117.616C255.571 117.104 255.459 116.416 255.459 115.552C255.459 114.912 255.507 114.192 255.603 113.392L258.675 85.36C260.083 85.2 261.475 85.088 262.851 85.024C264.259 84.928 265.651 84.88 267.027 84.88C269.363 84.88 271.443 85.2 273.267 85.84C275.091 86.48 276.515 87.472 277.539 88.816C278.595 90.16 279.123 91.904 279.123 94.048C279.123 95.552 278.819 96.896 278.211 98.08C277.635 99.264 276.835 100.288 275.811 101.152C274.819 101.984 273.715 102.672 272.499 103.216C271.283 103.76 270.051 104.16 268.803 104.416L269.187 102.016C270.275 104.288 271.331 106.224 272.355 107.824C273.411 109.424 274.355 110.704 275.187 111.664C276.019 112.592 276.659 113.248 277.107 113.632C277.907 114.24 278.483 114.672 278.835 114.928C279.219 115.152 279.411 115.408 279.411 115.696C279.411 115.984 279.203 116.288 278.787 116.608C278.403 116.896 277.907 117.184 277.299 117.472C276.691 117.76 276.067 117.984 275.427 118.144C274.819 118.336 274.307 118.432 273.891 118.432ZM292.245 118.624C289.525 118.624 287.317 118.192 285.621 117.328C283.925 116.464 283.077 115.344 283.077 113.968C283.077 112.912 283.157 112.16 283.317 111.712C283.477 111.264 283.749 111.04 284.133 111.04C284.389 111.04 284.789 111.232 285.333 111.616C285.877 112 286.533 112.432 287.301 112.912C288.101 113.392 288.981 113.824 289.941 114.208C290.933 114.592 292.005 114.784 293.157 114.784C294.821 114.784 296.165 114.432 297.189 113.728C298.245 112.992 298.773 111.872 298.773 110.368C298.773 108.928 298.437 107.84 297.765 107.104C297.093 106.368 296.085 105.568 294.741 104.704L291.717 102.784C290.629 102.08 289.637 101.36 288.741 100.624C287.845 99.888 287.125 99.008 286.581 97.984C286.037 96.928 285.765 95.6 285.765 94C285.765 92.016 286.277 90.32 287.301 88.912C288.325 87.504 289.733 86.432 291.525 85.696C293.317 84.96 295.365 84.592 297.669 84.592C299.813 84.592 301.413 84.736 302.469 85.024C303.525 85.28 304.213 85.648 304.533 86.128C304.885 86.608 305.061 87.168 305.061 87.808C305.061 88.704 304.933 89.392 304.677 89.872C304.421 90.32 304.149 90.544 303.861 90.544C303.605 90.544 303.317 90.464 302.997 90.304C302.677 90.144 302.229 89.936 301.653 89.68C301.205 89.456 300.485 89.2 299.493 88.912C298.533 88.592 297.525 88.432 296.469 88.432C295.093 88.432 293.925 88.784 292.965 89.488C292.037 90.192 291.573 91.248 291.573 92.656C291.573 93.968 291.925 95.008 292.629 95.776C293.333 96.512 294.277 97.168 295.461 97.744L298.101 98.992C299.349 99.568 300.501 100.208 301.557 100.912C302.645 101.616 303.509 102.528 304.149 103.648C304.821 104.736 305.157 106.192 305.157 108.016C305.157 111.408 303.989 114.032 301.653 115.888C299.317 117.712 296.181 118.624 292.245 118.624ZM317.509 118.384C316.997 118.384 316.629 118.032 316.405 117.328C316.181 116.592 316.069 115.792 316.069 114.928C316.069 114.064 316.117 113.104 316.213 112.048C316.341 110.96 316.517 109.488 316.741 107.632L318.805 89.392L312.373 90.784C311.989 90.848 311.653 90.912 311.365 90.976C311.109 91.008 310.917 91.024 310.789 91.024C310.437 91.024 310.181 90.912 310.021 90.688C309.861 90.464 309.797 90.192 309.829 89.872C309.861 89.072 309.973 88.336 310.165 87.664C310.389 86.992 310.661 86.448 310.981 86.032C311.301 85.584 311.653 85.36 312.037 85.36H322.357C324.821 85.36 326.741 85.312 328.117 85.216C329.525 85.12 330.565 85.04 331.237 84.976C331.941 84.88 332.469 84.832 332.821 84.832C333.141 84.832 333.365 84.896 333.493 85.024C333.621 85.152 333.701 85.408 333.733 85.792C333.765 86.432 333.669 87.104 333.445 87.808C333.253 88.512 332.981 89.12 332.629 89.632C332.309 90.112 331.973 90.352 331.621 90.352C331.397 90.352 331.061 90.32 330.613 90.256C330.165 90.16 329.653 90.08 329.077 90.016L324.517 89.392L321.349 118.384H317.509ZM348.348 118.768C345.596 118.768 343.18 118.24 341.1 117.184C339.052 116.096 337.452 114.48 336.3 112.336C335.18 110.192 334.62 107.552 334.62 104.416C334.62 101.536 335.068 98.896 335.964 96.496C336.86 94.064 338.108 91.968 339.708 90.208C341.34 88.416 343.228 87.04 345.372 86.08C347.516 85.088 349.852 84.592 352.38 84.592C356.7 84.592 360.06 85.808 362.46 88.24C364.892 90.64 366.108 94.192 366.108 98.896C366.108 101.776 365.66 104.432 364.764 106.864C363.868 109.264 362.604 111.36 360.972 113.152C359.372 114.944 357.5 116.336 355.356 117.328C353.212 118.288 350.876 118.768 348.348 118.768ZM348.972 114.928C350.316 114.928 351.628 114.576 352.908 113.872C354.188 113.136 355.34 112.096 356.364 110.752C357.388 109.408 358.204 107.824 358.812 106C359.42 104.144 359.724 102.096 359.724 99.856C359.724 97.232 359.356 95.088 358.62 93.424C357.916 91.728 356.956 90.48 355.74 89.68C354.556 88.848 353.228 88.432 351.756 88.432C349.804 88.432 348.012 89.072 346.38 90.352C344.748 91.6 343.436 93.36 342.444 95.632C341.484 97.904 341.004 100.528 341.004 103.504C341.004 106.096 341.356 108.24 342.06 109.936C342.796 111.632 343.772 112.896 344.988 113.728C346.204 114.528 347.532 114.928 348.972 114.928ZM372.67 118.576C372.158 118.576 371.822 118.336 371.662 117.856C371.502 117.376 371.422 116.8 371.422 116.128C371.422 115.008 371.486 113.824 371.614 112.576C371.742 111.296 371.87 110.048 371.998 108.832L374.638 84.64L378.142 84.592C378.718 84.592 379.166 84.672 379.486 84.832C379.838 84.96 380.222 85.392 380.638 86.128C382.174 88.816 383.838 91.488 385.63 94.144C387.422 96.768 389.134 99.28 390.766 101.68C392.398 104.08 393.742 106.272 394.798 108.256L393.55 109.744L394.606 99.424C394.862 96.96 394.974 94.976 394.942 93.472C394.942 91.968 394.862 90.8 394.702 89.968C394.574 89.104 394.43 88.432 394.27 87.952C394.142 87.472 394.078 87.024 394.078 86.608C394.078 86.288 394.238 86.016 394.558 85.792C394.878 85.536 395.278 85.328 395.758 85.168C396.238 85.008 396.702 84.896 397.15 84.832C397.63 84.736 398.03 84.688 398.35 84.688C398.958 84.688 399.422 85.008 399.742 85.648C400.062 86.288 400.222 86.928 400.222 87.568C400.222 88.112 400.158 88.736 400.03 89.44C399.934 90.144 399.806 91.28 399.646 92.848L398.974 99.184C398.654 102.192 398.43 104.656 398.302 106.576C398.206 108.464 398.158 109.968 398.158 111.088C398.158 112.208 398.174 113.12 398.206 113.824C398.27 114.528 398.302 115.184 398.302 115.792C398.302 116.144 398.126 116.496 397.774 116.848C397.422 117.168 396.974 117.456 396.43 117.712C395.886 117.968 395.358 118.16 394.846 118.288C394.334 118.448 393.902 118.528 393.55 118.528C393.262 118.528 393.006 118.384 392.782 118.096C392.558 117.808 392.462 117.408 392.494 116.896C392.526 116.48 392.398 115.952 392.11 115.312C391.854 114.64 391.55 113.952 391.198 113.248C390.846 112.544 390.51 111.936 390.19 111.424C389.166 109.568 387.886 107.568 386.35 105.424C384.846 103.28 383.294 101.04 381.694 98.704C380.094 96.368 378.654 94 377.374 91.6L378.046 91.504L376.75 103.936C376.526 106.144 376.398 107.968 376.366 109.408C376.334 110.816 376.366 111.936 376.462 112.768C376.558 113.6 376.67 114.24 376.798 114.688C376.926 115.136 377.038 115.504 377.134 115.792C377.262 116.048 377.326 116.336 377.326 116.656C377.326 117.008 377.134 117.312 376.75 117.568C376.398 117.792 375.95 117.984 375.406 118.144C374.894 118.304 374.382 118.416 373.87 118.48C373.358 118.544 372.958 118.576 372.67 118.576ZM407.094 118.576C406.518 118.576 406.07 118.224 405.75 117.52C405.462 116.816 405.318 116.032 405.318 115.168C405.318 113.92 405.462 111.888 405.75 109.072L408.15 85.36H415.542C417.814 85.36 419.606 85.328 420.918 85.264C422.262 85.168 423.27 85.088 423.942 85.024C424.646 84.928 425.158 84.88 425.478 84.88C425.83 84.88 426.07 84.944 426.198 85.072C426.358 85.168 426.438 85.456 426.438 85.936C426.438 86.512 426.326 87.136 426.102 87.808C425.878 88.48 425.574 89.056 425.19 89.536C424.838 90.016 424.422 90.256 423.942 90.256C423.622 90.256 423.094 90.208 422.358 90.112C421.622 90.016 420.79 89.904 419.862 89.776L413.622 88.96L411.462 110.368C411.398 111.04 411.366 111.712 411.366 112.384C411.366 113.056 411.414 113.728 411.51 114.4L421.782 112.384C422.358 112.256 422.838 112.16 423.222 112.096C423.638 112 423.91 111.952 424.038 111.952C424.422 111.952 424.614 112.176 424.614 112.624C424.614 113.424 424.47 114.24 424.182 115.072C423.926 115.904 423.558 116.608 423.078 117.184C422.598 117.728 422.006 118 421.302 118H419.862C416.278 118 413.462 118.096 411.414 118.288C409.366 118.48 407.926 118.576 407.094 118.576ZM409.542 102.88L410.166 99.184H412.47C413.846 99.184 415.142 99.136 416.358 99.04C417.574 98.944 418.598 98.848 419.43 98.752C420.262 98.656 420.79 98.608 421.014 98.608C421.27 98.608 421.462 98.688 421.59 98.848C421.718 98.976 421.782 99.168 421.782 99.424C421.782 99.904 421.462 100.4 420.822 100.912C420.182 101.424 419.382 101.856 418.422 102.208C417.494 102.56 416.582 102.752 415.686 102.784L409.542 102.88ZM457.653 118.768C454.901 118.768 452.485 118.24 450.405 117.184C448.357 116.096 446.757 114.48 445.605 112.336C444.485 110.192 443.925 107.552 443.925 104.416C443.925 101.536 444.373 98.896 445.269 96.496C446.165 94.064 447.413 91.968 449.013 90.208C450.645 88.416 452.533 87.04 454.677 86.08C456.821 85.088 459.157 84.592 461.685 84.592C466.005 84.592 469.365 85.808 471.765 88.24C474.197 90.64 475.413 94.192 475.413 98.896C475.413 101.776 474.965 104.432 474.069 106.864C473.173 109.264 471.909 111.36 470.277 113.152C468.677 114.944 466.805 116.336 464.661 117.328C462.517 118.288 460.181 118.768 457.653 118.768ZM458.277 114.928C459.621 114.928 460.933 114.576 462.213 113.872C463.493 113.136 464.645 112.096 465.669 110.752C466.693 109.408 467.509 107.824 468.117 106C468.725 104.144 469.029 102.096 469.029 99.856C469.029 97.232 468.661 95.088 467.925 93.424C467.221 91.728 466.261 90.48 465.045 89.68C463.861 88.848 462.533 88.432 461.061 88.432C459.109 88.432 457.317 89.072 455.685 90.352C454.053 91.6 452.741 93.36 451.749 95.632C450.789 97.904 450.309 100.528 450.309 103.504C450.309 106.096 450.661 108.24 451.365 109.936C452.101 111.632 453.077 112.896 454.293 113.728C455.509 114.528 456.837 114.928 458.277 114.928ZM482.407 118.576C481.991 118.576 481.671 118.4 481.447 118.048C481.223 117.728 481.063 117.312 480.967 116.8C480.871 116.288 480.823 115.744 480.823 115.168C480.823 114.528 480.871 113.712 480.967 112.72C481.063 111.696 481.175 110.48 481.303 109.072L483.847 85.36H490.999C493.271 85.36 495.031 85.328 496.279 85.264C497.527 85.168 498.455 85.088 499.063 85.024C499.671 84.928 500.135 84.88 500.455 84.88C500.807 84.88 501.047 84.944 501.175 85.072C501.335 85.168 501.415 85.456 501.415 85.936C501.415 86.512 501.303 87.136 501.079 87.808C500.855 88.48 500.551 89.056 500.167 89.536C499.815 90.016 499.399 90.256 498.919 90.256C498.727 90.256 498.471 90.256 498.151 90.256C497.863 90.224 497.511 90.192 497.095 90.16C496.711 90.096 496.295 90.032 495.847 89.968L489.079 88.96L486.247 118.576H482.407ZM484.999 103.84L485.623 100.144H487.927C489.303 100.144 490.631 100.096 491.911 100C493.223 99.904 494.327 99.808 495.223 99.712C496.151 99.616 496.727 99.568 496.951 99.568C497.207 99.568 497.399 99.648 497.527 99.808C497.655 99.936 497.719 100.128 497.719 100.384C497.719 100.864 497.383 101.36 496.711 101.872C496.071 102.384 495.239 102.816 494.215 103.168C493.223 103.52 492.199 103.712 491.143 103.744L484.999 103.84ZM4.464 185.576C3.888 185.576 3.44 185.224 3.12 184.52C2.832 183.816 2.688 183.032 2.688 182.168C2.688 180.92 2.832 178.888 3.12 176.072L5.52 152.36H12.912C15.184 152.36 16.976 152.328 18.288 152.264C19.632 152.168 20.64 152.088 21.312 152.024C22.016 151.928 22.528 151.88 22.848 151.88C23.2 151.88 23.44 151.944 23.568 152.072C23.728 152.168 23.808 152.456 23.808 152.936C23.808 153.512 23.696 154.136 23.472 154.808C23.248 155.48 22.944 156.056 22.56 156.536C22.208 157.016 21.792 157.256 21.312 157.256C20.992 157.256 20.464 157.208 19.728 157.112C18.992 157.016 18.16 156.904 17.232 156.776L10.992 155.96L8.832 177.368C8.768 178.04 8.736 178.712 8.736 179.384C8.736 180.056 8.784 180.728 8.88 181.4L19.152 179.384C19.728 179.256 20.208 179.16 20.592 179.096C21.008 179 21.28 178.952 21.408 178.952C21.792 178.952 21.984 179.176 21.984 179.624C21.984 180.424 21.84 181.24 21.552 182.072C21.296 182.904 20.928 183.608 20.448 184.184C19.968 184.728 19.376 185 18.672 185H17.232C13.648 185 10.832 185.096 8.784 185.288C6.736 185.48 5.296 185.576 4.464 185.576ZM6.912 169.88L7.536 166.184H9.84C11.216 166.184 12.512 166.136 13.728 166.04C14.944 165.944 15.968 165.848 16.8 165.752C17.632 165.656 18.16 165.608 18.384 165.608C18.64 165.608 18.832 165.688 18.96 165.848C19.088 165.976 19.152 166.168 19.152 166.424C19.152 166.904 18.832 167.4 18.192 167.912C17.552 168.424 16.752 168.856 15.792 169.208C14.864 169.56 13.952 169.752 13.056 169.784L6.912 169.88ZM37.929 185.672C37.673 185.672 37.417 185.592 37.161 185.432C36.937 185.272 36.777 184.888 36.681 184.28C36.329 181.816 35.849 179.272 35.241 176.648C34.665 174.024 34.025 171.416 33.321 168.824C32.649 166.2 31.977 163.704 31.305 161.336C30.889 159.832 30.521 158.744 30.201 158.072C29.881 157.4 29.545 156.824 29.193 156.344C28.841 155.864 28.473 155.464 28.089 155.144C27.737 154.824 27.561 154.52 27.561 154.232C27.561 153.912 27.785 153.608 28.233 153.32C28.713 153.032 29.273 152.776 29.913 152.552C30.585 152.296 31.241 152.104 31.881 151.976C32.553 151.848 33.081 151.784 33.465 151.784C34.009 151.784 34.489 152.056 34.905 152.6C35.353 153.144 35.785 154.056 36.201 155.336C36.649 156.584 37.113 158.312 37.593 160.52L41.961 180.536L39.993 181.112L49.545 161.432C49.993 160.504 50.329 159.736 50.553 159.128C50.777 158.52 50.937 157.96 51.033 157.448C51.161 156.904 51.257 156.312 51.321 155.672C51.385 155.064 51.689 154.52 52.233 154.04C52.777 153.56 53.401 153.144 54.105 152.792C54.809 152.44 55.481 152.168 56.121 151.976C56.761 151.784 57.225 151.688 57.513 151.688C58.377 151.688 58.809 151.96 58.809 152.504C58.809 152.856 58.681 153.272 58.425 153.752L43.833 182.504C43.609 182.952 43.225 183.432 42.681 183.944C42.169 184.424 41.513 184.824 40.713 185.144C39.945 185.496 39.017 185.672 37.929 185.672ZM63.4759 185.576C62.8999 185.576 62.4519 185.224 62.1319 184.52C61.8439 183.816 61.6999 183.032 61.6999 182.168C61.6999 180.92 61.8439 178.888 62.1319 176.072L64.5319 152.36H71.9239C74.1959 152.36 75.9879 152.328 77.2999 152.264C78.6439 152.168 79.6519 152.088 80.3239 152.024C81.0279 151.928 81.5399 151.88 81.8599 151.88C82.2119 151.88 82.4519 151.944 82.5799 152.072C82.7399 152.168 82.8199 152.456 82.8199 152.936C82.8199 153.512 82.7079 154.136 82.4839 154.808C82.2599 155.48 81.9559 156.056 81.5719 156.536C81.2199 157.016 80.8039 157.256 80.3239 157.256C80.0039 157.256 79.4759 157.208 78.7399 157.112C78.0039 157.016 77.1719 156.904 76.2439 156.776L70.0039 155.96L67.8439 177.368C67.7799 178.04 67.7479 178.712 67.7479 179.384C67.7479 180.056 67.7959 180.728 67.8919 181.4L78.1639 179.384C78.7399 179.256 79.2199 179.16 79.6039 179.096C80.0199 179 80.2919 178.952 80.4199 178.952C80.8039 178.952 80.9959 179.176 80.9959 179.624C80.9959 180.424 80.8519 181.24 80.5639 182.072C80.3079 182.904 79.9399 183.608 79.4599 184.184C78.9799 184.728 78.3879 185 77.6839 185H76.2439C72.6599 185 69.8439 185.096 67.7959 185.288C65.7479 185.48 64.3079 185.576 63.4759 185.576ZM65.9239 169.88L66.5479 166.184H68.8519C70.2279 166.184 71.5239 166.136 72.7399 166.04C73.9559 165.944 74.9799 165.848 75.8119 165.752C76.6439 165.656 77.1719 165.608 77.3959 165.608C77.6519 165.608 77.8439 165.688 77.9719 165.848C78.0999 165.976 78.1639 166.168 78.1639 166.424C78.1639 166.904 77.8439 167.4 77.2039 167.912C76.5639 168.424 75.7639 168.856 74.8039 169.208C73.8759 169.56 72.9639 169.752 72.0679 169.784L65.9239 169.88ZM105.293 185.432C104.461 185.432 103.501 184.808 102.413 183.56C101.357 182.28 100.285 180.632 99.1969 178.616C98.1089 176.568 97.0689 174.376 96.0769 172.04C95.9489 171.752 95.8049 171.464 95.6449 171.176C95.5169 170.856 95.4529 170.536 95.4529 170.216C95.4529 169.864 95.5649 169.624 95.7889 169.496C96.0129 169.336 96.2529 169.24 96.5089 169.208C98.6849 168.792 100.493 167.928 101.933 166.616C103.405 165.304 104.141 163.624 104.141 161.576C104.141 160.424 103.885 159.4 103.373 158.504C102.893 157.576 102.029 156.84 100.781 156.296C99.5329 155.752 97.8049 155.48 95.5969 155.48H95.4049L92.2369 185.384H88.3489C87.8049 185.384 87.4209 185.128 87.1969 184.616C86.9729 184.104 86.8609 183.416 86.8609 182.552C86.8609 181.912 86.9089 181.192 87.0049 180.392L90.0769 152.36C91.4849 152.2 92.8769 152.088 94.2529 152.024C95.6609 151.928 97.0529 151.88 98.4289 151.88C100.765 151.88 102.845 152.2 104.669 152.84C106.493 153.48 107.917 154.472 108.941 155.816C109.997 157.16 110.525 158.904 110.525 161.048C110.525 162.552 110.221 163.896 109.613 165.08C109.037 166.264 108.237 167.288 107.213 168.152C106.221 168.984 105.117 169.672 103.901 170.216C102.685 170.76 101.453 171.16 100.205 171.416L100.589 169.016C101.677 171.288 102.733 173.224 103.757 174.824C104.813 176.424 105.757 177.704 106.589 178.664C107.421 179.592 108.061 180.248 108.509 180.632C109.309 181.24 109.885 181.672 110.237 181.928C110.621 182.152 110.813 182.408 110.813 182.696C110.813 182.984 110.605 183.288 110.189 183.608C109.805 183.896 109.309 184.184 108.701 184.472C108.093 184.76 107.469 184.984 106.829 185.144C106.221 185.336 105.709 185.432 105.293 185.432ZM123.645 172.472L119.325 162.2C118.685 160.664 118.093 159.416 117.549 158.456C117.037 157.464 116.461 156.712 115.821 156.2C115.021 155.56 114.493 155.096 114.237 154.808C113.981 154.52 113.853 154.216 113.853 153.896C113.853 153.608 114.125 153.304 114.669 152.984C115.213 152.632 115.837 152.328 116.541 152.072C117.245 151.816 117.837 151.688 118.317 151.688C119.629 151.688 120.717 152.232 121.581 153.32C122.477 154.376 123.245 155.816 123.885 157.64L127.437 167.624L125.997 168.68L130.797 161.288C131.693 159.944 132.237 158.776 132.429 157.784C132.653 156.792 132.797 155.96 132.861 155.288C132.925 154.712 133.277 154.216 133.917 153.8C134.557 153.352 135.309 152.968 136.173 152.648C137.037 152.328 137.853 152.088 138.621 151.928C139.421 151.768 140.013 151.688 140.397 151.688C140.973 151.688 141.261 151.944 141.261 152.456C141.261 152.776 141.133 153.176 140.877 153.656C140.621 154.136 140.269 154.68 139.821 155.288L127.725 172.472H123.645ZM123.405 185.384C122.829 185.384 122.429 185.128 122.205 184.616C121.981 184.104 121.869 183.416 121.869 182.552C121.869 181.912 121.917 181.192 122.013 180.392L123.309 168.728L129.021 169.592L127.293 185.384H123.405ZM170.601 185.768C167.913 185.768 165.561 185.24 163.545 184.184C161.561 183.096 160.009 181.48 158.889 179.336C157.769 177.192 157.209 174.552 157.209 171.416C157.209 168.536 157.657 165.896 158.553 163.496C159.481 161.064 160.777 158.968 162.441 157.208C164.105 155.416 166.089 154.04 168.393 153.08C170.697 152.088 173.257 151.592 176.073 151.592C178.697 151.592 180.665 151.88 181.977 152.456C183.289 153 183.945 153.992 183.945 155.432C183.945 156.2 183.801 156.856 183.513 157.4C183.257 157.944 182.969 158.216 182.649 158.216C182.361 158.216 182.025 158.12 181.641 157.928C181.289 157.736 180.889 157.528 180.441 157.304C179.673 156.92 178.825 156.52 177.897 156.104C177.001 155.656 175.801 155.432 174.297 155.432C172.345 155.432 170.553 156.072 168.921 157.352C167.321 158.632 166.025 160.408 165.033 162.68C164.073 164.92 163.593 167.544 163.593 170.552C163.593 173.08 163.961 175.192 164.697 176.888C165.465 178.584 166.473 179.848 167.721 180.68C168.969 181.512 170.329 181.928 171.801 181.928C173.017 181.928 174.105 181.704 175.065 181.256C176.025 180.776 176.857 180.232 177.561 179.624C178.297 179.016 178.953 178.488 179.529 178.04C180.105 177.56 180.617 177.32 181.065 177.32C181.417 177.32 181.705 177.4 181.929 177.56C182.185 177.72 182.313 178.056 182.313 178.568C182.313 179.816 181.785 180.984 180.729 182.072C179.673 183.16 178.265 184.056 176.505 184.76C174.745 185.432 172.777 185.768 170.601 185.768ZM193.05 169.88V166.28H210.858V169.88H193.05ZM190.218 185.384C189.77 185.384 189.402 185.192 189.114 184.808C188.858 184.424 188.666 183.928 188.538 183.32C188.41 182.712 188.346 182.104 188.346 181.496C188.346 180.184 188.426 178.92 188.586 177.704C188.746 176.488 188.89 175.176 189.018 173.768L191.322 151.64H194.682C195.514 151.64 196.058 151.96 196.314 152.6C196.602 153.208 196.746 153.944 196.746 154.808C196.746 155.576 196.714 156.264 196.65 156.872C196.586 157.48 196.49 158.216 196.362 159.08C196.266 159.944 196.138 161.128 195.978 162.632L193.578 185.384H190.218ZM209.514 185.384C209.066 185.384 208.698 185.192 208.41 184.808C208.154 184.424 207.962 183.928 207.834 183.32C207.706 182.712 207.642 182.104 207.642 181.496C207.642 180.184 207.722 178.92 207.882 177.704C208.042 176.488 208.186 175.176 208.314 173.768L210.618 151.64H213.978C214.81 151.64 215.354 151.96 215.61 152.6C215.898 153.208 216.042 153.944 216.042 154.808C216.042 155.576 216.01 156.264 215.946 156.872C215.882 157.48 215.786 158.216 215.658 159.08C215.562 159.944 215.434 161.128 215.274 162.632L212.874 185.384H209.514ZM223.825 185.384C223.377 185.384 223.009 185.192 222.721 184.808C222.465 184.424 222.273 183.928 222.145 183.32C222.017 182.712 221.953 182.104 221.953 181.496C221.953 180.184 222.033 178.92 222.193 177.704C222.353 176.488 222.497 175.176 222.625 173.768L224.929 151.64H228.289C229.121 151.64 229.665 151.96 229.921 152.6C230.209 153.208 230.353 153.944 230.353 154.808C230.353 155.576 230.321 156.264 230.257 156.872C230.193 157.48 230.097 158.216 229.969 159.08C229.873 159.944 229.745 161.128 229.585 162.632L227.185 185.384H223.825ZM238.072 185.576C237.496 185.576 237.048 185.224 236.728 184.52C236.44 183.816 236.296 183.032 236.296 182.168C236.296 180.92 236.44 178.888 236.728 176.072L239.224 151.64H243.064C244.088 151.64 244.648 152.056 244.744 152.888C244.84 153.688 244.776 155.064 244.552 157.016L242.344 177.368C242.28 178.04 242.248 178.712 242.248 179.384C242.248 180.056 242.296 180.728 242.392 181.4L252.712 179C253.064 178.936 253.336 178.888 253.528 178.856C253.72 178.792 253.864 178.76 253.96 178.76C254.344 178.76 254.536 178.984 254.536 179.432C254.536 180.232 254.392 181.064 254.104 181.928C253.848 182.792 253.48 183.528 253 184.136C252.52 184.712 251.928 185 251.224 185H249.784C247.384 185 245.416 185.048 243.88 185.144C242.376 185.24 241.176 185.336 240.28 185.432C239.384 185.528 238.648 185.576 238.072 185.576ZM261.602 185.384C261.026 185.384 260.578 185.064 260.258 184.424C259.97 183.784 259.826 183.032 259.826 182.168C259.826 180.92 259.97 178.888 260.258 176.072L262.658 152.36C264.386 152.2 266.098 152.088 267.794 152.024C269.522 151.928 271.122 151.88 272.594 151.88C277.618 151.88 281.49 153.112 284.21 155.576C286.962 158.008 288.338 161.416 288.338 165.8C288.338 169.512 287.554 172.824 285.986 175.736C284.418 178.616 282.146 180.888 279.17 182.552C276.226 184.184 272.626 185 268.37 185C267.09 185 265.89 185.064 264.77 185.192C263.682 185.32 262.626 185.384 261.602 185.384ZM265.922 181.4C269.378 181.4 272.29 180.776 274.658 179.528C277.058 178.248 278.866 176.488 280.082 174.248C281.33 171.976 281.954 169.352 281.954 166.376C281.954 162.856 280.962 160.168 278.978 158.312C277.026 156.424 273.81 155.48 269.33 155.48H268.13L265.97 177.368C265.938 177.912 265.906 178.536 265.874 179.24C265.874 179.944 265.89 180.664 265.922 181.4ZM293.133 164.984C293.133 164.792 293.181 164.648 293.277 164.552C293.373 164.424 293.517 164.328 293.709 164.264C295.117 163.72 296.157 163 296.829 162.104C297.501 161.176 297.837 160.168 297.837 159.08C297.837 158.728 297.789 158.408 297.693 158.12C297.597 157.832 297.261 157.24 296.685 156.344L299.373 158.504C298.893 158.696 298.397 158.792 297.885 158.792C296.989 158.792 296.221 158.488 295.581 157.88C294.941 157.272 294.621 156.472 294.621 155.48C294.621 154.296 295.005 153.384 295.773 152.744C296.541 152.072 297.421 151.736 298.413 151.736C299.565 151.736 300.429 152.152 301.005 152.984C301.613 153.816 301.917 154.856 301.917 156.104C301.917 157.768 301.661 159.24 301.149 160.52C300.637 161.768 299.981 162.808 299.181 163.64C298.381 164.472 297.533 165.112 296.637 165.56C295.741 165.976 294.925 166.184 294.189 166.184C293.901 166.184 293.645 166.056 293.421 165.8C293.229 165.512 293.133 165.24 293.133 164.984ZM313.664 185.624C310.944 185.624 308.736 185.192 307.04 184.328C305.344 183.464 304.496 182.344 304.496 180.968C304.496 179.912 304.576 179.16 304.736 178.712C304.896 178.264 305.168 178.04 305.552 178.04C305.808 178.04 306.208 178.232 306.752 178.616C307.296 179 307.952 179.432 308.72 179.912C309.52 180.392 310.4 180.824 311.36 181.208C312.352 181.592 313.424 181.784 314.576 181.784C316.24 181.784 317.584 181.432 318.608 180.728C319.664 179.992 320.192 178.872 320.192 177.368C320.192 175.928 319.856 174.84 319.184 174.104C318.512 173.368 317.504 172.568 316.16 171.704L313.136 169.784C312.048 169.08 311.056 168.36 310.16 167.624C309.264 166.888 308.544 166.008 308 164.984C307.456 163.928 307.184 162.6 307.184 161C307.184 159.016 307.696 157.32 308.72 155.912C309.744 154.504 311.152 153.432 312.944 152.696C314.736 151.96 316.784 151.592 319.088 151.592C321.232 151.592 322.832 151.736 323.888 152.024C324.944 152.28 325.632 152.648 325.952 153.128C326.304 153.608 326.48 154.168 326.48 154.808C326.48 155.704 326.352 156.392 326.096 156.872C325.84 157.32 325.568 157.544 325.28 157.544C325.024 157.544 324.736 157.464 324.416 157.304C324.096 157.144 323.648 156.936 323.072 156.68C322.624 156.456 321.904 156.2 320.912 155.912C319.952 155.592 318.944 155.432 317.888 155.432C316.512 155.432 315.344 155.784 314.384 156.488C313.456 157.192 312.992 158.248 312.992 159.656C312.992 160.968 313.344 162.008 314.048 162.776C314.752 163.512 315.696 164.168 316.88 164.744L319.52 165.992C320.768 166.568 321.92 167.208 322.976 167.912C324.064 168.616 324.928 169.528 325.568 170.648C326.24 171.736 326.576 173.192 326.576 175.016C326.576 178.408 325.408 181.032 323.072 182.888C320.736 184.712 317.6 185.624 313.664 185.624ZM4.464 252.576C3.888 252.576 3.44 252.224 3.12 251.52C2.832 250.816 2.688 250.032 2.688 249.168C2.688 247.92 2.832 245.888 3.12 243.072L5.52 219.36H12.912C15.184 219.36 16.976 219.328 18.288 219.264C19.632 219.168 20.64 219.088 21.312 219.024C22.016 218.928 22.528 218.88 22.848 218.88C23.2 218.88 23.44 218.944 23.568 219.072C23.728 219.168 23.808 219.456 23.808 219.936C23.808 220.512 23.696 221.136 23.472 221.808C23.248 222.48 22.944 223.056 22.56 223.536C22.208 224.016 21.792 224.256 21.312 224.256C20.992 224.256 20.464 224.208 19.728 224.112C18.992 224.016 18.16 223.904 17.232 223.776L10.992 222.96L8.832 244.368C8.768 245.04 8.736 245.712 8.736 246.384C8.736 247.056 8.784 247.728 8.88 248.4L19.152 246.384C19.728 246.256 20.208 246.16 20.592 246.096C21.008 246 21.28 245.952 21.408 245.952C21.792 245.952 21.984 246.176 21.984 246.624C21.984 247.424 21.84 248.24 21.552 249.072C21.296 249.904 20.928 250.608 20.448 251.184C19.968 251.728 19.376 252 18.672 252H17.232C13.648 252 10.832 252.096 8.784 252.288C6.736 252.48 5.296 252.576 4.464 252.576ZM6.912 236.88L7.536 233.184H9.84C11.216 233.184 12.512 233.136 13.728 233.04C14.944 232.944 15.968 232.848 16.8 232.752C17.632 232.656 18.16 232.608 18.384 232.608C18.64 232.608 18.832 232.688 18.96 232.848C19.088 232.976 19.152 233.168 19.152 233.424C19.152 233.904 18.832 234.4 18.192 234.912C17.552 235.424 16.752 235.856 15.792 236.208C14.864 236.56 13.952 236.752 13.056 236.784L6.912 236.88ZM30.009 252.384C29.433 252.384 28.985 252.064 28.665 251.424C28.377 250.784 28.233 250.032 28.233 249.168C28.233 247.92 28.377 245.888 28.665 243.072L31.065 219.36C32.793 219.2 34.505 219.088 36.201 219.024C37.929 218.928 39.529 218.88 41.001 218.88C46.025 218.88 49.897 220.112 52.617 222.576C55.369 225.008 56.745 228.416 56.745 232.8C56.745 236.512 55.961 239.824 54.393 242.736C52.825 245.616 50.553 247.888 47.577 249.552C44.633 251.184 41.033 252 36.777 252C35.497 252 34.297 252.064 33.177 252.192C32.089 252.32 31.033 252.384 30.009 252.384ZM34.329 248.4C37.785 248.4 40.697 247.776 43.065 246.528C45.465 245.248 47.273 243.488 48.489 241.248C49.737 238.976 50.361 236.352 50.361 233.376C50.361 229.856 49.369 227.168 47.385 225.312C45.433 223.424 42.217 222.48 37.737 222.48H36.537L34.377 244.368C34.345 244.912 34.313 245.536 34.281 246.24C34.281 246.944 34.297 247.664 34.329 248.4ZM74.8841 252.768C71.7801 252.768 69.2841 252.416 67.3961 251.712C65.5401 250.976 64.2601 249.76 63.5561 248.064C62.8521 246.368 62.6441 244.064 62.9321 241.152L65.2841 218.64H69.1241C69.7641 218.64 70.1961 218.8 70.4201 219.12C70.6761 219.408 70.8041 219.984 70.8041 220.848C70.8041 221.616 70.7561 222.384 70.6601 223.152C70.5961 223.92 70.5001 224.816 70.3721 225.84C70.2441 226.864 70.1001 228.128 69.9401 229.632L68.8841 239.424C68.5321 242.688 68.8841 245.088 69.9401 246.624C71.0281 248.16 73.0601 248.928 76.0361 248.928C77.4121 248.928 78.6601 248.656 79.7801 248.112C80.9321 247.568 81.8761 246.72 82.6121 245.568C83.3801 244.384 83.8601 242.848 84.0521 240.96L85.0601 231.648C85.2521 229.856 85.3321 228.368 85.3001 227.184C85.2681 226 85.1721 225.024 85.0121 224.256C84.8521 223.456 84.7081 222.8 84.5801 222.288C84.4521 221.744 84.3881 221.264 84.3881 220.848C84.3881 220.464 84.6281 220.112 85.1081 219.792C85.6201 219.44 86.2121 219.168 86.8841 218.976C87.5561 218.784 88.1481 218.688 88.6601 218.688C89.1401 218.688 89.5081 218.848 89.7641 219.168C90.0521 219.456 90.2441 219.824 90.3401 220.272C90.4681 220.72 90.5321 221.152 90.5321 221.568C90.5321 222.112 90.4841 222.88 90.3881 223.872C90.2921 224.832 90.1801 225.824 90.0521 226.848L88.5641 240.576C88.2121 243.872 87.4761 246.4 86.3561 248.16C85.2681 249.92 83.7641 251.136 81.8441 251.808C79.9561 252.448 77.6361 252.768 74.8841 252.768ZM108.638 252.768C105.95 252.768 103.598 252.24 101.582 251.184C99.5979 250.096 98.0459 248.48 96.9259 246.336C95.8059 244.192 95.2459 241.552 95.2459 238.416C95.2459 235.536 95.6939 232.896 96.5899 230.496C97.5179 228.064 98.8139 225.968 100.478 224.208C102.142 222.416 104.126 221.04 106.43 220.08C108.734 219.088 111.294 218.592 114.11 218.592C116.734 218.592 118.702 218.88 120.014 219.456C121.326 220 121.982 220.992 121.982 222.432C121.982 223.2 121.838 223.856 121.55 224.4C121.294 224.944 121.006 225.216 120.686 225.216C120.398 225.216 120.062 225.12 119.678 224.928C119.326 224.736 118.926 224.528 118.478 224.304C117.71 223.92 116.862 223.52 115.934 223.104C115.038 222.656 113.838 222.432 112.334 222.432C110.382 222.432 108.59 223.072 106.958 224.352C105.358 225.632 104.062 227.408 103.07 229.68C102.11 231.92 101.63 234.544 101.63 237.552C101.63 240.08 101.998 242.192 102.734 243.888C103.502 245.584 104.51 246.848 105.758 247.68C107.006 248.512 108.366 248.928 109.838 248.928C111.054 248.928 112.142 248.704 113.102 248.256C114.062 247.776 114.894 247.232 115.598 246.624C116.334 246.016 116.99 245.488 117.566 245.04C118.142 244.56 118.654 244.32 119.102 244.32C119.454 244.32 119.742 244.4 119.966 244.56C120.222 244.72 120.35 245.056 120.35 245.568C120.35 246.816 119.822 247.984 118.766 249.072C117.71 250.16 116.302 251.056 114.542 251.76C112.782 252.432 110.814 252.768 108.638 252.768ZM123.85 252.672C122.986 252.672 122.554 252.4 122.554 251.856C122.554 251.6 122.682 251.184 122.938 250.608L137.194 221.856C137.418 221.376 137.882 220.896 138.586 220.416C139.29 219.936 140.138 219.536 141.13 219.216C142.122 218.864 143.146 218.688 144.202 218.688C144.458 218.688 144.698 218.768 144.922 218.928C145.178 219.088 145.354 219.472 145.45 220.08C145.994 223.76 146.65 227.456 147.418 231.168C148.186 234.88 149.066 238.512 150.058 242.064C150.506 243.568 150.89 244.784 151.21 245.712C151.53 246.64 151.85 247.344 152.17 247.824C152.522 248.304 152.826 248.704 153.082 249.024C153.37 249.312 153.514 249.6 153.514 249.888C153.514 250.208 153.322 250.528 152.938 250.848C152.586 251.168 152.138 251.456 151.594 251.712C151.05 251.968 150.49 252.176 149.914 252.336C149.338 252.496 148.842 252.576 148.426 252.576C147.722 252.576 147.002 251.952 146.266 250.704C145.53 249.424 144.81 247.136 144.106 243.84L139.93 223.824L140.842 223.248L131.482 242.928C131.066 243.824 130.762 244.576 130.57 245.184C130.41 245.792 130.314 246.352 130.282 246.864C130.25 247.344 130.186 247.904 130.09 248.544C130.026 249.152 129.722 249.712 129.178 250.224C128.634 250.704 127.994 251.136 127.258 251.52C126.554 251.872 125.882 252.144 125.242 252.336C124.602 252.56 124.138 252.672 123.85 252.672ZM129.898 242.88V239.28H147.754V242.88H129.898ZM163.208 252.384C162.696 252.384 162.328 252.032 162.104 251.328C161.88 250.592 161.768 249.792 161.768 248.928C161.768 248.064 161.816 247.104 161.912 246.048C162.04 244.96 162.216 243.488 162.44 241.632L164.504 223.392L158.072 224.784C157.688 224.848 157.352 224.912 157.064 224.976C156.808 225.008 156.616 225.024 156.488 225.024C156.136 225.024 155.88 224.912 155.72 224.688C155.56 224.464 155.496 224.192 155.528 223.872C155.56 223.072 155.672 222.336 155.864 221.664C156.088 220.992 156.36 220.448 156.68 220.032C157 219.584 157.352 219.36 157.736 219.36H168.056C170.52 219.36 172.44 219.312 173.816 219.216C175.224 219.12 176.264 219.04 176.936 218.976C177.64 218.88 178.168 218.832 178.52 218.832C178.84 218.832 179.064 218.896 179.192 219.024C179.32 219.152 179.4 219.408 179.432 219.792C179.464 220.432 179.368 221.104 179.144 221.808C178.952 222.512 178.68 223.12 178.328 223.632C178.008 224.112 177.672 224.352 177.32 224.352C177.096 224.352 176.76 224.32 176.312 224.256C175.864 224.16 175.352 224.08 174.776 224.016L170.216 223.392L167.048 252.384H163.208ZM184.22 252.384C183.772 252.384 183.404 252.192 183.116 251.808C182.86 251.424 182.668 250.928 182.54 250.32C182.412 249.712 182.348 249.104 182.348 248.496C182.348 247.184 182.428 245.92 182.588 244.704C182.748 243.488 182.892 242.176 183.02 240.768L185.324 218.64H188.684C189.516 218.64 190.06 218.96 190.316 219.6C190.604 220.208 190.748 220.944 190.748 221.808C190.748 222.576 190.716 223.264 190.652 223.872C190.588 224.48 190.492 225.216 190.364 226.08C190.268 226.944 190.14 228.128 189.98 229.632L187.58 252.384H184.22ZM209.795 252.768C207.043 252.768 204.627 252.24 202.547 251.184C200.499 250.096 198.899 248.48 197.747 246.336C196.627 244.192 196.067 241.552 196.067 238.416C196.067 235.536 196.515 232.896 197.411 230.496C198.307 228.064 199.555 225.968 201.155 224.208C202.787 222.416 204.675 221.04 206.819 220.08C208.963 219.088 211.299 218.592 213.827 218.592C218.147 218.592 221.507 219.808 223.907 222.24C226.339 224.64 227.555 228.192 227.555 232.896C227.555 235.776 227.107 238.432 226.211 240.864C225.315 243.264 224.051 245.36 222.419 247.152C220.819 248.944 218.947 250.336 216.803 251.328C214.659 252.288 212.323 252.768 209.795 252.768ZM210.419 248.928C211.763 248.928 213.075 248.576 214.355 247.872C215.635 247.136 216.787 246.096 217.811 244.752C218.835 243.408 219.651 241.824 220.259 240C220.867 238.144 221.171 236.096 221.171 233.856C221.171 231.232 220.803 229.088 220.067 227.424C219.363 225.728 218.403 224.48 217.187 223.68C216.003 222.848 214.675 222.432 213.203 222.432C211.251 222.432 209.459 223.072 207.827 224.352C206.195 225.6 204.883 227.36 203.891 229.632C202.931 231.904 202.451 234.528 202.451 237.504C202.451 240.096 202.803 242.24 203.507 243.936C204.243 245.632 205.219 246.896 206.435 247.728C207.651 248.528 208.979 248.928 210.419 248.928ZM234.117 252.576C233.605 252.576 233.269 252.336 233.109 251.856C232.949 251.376 232.869 250.8 232.869 250.128C232.869 249.008 232.933 247.824 233.061 246.576C233.189 245.296 233.317 244.048 233.445 242.832L236.085 218.64L239.589 218.592C240.165 218.592 240.613 218.672 240.933 218.832C241.285 218.96 241.669 219.392 242.085 220.128C243.621 222.816 245.285 225.488 247.077 228.144C248.869 230.768 250.581 233.28 252.213 235.68C253.845 238.08 255.189 240.272 256.245 242.256L254.997 243.744L256.053 233.424C256.309 230.96 256.421 228.976 256.389 227.472C256.389 225.968 256.309 224.8 256.149 223.968C256.021 223.104 255.877 222.432 255.717 221.952C255.589 221.472 255.525 221.024 255.525 220.608C255.525 220.288 255.685 220.016 256.005 219.792C256.325 219.536 256.725 219.328 257.205 219.168C257.685 219.008 258.149 218.896 258.597 218.832C259.077 218.736 259.477 218.688 259.797 218.688C260.405 218.688 260.869 219.008 261.189 219.648C261.509 220.288 261.669 220.928 261.669 221.568C261.669 222.112 261.605 222.736 261.477 223.44C261.381 224.144 261.253 225.28 261.093 226.848L260.421 233.184C260.101 236.192 259.877 238.656 259.749 240.576C259.653 242.464 259.605 243.968 259.605 245.088C259.605 246.208 259.621 247.12 259.653 247.824C259.717 248.528 259.749 249.184 259.749 249.792C259.749 250.144 259.573 250.496 259.221 250.848C258.869 251.168 258.421 251.456 257.877 251.712C257.333 251.968 256.805 252.16 256.293 252.288C255.781 252.448 255.349 252.528 254.997 252.528C254.709 252.528 254.453 252.384 254.229 252.096C254.005 251.808 253.909 251.408 253.941 250.896C253.973 250.48 253.845 249.952 253.557 249.312C253.301 248.64 252.997 247.952 252.645 247.248C252.293 246.544 251.957 245.936 251.637 245.424C250.613 243.568 249.333 241.568 247.797 239.424C246.293 237.28 244.741 235.04 243.141 232.704C241.541 230.368 240.101 228 238.821 225.6L239.493 225.504L238.197 237.936C237.973 240.144 237.845 241.968 237.813 243.408C237.781 244.816 237.813 245.936 237.909 246.768C238.005 247.6 238.117 248.24 238.245 248.688C238.373 249.136 238.485 249.504 238.581 249.792C238.709 250.048 238.773 250.336 238.773 250.656C238.773 251.008 238.581 251.312 238.197 251.568C237.845 251.792 237.397 251.984 236.853 252.144C236.341 252.304 235.829 252.416 235.317 252.48C234.805 252.544 234.405 252.576 234.117 252.576ZM264.653 252.672C263.789 252.672 263.357 252.4 263.357 251.856C263.357 251.6 263.485 251.184 263.741 250.608L277.997 221.856C278.221 221.376 278.685 220.896 279.389 220.416C280.093 219.936 280.941 219.536 281.933 219.216C282.925 218.864 283.949 218.688 285.005 218.688C285.261 218.688 285.501 218.768 285.725 218.928C285.981 219.088 286.157 219.472 286.253 220.08C286.797 223.76 287.453 227.456 288.221 231.168C288.989 234.88 289.869 238.512 290.861 242.064C291.309 243.568 291.693 244.784 292.013 245.712C292.333 246.64 292.653 247.344 292.973 247.824C293.325 248.304 293.629 248.704 293.885 249.024C294.173 249.312 294.317 249.6 294.317 249.888C294.317 250.208 294.125 250.528 293.741 250.848C293.389 251.168 292.941 251.456 292.397 251.712C291.853 251.968 291.293 252.176 290.717 252.336C290.141 252.496 289.645 252.576 289.229 252.576C288.525 252.576 287.805 251.952 287.069 250.704C286.333 249.424 285.613 247.136 284.909 243.84L280.733 223.824L281.645 223.248L272.285 242.928C271.869 243.824 271.565 244.576 271.373 245.184C271.213 245.792 271.117 246.352 271.085 246.864C271.053 247.344 270.989 247.904 270.893 248.544C270.829 249.152 270.525 249.712 269.981 250.224C269.437 250.704 268.797 251.136 268.061 251.52C267.357 251.872 266.685 252.144 266.045 252.336C265.405 252.56 264.941 252.672 264.653 252.672ZM270.701 242.88V239.28H288.557V242.88H270.701ZM301.68 252.576C301.104 252.576 300.656 252.224 300.336 251.52C300.048 250.816 299.904 250.032 299.904 249.168C299.904 247.92 300.048 245.888 300.336 243.072L302.832 218.64H306.672C307.696 218.64 308.256 219.056 308.352 219.888C308.448 220.688 308.384 222.064 308.16 224.016L305.952 244.368C305.888 245.04 305.856 245.712 305.856 246.384C305.856 247.056 305.904 247.728 306 248.4L316.32 246C316.672 245.936 316.944 245.888 317.136 245.856C317.328 245.792 317.472 245.76 317.568 245.76C317.952 245.76 318.144 245.984 318.144 246.432C318.144 247.232 318 248.064 317.712 248.928C317.456 249.792 317.088 250.528 316.608 251.136C316.128 251.712 315.536 252 314.832 252H313.392C310.992 252 309.024 252.048 307.488 252.144C305.984 252.24 304.784 252.336 303.888 252.432C302.992 252.528 302.256 252.576 301.68 252.576ZM333.039 260.16C331.375 260.16 330.143 259.76 329.343 258.96C328.511 258.16 328.095 256.992 328.095 255.456C328.095 255.136 328.175 254.896 328.335 254.736C328.463 254.608 328.591 254.544 328.719 254.544C328.879 254.544 329.055 254.576 329.247 254.64C329.407 254.736 329.695 254.864 330.111 255.024C330.879 255.344 331.631 255.616 332.367 255.84C333.071 256.096 333.695 256.224 334.239 256.224C334.719 256.224 335.119 255.984 335.439 255.504C335.791 255.024 336.079 254.192 336.303 253.008C336.559 251.856 336.799 250.272 337.023 248.256L340.287 218.64H343.647C344.543 218.64 345.119 218.96 345.375 219.6C345.631 220.208 345.759 220.944 345.759 221.808C345.759 222.384 345.679 223.264 345.519 224.448C345.359 225.632 345.151 227.36 344.895 229.632L343.167 245.568C342.879 248.288 342.399 250.576 341.727 252.432C341.087 254.32 340.319 255.824 339.423 256.944C338.527 258.096 337.535 258.912 336.447 259.392C335.359 259.904 334.223 260.16 333.039 260.16ZM364.799 252.768C362.047 252.768 359.631 252.24 357.551 251.184C355.503 250.096 353.903 248.48 352.751 246.336C351.631 244.192 351.071 241.552 351.071 238.416C351.071 235.536 351.519 232.896 352.415 230.496C353.311 228.064 354.559 225.968 356.159 224.208C357.791 222.416 359.679 221.04 361.823 220.08C363.967 219.088 366.303 218.592 368.831 218.592C373.151 218.592 376.511 219.808 378.911 222.24C381.343 224.64 382.559 228.192 382.559 232.896C382.559 235.776 382.111 238.432 381.215 240.864C380.319 243.264 379.055 245.36 377.423 247.152C375.823 248.944 373.951 250.336 371.807 251.328C369.663 252.288 367.327 252.768 364.799 252.768ZM365.423 248.928C366.767 248.928 368.079 248.576 369.359 247.872C370.639 247.136 371.791 246.096 372.815 244.752C373.839 243.408 374.655 241.824 375.263 240C375.871 238.144 376.175 236.096 376.175 233.856C376.175 231.232 375.807 229.088 375.071 227.424C374.367 225.728 373.407 224.48 372.191 223.68C371.007 222.848 369.679 222.432 368.207 222.432C366.255 222.432 364.463 223.072 362.831 224.352C361.199 225.6 359.887 227.36 358.895 229.632C357.935 231.904 357.455 234.528 357.455 237.504C357.455 240.096 357.807 242.24 358.511 243.936C359.247 245.632 360.223 246.896 361.439 247.728C362.655 248.528 363.983 248.928 365.423 248.928ZM400.69 252.768C397.586 252.768 395.09 252.416 393.202 251.712C391.346 250.976 390.066 249.76 389.362 248.064C388.658 246.368 388.45 244.064 388.738 241.152L391.09 218.64H394.93C395.57 218.64 396.002 218.8 396.226 219.12C396.482 219.408 396.61 219.984 396.61 220.848C396.61 221.616 396.562 222.384 396.466 223.152C396.402 223.92 396.306 224.816 396.178 225.84C396.05 226.864 395.906 228.128 395.746 229.632L394.69 239.424C394.338 242.688 394.69 245.088 395.746 246.624C396.834 248.16 398.866 248.928 401.842 248.928C403.218 248.928 404.466 248.656 405.586 248.112C406.738 247.568 407.682 246.72 408.418 245.568C409.186 244.384 409.666 242.848 409.858 240.96L410.866 231.648C411.058 229.856 411.138 228.368 411.106 227.184C411.074 226 410.978 225.024 410.818 224.256C410.658 223.456 410.514 222.8 410.386 222.288C410.258 221.744 410.194 221.264 410.194 220.848C410.194 220.464 410.434 220.112 410.914 219.792C411.426 219.44 412.018 219.168 412.69 218.976C413.362 218.784 413.954 218.688 414.466 218.688C414.946 218.688 415.314 218.848 415.57 219.168C415.858 219.456 416.05 219.824 416.146 220.272C416.274 220.72 416.338 221.152 416.338 221.568C416.338 222.112 416.29 222.88 416.194 223.872C416.098 224.832 415.986 225.824 415.858 226.848L414.37 240.576C414.018 243.872 413.282 246.4 412.162 248.16C411.074 249.92 409.57 251.136 407.65 251.808C405.762 252.448 403.442 252.768 400.69 252.768ZM439.723 252.432C438.891 252.432 437.931 251.808 436.843 250.56C435.787 249.28 434.715 247.632 433.627 245.616C432.539 243.568 431.499 241.376 430.507 239.04C430.379 238.752 430.235 238.464 430.075 238.176C429.947 237.856 429.883 237.536 429.883 237.216C429.883 236.864 429.995 236.624 430.219 236.496C430.443 236.336 430.683 236.24 430.939 236.208C433.115 235.792 434.923 234.928 436.363 233.616C437.835 232.304 438.571 230.624 438.571 228.576C438.571 227.424 438.315 226.4 437.803 225.504C437.323 224.576 436.459 223.84 435.211 223.296C433.963 222.752 432.235 222.48 430.027 222.48H429.835L426.667 252.384H422.779C422.235 252.384 421.851 252.128 421.627 251.616C421.403 251.104 421.291 250.416 421.291 249.552C421.291 248.912 421.339 248.192 421.435 247.392L424.507 219.36C425.915 219.2 427.307 219.088 428.683 219.024C430.091 218.928 431.483 218.88 432.859 218.88C435.195 218.88 437.275 219.2 439.099 219.84C440.923 220.48 442.347 221.472 443.371 222.816C444.427 224.16 444.955 225.904 444.955 228.048C444.955 229.552 444.651 230.896 444.043 232.08C443.467 233.264 442.667 234.288 441.643 235.152C440.651 235.984 439.547 236.672 438.331 237.216C437.115 237.76 435.883 238.16 434.635 238.416L435.019 236.016C436.107 238.288 437.163 240.224 438.187 241.824C439.243 243.424 440.187 244.704 441.019 245.664C441.851 246.592 442.491 247.248 442.939 247.632C443.739 248.24 444.315 248.672 444.667 248.928C445.051 249.152 445.243 249.408 445.243 249.696C445.243 249.984 445.035 250.288 444.619 250.608C444.235 250.896 443.739 251.184 443.131 251.472C442.523 251.76 441.899 251.984 441.259 252.144C440.651 252.336 440.139 252.432 439.723 252.432ZM451.79 252.576C451.278 252.576 450.942 252.336 450.782 251.856C450.622 251.376 450.542 250.8 450.542 250.128C450.542 249.008 450.606 247.824 450.734 246.576C450.862 245.296 450.99 244.048 451.118 242.832L453.758 218.64L457.262 218.592C457.838 218.592 458.286 218.672 458.606 218.832C458.958 218.96 459.342 219.392 459.758 220.128C461.294 222.816 462.958 225.488 464.75 228.144C466.542 230.768 468.254 233.28 469.886 235.68C471.518 238.08 472.862 240.272 473.918 242.256L472.67 243.744L473.726 233.424C473.982 230.96 474.094 228.976 474.062 227.472C474.062 225.968 473.982 224.8 473.822 223.968C473.694 223.104 473.55 222.432 473.39 221.952C473.262 221.472 473.198 221.024 473.198 220.608C473.198 220.288 473.358 220.016 473.678 219.792C473.998 219.536 474.398 219.328 474.878 219.168C475.358 219.008 475.822 218.896 476.27 218.832C476.75 218.736 477.15 218.688 477.47 218.688C478.078 218.688 478.542 219.008 478.862 219.648C479.182 220.288 479.342 220.928 479.342 221.568C479.342 222.112 479.278 222.736 479.15 223.44C479.054 224.144 478.926 225.28 478.766 226.848L478.094 233.184C477.774 236.192 477.55 238.656 477.422 240.576C477.326 242.464 477.278 243.968 477.278 245.088C477.278 246.208 477.294 247.12 477.326 247.824C477.39 248.528 477.422 249.184 477.422 249.792C477.422 250.144 477.246 250.496 476.894 250.848C476.542 251.168 476.094 251.456 475.55 251.712C475.006 251.968 474.478 252.16 473.966 252.288C473.454 252.448 473.022 252.528 472.67 252.528C472.382 252.528 472.126 252.384 471.902 252.096C471.678 251.808 471.582 251.408 471.614 250.896C471.646 250.48 471.518 249.952 471.23 249.312C470.974 248.64 470.67 247.952 470.318 247.248C469.966 246.544 469.63 245.936 469.31 245.424C468.286 243.568 467.006 241.568 465.47 239.424C463.966 237.28 462.414 235.04 460.814 232.704C459.214 230.368 457.774 228 456.494 225.6L457.166 225.504L455.87 237.936C455.646 240.144 455.518 241.968 455.486 243.408C455.454 244.816 455.486 245.936 455.582 246.768C455.678 247.6 455.79 248.24 455.918 248.688C456.046 249.136 456.158 249.504 456.254 249.792C456.382 250.048 456.446 250.336 456.446 250.656C456.446 251.008 456.254 251.312 455.87 251.568C455.518 251.792 455.07 251.984 454.526 252.144C454.014 252.304 453.502 252.416 452.99 252.48C452.478 252.544 452.078 252.576 451.79 252.576ZM486.213 252.576C485.637 252.576 485.189 252.224 484.869 251.52C484.581 250.816 484.437 250.032 484.437 249.168C484.437 247.92 484.581 245.888 484.869 243.072L487.269 219.36H494.661C496.933 219.36 498.725 219.328 500.037 219.264C501.381 219.168 502.389 219.088 503.061 219.024C503.765 218.928 504.277 218.88 504.597 218.88C504.949 218.88 505.189 218.944 505.317 219.072C505.477 219.168 505.557 219.456 505.557 219.936C505.557 220.512 505.445 221.136 505.221 221.808C504.997 222.48 504.693 223.056 504.309 223.536C503.957 224.016 503.541 224.256 503.061 224.256C502.741 224.256 502.213 224.208 501.477 224.112C500.741 224.016 499.909 223.904 498.981 223.776L492.741 222.96L490.581 244.368C490.517 245.04 490.485 245.712 490.485 246.384C490.485 247.056 490.533 247.728 490.629 248.4L500.901 246.384C501.477 246.256 501.957 246.16 502.341 246.096C502.757 246 503.029 245.952 503.157 245.952C503.541 245.952 503.733 246.176 503.733 246.624C503.733 247.424 503.589 248.24 503.301 249.072C503.045 249.904 502.677 250.608 502.197 251.184C501.717 251.728 501.125 252 500.421 252H498.981C495.397 252 492.581 252.096 490.533 252.288C488.485 252.48 487.045 252.576 486.213 252.576ZM488.661 236.88L489.285 233.184H491.589C492.965 233.184 494.261 233.136 495.477 233.04C496.693 232.944 497.717 232.848 498.549 232.752C499.381 232.656 499.909 232.608 500.133 232.608C500.389 232.608 500.581 232.688 500.709 232.848C500.837 232.976 500.901 233.168 500.901 233.424C500.901 233.904 500.581 234.4 499.941 234.912C499.301 235.424 498.501 235.856 497.541 236.208C496.613 236.56 495.701 236.752 494.805 236.784L488.661 236.88ZM519.15 239.472L514.83 229.2C514.19 227.664 513.598 226.416 513.054 225.456C512.542 224.464 511.966 223.712 511.326 223.2C510.526 222.56 509.998 222.096 509.742 221.808C509.486 221.52 509.358 221.216 509.358 220.896C509.358 220.608 509.63 220.304 510.174 219.984C510.718 219.632 511.342 219.328 512.046 219.072C512.75 218.816 513.342 218.688 513.822 218.688C515.134 218.688 516.222 219.232 517.086 220.32C517.982 221.376 518.75 222.816 519.39 224.64L522.942 234.624L521.502 235.68L526.302 228.288C527.198 226.944 527.742 225.776 527.934 224.784C528.158 223.792 528.302 222.96 528.366 222.288C528.43 221.712 528.782 221.216 529.422 220.8C530.062 220.352 530.814 219.968 531.678 219.648C532.542 219.328 533.358 219.088 534.126 218.928C534.926 218.768 535.518 218.688 535.902 218.688C536.478 218.688 536.766 218.944 536.766 219.456C536.766 219.776 536.638 220.176 536.382 220.656C536.126 221.136 535.774 221.68 535.326 222.288L523.23 239.472H519.15ZM518.91 252.384C518.334 252.384 517.934 252.128 517.71 251.616C517.486 251.104 517.374 250.416 517.374 249.552C517.374 248.912 517.422 248.192 517.518 247.392L518.814 235.728L524.526 236.592L522.798 252.384H518.91Z" fill="#252B42"/>
<g opacity="0.56">
<path d="M184.485 50.1837C196.311 81.0618 309.953 65.13 314.761 36.4692C322.34 -8.69828 218.942 -4.59215 204.204 10.1899C203.659 10.7374 203.748 11.7487 204.204 11.5313C244.142 -7.49381 316.886 4.52351 310.723 36.4692C303.617 60.8049 187.186 78.2149 186.714 44.7088C186.403 22.6476 238.531 1.86818 276.24 8.49273C277.367 8.21898 276.479 7.02197 275.243 6.76813C234.807 -0.301729 175.559 20.7233 184.485 50.1837Z" fill="#252B42"/>
</g>
</svg>
