<svg width="402" height="456" viewBox="0 0 402 456" fill="none" xmlns="http://www.w3.org/2000/svg">
<path d="M401.806 209.206C401.806 209.206 401.402 209.1 400.679 208.956C399.654 208.753 398.602 208.724 397.567 208.87C396.043 209.086 394.607 209.714 393.414 210.684C391.97 211.883 390.955 213.518 390.524 215.341L390.351 216.032L390.081 215.379C389.368 213.645 388.146 212.165 386.574 211.136C385.288 210.297 383.809 209.798 382.277 209.686C380.853 209.613 379.428 209.792 378.066 210.214C378.397 210.006 378.758 209.851 379.136 209.753C380.157 209.433 381.227 209.299 382.296 209.359C383.885 209.459 385.42 209.972 386.747 210.847C388.415 211.904 389.711 213.45 390.457 215.274H390.013V215.226C390.477 213.3 391.572 211.583 393.125 210.348C394.179 209.519 395.412 208.946 396.726 208.673C398.04 208.399 399.4 208.434 400.698 208.774C401.089 208.855 401.464 209.001 401.806 209.206Z" fill="#E0E0E0"/>
<path d="M42.8003 152.653C42.8003 152.653 42.3956 152.548 41.673 152.403C40.648 152.2 39.5959 152.171 38.5611 152.317C37.0356 152.529 35.5986 153.157 34.4085 154.132C32.964 155.331 31.9496 156.965 31.5181 158.788V158.836L31.3447 159.528L31.0749 158.875C30.3621 157.14 29.1396 155.661 27.5679 154.631C26.2822 153.792 24.8035 153.293 23.2709 153.181C21.8472 153.109 20.4218 153.287 19.0605 153.709C19.3654 153.503 19.7 153.344 20.0529 153.239C21.0739 152.919 22.1445 152.785 23.2131 152.845C24.8296 152.91 26.3994 153.404 27.7606 154.276C29.4255 155.335 30.7211 156.881 31.47 158.702H31.0268V158.654C31.49 156.728 32.5853 155.012 34.1388 153.776C35.1949 152.953 36.4305 152.388 37.746 152.128C39.0614 151.868 40.4198 151.919 41.7116 152.279C42.0925 152.344 42.4602 152.47 42.8003 152.653Z" fill="#E0E0E0"/>
<path d="M292.039 132.826C291.72 133.24 291.375 133.635 291.008 134.007C290.073 135.079 289.229 136.225 288.484 137.435C285.999 141.419 284.696 146.023 284.726 150.714V150.877H284.264C283.544 146.277 281.398 142.017 278.126 138.693C276.747 137.348 275.244 136.136 273.637 135.073C273.637 135.073 273.772 135.073 274.012 135.236C274.253 135.399 274.591 135.534 274.976 135.812C276.182 136.575 277.302 137.463 278.319 138.462C281.725 141.783 283.956 146.116 284.678 150.81H284.216V150.647C284.186 145.877 285.559 141.204 288.166 137.205C288.942 136 289.836 134.874 290.835 133.844C291.181 133.47 291.49 133.21 291.682 133.028C291.791 132.944 291.911 132.876 292.039 132.826Z" fill="#E0E0E0"/>
<path d="M325.614 362.906C310.44 366.487 298.859 381.561 299.341 397.116C289.619 386.439 271.843 384.259 259.839 392.315C247.834 400.37 243.045 417.538 249.24 430.567C234.875 419.391 211.511 422.492 200.576 437.019C199.325 432.425 197.005 428.189 193.804 424.655C190.602 421.122 186.61 418.391 182.15 416.684C177.691 414.977 172.89 414.342 168.138 414.83C163.386 415.319 158.817 416.918 154.802 419.497C152.21 403.299 139.088 389.281 123.007 385.575C106.927 381.869 89.0067 388.724 79.5359 402.137C75.5153 398.218 70.6426 395.274 65.296 393.535C59.9494 391.795 54.2725 391.307 48.7058 392.108C43.1392 392.908 37.8324 394.976 33.1973 398.151C28.5621 401.325 24.7233 405.521 21.9785 410.414L31.7191 413.544C40.6151 415.267 48.9247 419.218 55.8657 425.025C62.8066 430.832 68.1506 438.303 71.3946 446.736C75.8889 441.838 81.5017 438.093 87.7572 435.817C94.0128 433.54 100.727 432.801 107.33 433.66C113.934 434.519 120.232 436.952 125.692 440.753C131.151 444.553 135.611 449.609 138.693 455.492H213.698C232.37 455.339 246.62 456.337 263.885 455.492C270.706 431.556 302.106 410.279 325.701 418.402C328.2 409.341 333.095 401.114 339.874 394.581C346.653 388.048 355.068 383.449 364.239 381.264C357.553 367.418 340.625 359.353 325.614 362.906Z" fill="#EBEBEB"/>
<path d="M364.886 381.091L364.279 381.225C364.356 381.379 364.443 381.533 364.511 381.686L364.886 381.091Z" fill="#EBEBEB"/>
<path d="M171.027 336.694C171.605 332.537 165.709 329.109 161.287 328.754C159.167 328.59 156.98 328.907 154.976 328.216C150.64 326.709 148.916 321.13 144.686 319.354C141.526 318.019 137.884 319.21 134.82 320.746C131.756 322.282 128.731 324.212 125.301 324.433C122.324 324.625 119.087 323.521 116.485 324.971C114.559 326.056 113.528 328.283 111.736 329.599C109.944 330.914 107.699 331.154 105.531 331.279C103.363 331.404 101.109 331.413 99.1335 332.316C97.1584 333.218 95.5205 335.302 95.9252 337.433L171.027 336.694Z" fill="#EBEBEB"/>
<path d="M381.419 102.687C382.103 97.7328 375.099 93.6714 369.858 93.2489C367.343 93.0473 364.732 93.4218 362.362 92.596C357.207 90.8102 355.146 84.1756 350.116 82.0344C346.359 80.4502 342.033 81.8616 338.391 83.6859C334.749 85.5102 331.136 87.8145 327.07 88.0738C323.525 88.3042 319.681 86.9888 316.578 88.7171C314.276 90.0037 313.062 92.6536 310.932 94.2187C308.803 95.7837 306.115 96.0718 303.552 96.2062C300.989 96.3406 298.292 96.379 295.941 97.4544C293.59 98.5297 291.644 100.997 292.135 103.532L381.419 102.687Z" fill="#EBEBEB"/>
<path d="M107.082 76.8501C107.805 71.6365 100.424 67.3446 94.8748 66.8934C92.2253 66.6821 89.4698 67.0854 86.9648 66.2213C81.5309 64.301 79.3631 57.3399 74.064 55.1124C70.1042 53.4417 65.5374 54.93 61.7028 56.8503C57.8682 58.7705 54.0625 61.1997 49.7654 61.4781C46.0368 61.7182 41.9807 60.3356 38.7145 62.1502C36.2769 63.5041 35.0052 66.3077 32.7603 67.9111C30.5154 69.5146 27.7021 69.8314 24.9852 70.0138C22.2682 70.1963 19.4356 70.1867 16.9595 71.3196C14.4834 72.4526 12.4312 75.0642 12.9418 77.7334L107.082 76.8501Z" fill="#EBEBEB"/>
<path d="M399.136 275.37C400.1 268.341 390.157 262.561 382.68 261.928C379.106 261.64 375.406 262.187 372.025 260.968C364.702 258.433 361.783 249.004 354.634 245.999C349.296 243.752 343.15 245.749 337.966 248.351C332.783 250.953 327.676 254.218 321.886 254.583C316.857 254.909 311.394 253.046 306.991 255.495C303.715 257.319 301.99 261.092 298.965 263.31C295.94 265.528 292.153 265.941 288.483 266.191C284.812 266.44 281.016 266.431 277.673 267.957C274.329 269.484 271.564 272.998 272.258 276.599L399.136 275.37Z" fill="#F5F5F5"/>
<path d="M118.798 225.423C119.684 219.057 110.666 213.824 103.902 213.286C100.665 213.027 97.3123 213.517 94.2677 212.451C87.6391 210.147 84.9896 201.621 78.5247 198.894C73.7074 196.868 68.1193 198.673 63.4369 201.025C58.7545 203.378 54.1106 206.335 48.879 206.671C44.3218 206.959 39.3792 205.279 35.3905 207.497C32.423 209.148 30.8622 212.557 28.1259 214.573C25.3897 216.589 21.9598 216.954 18.6358 217.137C15.3119 217.319 11.8916 217.348 8.84703 218.731C5.80248 220.113 3.31675 223.301 3.943 226.556L118.798 225.423Z" fill="#EBEBEB"/>
<path d="M417 399.295C417 399.295 416.518 398.777 415.622 397.75C415.169 397.241 414.659 396.578 413.898 395.887L412.741 394.744C412.307 394.296 411.847 393.873 411.364 393.477L409.774 392.114C409.225 391.624 408.57 391.153 407.934 390.693C406.652 389.684 405.13 388.772 403.521 387.726C399.725 385.486 395.671 383.71 391.449 382.435C386.205 380.83 380.737 380.075 375.253 380.198L372.989 380.265L370.686 380.496L369.52 380.611L368.355 380.813L365.994 381.235C362.728 381.965 359.54 383.006 356.475 384.346C353.217 385.802 350.112 387.577 347.207 389.646C344.142 391.868 341.308 394.39 338.747 397.174C333.233 403.225 329.238 410.494 327.09 418.383L327.032 418.604L326.82 418.527C320.997 416.643 314.787 416.279 308.784 417.471C302.452 418.697 296.392 421.045 290.892 424.403C285.097 427.875 279.894 432.244 275.477 437.346C270.827 442.605 267.355 448.791 265.293 455.493L265.245 455.656H265.071C255.572 456.136 245.802 456.03 235.753 455.838C230.753 455.752 225.695 455.666 220.588 455.646H205.173H139.879H139.734L139.667 455.512C136.341 449.272 131.469 443.984 125.514 440.15C119.838 436.427 113.322 434.174 106.553 433.592C100.286 433.134 93.997 434.082 88.1465 436.365C82.296 438.648 77.0331 442.208 72.7447 446.784L72.5134 447.024L72.3978 446.717C69.5971 439.45 65.2103 432.894 59.5548 427.524C56.9372 425.049 54.0921 422.824 51.0571 420.879C48.1875 419.081 45.1555 417.554 42.0005 416.319C39.0325 415.168 35.9657 414.287 32.838 413.688L30.5738 413.352L29.4659 413.198L28.3482 413.112L26.1612 412.939H24.003C18.7811 412.901 13.5837 413.652 8.5876 415.167C4.56034 416.354 0.681581 417.993 -2.97397 420.054C-4.52515 421.014 -5.98961 421.849 -7.22284 422.781C-8.37648 423.572 -9.48911 424.421 -10.5564 425.325C-11.5199 426.083 -12.3099 426.89 -13.0325 427.524C-13.5922 428.041 -14.126 428.586 -14.6319 429.156C-15.5279 430.116 -16 430.567 -16 430.567C-16 430.567 -15.5568 430.068 -14.6801 429.118C-14.1528 428.515 -13.5931 427.941 -13.0036 427.399C-12.2907 426.756 -11.5392 425.939 -10.5372 425.171C-9.47349 424.258 -8.36409 423.399 -7.21321 422.598C-5.97997 421.638 -4.52515 420.803 -2.97397 419.843C0.678104 417.755 4.557 416.09 8.5876 414.879C13.5818 413.35 18.7786 412.579 24.003 412.593H26.1612L28.3675 412.766L29.4851 412.853L30.6027 413.006L32.8765 413.342C36.0261 413.933 39.1154 414.807 42.1065 415.954C45.2945 417.204 48.3587 418.746 51.2594 420.563C54.3188 422.513 57.1866 424.748 59.8246 427.236C65.5203 432.661 69.9364 439.279 72.7543 446.611L72.4074 446.544C76.7395 441.918 82.0552 438.317 87.9651 436.005C93.875 433.692 100.229 432.727 106.562 433.179C113.409 433.76 120.002 436.034 125.745 439.794C131.771 443.671 136.702 449.019 140.072 455.329L139.85 455.195H205.134H220.55C225.666 455.195 230.724 455.301 235.724 455.397C245.735 455.589 255.523 455.694 265.004 455.214L264.782 455.397C266.869 448.63 270.38 442.384 275.082 437.077C279.539 431.918 284.795 427.504 290.651 424C296.198 420.615 302.311 418.254 308.697 417.029C314.773 415.826 321.058 416.203 326.945 418.124L326.675 418.268C328.852 410.318 332.89 402.997 338.458 396.905C341.042 394.111 343.899 391.579 346.985 389.348C349.914 387.266 353.045 385.481 356.331 384.02C359.436 382.681 362.662 381.639 365.965 380.909L368.345 380.496L369.52 380.294L370.696 380.179L373.008 379.958L375.282 379.891C380.795 379.783 386.29 380.561 391.555 382.195C395.789 383.493 399.852 385.292 403.656 387.553C405.265 388.609 406.787 389.54 408.059 390.558C408.705 391.067 409.35 391.518 409.899 391.998L411.489 393.381C411.972 393.777 412.429 394.204 412.857 394.658L414.004 395.81C414.61 396.416 415.179 397.057 415.709 397.73C416.547 398.748 417 399.295 417 399.295Z" fill="#263238"/>
<path d="M200.221 37.8585L205.251 48.036C205.43 48.3908 205.693 48.6973 206.017 48.9296C206.341 49.1619 206.715 49.3131 207.11 49.3706L218.373 51.0028C218.826 51.071 219.252 51.2637 219.601 51.5595C219.951 51.8552 220.211 52.2422 220.352 52.677C220.493 53.1119 220.51 53.5773 220.4 54.021C220.291 54.4648 220.059 54.8693 219.732 55.1891L211.59 63.1103C211.302 63.386 211.086 63.7282 210.962 64.1066C210.838 64.4849 210.809 64.888 210.877 65.2802L212.746 76.4275C212.824 76.8791 212.773 77.3432 212.6 77.7676C212.427 78.192 212.138 78.5597 211.767 78.8293C211.395 79.0989 210.955 79.2596 210.497 79.2933C210.038 79.3269 209.579 79.2322 209.172 79.0199L199.094 73.7391C198.74 73.5548 198.347 73.4586 197.948 73.4586C197.548 73.4586 197.155 73.5548 196.801 73.7391L186.733 79.0487C186.326 79.261 185.867 79.3557 185.408 79.3221C184.95 79.2884 184.51 79.1277 184.138 78.8581C183.767 78.5885 183.478 78.2208 183.305 77.7964C183.132 77.372 183.081 76.9079 183.158 76.4563L185.085 65.2802C185.152 64.888 185.121 64.4857 184.997 64.1077C184.873 63.7298 184.659 63.3875 184.372 63.1103L176.221 55.1891C175.894 54.8686 175.662 54.4634 175.553 54.0189C175.444 53.5745 175.461 53.1085 175.604 52.6734C175.746 52.2384 176.007 51.8515 176.358 51.5563C176.709 51.2612 177.135 51.0695 177.59 51.0028L188.852 49.3706C189.246 49.314 189.62 49.163 189.942 48.9305C190.265 48.6981 190.525 48.3911 190.702 48.036L195.741 37.8585C195.939 37.4318 196.254 37.0705 196.651 36.8172C197.048 36.5639 197.51 36.4292 197.981 36.4292C198.453 36.4292 198.914 36.5639 199.311 36.8172C199.708 37.0705 200.024 37.4318 200.221 37.8585Z" fill="#FF725E"/>
<path d="M180.952 44.5796C180.865 44.6756 174.468 38.7611 166.683 31.368C158.898 23.9749 152.655 17.9259 152.751 17.8011C152.847 17.6763 159.274 23.6196 167.068 31.0127C174.863 38.4058 181.087 44.4836 180.952 44.5796Z" fill="#FF725E"/>
<path d="M167.636 50.8396C167.636 50.974 162.134 50.7532 155.381 50.3499C148.627 49.9467 143.145 49.4954 143.145 49.3898C143.145 49.2842 148.646 49.4666 155.409 49.8795C162.173 50.2923 167.636 50.7052 167.636 50.8396Z" fill="#FF725E"/>
<path d="M188.467 32.6163C187.14 30.2513 185.959 27.808 184.931 25.3C183.749 22.8581 182.717 20.3476 181.838 17.7821C183.175 20.1433 184.359 22.587 185.383 25.0984C186.566 27.5385 187.596 30.0492 188.467 32.6163Z" fill="#FF725E"/>
<path d="M196.993 0C197.128 0 197.243 6.72101 197.243 14.9399C197.243 23.1587 197.128 29.8893 196.993 29.8893C196.858 29.8893 196.742 23.1683 196.742 14.9399C196.742 6.71141 196.858 0 196.993 0Z" fill="#FF725E"/>
<path d="M214.028 18.0603C213.121 20.5402 212.059 22.9612 210.849 25.3094C209.782 27.725 208.566 30.0722 207.207 32.3377C208.116 29.8567 209.181 27.4355 210.396 25.0886C211.458 22.6722 212.671 20.3248 214.028 18.0603Z" fill="#FF725E"/>
<path d="M241.553 22.9474C241.63 23.0626 234.279 28.305 225.174 34.6612C216.069 41.0173 208.554 46.0869 208.477 45.9717C208.4 45.8565 215.742 40.6141 224.856 34.2483C233.97 27.8825 241.466 22.8322 241.553 22.9474Z" fill="#FF725E"/>
<path d="M242.277 44.1861C239.635 45.481 236.924 46.6285 234.155 47.6234C231.445 48.7448 228.672 49.7066 225.85 50.5039C228.483 49.2295 231.185 48.1012 233.943 47.1241C236.66 45.9821 239.443 45.0011 242.277 44.1861Z" fill="#FF725E"/>
<path d="M178.207 64.6466C178.207 64.7714 168.697 68.1703 156.866 72.2221C145.035 76.274 135.4 79.4616 135.361 79.308C135.323 79.1544 144.871 75.7843 156.702 71.7229C168.534 67.6615 178.168 64.5122 178.207 64.6466Z" fill="#FF725E"/>
<path d="M253.521 75.1119C253.521 75.2463 245.081 73.0092 234.743 70.1191C224.405 67.2291 216.051 64.7807 216.09 64.6463C216.129 64.5119 224.54 66.749 234.878 69.6391C245.215 72.5291 253.559 74.9775 253.521 75.1119Z" fill="#FF725E"/>
<path d="M170.354 92.4623C172.14 90.5922 174.042 88.8349 176.048 87.2008C177.947 85.4367 179.961 83.8008 182.079 82.304C180.292 84.1804 178.387 85.941 176.375 87.5752C174.474 89.3304 172.463 90.9627 170.354 92.4623Z" fill="#FF725E"/>
<path d="M197.793 115.976C197.658 115.976 197.59 107.767 197.639 97.6564C197.687 87.5461 197.851 79.3273 197.985 79.3369C198.12 79.3465 198.197 87.5365 198.14 97.6564C198.082 107.776 197.928 115.976 197.793 115.976Z" fill="#FF725E"/>
<path d="M226.235 94.5167C224.155 92.9017 222.179 91.1572 220.32 89.2935C218.318 87.5552 216.432 85.6886 214.674 83.7054C216.754 85.3204 218.73 87.0649 220.59 88.9286C222.592 90.6669 224.477 92.5335 226.235 94.5167Z" fill="#FF725E"/>
<path d="M246.844 59.9129L246.93 61.5643C246.933 61.6229 246.95 61.6798 246.981 61.7301C247.011 61.7804 247.053 61.8224 247.104 61.8524L248.51 62.7165C248.57 62.7503 248.618 62.8003 248.65 62.8606C248.681 62.9209 248.695 62.9889 248.689 63.0567C248.683 63.1244 248.657 63.189 248.615 63.2427C248.573 63.2965 248.517 63.3371 248.453 63.3598L246.901 63.9455C246.848 63.9665 246.801 64.0002 246.764 64.0438C246.727 64.0873 246.701 64.1393 246.689 64.1952L246.294 65.8082C246.278 65.8728 246.245 65.9316 246.197 65.9779C246.149 66.0243 246.089 66.0563 246.023 66.0703C245.958 66.0843 245.89 66.0797 245.827 66.0572C245.765 66.0346 245.71 65.9949 245.668 65.9426L244.628 64.6656C244.591 64.6196 244.544 64.5833 244.49 64.5599C244.437 64.5364 244.378 64.5266 244.319 64.5312L242.662 64.656C242.596 64.6613 242.529 64.648 242.47 64.6176C242.411 64.5871 242.362 64.5408 242.328 64.4839C242.294 64.4269 242.276 64.3616 242.277 64.2953C242.279 64.229 242.298 64.1644 242.335 64.1087L243.24 62.7165C243.268 62.6666 243.283 62.6104 243.283 62.5533C243.283 62.4962 243.268 62.44 243.24 62.3901L242.604 60.8538C242.582 60.7924 242.577 60.7261 242.589 60.6619C242.601 60.5977 242.631 60.5379 242.674 60.4889C242.717 60.4398 242.773 60.4032 242.835 60.383C242.898 60.3628 242.964 60.3596 243.028 60.3738L244.637 60.8058C244.694 60.8193 244.753 60.8194 244.81 60.806C244.867 60.7927 244.92 60.7663 244.965 60.729L246.227 59.6633C246.276 59.6108 246.34 59.5745 246.411 59.5591C246.481 59.5437 246.555 59.5499 246.621 59.577C246.688 59.604 246.745 59.6506 246.785 59.7106C246.825 59.7705 246.845 59.8411 246.844 59.9129Z" fill="#FF725E"/>
<path d="M257.479 42.5053L258.24 43.2926C258.266 43.3199 258.298 43.3404 258.333 43.3521C258.368 43.3639 258.406 43.3665 258.443 43.3599L259.522 43.187C259.566 43.1805 259.61 43.1861 259.651 43.2032C259.692 43.2203 259.727 43.2482 259.753 43.2839C259.778 43.3196 259.794 43.3617 259.797 43.4055C259.801 43.4494 259.792 43.4934 259.772 43.5327L259.252 44.4928C259.234 44.5267 259.224 44.5647 259.224 44.6032C259.224 44.6418 259.234 44.6798 259.252 44.7137L259.753 45.6738C259.771 45.7135 259.778 45.7574 259.773 45.8008C259.768 45.8442 259.751 45.8854 259.725 45.9199C259.698 45.9545 259.662 45.9811 259.621 45.997C259.58 46.0128 259.536 46.0173 259.493 46.0099L258.423 45.8178C258.386 45.81 258.347 45.8111 258.311 45.8211C258.274 45.8312 258.24 45.8498 258.212 45.8754L257.441 46.6532C257.409 46.6835 257.37 46.7046 257.327 46.7143C257.284 46.7239 257.239 46.7217 257.198 46.7078C257.156 46.694 257.119 46.6691 257.09 46.6357C257.062 46.6024 257.043 46.5619 257.036 46.5187L256.892 45.4338C256.887 45.3968 256.873 45.3615 256.851 45.3313C256.829 45.3011 256.8 45.2769 256.766 45.2609L255.803 44.7617C255.762 44.7437 255.727 44.7142 255.702 44.6767C255.677 44.6392 255.664 44.5953 255.664 44.5504C255.664 44.5056 255.677 44.4617 255.702 44.4242C255.727 44.3867 255.762 44.3571 255.803 44.3392L256.766 43.8687C256.803 43.855 256.834 43.8316 256.858 43.8011C256.882 43.7706 256.897 43.7342 256.901 43.6959L257.065 42.6301C257.072 42.5858 257.092 42.5443 257.122 42.5105C257.151 42.4767 257.19 42.4519 257.233 42.4389C257.276 42.4259 257.322 42.4252 257.366 42.4369C257.409 42.4487 257.449 42.4724 257.479 42.5053Z" fill="#FF725E"/>
<path d="M135.293 29.4384L136.045 30.2257C136.069 30.2546 136.1 30.2762 136.136 30.2881C136.172 30.2999 136.21 30.3016 136.247 30.2929L137.326 30.1201C137.37 30.1136 137.414 30.1192 137.455 30.1363C137.496 30.1534 137.531 30.1813 137.557 30.217C137.583 30.2527 137.598 30.2947 137.602 30.3386C137.605 30.3825 137.596 30.4265 137.577 30.4658L137.056 31.4259C137.038 31.4598 137.028 31.4977 137.028 31.5363C137.028 31.5749 137.038 31.6129 137.056 31.6467L137.557 32.6069C137.575 32.6466 137.582 32.6905 137.577 32.7339C137.572 32.7773 137.556 32.8184 137.529 32.853C137.502 32.8876 137.466 32.9142 137.426 32.9301C137.385 32.9459 137.34 32.9504 137.297 32.9429L136.228 32.7509C136.19 32.7451 136.151 32.7481 136.114 32.7598C136.077 32.7714 136.043 32.7914 136.016 32.8181L135.245 33.5862C135.213 33.6166 135.174 33.6377 135.131 33.6473C135.088 33.657 135.044 33.6547 135.002 33.6409C134.96 33.6271 134.923 33.6021 134.895 33.5688C134.866 33.5355 134.847 33.495 134.84 33.4518L134.705 32.386C134.7 32.3481 134.686 32.3119 134.664 32.2803C134.642 32.2486 134.614 32.2224 134.58 32.2036L133.617 31.7139C133.578 31.6934 133.547 31.6629 133.524 31.6257C133.502 31.5885 133.49 31.546 133.49 31.5027C133.49 31.4594 133.502 31.4169 133.524 31.3797C133.547 31.3425 133.578 31.3121 133.617 31.2915L134.58 30.821C134.616 30.804 134.647 30.7785 134.671 30.7467C134.694 30.7148 134.709 30.6777 134.715 30.6386L134.879 29.5632C134.886 29.5189 134.906 29.4774 134.935 29.4436C134.965 29.4098 135.004 29.3849 135.047 29.3719C135.09 29.3589 135.136 29.3583 135.18 29.37C135.223 29.3818 135.262 29.4055 135.293 29.4384Z" fill="#FF725E"/>
<path d="M39.427 261.573C39.427 261.573 39.0223 261.467 38.2901 261.323C37.2688 261.115 36.2191 261.086 35.1877 261.237C33.6593 261.449 32.2192 262.077 31.0256 263.051C29.5865 264.251 28.5731 265.88 28.1352 267.698V267.756L27.9521 268.438L27.692 267.785C26.9755 266.052 25.7495 264.576 24.1754 263.551C22.8887 262.712 21.4109 262.21 19.8783 262.091C18.4539 262.019 17.0281 262.201 15.668 262.629C15.9985 262.421 16.3593 262.266 16.7374 262.168C17.7588 261.849 18.8286 261.713 19.8976 261.765C21.4984 261.843 23.0516 262.333 24.4066 263.186C26.0725 264.246 27.3709 265.791 28.1256 267.612H27.6824V267.554C28.142 265.642 29.2224 263.934 30.7558 262.696C31.8146 261.866 33.0528 261.294 34.3723 261.024C35.6918 260.754 37.0563 260.794 38.3575 261.141C38.7354 261.225 39.0967 261.371 39.427 261.573Z" fill="#263238"/>
<path d="M86.058 257.895C85.6082 258.485 85.1224 259.046 84.6032 259.576C83.2769 261.091 82.0781 262.713 81.0191 264.424C77.5039 270.07 75.6603 276.59 75.7008 283.234V283.474L75.036 283.531C74.028 277.009 70.9957 270.966 66.3648 266.249C64.4143 264.345 62.2886 262.629 60.0156 261.122C60.2015 261.171 60.3775 261.253 60.5359 261.362C61.0268 261.606 61.5029 261.878 61.9618 262.178C63.6708 263.251 65.2571 264.506 66.6924 265.922C71.5252 270.627 74.6906 276.77 75.7104 283.426L75.0553 283.474V283.234C75.0056 276.47 76.9485 269.84 80.6434 264.165C81.7433 262.444 83.0116 260.836 84.4298 259.364C84.9212 258.836 85.3933 258.481 85.6245 258.222C85.8557 257.963 86.0484 257.895 86.058 257.895Z" fill="#263238"/>
<path d="M324.39 200.824C324.39 200.872 323.581 200.546 322.087 200.219C319.983 199.761 317.814 199.676 315.68 199.97C312.501 200.385 309.499 201.672 307.009 203.685C303.976 206.153 301.837 209.542 300.92 213.335V213.44L300.737 214.132L300.477 213.479C298.995 209.879 296.447 206.814 293.174 204.693C290.507 202.96 287.438 201.939 284.262 201.727C282.121 201.576 279.97 201.774 277.893 202.312C276.419 202.696 275.648 203.032 275.629 202.994C275.801 202.883 275.985 202.793 276.178 202.725C276.721 202.495 277.277 202.299 277.845 202.139C280.445 201.377 283.179 201.178 285.863 201.556C288.546 201.933 291.118 202.879 293.405 204.329C296.767 206.484 299.386 209.613 300.91 213.296H300.467V213.191C301.406 209.298 303.611 205.824 306.739 203.311C308.879 201.613 311.384 200.431 314.058 199.859C316.733 199.286 319.504 199.337 322.155 200.008C322.729 200.144 323.292 200.32 323.841 200.536C324.029 200.621 324.213 200.717 324.39 200.824Z" fill="#263238"/>
<path d="M388.47 165.779C388.47 165.779 388.017 165.654 387.198 165.491C386.045 165.25 384.858 165.214 383.691 165.385C381.967 165.619 380.343 166.328 378.999 167.43C377.346 168.77 376.181 170.616 375.685 172.682V172.74L375.512 173.431L375.242 172.778C374.44 170.813 373.055 169.138 371.272 167.977C369.832 167.035 368.174 166.473 366.455 166.345C365.285 166.255 364.108 166.349 362.967 166.624C362.158 166.825 361.724 166.998 361.715 166.96C361.806 166.89 361.906 166.835 362.014 166.796C362.307 166.66 362.609 166.544 362.919 166.451C364.357 166.018 365.871 165.898 367.359 166.101C368.847 166.303 370.273 166.822 371.542 167.622C373.416 168.809 374.874 170.547 375.714 172.596H375.271V172.538C375.79 170.375 377.017 168.446 378.759 167.056C379.944 166.121 381.331 165.473 382.811 165.163C384.291 164.853 385.822 164.89 387.285 165.27C387.614 165.35 387.936 165.456 388.249 165.587C388.332 165.639 388.407 165.704 388.47 165.779Z" fill="#263238"/>
<path d="M346.571 151.434C346.571 151.434 346.137 151.934 345.337 152.826C344.228 154.095 343.223 155.45 342.331 156.878C339.384 161.603 337.838 167.062 337.87 172.625V172.826H337.398C336.944 169.834 335.966 166.945 334.508 164.291C333.327 162.125 331.848 160.134 330.115 158.376C328.938 157.179 327.647 156.098 326.261 155.15C325.739 154.828 325.234 154.478 324.748 154.103C324.896 154.157 325.038 154.224 325.172 154.305C325.442 154.468 325.866 154.67 326.357 154.996C327.784 155.897 329.109 156.95 330.307 158.136C334.326 162.078 336.961 167.206 337.822 172.759H337.36V172.557C337.327 166.907 338.943 161.369 342.013 156.619C342.936 155.193 343.994 153.858 345.173 152.634C345.578 152.183 345.935 151.886 346.137 151.674C346.272 151.578 346.417 151.498 346.571 151.434Z" fill="#263238"/>
<path d="M158.127 178.52H238.76C241.862 178.52 241.862 173.719 238.76 173.719H158.127C155.025 173.719 155.015 178.52 158.127 178.52Z" fill="#455A64"/>
<path d="M160.91 86.7491H155.129V455.426H160.91V86.7491Z" fill="#455A64"/>
<path d="M160.612 455.425C160.477 455.425 160.361 372.939 160.361 271.212C160.361 169.485 160.477 86.9889 160.612 86.9889C160.747 86.9889 160.862 169.456 160.862 271.212C160.862 372.968 160.718 455.425 160.612 455.425Z" fill="#263238"/>
<path d="M158.127 141.218H238.76C241.862 141.218 241.862 136.418 238.76 136.418H158.127C155.025 136.418 155.015 141.218 158.127 141.218Z" fill="#455A64"/>
<path d="M241.591 87.4983H235.811V455.416H241.591V87.4983Z" fill="#455A64"/>
<path d="M235.956 409.07C235.811 409.07 235.705 337.222 235.705 248.61C235.705 159.998 235.811 88.1316 235.956 88.1316C236.1 88.1316 236.206 159.97 236.206 248.61C236.206 337.251 236.09 409.07 235.956 409.07Z" fill="#263238"/>
<path d="M158.02 424.25H238.701C241.794 424.25 241.803 419.449 238.701 419.449H158.02C154.928 419.449 154.918 424.25 158.02 424.25Z" fill="#455A64"/>
<path d="M159.754 349.829H235.55C238.652 349.829 238.652 345.028 235.55 345.028H159.754C156.652 345.028 156.642 349.829 159.754 349.829Z" fill="#455A64"/>
<path d="M158.02 297.818H238.701C241.794 297.818 241.803 293.017 238.701 293.017H158.02C154.928 293.017 154.918 297.818 158.02 297.818Z" fill="#455A64"/>
<path d="M158.02 256.791H238.701C241.794 256.791 241.803 251.99 238.701 251.99H158.02C154.928 251.99 154.918 256.791 158.02 256.791Z" fill="#455A64"/>
<path d="M158.02 216.733H238.701C241.794 216.733 241.803 211.933 238.701 211.933H158.02C154.928 211.933 154.918 216.733 158.02 216.733Z" fill="#455A64"/>
<path d="M158.792 388.177H235.474C238.576 388.177 238.576 383.376 235.474 383.376H158.792C155.689 383.376 155.689 388.177 158.792 388.177Z" fill="#455A64"/>
<path d="M224.432 146.23L219.538 135.371C219.538 135.371 219.798 129.61 218.969 129.072C217.832 128.4 217.553 128.957 217.235 130.897L216.782 133.777C216.782 133.777 214.913 129.716 213.169 129.552C211.984 129.437 211.647 131.473 211.647 131.473C211.647 131.473 209.672 129.639 208.275 130.081C206.878 130.522 207.311 132.423 207.311 132.423C207.113 132.289 206.886 132.202 206.649 132.168C206.411 132.134 206.169 132.154 205.941 132.227C205.712 132.3 205.504 132.424 205.33 132.589C205.157 132.755 205.024 132.957 204.941 133.182C204.122 135.169 207.716 138.184 208.265 139.519C209.412 142.303 206.974 142.399 206.974 142.399C206.974 142.399 200.721 141.602 201.039 143.206C201.357 144.809 203.448 144.8 205.057 144.963C206.386 145.097 211.416 146.345 213.044 146.749C213.386 146.837 213.711 146.98 214.007 147.171L217.746 151.012L224.432 146.23Z" fill="#FFBE9D"/>
<path d="M221.897 395.637L221.685 423.52L206.588 423.702L206.742 395.772L221.897 395.637Z" fill="#FF725E"/>
<path d="M214.239 422.559C214.104 422.559 214.133 416.453 214.239 408.925C214.345 401.398 214.624 395.301 214.75 395.301C214.875 395.301 214.856 401.407 214.702 408.935C214.547 416.462 214.364 422.559 214.239 422.559Z" fill="#263238"/>
<path d="M206.637 414.783C206.73 414.558 206.864 414.353 207.032 414.178C207.435 413.659 207.89 413.183 208.39 412.757C209.127 412.106 209.954 411.566 210.847 411.153C212.404 410.421 214.155 410.205 215.843 410.537C217.532 410.868 219.07 411.731 220.231 412.997C220.673 413.491 221.04 414.048 221.32 414.648C221.438 414.859 221.517 415.09 221.551 415.33C221.089 414.585 220.567 413.879 219.99 413.218C218.502 411.717 216.481 410.861 214.364 410.836C212.244 410.877 210.203 411.643 208.583 413.006C207.321 414.014 206.704 414.831 206.637 414.783Z" fill="#263238"/>
<path opacity="0.3" d="M206.597 405.863L206.578 408.935H221.897V405.863H206.597Z" fill="black"/>
<path d="M206.588 423.703L206.607 420.793L221.705 420.803L221.685 423.52L206.588 423.703Z" fill="#E0E0E0"/>
<path d="M190.228 323.29L190.026 350.04L175.545 350.222L175.689 323.415L190.228 323.29Z" fill="#FF725E"/>
<path d="M182.878 349.109C182.762 349.109 182.781 343.252 182.926 336.032C183.071 328.812 183.292 322.955 183.408 322.955C183.523 322.955 183.514 328.812 183.36 336.041C183.205 343.271 183.003 349.109 182.878 349.109Z" fill="#263238"/>
<path d="M175.594 341.648C175.594 341.648 175.7 341.427 175.97 341.072C176.36 340.575 176.799 340.119 177.28 339.709C177.985 339.086 178.777 338.568 179.631 338.172C181.125 337.466 182.807 337.258 184.429 337.578C186.051 337.898 187.527 338.729 188.639 339.949C189.06 340.421 189.411 340.951 189.68 341.523C189.798 341.727 189.873 341.952 189.901 342.186C189.467 341.466 188.967 340.788 188.408 340.16C186.979 338.717 185.036 337.896 183.003 337.875C180.975 337.911 179.022 338.644 177.473 339.949C176.249 340.918 175.652 341.706 175.594 341.648Z" fill="#263238"/>
<path opacity="0.3" d="M175.545 333.094L175.535 336.041H190.228V333.094H175.545Z" fill="black"/>
<path d="M175.545 350.222L175.555 347.428H190.045L190.026 350.04L175.545 350.222Z" fill="#E0E0E0"/>
<path d="M192.993 143.945L193.378 143.849C193.99 142.824 194.849 141.966 195.877 141.354C196.904 140.742 198.069 140.395 199.265 140.344C201.679 140.283 204.023 141.153 205.807 142.774C207.05 143.878 208.033 145.241 209.276 146.326C209.862 146.915 210.576 147.362 211.362 147.635C212.148 147.908 212.987 147.999 213.813 147.901C214.006 148.506 212.85 148.861 212.946 149.485C212.984 149.633 213.066 149.767 213.181 149.868C213.296 149.969 213.439 150.033 213.592 150.052C214.034 150.085 214.479 150.085 214.921 150.052C215.144 150.034 215.365 150.087 215.556 150.202C215.746 150.318 215.895 150.49 215.981 150.695C216.02 150.911 216 151.133 215.923 151.338C215.503 153.25 214.597 155.022 213.293 156.484C212.635 157.207 211.811 157.759 210.891 158.094C209.971 158.428 208.984 158.535 208.013 158.405C206.506 157.987 205.124 157.209 203.986 156.139L197.049 150.599C195.948 149.793 194.957 148.847 194.101 147.786C193.238 146.701 192.84 145.321 192.993 143.945Z" fill="#263238"/>
<path d="M194.44 144.329C193.508 143.548 192.401 143.001 191.212 142.735C190.619 142.608 190.007 142.602 189.411 142.716C188.815 142.829 188.248 143.061 187.744 143.398C186.897 144.145 186.181 145.028 185.624 146.009C185.344 146.499 184.967 146.927 184.517 147.268C184.066 147.61 183.552 147.857 183.004 147.997C182.807 147.997 182.616 148.058 182.455 148.17C182.194 148.41 182.378 148.88 182.695 149.024C183.03 149.135 183.392 149.135 183.726 149.024C183.17 149.672 182.403 150.104 181.559 150.244C181.667 150.646 181.93 150.989 182.291 151.199C182.651 151.409 183.081 151.47 183.486 151.367C183.112 152.661 182.898 153.996 182.85 155.342C182.809 156.701 183.272 158.027 184.15 159.067C185.114 160.152 186.8 160.757 187.243 162.178" fill="#263238"/>
<path d="M204.161 191.779L186.125 191.549L188.139 176.187C188.139 176.187 186.905 175.918 186.828 169.254C186.751 162.591 186.433 151.252 186.433 151.252C190.234 149.628 194.401 149.045 198.503 149.563C202.605 150.081 206.495 151.682 209.768 154.199L210.732 154.958L204.161 191.779Z" fill="#FFBE9D"/>
<path d="M208.67 163.186C208.786 163.129 213.256 161.823 213.112 166.384C212.967 170.944 208.41 169.859 208.41 169.725C208.41 169.591 208.67 163.186 208.67 163.186Z" fill="#FFBE9D"/>
<path d="M187.213 162.226C187.097 162.178 183.022 161.083 183.176 165.644C183.33 170.205 187.878 169.12 187.878 168.985C187.878 168.851 187.213 162.226 187.213 162.226Z" fill="#FFBE9D"/>
<path d="M210.144 162.677C209.469 166.518 209.604 168.496 208.968 171.05C208.005 175.092 205.962 178.184 202.311 180.2C198.659 182.216 193.736 182.178 190.614 179.432C188.414 177.738 186.965 175.253 186.577 172.509C186.25 169.629 185.402 164.252 185.383 161.372C185.383 156.168 185.527 151.501 185.527 151.501L200.422 148.803L208.901 153.834L210.144 162.677Z" fill="#263238"/>
<path d="M194.777 182.505C195.623 182.754 196.511 182.832 197.388 182.735C198.265 182.638 199.113 182.367 199.884 181.938C199.884 181.823 198.747 182.168 197.34 182.322C195.933 182.476 194.797 182.38 194.777 182.505Z" fill="#263238"/>
<path d="M209.43 169.168C209.863 165.251 210.143 160.776 210.759 156.686C211.155 154.933 211.371 153.144 211.405 151.348C211.27 149.783 210.837 150.263 210.143 148.842C209.276 147.075 205.971 145.894 204.034 145.51C202.098 145.126 201.857 143.446 200.373 144.742C199.835 143.914 199.054 143.272 198.136 142.902C197.218 142.532 196.209 142.453 195.244 142.675C194.28 142.898 193.408 143.411 192.746 144.145C192.085 144.879 191.667 145.798 191.548 146.777C191.012 146.273 190.325 145.959 189.592 145.882C188.859 145.805 188.122 145.97 187.492 146.352C186.863 146.734 186.377 147.311 186.108 147.995C185.84 148.679 185.805 149.432 186.008 150.138C185.474 150.235 184.973 150.463 184.548 150.8C184.124 151.137 183.789 151.573 183.575 152.07C183.36 152.567 183.272 153.109 183.319 153.648C183.365 154.187 183.544 154.706 183.84 155.159C184.534 156.216 185.767 156.801 186.538 157.809C186.95 158.402 187.187 159.097 187.221 159.817C187.255 160.537 187.085 161.252 186.731 161.88" fill="#263238"/>
<path d="M190.23 168.352C190.016 169.709 190.197 171.098 190.75 172.356C191.172 173.663 191.957 174.825 193.014 175.707C192.283 174.592 191.639 173.424 191.087 172.212C190.703 170.949 190.416 169.658 190.23 168.352Z" fill="#455A64"/>
<path d="M188.225 165.03C187.752 166.173 187.651 167.436 187.936 168.64C188.092 169.867 188.635 171.014 189.487 171.914C189.008 170.833 188.627 169.712 188.35 168.563C188.211 167.391 188.169 166.209 188.225 165.03Z" fill="#455A64"/>
<path d="M206.965 149.264C205.886 147.435 204.263 145.986 202.321 145.116C201.345 144.701 200.276 144.552 199.223 144.683C198.17 144.815 197.171 145.223 196.328 145.865" fill="#263238"/>
<path d="M206.618 159.355C206.541 159.355 206.618 158.827 206.762 158.011C206.978 156.971 207.094 155.914 207.109 154.852C207.112 153.806 206.878 152.772 206.425 151.828C206.069 151.117 205.712 150.743 205.77 150.685C205.828 150.628 206.281 150.916 206.733 151.645C207.322 152.612 207.629 153.722 207.62 154.852C207.609 155.953 207.437 157.046 207.109 158.098C206.887 158.904 206.685 159.374 206.618 159.355Z" fill="#455A64"/>
<path d="M203.535 160.862C203.635 160.137 203.836 159.43 204.132 158.76C204.276 158.04 204.523 157.345 204.865 156.695C205.031 157.443 204.95 158.225 204.634 158.923C204.258 160.104 203.66 160.92 203.535 160.862Z" fill="#455A64"/>
<path d="M189.227 159.691C188.75 159.248 188.398 158.689 188.206 158.068C187.603 156.603 187.445 154.994 187.753 153.441C188.072 151.891 188.835 150.467 189.95 149.341C190.373 148.842 190.917 148.458 191.53 148.227C191.578 148.304 190.971 148.717 190.229 149.59C189.243 150.714 188.569 152.076 188.275 153.539C187.98 155.003 188.076 156.518 188.553 157.934C188.909 159 189.304 159.653 189.227 159.691Z" fill="#455A64"/>
<path d="M205.52 142.735C205.005 142.59 204.51 142.384 204.045 142.121C202.927 141.568 201.7 141.267 200.452 141.237C199.843 141.225 199.237 141.341 198.676 141.577C198.115 141.814 197.61 142.166 197.195 142.61C196.882 143.02 196.602 143.453 196.357 143.907C196.341 143.627 196.381 143.347 196.475 143.083C196.57 142.819 196.716 142.577 196.906 142.37C197.275 141.884 197.749 141.487 198.294 141.209C198.962 140.88 199.697 140.71 200.442 140.709C201.774 140.732 203.076 141.103 204.219 141.785C204.71 142.014 205.152 142.337 205.52 142.735Z" fill="#455A64"/>
<path d="M185.141 146.96C185.083 146.96 185.189 146.432 185.671 145.75C186.312 144.872 187.228 144.23 188.274 143.926C189.32 143.622 190.438 143.673 191.452 144.07C192.213 144.387 192.579 144.761 192.541 144.809C192.128 144.707 191.723 144.579 191.327 144.425C190.371 144.147 189.356 144.147 188.4 144.424C187.445 144.701 186.588 145.245 185.931 145.99C185.44 146.518 185.218 146.998 185.141 146.96Z" fill="#455A64"/>
<path d="M190.055 163.714C190.055 163.647 190.787 163.455 191.982 162.917C193.601 162.188 195.084 161.188 196.365 159.96L197.223 159.125L196.751 160.229C196.458 160.927 196.242 161.655 196.105 162.399C196.038 162.773 195.98 163.244 196.105 163.311C196.23 163.378 196.616 163.215 196.963 162.975C198.115 162.235 199.148 161.325 200.027 160.277L200.817 159.317L200.46 160.488L199.448 163.753L199.102 163.551C200.207 162.446 201.177 161.215 201.992 159.883C201.89 160.303 201.717 160.702 201.481 161.064C200.909 162.087 200.196 163.024 199.362 163.849L198.803 164.406L199.025 163.637C199.304 162.677 199.612 161.535 199.988 160.354L200.422 160.584C199.522 161.703 198.453 162.675 197.252 163.465C197.062 163.587 196.866 163.699 196.664 163.801C196.533 163.877 196.383 163.918 196.23 163.918C196.078 163.918 195.928 163.877 195.797 163.801C195.688 163.703 195.604 163.58 195.554 163.443C195.504 163.306 195.488 163.158 195.508 163.013C195.508 162.773 195.566 162.591 195.595 162.38C195.743 161.599 195.983 160.839 196.308 160.114L196.703 160.383C195.361 161.635 193.787 162.613 192.068 163.263C191.427 163.526 190.747 163.678 190.055 163.714Z" fill="#455A64"/>
<path d="M198.775 146.134C198.619 145.864 198.411 145.628 198.163 145.438C197.915 145.249 197.632 145.11 197.33 145.03C196.721 144.891 196.089 144.891 195.48 145.03C193.974 145.315 192.613 146.108 191.626 147.277C191.404 147.536 191.202 147.949 191.443 148.237C191.587 148.353 191.768 148.414 191.954 148.41C194.203 148.595 196.467 148.514 198.698 148.17" fill="#263238"/>
<path d="M169.322 280.026C169.621 280.564 173.272 292.738 181.327 294.803C189.382 296.867 214.48 295.494 215.164 294.803C215.848 294.111 223.228 290.059 226.793 281.649C230.358 273.238 204.758 258.557 204.758 258.557L169.322 280.026Z" fill="#263238"/>
<path d="M231.051 283.319L231.272 290.108C231.272 291.154 231.147 296.416 231.032 297.453L227.9 339.613C227.592 339.488 225.771 365.537 225.617 374.677C225.463 383.472 224.721 407.399 224.721 407.399H204.122L202.735 367.783L201.867 324.903L200.596 294.899L231.051 283.319Z" fill="#263238"/>
<path d="M169.322 273.315C169.322 273.315 169.775 273.987 169.669 283.32C169.592 290.454 173.937 334.428 173.937 334.428L191.52 333.9L195.037 289.858L169.322 273.315Z" fill="#263238"/>
<path d="M202.215 295.427C201.73 295.535 201.237 295.603 200.741 295.628C199.778 295.734 198.409 295.859 196.694 295.965C192.219 296.322 187.715 296.061 183.312 295.187C178.831 294.325 174.804 291.902 171.953 288.351C171.127 287.265 170.476 286.056 170.026 284.769C169.904 284.421 169.804 284.065 169.727 283.704C169.669 283.454 169.65 283.319 169.669 283.319C170.256 285.048 171.122 286.669 172.232 288.12C175.097 291.521 179.045 293.839 183.418 294.688C187.78 295.551 192.233 295.873 196.675 295.648L200.731 295.465C201.224 295.407 201.72 295.394 202.215 295.427Z" fill="#455A64"/>
<path d="M223.063 294.582C222.338 294.868 221.581 295.068 220.808 295.177C217.12 295.881 213.368 296.203 209.613 296.137C208.834 296.161 208.055 296.097 207.291 295.945C208.058 295.815 208.835 295.761 209.613 295.782C211.039 295.725 213.014 295.629 215.191 295.437C217.369 295.245 219.334 295.004 220.751 294.803C221.512 294.653 222.287 294.579 223.063 294.582Z" fill="#455A64"/>
<path d="M222.466 302.301C221.466 302.299 220.469 302.2 219.489 302.004C217.668 301.735 215.163 301.264 212.427 300.592C209.691 299.92 207.253 299.171 205.509 298.566C204.551 298.284 203.622 297.911 202.734 297.453C203.715 297.642 204.681 297.902 205.625 298.23C207.388 298.749 209.835 299.44 212.552 300.151C215.269 300.861 217.764 301.332 219.566 301.696C220.547 301.825 221.516 302.027 222.466 302.301Z" fill="#455A64"/>
<path d="M217.563 154.602C216.807 153.058 215.957 151.561 215.02 150.119C215.02 150.119 220.704 144.118 224.124 144.3L227.371 148.774L217.563 154.602Z" fill="white"/>
<path d="M244.482 173.469C243.239 169.628 227.66 147.209 227.66 147.209C221.879 147.209 216.311 154.151 216.311 154.151L227.381 177.386L215.742 188.063L228.884 203.531C228.884 203.531 237.179 193.19 239.665 189.446C245.205 181.083 245.716 177.329 244.482 173.469Z" fill="#FF725E"/>
<path opacity="0.3" d="M168.82 278.788C168.82 278.788 170.121 287.429 177.366 289.973C184.611 292.518 201.347 289.973 201.347 289.973L203.274 283.684L205.355 291.106L231.243 287.803L230.877 281.908L203.438 270.55L168.82 278.788Z" fill="black"/>
<path d="M225.27 250.032C224.721 246.978 224.018 245.432 223.883 243.589C223.468 238.087 223.497 224.895 223.883 223.205C224.374 220.987 228.873 203.532 228.873 203.532L227.341 190.013L208.226 186.844L206.887 183.772C206.887 183.772 194.131 180.479 186.067 184.799L184.67 188.083L179.689 189.331C178.937 189.629 175.035 190.714 172.077 191.511C170.446 191.943 168.93 192.725 167.636 193.804C166.341 194.882 165.298 196.229 164.581 197.752C164.073 198.856 163.626 199.987 163.242 201.141C161.922 205.039 154.33 226.585 153.993 233.152C153.598 240.833 160.419 241.093 164.591 240.113C168.763 239.134 173.33 229.84 173.33 229.84L175.95 248.025C175.567 250.507 174.957 252.95 174.129 255.322C171.586 262.235 167.925 275.61 167.925 275.61C169.351 280.065 174.534 287.132 177.251 288.092C179.968 289.052 198.129 288.274 198.129 288.274L203.486 274.112L208.429 289.004L234.201 285L225.27 250.032Z" fill="#FF725E"/>
<path d="M203.457 244.789C203.524 244.904 199.815 247.353 195.171 250.243C192.405 252.064 189.55 253.747 186.615 255.283C189.283 253.325 192.049 251.501 194.901 249.82C197.665 247.999 200.521 246.32 203.457 244.789Z" fill="#263238"/>
<path d="M196.674 252.259C196.741 252.374 192.82 254.986 187.858 258.097C182.896 261.208 178.859 263.627 178.782 263.512C178.705 263.397 182.636 260.785 187.598 257.674C192.56 254.563 196.597 252.134 196.674 252.259Z" fill="#263238"/>
<path d="M217.052 231.904C216.341 233.687 215.291 235.318 213.959 236.705C212.754 238.194 211.268 239.433 209.585 240.353C209.489 240.238 211.512 238.711 213.584 236.378C215.655 234.045 216.917 231.827 217.052 231.904Z" fill="#263238"/>
<path d="M217.562 234.333C217.363 235.01 217.071 235.656 216.695 236.254C215.881 237.744 214.967 239.178 213.958 240.545C212.945 241.901 211.838 243.185 210.644 244.386C210.187 244.926 209.651 245.395 209.054 245.778C208.948 245.673 211.213 243.387 213.554 240.209C215.895 237.031 217.436 234.257 217.562 234.333Z" fill="#263238"/>
<path d="M218.17 257.895C218.319 257.023 218.541 256.166 218.835 255.331C219.288 253.766 219.885 251.596 220.453 249.167C221.022 246.738 221.417 244.539 221.725 242.926C221.836 242.05 222.013 241.183 222.255 240.334C222.294 241.221 222.233 242.11 222.072 242.984C221.804 245.092 221.425 247.185 220.935 249.254C220.454 251.334 219.865 253.388 219.172 255.408C218.926 256.27 218.59 257.103 218.17 257.895Z" fill="#263238"/>
<path d="M227.659 201.409C227.524 201.486 225.809 198.529 223.218 195.236C220.626 191.942 218.179 189.552 218.285 189.475C218.92 189.878 219.497 190.366 220 190.925C221.295 192.185 222.502 193.533 223.613 194.957C224.726 196.38 225.743 197.875 226.657 199.432C227.077 200.044 227.414 200.709 227.659 201.409Z" fill="#263238"/>
<path d="M231.794 194.573C230.693 193.02 229.398 191.614 227.94 190.387C226.392 189.287 224.708 188.39 222.93 187.718C223.508 187.709 224.083 187.82 224.616 188.044C227.262 188.933 229.525 190.694 231.032 193.037C231.387 193.493 231.646 194.016 231.794 194.573Z" fill="#263238"/>
<path d="M175.922 247.986C175.787 247.986 174.236 238.068 172.473 225.797C170.709 213.527 169.38 203.551 169.524 203.532C169.669 203.512 171.201 213.45 172.974 225.721C174.746 237.991 176.057 247.958 175.922 247.986Z" fill="#263238"/>
<path d="M208.497 186.844C207.324 186.872 206.15 186.84 204.98 186.748C202.803 186.662 199.806 186.623 196.492 186.748C193.178 186.873 190.201 187.247 188.052 187.545C186.895 187.757 185.728 187.908 184.555 187.996C184.849 187.87 185.156 187.777 185.47 187.718C186.058 187.574 186.925 187.391 187.994 187.199C190.797 186.698 193.629 186.378 196.473 186.239C199.314 186.097 202.162 186.133 204.999 186.345C206.088 186.431 206.926 186.527 207.572 186.614C207.889 186.651 208.2 186.728 208.497 186.844Z" fill="#263238"/>
<g opacity="0.3">
<path d="M173.396 230.492C172.375 222.811 170.968 215.13 169.947 207.449C167.163 215.005 168.694 223.925 173.396 230.492Z" fill="black"/>
</g>
<g opacity="0.3">
<path d="M227.197 177.089C229.006 175.376 231.313 174.28 233.787 173.959C234.367 173.833 234.966 173.829 235.547 173.948C236.128 174.067 236.677 174.306 237.159 174.65C237.266 174.727 237.352 174.828 237.41 174.945C237.469 175.062 237.499 175.191 237.497 175.322C237.468 175.449 237.401 175.564 237.304 175.652C237.208 175.739 237.087 175.795 236.957 175.812C236.7 175.865 236.434 175.865 236.177 175.812C233.219 175.284 230.011 176.148 227.207 177.223" fill="black"/>
</g>
<g opacity="0.3">
<path d="M185.642 188.16C188.125 188.768 190.702 188.898 193.234 188.544C197.731 188.153 202.207 187.571 206.665 186.796C199.495 185.829 192.206 186.237 185.189 187.996" fill="black"/>
</g>
<g opacity="0.3">
<path d="M184.805 260.084C195.001 257.215 204.156 251.49 211.184 243.589C203.111 248.668 192.657 254.496 184.805 260.084Z" fill="black"/>
</g>
<path d="M233.44 175.946C232.29 175.898 231.138 175.988 230.01 176.215C228.925 176.605 227.892 177.128 226.936 177.771C226.888 177.771 227.1 177.377 227.601 176.945C228.258 176.382 229.031 175.969 229.865 175.735C230.702 175.501 231.579 175.449 232.438 175.582C233.093 175.697 233.459 175.889 233.44 175.946Z" fill="#263238"/>
<path d="M139.03 164.838L130.156 165.241C127.291 168.646 123.526 171.183 119.289 172.567C116.303 173.534 113.154 173.895 110.026 173.626C106.899 173.358 103.857 172.467 101.082 171.006C98.3064 169.545 95.8536 167.543 93.8688 165.119C91.884 162.696 90.4076 159.9 89.5272 156.897C87.6489 150.777 88.2322 144.169 91.1538 138.469C94.0755 132.77 99.1065 128.426 105.184 126.355C108.169 125.387 111.318 125.026 114.446 125.294C117.574 125.562 120.616 126.454 123.391 127.917C126.166 129.379 128.618 131.383 130.601 133.808C132.584 136.233 134.058 139.03 134.935 142.034C136.511 147.173 136.366 152.684 134.521 157.733L139.03 164.838Z" fill="white"/>
<path d="M139.031 164.838L138.713 164.367L137.827 162.994L134.435 157.752H134.609C134.599 157.762 134.587 157.771 134.574 157.776C134.56 157.782 134.546 157.785 134.532 157.785C134.517 157.785 134.503 157.782 134.49 157.776C134.476 157.771 134.464 157.762 134.455 157.752C134.44 157.732 134.433 157.709 134.433 157.685C134.433 157.66 134.44 157.637 134.455 157.617C135.799 153.844 136.216 149.804 135.669 145.836C135.307 143.287 134.533 140.813 133.375 138.51C130.683 132.98 125.908 128.732 120.089 126.691C116.829 125.559 113.356 125.168 109.925 125.548C106.279 125.982 102.782 127.243 99.7024 129.235C96.4928 131.321 93.8461 134.159 91.9947 137.502C90.0942 140.784 89.0075 144.471 88.8249 148.256C88.6229 151.86 89.2148 155.465 90.5591 158.817C91.7845 161.871 93.6423 164.633 96.0114 166.923C98.3804 169.213 101.207 170.979 104.308 172.106C109.492 173.972 115.174 173.931 120.33 171.991C124.115 170.559 127.473 168.194 130.09 165.116C130.118 165.107 130.149 165.107 130.177 165.116L136.738 164.895L138.453 164.838H139.05H138.501L136.825 164.943L130.186 165.318H130.263C127.648 168.458 124.267 170.878 120.446 172.346C115.219 174.36 109.439 174.432 104.163 172.548C100.999 171.412 98.1114 169.622 95.6904 167.295C93.2694 164.969 91.3697 162.158 90.1159 159.048C88.7306 155.625 88.1187 151.941 88.3239 148.256C88.4409 146.351 88.7639 144.465 89.2874 142.629C90.4304 138.879 92.4062 135.433 95.0681 132.548C96.3989 131.151 97.8859 129.911 99.5001 128.851C102.628 126.812 106.185 125.517 109.896 125.068C113.267 124.708 116.676 125.075 119.891 126.145C123.107 127.216 126.053 128.964 128.529 131.271C130.687 133.287 132.454 135.683 133.742 138.338C134.896 140.683 135.664 143.199 136.015 145.788C136.556 149.821 136.1 153.925 134.686 157.742L134.493 157.646C134.503 157.636 134.515 157.627 134.528 157.622C134.541 157.616 134.556 157.613 134.57 157.613C134.585 157.613 134.599 157.616 134.612 157.622C134.625 157.627 134.637 157.636 134.647 157.646C136.092 159.989 137.2 161.794 137.971 163.033L138.8 164.396C138.954 164.694 139.031 164.838 139.031 164.838Z" fill="#263238"/>
<path d="M104.723 145.577L111.794 136.638L118.866 145.462L104.723 145.577Z" fill="#FF725E"/>
<path d="M115.281 161.918L108.835 161.966L108.633 144.127L115.069 144.079L115.281 161.918Z" fill="#FF725E"/>
</svg>