<svg width="1404" height="975" viewBox="0 0 1404 975" fill="none" xmlns="http://www.w3.org/2000/svg">
<g opacity="0.8">
<path d="M1337.95 290.389L1319.44 309.692C1318.5 310.669 1317.23 311.211 1315.92 311.2C1314.6 311.188 1313.35 310.623 1312.42 309.629V309.629C1311.5 308.632 1310.99 307.288 1311 305.892C1311.01 304.496 1311.54 303.162 1312.48 302.182L1330.99 282.879C1331.93 281.901 1333.19 281.359 1334.51 281.371C1335.82 281.382 1337.08 281.947 1338.01 282.942V282.942C1338.93 283.938 1339.44 285.282 1339.43 286.678C1339.42 288.074 1338.88 289.409 1337.95 290.389V290.389Z" stroke="#252B42" stroke-width="1.91157" stroke-miterlimit="10" stroke-linecap="round"/>
<path d="M1359.77 282.25C1371.54 282.25 1381.09 272.12 1381.09 259.625C1381.09 247.13 1371.54 237 1359.77 237C1347.99 237 1338.44 247.13 1338.44 259.625C1338.44 272.12 1347.99 282.25 1359.77 282.25Z" stroke="#252B42" stroke-width="1.91157" stroke-miterlimit="10" stroke-linecap="round"/>
<path d="M1359.77 275.951C1368.27 275.951 1375.16 268.642 1375.16 259.625C1375.16 250.609 1368.27 243.299 1359.77 243.299C1351.27 243.299 1344.38 250.609 1344.38 259.625C1344.38 268.642 1351.27 275.951 1359.77 275.951Z" stroke="#252B42" stroke-width="1.91157" stroke-miterlimit="10" stroke-linecap="round"/>
<path d="M1344.69 275.622L1338.71 281.97" stroke="#252B42" stroke-width="1.91157" stroke-miterlimit="10" stroke-linecap="round"/>
</g>
<g opacity="0.8">
<path d="M728.259 417.563C748.83 412.676 763.736 400.329 761.552 389.985C759.369 379.641 740.924 375.217 720.353 380.103C699.783 384.99 684.877 397.337 687.06 407.681C689.244 418.025 707.689 422.45 728.259 417.563Z" stroke="#242630" stroke-width="1.91157" stroke-linecap="round" stroke-linejoin="round"/>
<path d="M741.436 404.997C748.199 383.818 746.011 363.892 736.549 360.491C727.087 357.09 713.935 371.502 707.171 392.681C700.408 413.86 702.596 433.785 712.058 437.186C721.52 440.587 734.672 426.175 741.436 404.997Z" stroke="#242630" stroke-width="1.9113" stroke-linecap="round" stroke-linejoin="round"/>
<path d="M750.797 427.983C757.99 420.625 751.96 401.609 737.328 385.51C722.697 369.41 705.005 362.323 697.813 369.681C690.62 377.038 696.65 396.054 711.281 412.154C725.913 428.254 743.605 435.34 750.797 427.983Z" stroke="#242630" stroke-width="1.91157" stroke-linecap="round" stroke-linejoin="round"/>
<path d="M725.353 403.79C727.934 403.177 729.558 400.461 728.98 397.723C728.402 394.985 725.841 393.262 723.261 393.875C720.68 394.488 719.056 397.205 719.634 399.943C720.212 402.681 722.773 404.403 725.353 403.79Z" stroke="#242630" stroke-width="1.91157" stroke-linecap="round" stroke-linejoin="round"/>
</g>
<g opacity="0.8">
<path d="M407.614 289.06L421.439 274.392L383.132 233.75L369.306 248.418L407.614 289.06Z" stroke="#252B42" stroke-width="1.91128" stroke-linecap="round" stroke-linejoin="round"/>
<path d="M425.185 293.034L421.442 274.392L407.619 289.063L425.185 293.034Z" stroke="#252B42" stroke-width="1.91157" stroke-linecap="round" stroke-linejoin="round"/>
<path d="M423.436 284.332L416.98 291.181" stroke="#252B42" stroke-width="1.91157" stroke-linecap="round" stroke-linejoin="round"/>
<path d="M383.127 233.744L369.299 248.414L368.909 248C367.077 246.054 366.049 243.416 366.05 240.666C366.051 237.916 367.081 235.28 368.914 233.335V233.335C370.747 231.391 373.232 230.298 375.824 230.297C378.416 230.296 380.902 231.387 382.736 233.329L383.127 233.744Z" stroke="#252B42" stroke-width="1.91157" stroke-linecap="round" stroke-linejoin="round"/>
<path d="M386.863 237.707L373.035 252.378" stroke="#252B42" stroke-width="1.91157" stroke-linecap="round" stroke-linejoin="round"/>
<path d="M414.526 281.728L379.947 245.042" stroke="#252B42" stroke-width="1.91157" stroke-linecap="round" stroke-linejoin="round"/>
</g>
<g opacity="0.8">
<g opacity="0.85">
<path d="M45.8611 383.936L39.3304 382.568C38.2807 382.348 37.2766 383.058 37.0878 384.153L33.1051 407.253C32.9162 408.348 33.6141 409.414 34.6638 409.634L41.1946 411.003C42.2443 411.222 43.2484 410.513 43.4372 409.418L47.4199 386.317C47.6087 385.222 46.9108 384.156 45.8611 383.936Z" stroke="#252B42" stroke-width="1.91157" stroke-miterlimit="10"/>
<path d="M64.6651 378.272L58.1152 376.903C57.0624 376.683 56.0557 377.394 55.8666 378.491L50.3204 410.657C50.1312 411.754 50.8314 412.821 51.8842 413.041L58.4341 414.409C59.4869 414.629 60.4936 413.918 60.6827 412.822L66.2289 380.656C66.418 379.559 65.7179 378.492 64.6651 378.272Z" stroke="#252B42" stroke-width="1.91157" stroke-miterlimit="10"/>
<path d="M83.4685 372.606L76.9015 371.238C75.8459 371.018 74.8367 371.73 74.6474 372.827L67.5344 414.062C67.3451 415.16 68.0473 416.228 69.1028 416.448L75.6698 417.815C76.7254 418.035 77.7345 417.324 77.9239 416.226L85.0369 374.991C85.2262 373.894 84.524 372.826 83.4685 372.606Z" stroke="#252B42" stroke-width="1.91157" stroke-miterlimit="10"/>
</g>
<g opacity="0.85">
<path d="M27.3203 340.474L13.4973 419.102" stroke="#252B42" stroke-width="1.91157" stroke-linecap="round" stroke-linejoin="round"/>
<path d="M92.2019 421.141L3.29492 403.548" stroke="#252B42" stroke-width="1.91157" stroke-linecap="round" stroke-linejoin="round"/>
</g>
</g>
<g opacity="0.8">
<path d="M118.255 121.228L132.011 124.334C133.936 124.769 135.606 125.946 136.652 127.606C137.699 129.267 138.036 131.275 137.59 133.189L137.461 133.744L109.184 127.36L109.313 126.805C109.759 124.891 110.952 123.229 112.628 122.183C114.305 121.137 116.329 120.794 118.255 121.228V121.228Z" stroke="#242630" stroke-width="1.91157" stroke-miterlimit="10" stroke-linecap="round"/>
<path d="M133.76 103.641C149.708 104.464 163.301 92.2044 164.121 76.2589C164.942 60.3134 152.678 46.7201 136.73 45.8973C120.782 45.0745 107.189 57.3338 106.368 73.2793C105.548 89.2248 117.812 102.818 133.76 103.641Z" stroke="#242630" stroke-width="1.91157" stroke-miterlimit="10"/>
<path d="M136.186 103.759L134.187 45.8762L133.859 38.8074C124.364 39.1831 115.404 43.3122 108.939 50.2919C102.473 57.2716 99.0284 66.5339 99.3571 76.0537C99.6858 85.5734 103.761 94.5759 110.693 101.093C117.624 107.61 126.847 111.11 136.346 110.83L136.102 103.758" stroke="#242630" stroke-width="1.91157" stroke-linecap="round" stroke-linejoin="round"/>
<path d="M134.558 58.6774C144.596 58.3765 152.651 55.2147 152.551 51.6153C152.451 48.016 144.232 45.3422 134.194 45.6431C124.157 45.9441 116.101 49.1059 116.201 52.7052C116.302 56.3045 124.52 58.9784 134.558 58.6774Z" stroke="#242630" stroke-width="1.91157" stroke-miterlimit="10"/>
<path d="M136.292 103.903C146.329 103.604 154.386 100.444 154.286 96.8447C154.186 93.2453 145.968 90.5699 135.931 90.8689C125.893 91.1679 117.837 94.3282 117.936 97.9275C118.036 101.527 126.254 104.202 136.292 103.903Z" stroke="#242630" stroke-width="1.91157" stroke-miterlimit="10"/>
<path d="M136.123 103.862C144.254 103.618 150.452 90.3957 149.966 74.3288C149.48 58.2619 142.495 45.4349 134.365 45.679C126.234 45.923 120.036 59.1456 120.522 75.2125C121.008 91.2794 127.992 104.106 136.123 103.862Z" stroke="#242630" stroke-width="1.91157" stroke-miterlimit="10"/>
<path d="M106.267 75.79L164.221 73.7496" stroke="#242630" stroke-width="1.91157" stroke-miterlimit="10"/>
<path d="M127.668 110.08L124.973 122.638" stroke="#242630" stroke-width="1.91157" stroke-miterlimit="10"/>
<path d="M105.609 127.009L141.865 134.789" stroke="#242630" stroke-width="1.91157" stroke-miterlimit="10" stroke-linecap="round"/>
</g>
<g opacity="0.8">
<path d="M1255.99 34.063L1250.22 33.2275" stroke="#242630" stroke-width="1.91157" stroke-linecap="round" stroke-linejoin="round"/>
<path d="M1253.33 52.4481L1247.56 51.6126" stroke="#242630" stroke-width="1.91157" stroke-linecap="round" stroke-linejoin="round"/>
<path d="M1250.67 70.835L1244.9 69.9995" stroke="#242630" stroke-width="1.91157" stroke-linecap="round" stroke-linejoin="round"/>
<path d="M1257.77 21.7625L1254.89 21.3446" stroke="#242630" stroke-width="1.91157" stroke-linecap="round" stroke-linejoin="round"/>
<path d="M1256.88 27.9129L1254 27.495" stroke="#242630" stroke-width="1.91157" stroke-linecap="round" stroke-linejoin="round"/>
<path d="M1255.11 40.1815L1252.22 39.7636" stroke="#242630" stroke-width="1.91157" stroke-linecap="round" stroke-linejoin="round"/>
<path d="M1254.22 46.3301L1251.33 45.9122" stroke="#242630" stroke-width="1.91157" stroke-linecap="round" stroke-linejoin="round"/>
<path d="M1252.44 58.5988L1249.55 58.1809" stroke="#242630" stroke-width="1.91157" stroke-linecap="round" stroke-linejoin="round"/>
<path d="M1249.74 77.2846L1246.85 76.8667" stroke="#242630" stroke-width="1.91157" stroke-linecap="round" stroke-linejoin="round"/>
<path d="M1251.55 64.7491L1248.66 64.3313" stroke="#242630" stroke-width="1.91157" stroke-linecap="round" stroke-linejoin="round"/>
<path d="M1206 79.3538L1260.03 6.15875L1248.55 85.5107L1206 79.3538Z" stroke="#242630" stroke-width="1.91157" stroke-linecap="round" stroke-linejoin="round"/>
<path d="M1227.01 70.58L1241.79 50.5592L1238.65 72.2644L1227.01 70.58Z" stroke="#242630" stroke-width="1.91157" stroke-linecap="round" stroke-linejoin="round"/>
<path d="M1297.1 11.5244L1277.85 8.7383L1266.36 88.0902L1285.61 90.8763L1297.1 11.5244Z" stroke="#242630" stroke-width="1.91157" stroke-linecap="round" stroke-linejoin="round"/>
<path d="M1295.72 21.0424L1286.09 19.6493" stroke="#242630" stroke-width="1.91157" stroke-linecap="round" stroke-linejoin="round"/>
<path d="M1293.06 39.4293L1283.43 38.0362" stroke="#242630" stroke-width="1.91157" stroke-linecap="round" stroke-linejoin="round"/>
<path d="M1290.4 57.8143L1280.77 56.4212" stroke="#242630" stroke-width="1.91157" stroke-linecap="round" stroke-linejoin="round"/>
<path d="M1287.73 76.2013L1278.11 74.8082" stroke="#242630" stroke-width="1.91157" stroke-linecap="round" stroke-linejoin="round"/>
<path d="M1294.83 27.1281L1290.02 26.4317" stroke="#242630" stroke-width="1.91157" stroke-linecap="round" stroke-linejoin="round"/>
<path d="M1293.94 33.2786L1289.13 32.5822" stroke="#242630" stroke-width="1.91157" stroke-linecap="round" stroke-linejoin="round"/>
<path d="M1292.17 45.5473L1287.36 44.8509" stroke="#242630" stroke-width="1.91157" stroke-linecap="round" stroke-linejoin="round"/>
<path d="M1291.28 51.6958L1286.47 50.9994" stroke="#242630" stroke-width="1.91157" stroke-linecap="round" stroke-linejoin="round"/>
<path d="M1289.5 63.9644L1284.69 63.2681" stroke="#242630" stroke-width="1.91157" stroke-linecap="round" stroke-linejoin="round"/>
<path d="M1288.61 70.1149L1283.8 69.4185" stroke="#242630" stroke-width="1.91157" stroke-linecap="round" stroke-linejoin="round"/>
</g>
<path d="M865.602 468.091C865.602 468.091 864.944 467.915 863.769 467.674C862.102 467.335 860.392 467.286 858.709 467.53C856.229 467.885 853.893 468.934 851.958 470.562C849.609 472.566 847.96 475.297 847.258 478.344V478.424L846.976 479.579L846.538 478.488C845.379 475.59 843.391 473.117 840.836 471.397C838.745 469.995 836.341 469.161 833.849 468.974C831.535 468.852 829.217 469.151 827.004 469.856C827.5 469.512 828.044 469.247 828.617 469.07C830.277 468.535 832.018 468.312 833.755 468.412C836.384 468.521 838.936 469.347 841.149 470.803C843.856 472.572 845.962 475.156 847.18 478.199H846.459V478.119C847.213 474.901 848.993 472.032 851.519 469.969C853.236 468.592 855.245 467.649 857.384 467.214C859.523 466.779 861.731 466.865 863.831 467.466C864.451 467.574 865.049 467.786 865.602 468.091Z" fill="#E0E0E0"/>
<path d="M1270.83 434.96C1270.31 435.652 1269.75 436.311 1269.15 436.933C1267.63 438.723 1266.26 440.639 1265.05 442.661C1261.01 449.319 1258.89 457.012 1258.94 464.851V465.123H1258.19C1257.02 457.436 1253.53 450.317 1248.21 444.763C1245.97 442.516 1243.52 440.491 1240.91 438.714C1240.91 438.714 1241.13 438.714 1241.52 438.987C1241.91 439.26 1242.46 439.484 1243.09 439.949C1245.05 441.224 1246.87 442.708 1248.52 444.378C1254.06 449.927 1257.69 457.168 1258.86 465.011H1258.11V464.738C1258.06 456.769 1260.29 448.959 1264.53 442.276C1265.8 440.263 1267.25 438.382 1268.87 436.66C1269.44 436.035 1269.94 435.601 1270.25 435.297C1270.43 435.156 1270.62 435.042 1270.83 434.96Z" fill="#E0E0E0"/>
<path d="M1325.42 819.434C1300.75 825.419 1281.92 850.609 1282.7 876.601C1266.9 858.76 1238 855.117 1218.48 868.579C1198.96 882.04 1191.18 910.728 1201.25 932.5C1177.89 913.824 1139.9 919.007 1122.13 943.282C1120.09 935.604 1116.32 928.526 1111.11 922.621C1105.91 916.717 1099.42 912.153 1092.17 909.3C1084.92 906.448 1077.11 905.387 1069.39 906.203C1061.66 907.02 1054.23 909.692 1047.7 914.001C1043.49 886.934 1022.15 863.509 996.009 857.316C969.865 851.122 940.729 862.578 925.331 884.992C918.794 878.443 910.871 873.524 902.178 870.617C893.486 867.711 884.256 866.895 875.205 868.232C866.154 869.57 857.526 873.025 849.99 878.33C842.454 883.636 836.213 890.648 831.75 898.823L847.587 904.053C862.051 906.933 875.561 913.535 886.846 923.239C898.131 932.942 906.82 945.427 912.094 959.519C919.401 951.335 928.527 945.076 938.697 941.273C948.868 937.469 959.784 936.232 970.521 937.668C981.257 939.104 991.497 943.17 1000.37 949.521C1009.25 955.872 1016.5 964.321 1021.51 974.152H1143.46C1173.82 973.895 1196.99 975.564 1225.06 974.152C1236.15 934.153 1287.2 898.598 1325.56 912.172C1329.63 897.03 1337.58 883.282 1348.61 872.366C1359.63 861.449 1373.31 853.764 1388.22 850.112C1377.35 826.975 1349.83 813.498 1325.42 819.434Z" fill="#EBEBEB"/>
<path d="M1389.27 849.823L1388.28 850.048C1388.41 850.304 1388.55 850.561 1388.66 850.818L1389.27 849.823Z" fill="#EBEBEB"/>
<path d="M1074.08 775.634C1075.02 768.686 1065.43 762.958 1058.24 762.365C1054.8 762.092 1051.24 762.621 1047.98 761.466C1040.94 758.947 1038.13 749.625 1031.25 746.657C1026.12 744.427 1020.2 746.416 1015.21 748.984C1010.23 751.551 1005.31 754.776 999.737 755.145C994.897 755.466 989.633 753.62 985.404 756.043C982.271 757.856 980.595 761.579 977.681 763.777C974.768 765.975 971.118 766.376 967.593 766.584C964.069 766.793 960.403 766.809 957.192 768.317C953.981 769.825 951.318 773.307 951.976 776.869L1074.08 775.634Z" fill="#EBEBEB"/>
<path d="M1416.15 384.596C1417.26 376.317 1405.87 369.53 1397.35 368.824C1393.26 368.487 1389.02 369.113 1385.17 367.733C1376.78 364.749 1373.43 353.662 1365.26 350.084C1359.15 347.437 1352.11 349.795 1346.19 352.844C1340.27 355.892 1334.4 359.743 1327.79 360.176C1322.02 360.561 1315.77 358.363 1310.73 361.251C1306.98 363.401 1305.01 367.829 1301.55 370.444C1298.09 373.06 1293.72 373.541 1289.55 373.766C1285.38 373.99 1281 374.054 1277.17 375.851C1273.35 377.648 1270.19 381.772 1270.99 386.008L1416.15 384.596Z" fill="#EBEBEB"/>
<path d="M970.115 341.42C971.289 332.708 959.29 325.536 950.268 324.782C945.96 324.429 941.48 325.103 937.407 323.659C928.572 320.45 925.047 308.818 916.432 305.096C909.994 302.304 902.569 304.791 896.334 308C890.1 311.209 883.912 315.268 876.926 315.733C870.863 316.134 864.269 313.824 858.958 316.856C854.995 319.119 852.927 323.804 849.278 326.483C845.628 329.162 841.054 329.692 836.636 329.997C832.219 330.302 827.613 330.286 823.588 332.179C819.562 334.072 816.225 338.436 817.055 342.897L970.115 341.42Z" fill="#EBEBEB"/>
<path d="M1444.96 673.157C1446.52 661.413 1430.36 651.754 1418.2 650.695C1412.39 650.214 1406.38 651.128 1400.88 649.09C1388.97 644.855 1384.23 629.099 1372.6 624.077C1363.93 620.323 1353.93 623.66 1345.5 628.008C1337.08 632.356 1328.77 637.811 1319.36 638.421C1311.18 638.966 1302.3 635.854 1295.14 639.945C1289.82 642.993 1287.01 649.299 1282.09 653.005C1277.17 656.712 1271.02 657.401 1265.05 657.819C1259.08 658.236 1252.91 658.22 1247.47 660.771C1242.04 663.322 1237.54 669.194 1238.67 675.211L1444.96 673.157Z" fill="#F5F5F5"/>
<path d="M989.164 589.693C990.605 579.056 975.943 570.311 964.946 569.413C959.683 568.98 954.232 569.798 949.282 568.017C938.504 564.166 934.197 549.919 923.686 545.362C915.853 541.977 906.768 544.993 899.155 548.924C891.542 552.855 883.992 557.797 875.486 558.358C868.076 558.839 860.04 556.032 853.555 559.738C848.73 562.498 846.193 568.193 841.744 571.563C837.295 574.932 831.719 575.542 826.314 575.847C820.91 576.152 815.349 576.2 810.399 578.51C805.449 580.82 801.408 586.147 802.426 591.586L989.164 589.693Z" fill="#EBEBEB"/>
<path d="M1474 880.244C1474 880.244 1473.22 879.377 1471.76 877.661C1471.02 876.81 1470.19 875.703 1468.96 874.548L1467.08 872.639C1466.37 871.889 1465.62 871.182 1464.84 870.521L1462.25 868.242C1461.36 867.424 1460.29 866.638 1459.26 865.868C1457.18 864.183 1454.7 862.659 1452.09 860.91C1445.91 857.167 1439.32 854.199 1432.46 852.07C1423.93 849.388 1415.04 848.126 1406.13 848.331L1402.44 848.443L1398.7 848.829L1396.8 849.021L1394.91 849.358L1391.07 850.064C1385.76 851.283 1380.58 853.024 1375.59 855.262C1370.3 857.696 1365.25 860.662 1360.53 864.119C1355.54 867.832 1350.94 872.046 1346.77 876.698C1337.81 886.811 1331.31 898.957 1327.82 912.14L1327.72 912.509L1327.38 912.381C1317.91 909.232 1307.82 908.625 1298.05 910.616C1287.76 912.665 1277.91 916.589 1268.97 922.2C1259.54 928.002 1251.08 935.302 1243.9 943.828C1236.34 952.616 1230.7 962.954 1227.34 974.152L1227.27 974.425H1226.98C1211.54 975.227 1195.66 975.051 1179.32 974.73C1171.19 974.586 1162.96 974.441 1154.66 974.409H1129.6H1023.44H1023.2L1023.09 974.184C1017.69 963.758 1009.76 954.921 1000.08 948.513C990.855 942.293 980.26 938.527 969.254 937.555C959.066 936.79 948.84 938.374 939.328 942.189C929.816 946.004 921.259 951.953 914.287 959.6L913.911 960.001L913.723 959.488C909.169 947.344 902.037 936.388 892.842 927.415C888.586 923.279 883.96 919.562 879.026 916.312C874.36 913.307 869.431 910.755 864.301 908.691C859.475 906.767 854.489 905.295 849.404 904.294L845.723 903.733L843.921 903.476L842.104 903.332L838.548 903.043H835.04C826.549 902.98 818.099 904.235 809.976 906.765C803.428 908.749 797.122 911.489 791.179 914.932C788.657 916.536 786.276 917.932 784.27 919.489C782.395 920.811 780.586 922.23 778.851 923.74C777.284 925.008 776 926.356 774.825 927.415C773.915 928.28 773.047 929.19 772.224 930.142C770.768 931.747 770 932.501 770 932.501C770 932.501 770.721 931.666 772.146 930.078C773.003 929.071 773.913 928.112 774.872 927.206C776.031 926.131 777.253 924.767 778.882 923.484C780.611 921.958 782.415 920.523 784.286 919.184C786.291 917.579 788.657 916.183 791.179 914.579C797.116 911.091 803.423 908.308 809.976 906.284C818.096 903.729 826.545 902.442 835.04 902.465H838.548L842.136 902.754L843.953 902.899L845.77 903.155L849.467 903.717C854.587 904.704 859.61 906.164 864.473 908.081C869.657 910.169 874.639 912.747 879.355 915.782C884.329 919.042 888.992 922.776 893.281 926.933C902.541 935.999 909.721 947.058 914.303 959.311L913.739 959.199C920.782 951.469 929.425 945.451 939.033 941.587C948.642 937.722 958.973 936.109 969.27 936.865C980.402 937.836 991.121 941.635 1000.46 947.92C1010.26 954.398 1018.27 963.334 1023.75 973.88L1023.39 973.655H1129.53H1154.6C1162.92 973.655 1171.14 973.831 1179.27 973.992C1195.55 974.313 1211.46 974.489 1226.87 973.687L1226.51 973.992C1229.91 962.684 1235.62 952.247 1243.26 943.379C1250.51 934.759 1259.05 927.381 1268.57 921.526C1277.59 915.87 1287.53 911.924 1297.91 909.878C1307.79 907.867 1318.01 908.497 1327.58 911.707L1327.14 911.948C1330.68 898.663 1337.25 886.429 1346.3 876.249C1350.5 871.579 1355.15 867.35 1360.17 863.622C1364.93 860.143 1370.02 857.159 1375.36 854.717C1380.41 852.48 1385.65 850.739 1391.02 849.518L1394.89 848.829L1396.8 848.492L1398.72 848.299L1402.48 847.93L1406.17 847.818C1415.14 847.637 1424.07 848.937 1432.63 851.668C1439.51 853.837 1446.12 856.843 1452.3 860.621C1454.92 862.386 1457.4 863.942 1459.46 865.643C1460.51 866.494 1461.56 867.248 1462.46 868.05L1465.04 870.36C1465.82 871.023 1466.57 871.735 1467.26 872.494L1469.13 874.42C1470.11 875.432 1471.04 876.504 1471.9 877.628C1473.26 879.329 1474 880.244 1474 880.244Z" fill="#263238"/>
<path d="M1121.55 276.263L1129.72 293.271C1130.02 293.864 1130.44 294.376 1130.97 294.764C1131.5 295.152 1132.1 295.405 1132.75 295.501L1151.06 298.228C1151.8 298.342 1152.49 298.664 1153.06 299.159C1153.62 299.653 1154.05 300.299 1154.28 301.026C1154.51 301.753 1154.53 302.53 1154.35 303.272C1154.18 304.013 1153.8 304.689 1153.27 305.224L1140.03 318.461C1139.56 318.921 1139.21 319.493 1139.01 320.125C1138.81 320.758 1138.76 321.431 1138.87 322.087L1141.91 340.714C1142.04 341.469 1141.95 342.245 1141.67 342.954C1141.39 343.663 1140.92 344.277 1140.32 344.728C1139.71 345.178 1139 345.447 1138.25 345.503C1137.51 345.559 1136.76 345.401 1136.1 345.046L1119.71 336.222C1119.14 335.914 1118.5 335.753 1117.85 335.753C1117.2 335.753 1116.56 335.914 1115.99 336.222L1099.62 345.094C1098.95 345.449 1098.21 345.608 1097.46 345.551C1096.72 345.495 1096 345.227 1095.4 344.776C1094.79 344.326 1094.32 343.711 1094.04 343.002C1093.76 342.293 1093.68 341.517 1093.8 340.762L1096.94 322.087C1097.04 321.431 1097 320.759 1096.79 320.127C1096.59 319.496 1096.24 318.924 1095.78 318.461L1082.53 305.224C1081.99 304.688 1081.62 304.011 1081.44 303.268C1081.26 302.526 1081.29 301.747 1081.52 301.02C1081.75 300.293 1082.18 299.647 1082.75 299.153C1083.32 298.66 1084.01 298.34 1084.75 298.228L1103.06 295.501C1103.7 295.406 1104.31 295.154 1104.83 294.765C1105.36 294.377 1105.78 293.864 1106.07 293.271L1114.26 276.263C1114.58 275.551 1115.1 274.947 1115.74 274.523C1116.39 274.1 1117.14 273.875 1117.9 273.875C1118.67 273.875 1119.42 274.1 1120.07 274.523C1120.71 274.947 1121.23 275.551 1121.55 276.263Z" fill="#FF725E"/>
<path d="M1090.22 287.495C1090.08 287.655 1079.68 277.772 1067.02 265.418C1054.36 253.063 1044.21 242.955 1044.37 242.747C1044.52 242.538 1054.97 252.47 1067.64 264.824C1080.32 277.178 1090.44 287.334 1090.22 287.495Z" fill="#FF725E"/>
<path d="M1068.57 297.956C1068.57 298.18 1059.62 297.811 1048.64 297.137C1037.66 296.463 1028.75 295.709 1028.75 295.533C1028.75 295.356 1037.69 295.661 1048.69 296.351C1059.69 297.041 1068.57 297.731 1068.57 297.956Z" fill="#FF725E"/>
<path d="M1102.44 267.504C1100.28 263.551 1098.36 259.469 1096.69 255.278C1094.77 251.197 1093.09 247.002 1091.66 242.715C1093.83 246.661 1095.76 250.744 1097.42 254.941C1099.35 259.018 1101.02 263.214 1102.44 267.504Z" fill="#FF725E"/>
<path d="M1116.3 213C1116.52 213 1116.71 224.231 1116.71 237.965C1116.71 251.699 1116.52 262.947 1116.3 262.947C1116.08 262.947 1115.89 251.715 1115.89 237.965C1115.89 224.215 1116.08 213 1116.3 213Z" fill="#FF725E"/>
<path d="M1143.99 243.18C1142.52 247.324 1140.79 251.369 1138.82 255.293C1137.09 259.33 1135.11 263.252 1132.9 267.038C1134.38 262.892 1136.11 258.846 1138.09 254.924C1139.81 250.886 1141.79 246.964 1143.99 243.18Z" fill="#FF725E"/>
<path d="M1188.75 251.346C1188.87 251.539 1176.92 260.299 1162.12 270.92C1147.31 281.542 1135.1 290.013 1134.97 289.821C1134.84 289.628 1146.78 280.868 1161.6 270.231C1176.42 259.593 1188.61 251.154 1188.75 251.346Z" fill="#FF725E"/>
<path d="M1189.92 286.837C1185.63 289.001 1181.22 290.919 1176.72 292.581C1172.31 294.455 1167.8 296.063 1163.21 297.395C1167.49 295.265 1171.89 293.38 1176.37 291.747C1180.79 289.839 1185.31 288.199 1189.92 286.837Z" fill="#FF725E"/>
<path d="M1085.75 321.028C1085.75 321.237 1070.29 326.916 1051.06 333.687C1031.82 340.458 1016.15 345.785 1016.09 345.528C1016.03 345.271 1031.55 339.64 1050.79 332.853C1070.03 326.066 1085.69 320.803 1085.75 321.028Z" fill="#FF725E"/>
<path d="M1208.2 338.516C1208.2 338.741 1194.48 335.002 1177.67 330.173C1160.86 325.343 1147.28 321.252 1147.35 321.027C1147.41 320.803 1161.08 324.541 1177.89 329.371C1194.7 334.2 1208.27 338.291 1208.2 338.516Z" fill="#FF725E"/>
<path d="M1072.99 367.509C1075.89 364.384 1078.98 361.448 1082.24 358.717C1085.33 355.769 1088.61 353.035 1092.05 350.534C1089.15 353.67 1086.05 356.612 1082.78 359.343C1079.69 362.276 1076.42 365.003 1072.99 367.509Z" fill="#FF725E"/>
<path d="M1117.6 406.802C1117.38 406.802 1117.27 393.084 1117.35 376.189C1117.43 359.294 1117.69 345.56 1117.91 345.576C1118.13 345.592 1118.26 359.278 1118.16 376.189C1118.07 393.1 1117.82 406.802 1117.6 406.802Z" fill="#FF725E"/>
<path d="M1163.84 370.942C1160.46 368.244 1157.25 365.328 1154.22 362.214C1150.97 359.309 1147.9 356.19 1145.04 352.876C1148.43 355.575 1151.64 358.49 1154.66 361.604C1157.92 364.509 1160.98 367.628 1163.84 370.942Z" fill="#FF725E"/>
<path d="M1197.35 313.117L1197.49 315.877C1197.49 315.975 1197.52 316.07 1197.57 316.154C1197.62 316.238 1197.69 316.308 1197.77 316.358L1200.06 317.802C1200.15 317.859 1200.23 317.942 1200.28 318.043C1200.34 318.144 1200.36 318.258 1200.35 318.371C1200.34 318.484 1200.3 318.592 1200.23 318.682C1200.16 318.772 1200.07 318.839 1199.96 318.877L1197.44 319.856C1197.36 319.891 1197.28 319.948 1197.22 320.02C1197.16 320.093 1197.12 320.18 1197.1 320.273L1196.46 322.969C1196.43 323.077 1196.37 323.175 1196.3 323.252C1196.22 323.33 1196.12 323.383 1196.01 323.407C1195.91 323.43 1195.8 323.423 1195.7 323.385C1195.59 323.347 1195.5 323.281 1195.44 323.193L1193.75 321.06C1193.69 320.983 1193.61 320.922 1193.52 320.883C1193.43 320.844 1193.34 320.827 1193.24 320.835L1190.55 321.043C1190.44 321.052 1190.33 321.03 1190.24 320.979C1190.14 320.928 1190.06 320.851 1190.01 320.756C1189.95 320.661 1189.92 320.552 1189.92 320.441C1189.93 320.33 1189.96 320.222 1190.02 320.129L1191.49 317.802C1191.53 317.719 1191.56 317.625 1191.56 317.53C1191.56 317.434 1191.53 317.34 1191.49 317.257L1190.46 314.69C1190.42 314.587 1190.41 314.476 1190.43 314.369C1190.45 314.262 1190.5 314.162 1190.57 314.08C1190.64 313.998 1190.73 313.937 1190.83 313.903C1190.93 313.869 1191.04 313.864 1191.14 313.888L1193.76 314.61C1193.85 314.632 1193.95 314.632 1194.04 314.61C1194.13 314.588 1194.22 314.544 1194.29 314.481L1196.35 312.7C1196.43 312.613 1196.53 312.552 1196.64 312.526C1196.76 312.501 1196.88 312.511 1196.99 312.556C1197.1 312.601 1197.19 312.679 1197.25 312.779C1197.32 312.88 1197.35 312.997 1197.35 313.117Z" fill="#FF725E"/>
<path d="M1214.64 284.029L1215.88 285.344C1215.92 285.39 1215.97 285.424 1216.03 285.444C1216.09 285.463 1216.15 285.468 1216.21 285.457L1217.96 285.168C1218.03 285.157 1218.11 285.166 1218.17 285.195C1218.24 285.223 1218.29 285.27 1218.34 285.33C1218.38 285.389 1218.4 285.46 1218.41 285.533C1218.42 285.606 1218.4 285.68 1218.37 285.745L1217.52 287.35C1217.49 287.406 1217.48 287.47 1217.48 287.534C1217.48 287.599 1217.49 287.662 1217.52 287.719L1218.34 289.323C1218.37 289.39 1218.38 289.463 1218.37 289.536C1218.36 289.608 1218.33 289.677 1218.29 289.735C1218.25 289.792 1218.19 289.837 1218.12 289.863C1218.06 289.89 1217.98 289.897 1217.91 289.885L1216.18 289.564C1216.12 289.551 1216.05 289.553 1215.99 289.57C1215.93 289.586 1215.88 289.617 1215.83 289.66L1214.58 290.96C1214.53 291.011 1214.46 291.046 1214.39 291.062C1214.32 291.078 1214.25 291.074 1214.18 291.051C1214.12 291.028 1214.05 290.986 1214.01 290.931C1213.96 290.875 1213.93 290.807 1213.92 290.735L1213.69 288.922C1213.68 288.86 1213.66 288.801 1213.62 288.751C1213.58 288.7 1213.54 288.66 1213.48 288.633L1211.92 287.799C1211.85 287.769 1211.79 287.72 1211.75 287.657C1211.71 287.594 1211.69 287.521 1211.69 287.446C1211.69 287.371 1211.71 287.298 1211.75 287.235C1211.79 287.172 1211.85 287.123 1211.92 287.093L1213.48 286.307C1213.54 286.284 1213.59 286.245 1213.63 286.194C1213.67 286.143 1213.69 286.082 1213.7 286.018L1213.97 284.237C1213.98 284.163 1214.01 284.094 1214.06 284.037C1214.11 283.981 1214.17 283.939 1214.24 283.918C1214.31 283.896 1214.39 283.895 1214.46 283.914C1214.53 283.934 1214.59 283.974 1214.64 284.029Z" fill="#FF725E"/>
<path d="M1015.98 262.193L1017.2 263.509C1017.24 263.557 1017.29 263.593 1017.35 263.613C1017.41 263.633 1017.47 263.636 1017.53 263.621L1019.29 263.332C1019.36 263.322 1019.43 263.331 1019.5 263.359C1019.56 263.388 1019.62 263.435 1019.66 263.494C1019.7 263.554 1019.73 263.624 1019.74 263.697C1019.74 263.771 1019.73 263.844 1019.69 263.91L1018.85 265.514C1018.82 265.571 1018.8 265.634 1018.8 265.699C1018.8 265.763 1018.82 265.827 1018.85 265.883L1019.66 267.488C1019.69 267.554 1019.7 267.628 1019.7 267.7C1019.69 267.773 1019.66 267.841 1019.62 267.899C1019.57 267.957 1019.52 268.001 1019.45 268.028C1019.38 268.054 1019.31 268.062 1019.24 268.049L1017.5 267.729C1017.44 267.719 1017.38 267.724 1017.32 267.743C1017.26 267.763 1017.2 267.796 1017.16 267.841L1015.9 269.124C1015.85 269.175 1015.79 269.21 1015.72 269.227C1015.65 269.243 1015.58 269.239 1015.51 269.216C1015.44 269.193 1015.38 269.151 1015.33 269.095C1015.29 269.04 1015.26 268.972 1015.25 268.9L1015.03 267.119C1015.02 267.055 1014.99 266.995 1014.96 266.942C1014.92 266.889 1014.88 266.845 1014.82 266.814L1013.26 265.996C1013.19 265.961 1013.14 265.91 1013.11 265.848C1013.07 265.786 1013.05 265.715 1013.05 265.643C1013.05 265.57 1013.07 265.499 1013.11 265.437C1013.14 265.375 1013.19 265.324 1013.26 265.29L1014.82 264.504C1014.88 264.475 1014.93 264.433 1014.97 264.379C1015.01 264.326 1015.03 264.264 1015.04 264.199L1015.31 262.402C1015.32 262.328 1015.35 262.258 1015.4 262.202C1015.45 262.145 1015.51 262.104 1015.58 262.082C1015.65 262.06 1015.73 262.059 1015.8 262.079C1015.87 262.099 1015.93 262.138 1015.98 262.193Z" fill="#FF725E"/>
<path d="M860.119 650.102C860.119 650.102 859.461 649.925 858.271 649.685C856.61 649.337 854.904 649.288 853.227 649.54C850.742 649.895 848.4 650.944 846.46 652.573C844.12 654.577 842.472 657.3 841.76 660.338V660.434L841.463 661.574L841.04 660.483C839.875 657.587 837.881 655.12 835.322 653.407C833.23 652.006 830.827 651.167 828.336 650.968C826.02 650.848 823.702 651.152 821.49 651.867C822.028 651.52 822.614 651.26 823.229 651.097C824.89 650.564 826.629 650.336 828.367 650.423C830.97 650.554 833.495 651.372 835.698 652.797C838.407 654.569 840.518 657.151 841.745 660.194H841.024V660.098C841.771 656.902 843.528 654.048 846.021 651.979C847.742 650.592 849.756 649.635 851.901 649.184C854.046 648.733 856.265 648.8 858.38 649.38C858.995 649.521 859.582 649.765 860.119 650.102Z" fill="#263238"/>
<path d="M935.937 643.957C935.206 644.942 934.416 645.879 933.572 646.765C931.415 649.297 929.466 652.007 927.745 654.867C922.029 664.301 919.032 675.196 919.098 686.298V686.7L918.017 686.796C916.378 675.897 911.448 665.798 903.919 657.916C900.747 654.735 897.291 651.866 893.596 649.348C893.898 649.431 894.184 649.567 894.442 649.749C895.24 650.157 896.014 650.612 896.76 651.113C899.539 652.906 902.118 655.004 904.451 657.37C912.309 665.231 917.455 675.498 919.113 686.619L918.048 686.7V686.298C917.967 674.995 921.126 663.916 927.134 654.434C928.922 651.558 930.984 648.871 933.29 646.412C934.089 645.529 934.856 644.936 935.232 644.502C935.608 644.069 935.922 643.957 935.937 643.957Z" fill="#263238"/>
<path d="M1323.43 548.588C1323.43 548.668 1322.12 548.123 1319.69 547.577C1316.27 546.811 1312.74 546.67 1309.27 547.16C1304.1 547.855 1299.22 550.004 1295.17 553.369C1290.24 557.492 1286.77 563.156 1285.27 569.494V569.67L1284.98 570.826L1284.55 569.735C1282.14 563.719 1278 558.598 1272.68 555.054C1268.34 552.157 1263.35 550.45 1258.19 550.096C1254.71 549.845 1251.21 550.176 1247.84 551.075C1245.44 551.717 1244.19 552.278 1244.15 552.214C1244.43 552.029 1244.73 551.879 1245.05 551.765C1245.93 551.38 1246.83 551.053 1247.76 550.786C1251.98 549.512 1256.43 549.18 1260.79 549.811C1265.16 550.442 1269.34 552.022 1273.06 554.444C1278.52 558.045 1282.78 563.275 1285.26 569.43H1284.54V569.253C1286.06 562.748 1289.65 556.943 1294.74 552.743C1298.21 549.906 1302.29 547.932 1306.64 546.974C1310.98 546.017 1315.49 546.102 1319.8 547.224C1320.73 547.451 1321.65 547.746 1322.54 548.107C1322.85 548.248 1323.15 548.409 1323.43 548.588Z" fill="#263238"/>
<path d="M1427.62 490.025C1427.62 490.025 1426.88 489.816 1425.55 489.543C1423.67 489.141 1421.74 489.081 1419.85 489.367C1417.04 489.759 1414.4 490.942 1412.22 492.784C1409.53 495.024 1407.64 498.108 1406.83 501.561V501.657L1406.55 502.812L1406.11 501.721C1404.81 498.437 1402.55 495.638 1399.66 493.699C1397.31 492.124 1394.62 491.185 1391.82 490.971C1389.92 490.821 1388.01 490.978 1386.15 491.437C1384.84 491.774 1384.13 492.062 1384.12 491.998C1384.26 491.883 1384.43 491.791 1384.6 491.725C1385.08 491.497 1385.57 491.304 1386.08 491.148C1388.41 490.425 1390.87 490.225 1393.29 490.563C1395.71 490.901 1398.03 491.768 1400.1 493.105C1403.14 495.089 1405.51 497.993 1406.88 501.416H1406.16V501.32C1407 497.706 1409 494.483 1411.83 492.159C1413.76 490.596 1416.01 489.514 1418.42 488.996C1420.82 488.478 1423.31 488.539 1425.69 489.174C1426.23 489.309 1426.75 489.486 1427.26 489.704C1427.39 489.791 1427.51 489.9 1427.62 490.025Z" fill="#263238"/>
<path d="M1359.49 466.055C1359.49 466.055 1358.79 466.889 1357.49 468.381C1355.68 470.5 1354.05 472.765 1352.6 475.152C1347.81 483.047 1345.29 492.169 1345.35 501.465V501.802H1344.58C1343.84 496.802 1342.25 491.974 1339.88 487.538C1337.96 483.919 1335.56 480.593 1332.74 477.655C1330.82 475.654 1328.73 473.848 1326.47 472.264C1325.62 471.725 1324.8 471.141 1324.01 470.515C1324.25 470.604 1324.48 470.717 1324.7 470.852C1325.14 471.125 1325.83 471.462 1326.63 472.007C1328.95 473.512 1331.1 475.271 1333.05 477.254C1339.58 483.841 1343.87 492.41 1345.27 501.689H1344.52V501.353C1344.46 491.911 1347.09 482.657 1352.08 474.719C1353.58 472.335 1355.3 470.105 1357.22 468.06C1357.88 467.306 1358.46 466.809 1358.79 466.456C1359.01 466.295 1359.24 466.16 1359.49 466.055Z" fill="#263238"/>
<path d="M1053.11 511.316H1184.2C1189.25 511.316 1189.25 503.293 1184.2 503.293H1053.11C1048.06 503.293 1048.05 511.316 1053.11 511.316Z" fill="#455A64"/>
<path d="M1057.63 357.962H1048.23V974.04H1057.63V357.962Z" fill="#455A64"/>
<path d="M1057.15 974.039C1056.93 974.039 1056.74 836.201 1056.74 666.209C1056.74 496.217 1056.93 358.363 1057.15 358.363C1057.37 358.363 1057.55 496.169 1057.55 666.209C1057.55 836.249 1057.32 974.039 1057.15 974.039Z" fill="#263238"/>
<path d="M1053.11 448.983H1184.2C1189.25 448.983 1189.25 440.961 1184.2 440.961H1053.11C1048.06 440.961 1048.05 448.983 1053.11 448.983Z" fill="#455A64"/>
<path d="M1188.81 359.214H1179.41V974.024H1188.81V359.214Z" fill="#455A64"/>
<path d="M1179.65 896.577C1179.41 896.577 1179.24 776.515 1179.24 628.44C1179.24 480.365 1179.41 360.272 1179.65 360.272C1179.88 360.272 1180.05 480.317 1180.05 628.44C1180.05 776.564 1179.86 896.577 1179.65 896.577Z" fill="#263238"/>
<path d="M1052.93 921.943H1184.11C1189.14 921.943 1189.15 913.921 1184.11 913.921H1052.93C1047.91 913.921 1047.89 921.943 1052.93 921.943Z" fill="#455A64"/>
<path d="M1055.75 797.582H1178.99C1184.03 797.582 1184.03 789.56 1178.99 789.56H1055.75C1050.71 789.56 1050.69 797.582 1055.75 797.582Z" fill="#455A64"/>
<path d="M1052.93 710.669H1184.11C1189.14 710.669 1189.15 702.647 1184.11 702.647H1052.93C1047.91 702.647 1047.89 710.669 1052.93 710.669Z" fill="#455A64"/>
<path d="M1052.93 642.111H1184.11C1189.14 642.111 1189.15 634.088 1184.11 634.088H1052.93C1047.91 634.088 1047.89 642.111 1052.93 642.111Z" fill="#455A64"/>
<path d="M1052.93 575.173H1184.11C1189.14 575.173 1189.15 567.151 1184.11 567.151H1052.93C1047.91 567.151 1047.89 575.173 1052.93 575.173Z" fill="#455A64"/>
<path d="M1054.19 861.664H1178.86C1183.91 861.664 1183.91 853.642 1178.86 853.642H1054.19C1049.14 853.642 1049.14 861.664 1054.19 861.664Z" fill="#455A64"/>
<path d="M1160.91 457.358L1152.95 439.212C1152.95 439.212 1153.38 429.585 1152.03 428.687C1150.18 427.564 1149.73 428.494 1149.21 431.735L1148.47 436.549C1148.47 436.549 1145.43 429.762 1142.6 429.489C1140.67 429.296 1140.12 432.698 1140.12 432.698C1140.12 432.698 1136.91 429.633 1134.64 430.371C1132.37 431.109 1133.07 434.286 1133.07 434.286C1132.75 434.062 1132.38 433.916 1132 433.859C1131.61 433.802 1131.22 433.836 1130.85 433.958C1130.47 434.08 1130.14 434.287 1129.85 434.564C1129.57 434.84 1129.36 435.179 1129.22 435.554C1127.89 438.875 1133.73 443.913 1134.62 446.143C1136.49 450.796 1132.53 450.957 1132.53 450.957C1132.53 450.957 1122.36 449.625 1122.88 452.304C1123.39 454.984 1126.79 454.968 1129.41 455.24C1131.57 455.465 1139.75 457.551 1142.39 458.225C1142.95 458.373 1143.48 458.611 1143.96 458.931L1150.04 465.348L1160.91 457.358Z" fill="#FFBE9D"/>
<path d="M1156.79 874.131L1156.45 920.724L1131.9 921.029L1132.15 874.356L1156.79 874.131Z" fill="#FF725E"/>
<path d="M1144.34 919.119C1144.12 919.119 1144.16 908.915 1144.34 896.336C1144.51 883.757 1144.96 873.569 1145.17 873.569C1145.37 873.569 1145.34 883.773 1145.09 896.352C1144.84 908.931 1144.54 919.119 1144.34 919.119Z" fill="#263238"/>
<path d="M1131.98 906.123C1132.13 905.749 1132.35 905.406 1132.62 905.113C1133.28 904.246 1134.02 903.45 1134.83 902.738C1136.03 901.651 1137.37 900.748 1138.82 900.059C1141.35 898.835 1144.2 898.474 1146.95 899.028C1149.69 899.582 1152.19 901.023 1154.08 903.139C1154.8 903.966 1155.4 904.895 1155.85 905.899C1156.04 906.252 1156.17 906.638 1156.23 907.038C1155.48 905.793 1154.63 904.613 1153.69 903.508C1151.27 901.001 1147.98 899.571 1144.54 899.529C1141.1 899.598 1137.78 900.878 1135.14 903.155C1133.09 904.84 1132.09 906.204 1131.98 906.123Z" fill="#263238"/>
<path opacity="0.3" d="M1131.91 891.217L1131.88 896.352H1156.79V891.217H1131.91Z" fill="black"/>
<path d="M1131.9 921.029L1131.93 916.168L1156.48 916.184L1156.45 920.724L1131.9 921.029Z" fill="#E0E0E0"/>
<path d="M1105.3 753.235L1104.97 797.935L1081.43 798.24L1081.66 753.444L1105.3 753.235Z" fill="#FF725E"/>
<path d="M1093.35 796.379C1093.16 796.379 1093.19 786.592 1093.43 774.527C1093.66 762.461 1094.02 752.674 1094.21 752.674C1094.4 752.674 1094.38 762.461 1094.13 774.543C1093.88 786.624 1093.55 796.379 1093.35 796.379Z" fill="#263238"/>
<path d="M1081.51 783.912C1081.51 783.912 1081.68 783.543 1082.12 782.949C1082.75 782.119 1083.46 781.356 1084.25 780.671C1085.39 779.63 1086.68 778.766 1088.07 778.104C1090.5 776.924 1093.23 776.575 1095.87 777.11C1098.51 777.644 1100.91 779.034 1102.72 781.072C1103.4 781.861 1103.97 782.747 1104.41 783.703C1104.6 784.044 1104.72 784.42 1104.77 784.81C1104.06 783.608 1103.25 782.475 1102.34 781.425C1100.02 779.015 1096.86 777.642 1093.55 777.606C1090.25 777.668 1087.08 778.892 1084.56 781.072C1082.57 782.693 1081.6 784.008 1081.51 783.912Z" fill="#263238"/>
<path opacity="0.3" d="M1081.43 769.617L1081.41 774.543H1105.3V769.617H1081.43Z" fill="black"/>
<path d="M1081.43 798.24L1081.44 793.571H1105L1104.97 797.935L1081.43 798.24Z" fill="#E0E0E0"/>
<path d="M1109.8 453.54L1110.42 453.379C1111.42 451.665 1112.81 450.233 1114.48 449.21C1116.16 448.188 1118.05 447.608 1119.99 447.523C1123.92 447.42 1127.73 448.874 1130.63 451.582C1132.65 453.427 1134.25 455.706 1136.27 457.519C1137.22 458.502 1138.38 459.25 1139.66 459.706C1140.94 460.162 1142.3 460.314 1143.65 460.15C1143.96 461.161 1142.08 461.754 1142.24 462.797C1142.3 463.045 1142.43 463.268 1142.62 463.437C1142.81 463.606 1143.04 463.713 1143.29 463.744C1144.01 463.8 1144.73 463.8 1145.45 463.744C1145.81 463.715 1146.17 463.803 1146.48 463.996C1146.79 464.189 1147.03 464.477 1147.17 464.819C1147.23 465.179 1147.2 465.55 1147.08 465.894C1146.39 469.088 1144.92 472.049 1142.8 474.494C1141.73 475.701 1140.39 476.624 1138.9 477.183C1137.4 477.742 1135.8 477.92 1134.22 477.703C1131.77 477.004 1129.52 475.704 1127.67 473.916L1116.39 464.658C1114.6 463.311 1112.99 461.731 1111.6 459.957C1110.2 458.145 1109.55 455.838 1109.8 453.54Z" fill="#263238"/>
<path d="M1112.15 454.181C1110.63 452.875 1108.83 451.962 1106.9 451.518C1105.93 451.306 1104.94 451.295 1103.97 451.485C1103 451.675 1102.08 452.063 1101.26 452.625C1099.88 453.874 1098.72 455.349 1097.81 456.989C1097.36 457.807 1096.74 458.522 1096.01 459.093C1095.28 459.663 1094.44 460.077 1093.55 460.31C1093.23 460.311 1092.92 460.412 1092.66 460.599C1092.24 461 1092.53 461.786 1093.05 462.027C1093.6 462.212 1094.18 462.212 1094.73 462.027C1093.82 463.11 1092.58 463.832 1091.2 464.064C1091.38 464.736 1091.81 465.31 1092.39 465.661C1092.98 466.012 1093.68 466.113 1094.34 465.942C1093.73 468.104 1093.38 470.335 1093.3 472.584C1093.24 474.855 1093.99 477.071 1095.42 478.809C1096.98 480.622 1099.72 481.633 1100.45 484.008" fill="#263238"/>
<path d="M1127.95 533.473L1098.63 533.088L1101.9 507.417C1101.9 507.417 1099.9 506.967 1099.77 495.833C1099.65 484.698 1099.13 465.749 1099.13 465.749C1105.31 463.035 1112.08 462.061 1118.75 462.927C1125.42 463.793 1131.75 466.468 1137.07 470.675L1138.63 471.942L1127.95 533.473Z" fill="#FFBE9D"/>
<path d="M1135.28 485.693C1135.47 485.597 1142.74 483.415 1142.5 491.036C1142.27 498.657 1134.86 496.844 1134.86 496.619C1134.86 496.395 1135.28 485.693 1135.28 485.693Z" fill="#FFBE9D"/>
<path d="M1100.4 484.088C1100.21 484.008 1093.58 482.179 1093.84 489.8C1094.09 497.421 1101.48 495.608 1101.48 495.383C1101.48 495.159 1100.4 484.088 1100.4 484.088Z" fill="#FFBE9D"/>
<path d="M1137.68 484.842C1136.58 491.26 1136.8 494.565 1135.77 498.833C1134.2 505.588 1130.88 510.754 1124.94 514.124C1119.01 517.493 1111 517.429 1105.93 512.84C1102.35 510.009 1099.99 505.857 1099.36 501.272C1098.83 496.459 1097.45 487.474 1097.42 482.66C1097.42 473.964 1097.66 466.167 1097.66 466.167L1121.87 461.658L1135.66 470.065L1137.68 484.842Z" fill="#263238"/>
<path d="M1112.7 517.975C1114.07 518.392 1115.51 518.523 1116.94 518.36C1118.37 518.198 1119.75 517.745 1121 517.028C1121 516.836 1119.15 517.413 1116.86 517.67C1114.58 517.927 1112.73 517.766 1112.7 517.975Z" fill="#263238"/>
<path d="M1136.52 495.688C1137.22 489.142 1137.68 481.666 1138.68 474.831C1139.32 471.901 1139.68 468.912 1139.73 465.91C1139.51 463.295 1138.81 464.097 1137.68 461.722C1136.27 458.77 1130.9 456.797 1127.75 456.155C1124.6 455.513 1124.21 452.705 1121.8 454.871C1120.92 453.488 1119.65 452.414 1118.16 451.796C1116.67 451.179 1115.02 451.046 1113.46 451.418C1111.89 451.79 1110.47 452.647 1109.39 453.874C1108.32 455.1 1107.64 456.636 1107.45 458.273C1106.57 457.431 1105.46 456.905 1104.27 456.777C1103.07 456.648 1101.88 456.924 1100.85 457.562C1099.83 458.2 1099.04 459.165 1098.6 460.308C1098.17 461.451 1098.11 462.709 1098.44 463.888C1097.57 464.051 1096.76 464.431 1096.07 464.994C1095.38 465.558 1094.83 466.287 1094.48 467.117C1094.13 467.947 1093.99 468.853 1094.07 469.754C1094.14 470.654 1094.43 471.522 1094.91 472.279C1096.04 474.044 1098.05 475.023 1099.3 476.708C1099.97 477.697 1100.36 478.86 1100.41 480.063C1100.47 481.266 1100.19 482.461 1099.61 483.511" fill="#263238"/>
<path d="M1105.3 494.325C1104.95 496.592 1105.25 498.913 1106.15 501.015C1106.83 503.2 1108.11 505.142 1109.83 506.615C1108.64 504.752 1107.59 502.8 1106.7 500.774C1106.07 498.664 1105.6 496.508 1105.3 494.325Z" fill="#455A64"/>
<path d="M1102.04 488.773C1101.27 490.684 1101.11 492.794 1101.57 494.806C1101.83 496.857 1102.71 498.772 1104.09 500.277C1103.31 498.471 1102.7 496.597 1102.25 494.677C1102.02 492.718 1101.95 490.744 1102.04 488.773Z" fill="#455A64"/>
<path d="M1132.51 462.428C1130.76 459.372 1128.12 456.95 1124.96 455.497C1123.37 454.803 1121.64 454.553 1119.92 454.773C1118.21 454.993 1116.59 455.675 1115.22 456.748" fill="#263238"/>
<path d="M1131.95 479.291C1131.82 479.291 1131.95 478.408 1132.18 477.045C1132.53 475.307 1132.72 473.54 1132.75 471.766C1132.75 470.017 1132.37 468.29 1131.63 466.712C1131.05 465.525 1130.47 464.899 1130.57 464.803C1130.66 464.706 1131.4 465.188 1132.14 466.407C1133.09 468.022 1133.59 469.877 1133.58 471.766C1133.56 473.605 1133.28 475.432 1132.75 477.189C1132.39 478.537 1132.06 479.323 1131.95 479.291Z" fill="#455A64"/>
<path d="M1126.93 481.81C1127.1 480.598 1127.42 479.415 1127.9 478.296C1128.14 477.094 1128.54 475.932 1129.1 474.846C1129.37 476.096 1129.23 477.402 1128.72 478.569C1128.11 480.542 1127.14 481.906 1126.93 481.81Z" fill="#455A64"/>
<path d="M1103.67 479.852C1102.9 479.112 1102.32 478.177 1102.01 477.14C1101.03 474.692 1100.77 472.003 1101.27 469.407C1101.79 466.818 1103.03 464.438 1104.85 462.556C1105.53 461.722 1106.42 461.081 1107.42 460.695C1107.49 460.823 1106.51 461.513 1105.3 462.973C1103.7 464.851 1102.6 467.126 1102.12 469.572C1101.64 472.019 1101.8 474.55 1102.57 476.916C1103.15 478.697 1103.8 479.788 1103.67 479.852Z" fill="#455A64"/>
<path d="M1130.16 451.518C1129.32 451.276 1128.52 450.931 1127.76 450.491C1125.94 449.568 1123.95 449.064 1121.92 449.015C1120.93 448.994 1119.95 449.187 1119.03 449.583C1118.12 449.978 1117.3 450.567 1116.63 451.309C1116.12 451.994 1115.66 452.718 1115.26 453.475C1115.24 453.008 1115.3 452.54 1115.46 452.099C1115.61 451.658 1115.85 451.253 1116.16 450.908C1116.76 450.095 1117.53 449.432 1118.41 448.967C1119.5 448.418 1120.69 448.133 1121.91 448.133C1124.07 448.17 1126.19 448.79 1128.05 449.93C1128.84 450.313 1129.56 450.853 1130.16 451.518Z" fill="#455A64"/>
<path d="M1097.03 458.577C1096.94 458.577 1097.11 457.695 1097.89 456.556C1098.93 455.088 1100.42 454.017 1102.12 453.509C1103.82 453.001 1105.64 453.085 1107.29 453.748C1108.53 454.278 1109.12 454.903 1109.06 454.984C1108.39 454.814 1107.73 454.599 1107.09 454.342C1105.53 453.878 1103.88 453.877 1102.33 454.341C1100.78 454.804 1099.38 455.711 1098.32 456.957C1097.52 457.839 1097.16 458.642 1097.03 458.577Z" fill="#455A64"/>
<path d="M1105.02 486.575C1105.02 486.463 1106.21 486.142 1108.15 485.243C1110.79 484.025 1113.2 482.353 1115.28 480.302L1116.67 478.906L1115.91 480.751C1115.43 481.917 1115.08 483.133 1114.86 484.377C1114.75 485.003 1114.65 485.789 1114.86 485.901C1115.06 486.013 1115.69 485.741 1116.25 485.339C1118.12 484.103 1119.8 482.583 1121.23 480.831L1122.52 479.227L1121.94 481.184L1120.29 486.639L1119.73 486.302C1121.53 484.456 1123.1 482.399 1124.43 480.173C1124.26 480.874 1123.98 481.541 1123.6 482.147C1122.67 483.855 1121.51 485.422 1120.15 486.8L1119.24 487.73L1119.6 486.447C1120.06 484.842 1120.56 482.933 1121.17 480.959L1121.87 481.344C1120.41 483.215 1118.67 484.839 1116.72 486.158C1116.41 486.362 1116.09 486.55 1115.77 486.719C1115.55 486.848 1115.31 486.915 1115.06 486.915C1114.81 486.915 1114.57 486.848 1114.36 486.719C1114.18 486.556 1114.04 486.351 1113.96 486.121C1113.88 485.892 1113.85 485.646 1113.89 485.404C1113.89 485.003 1113.98 484.698 1114.03 484.345C1114.27 483.041 1114.66 481.77 1115.19 480.558L1115.83 481.007C1113.65 483.1 1111.09 484.735 1108.29 485.821C1107.25 486.26 1106.14 486.515 1105.02 486.575Z" fill="#455A64"/>
<path d="M1119.2 457.198C1118.94 456.747 1118.6 456.352 1118.2 456.035C1117.8 455.718 1117.34 455.487 1116.85 455.353C1115.86 455.12 1114.83 455.12 1113.84 455.353C1111.39 455.828 1109.18 457.154 1107.57 459.107C1107.21 459.541 1106.88 460.23 1107.27 460.712C1107.51 460.906 1107.8 461.008 1108.11 461.001C1111.76 461.31 1115.44 461.175 1119.07 460.599" fill="#263238"/>
<path d="M1071.31 680.938C1071.79 681.837 1077.73 702.181 1090.83 705.631C1103.92 709.08 1144.73 706.786 1145.84 705.631C1146.95 704.476 1158.95 697.705 1164.75 683.65C1170.54 669.595 1128.92 645.063 1128.92 645.063L1071.31 680.938Z" fill="#263238"/>
<path d="M1171.67 686.442L1172.03 697.785C1172.03 699.534 1171.83 708.326 1171.64 710.059L1166.55 780.511C1166.05 780.302 1163.09 823.831 1162.84 839.105C1162.59 853.802 1161.38 893.785 1161.38 893.785H1127.89L1125.63 827.585L1124.22 755.93L1122.16 705.791L1171.67 686.442Z" fill="#263238"/>
<path d="M1071.31 669.724C1071.31 669.724 1072.04 670.847 1071.87 686.442C1071.75 698.363 1078.81 771.847 1078.81 771.847L1107.4 770.965L1113.12 697.369L1071.31 669.724Z" fill="#263238"/>
<path d="M1124.79 706.674C1124 706.855 1123.2 706.968 1122.39 707.011C1120.83 707.187 1118.6 707.396 1115.81 707.572C1108.54 708.17 1101.21 707.733 1094.05 706.273C1086.77 704.832 1080.22 700.783 1075.59 694.849C1074.24 693.034 1073.19 691.015 1072.45 688.864C1072.25 688.282 1072.09 687.687 1071.97 687.083C1071.87 686.666 1071.84 686.442 1071.87 686.442C1072.83 689.33 1074.23 692.039 1076.04 694.464C1080.7 700.146 1087.12 704.02 1094.23 705.438C1101.32 706.881 1108.56 707.42 1115.78 707.043L1122.38 706.738C1123.18 706.64 1123.98 706.618 1124.79 706.674Z" fill="#455A64"/>
<path d="M1158.69 705.262C1157.51 705.741 1156.28 706.074 1155.02 706.257C1149.02 707.433 1142.92 707.97 1136.82 707.861C1135.55 707.901 1134.29 707.793 1133.04 707.54C1134.29 707.323 1135.55 707.232 1136.82 707.268C1139.14 707.171 1142.35 707.011 1145.89 706.69C1149.43 706.369 1152.62 705.968 1154.93 705.631C1156.16 705.38 1157.42 705.257 1158.69 705.262Z" fill="#455A64"/>
<path d="M1157.72 718.161C1156.09 718.158 1154.47 717.991 1152.88 717.664C1149.91 717.215 1145.84 716.429 1141.39 715.306C1136.94 714.182 1132.98 712.931 1130.15 711.92C1128.59 711.448 1127.08 710.824 1125.63 710.059C1127.23 710.375 1128.8 710.809 1130.33 711.359C1133.2 712.225 1137.18 713.38 1141.6 714.567C1146.01 715.755 1150.07 716.541 1153 717.151C1154.6 717.365 1156.17 717.703 1157.72 718.161Z" fill="#455A64"/>
<path d="M1149.74 471.349C1148.51 468.768 1147.13 466.266 1145.61 463.856C1145.61 463.856 1154.85 453.828 1160.41 454.133L1165.69 461.61L1149.74 471.349Z" fill="white"/>
<path d="M1193.51 502.876C1191.49 496.458 1166.16 458.994 1166.16 458.994C1156.76 458.994 1147.71 470.594 1147.71 470.594L1165.7 509.422L1146.78 527.263L1168.15 553.111C1168.15 553.111 1181.64 535.831 1185.68 529.574C1194.68 515.599 1195.51 509.326 1193.51 502.876Z" fill="#FF725E"/>
<path opacity="0.3" d="M1070.49 678.869C1070.49 678.869 1072.61 693.309 1084.39 697.561C1096.17 701.813 1123.38 697.561 1123.38 697.561L1126.51 687.052L1129.89 699.454L1171.99 693.935L1171.39 684.083L1126.78 665.103L1070.49 678.869Z" fill="black"/>
<path d="M1162.27 630.816C1161.38 625.714 1160.24 623.131 1160.02 620.05C1159.34 610.857 1159.39 588.811 1160.02 585.988C1160.82 582.281 1168.13 553.112 1168.13 553.112L1165.64 530.522L1134.56 525.227L1132.38 520.093C1132.38 520.093 1111.64 514.589 1098.53 521.809L1096.26 527.297L1088.16 529.382C1086.94 529.88 1080.6 531.693 1075.79 533.025C1073.14 533.747 1070.67 535.054 1068.57 536.856C1066.46 538.658 1064.77 540.91 1063.6 543.454C1062.77 545.299 1062.05 547.19 1061.42 549.117C1059.28 555.631 1046.93 591.635 1046.39 602.61C1045.74 615.445 1056.83 615.879 1063.62 614.242C1070.4 612.605 1077.82 597.074 1077.82 597.074L1082.09 627.463C1081.46 631.611 1080.47 635.692 1079.13 639.657C1074.99 651.209 1069.04 673.559 1069.04 673.559C1071.36 681.003 1079.78 692.812 1084.2 694.417C1088.62 696.021 1118.15 694.721 1118.15 694.721L1126.86 671.056L1134.89 695.941L1176.79 689.25L1162.27 630.816Z" fill="#FF725E"/>
<path d="M1126.81 622.055C1126.92 622.248 1120.89 626.339 1113.34 631.168C1108.84 634.212 1104.2 637.024 1099.43 639.592C1103.77 636.318 1108.26 633.271 1112.9 630.462C1117.39 627.42 1122.04 624.614 1126.81 622.055Z" fill="#263238"/>
<path d="M1115.78 634.538C1115.89 634.731 1109.51 639.095 1101.45 644.293C1093.38 649.492 1086.82 653.535 1086.69 653.342C1086.57 653.15 1092.96 648.786 1101.02 643.587C1109.09 638.389 1115.66 634.33 1115.78 634.538Z" fill="#263238"/>
<path d="M1148.91 600.524C1147.75 603.504 1146.05 606.228 1143.88 608.546C1141.92 611.034 1139.51 613.105 1136.77 614.643C1136.61 614.45 1139.9 611.899 1143.27 608.001C1146.64 604.102 1148.69 600.395 1148.91 600.524Z" fill="#263238"/>
<path d="M1149.74 604.583C1149.42 605.714 1148.94 606.794 1148.33 607.792C1147.01 610.283 1145.52 612.679 1143.88 614.964C1142.24 617.23 1140.44 619.374 1138.49 621.382C1137.75 622.285 1136.88 623.069 1135.91 623.708C1135.74 623.532 1139.42 619.713 1143.23 614.403C1147.03 609.092 1149.54 604.455 1149.74 604.583Z" fill="#263238"/>
<path d="M1150.73 643.956C1150.97 642.5 1151.33 641.067 1151.81 639.672C1152.55 637.057 1153.52 633.431 1154.44 629.372C1155.37 625.313 1156.01 621.638 1156.51 618.943C1156.69 617.479 1156.98 616.03 1157.37 614.611C1157.43 616.094 1157.33 617.579 1157.07 619.039C1156.64 622.562 1156.02 626.06 1155.22 629.516C1154.44 632.993 1153.48 636.425 1152.36 639.801C1151.96 641.24 1151.41 642.633 1150.73 643.956Z" fill="#263238"/>
<path d="M1166.16 549.566C1165.94 549.694 1163.15 544.752 1158.94 539.249C1154.72 533.746 1150.74 529.751 1150.92 529.622C1151.95 530.295 1152.89 531.111 1153.7 532.045C1155.81 534.151 1157.77 536.403 1159.58 538.784C1161.39 541.161 1163.04 543.659 1164.53 546.26C1165.21 547.284 1165.76 548.395 1166.16 549.566Z" fill="#263238"/>
<path d="M1172.88 538.142C1171.09 535.547 1168.98 533.196 1166.61 531.147C1164.1 529.308 1161.36 527.809 1158.47 526.686C1159.41 526.671 1160.34 526.857 1161.21 527.232C1165.51 528.717 1169.19 531.66 1171.64 535.575C1172.22 536.337 1172.64 537.21 1172.88 538.142Z" fill="#263238"/>
<path d="M1082.04 627.398C1081.82 627.398 1079.3 610.824 1076.43 590.319C1073.56 569.814 1071.4 553.144 1071.64 553.112C1071.87 553.08 1074.36 569.686 1077.24 590.191C1080.13 610.696 1082.26 627.35 1082.04 627.398Z" fill="#263238"/>
<path d="M1135 525.226C1133.09 525.273 1131.19 525.219 1129.28 525.066C1125.74 524.921 1120.87 524.857 1115.48 525.066C1110.09 525.274 1105.25 525.9 1101.76 526.397C1099.88 526.752 1097.98 527.004 1096.07 527.151C1096.55 526.941 1097.05 526.784 1097.56 526.686C1098.52 526.445 1099.93 526.141 1101.67 525.82C1106.22 524.983 1110.83 524.447 1115.45 524.215C1120.07 523.978 1124.7 524.037 1129.31 524.392C1131.08 524.536 1132.45 524.697 1133.5 524.841C1134.01 524.903 1134.52 525.032 1135 525.226Z" fill="#263238"/>
<g opacity="0.3">
<path d="M1077.94 598.165C1076.28 585.329 1073.99 572.493 1072.33 559.658C1067.8 572.285 1070.29 587.19 1077.94 598.165Z" fill="black"/>
</g>
<g opacity="0.3">
<path d="M1165.41 508.925C1168.35 506.063 1172.1 504.231 1176.12 503.694C1177.06 503.483 1178.04 503.477 1178.98 503.676C1179.93 503.875 1180.82 504.275 1181.6 504.849C1181.78 504.978 1181.92 505.147 1182.01 505.343C1182.11 505.538 1182.15 505.754 1182.15 505.973C1182.11 506.185 1182 506.377 1181.84 506.523C1181.68 506.67 1181.49 506.763 1181.27 506.791C1180.86 506.88 1180.42 506.88 1180.01 506.791C1175.2 505.908 1169.98 507.352 1165.42 509.149" fill="black"/>
</g>
<g opacity="0.3">
<path d="M1097.84 527.424C1101.88 528.441 1106.07 528.659 1110.19 528.066C1117.5 527.414 1124.78 526.44 1132.02 525.146C1120.37 523.53 1108.52 524.211 1097.11 527.152" fill="black"/>
</g>
<g opacity="0.3">
<path d="M1096.48 647.614C1113.06 642.82 1127.95 633.253 1139.37 620.05C1126.25 628.537 1109.25 638.276 1096.48 647.614Z" fill="black"/>
</g>
<path d="M1175.56 507.016C1173.69 506.935 1171.81 507.086 1169.98 507.465C1168.22 508.116 1166.54 508.989 1164.98 510.064C1164.91 510.064 1165.25 509.406 1166.06 508.684C1167.13 507.743 1168.39 507.053 1169.75 506.663C1171.11 506.272 1172.53 506.184 1173.93 506.406C1174.99 506.599 1175.59 506.919 1175.56 507.016Z" fill="#263238"/>
<path d="M1022.06 488.452L1007.63 489.126C1002.97 494.816 996.853 499.056 989.963 501.368C985.11 502.985 979.989 503.587 974.904 503.139C969.82 502.691 964.874 501.201 960.362 498.76C955.849 496.318 951.861 492.973 948.634 488.923C945.407 484.873 943.007 480.201 941.575 475.184C938.521 464.956 939.47 453.913 944.22 444.389C948.97 434.865 957.15 427.606 967.03 424.146C971.884 422.528 977.005 421.925 982.09 422.373C987.176 422.821 992.121 424.311 996.633 426.755C1001.15 429.199 1005.13 432.547 1008.36 436.599C1011.58 440.652 1013.98 445.327 1015.4 450.347C1017.97 458.934 1017.73 468.142 1014.73 476.579L1022.06 488.452Z" fill="white"/>
<path d="M1022.06 488.452L1021.54 487.666L1020.1 485.371L1014.59 476.611H1014.87C1014.85 476.629 1014.84 476.643 1014.81 476.652C1014.79 476.662 1014.77 476.667 1014.75 476.667C1014.72 476.667 1014.7 476.662 1014.68 476.652C1014.66 476.643 1014.64 476.629 1014.62 476.611C1014.6 476.578 1014.58 476.539 1014.58 476.499C1014.58 476.459 1014.6 476.419 1014.62 476.387C1016.81 470.081 1017.48 463.329 1016.59 456.7C1016.01 452.439 1014.75 448.305 1012.87 444.458C1008.49 435.216 1000.72 428.117 991.264 424.707C985.963 422.815 980.317 422.163 974.738 422.798C968.81 423.522 963.124 425.63 958.118 428.959C952.899 432.444 948.596 437.187 945.586 442.773C942.496 448.258 940.729 454.418 940.432 460.743C940.104 466.766 941.066 472.79 943.252 478.392C945.244 483.495 948.265 488.11 952.116 491.937C955.968 495.763 960.564 498.714 965.605 500.598C974.034 503.716 983.272 503.647 991.656 500.405C997.809 498.013 1003.27 494.06 1007.52 488.917C1007.57 488.903 1007.62 488.903 1007.66 488.917L1018.33 488.548L1021.12 488.452H1022.09H1021.2L1018.47 488.629L1007.68 489.254H1007.81C1003.55 494.503 998.057 498.546 991.844 500.999C983.345 504.365 973.948 504.484 965.37 501.336C960.226 499.438 955.531 496.447 951.595 492.559C947.658 488.671 944.57 483.974 942.531 478.777C940.279 473.058 939.284 466.901 939.618 460.743C939.808 457.56 940.333 454.408 941.184 451.341C943.043 445.074 946.255 439.316 950.583 434.494C952.747 432.16 955.164 430.088 957.789 428.317C962.874 424.909 968.658 422.746 974.691 421.996C980.171 421.393 985.714 422.006 990.942 423.795C996.17 425.584 1000.96 428.505 1004.99 432.36C1008.5 435.73 1011.37 439.733 1013.46 444.169C1015.34 448.089 1016.59 452.293 1017.16 456.62C1018.04 463.359 1017.3 470.217 1015 476.595L1014.68 476.435C1014.7 476.417 1014.72 476.403 1014.74 476.394C1014.76 476.384 1014.78 476.379 1014.81 476.379C1014.83 476.379 1014.85 476.384 1014.88 476.394C1014.9 476.403 1014.92 476.417 1014.93 476.435C1017.28 480.35 1019.08 483.366 1020.34 485.436L1021.68 487.714C1021.94 488.211 1022.06 488.452 1022.06 488.452Z" fill="#263238"/>
<path d="M966.279 456.267L977.777 441.329L989.275 456.074L966.279 456.267Z" fill="#FF725E"/>
<path d="M983.447 483.574L972.968 483.654L972.639 453.844L983.103 453.763L983.447 483.574Z" fill="#FF725E"/>
</svg>