<svg width="589" height="583" viewBox="0 0 589 583" fill="none" xmlns="http://www.w3.org/2000/svg">
<path d="M240.721 72.502H267.599" stroke="#263238" stroke-width="2" stroke-miterlimit="10"/>
<path d="M253.327 67.9621L249.119 79.2963C249.119 79.2963 123.111 91.3872 112.188 74.7568C101.266 58.1264 119.762 52.1028 163.436 58.141C207.111 64.1791 253.327 67.9621 253.327 67.9621Z" fill="white" stroke="#263238" stroke-miterlimit="10"/>
<path d="M349.382 72.502H322.504" stroke="#263238" stroke-width="2" stroke-miterlimit="10"/>
<path d="M336.777 67.9621L340.985 79.2963C340.985 79.2963 466.993 91.3872 477.899 74.7568C488.806 58.1264 470.423 52.1028 426.732 58.141C383.041 64.1791 336.777 67.9621 336.777 67.9621Z" fill="white" stroke="#263238" stroke-miterlimit="10"/>
<path d="M279.476 94.7051C279.476 94.7051 274.735 119.105 283.263 121.404C291.791 123.703 312.131 123.194 317.795 116.384C323.459 109.575 319.656 102.766 313.377 92.5226C307.099 82.2796 290.61 81.6685 279.476 94.7051Z" fill="white" stroke="#263238" stroke-miterlimit="10"/>
<path d="M291.191 0V76.4882H298.845V3.4483" fill="white"/>
<path d="M291.191 0V76.4881H298.845V3.4483" stroke="#263238" stroke-miterlimit="10"/>
<path d="M272.114 81.1727C287.435 85.5377 303.882 85.5377 319.203 81.1727H331.259V71.3516C331.259 64.0767 315.32 58.2568 295.659 58.2568C275.998 58.2568 260.059 64.0767 260.059 71.3516V81.1727H272.114Z" fill="white" stroke="#263238" stroke-miterlimit="10"/>
<path d="M295.659 94.2677C315.32 94.2677 331.259 88.405 331.259 81.1729C331.259 73.9409 315.32 68.0781 295.659 68.0781C275.997 68.0781 260.059 73.9409 260.059 81.1729C260.059 88.405 275.997 94.2677 295.659 94.2677Z" fill="white" stroke="#263238" stroke-miterlimit="10"/>
<path d="M295.659 94.2677C315.32 94.2677 331.259 88.405 331.259 81.1729C331.259 73.9409 315.32 68.0781 295.659 68.0781C275.997 68.0781 260.059 73.9409 260.059 81.1729C260.059 88.405 275.997 94.2677 295.659 94.2677Z" fill="white" stroke="#263238" stroke-miterlimit="10"/>
<path d="M422.168 341.774H399.174V399.595H422.168V341.774Z" fill="#A8A8A8"/>
<path d="M416.425 346.518H404.936V380.884H416.425V346.518Z" fill="#8C8C8C"/>
<path d="M410.68 394.561C412.566 394.561 414.094 393.186 414.094 391.491C414.094 389.795 412.566 388.421 410.68 388.421C408.794 388.421 407.266 389.795 407.266 391.491C407.266 393.186 408.794 394.561 410.68 394.561Z" fill="#8C8C8C"/>
<path d="M455.002 341.774H432.008V399.595H455.002V341.774Z" fill="#8C8C8C"/>
<path d="M449.241 346.518H437.752V380.884H449.241V346.518Z" fill="#A8A8A8"/>
<path d="M443.512 394.561C445.398 394.561 446.926 393.186 446.926 391.491C446.926 389.795 445.398 388.421 443.512 388.421C441.626 388.421 440.098 389.795 440.098 391.491C440.098 393.186 441.626 394.561 443.512 394.561Z" fill="#A8A8A8"/>
<path d="M487.834 341.774H464.84V399.595H487.834V341.774Z" fill="#8C8C8C"/>
<path d="M482.073 346.518H470.584V380.884H482.073V346.518Z" fill="#A8A8A8"/>
<path d="M479.76 391.447C479.76 390.836 479.558 390.239 479.18 389.732C478.803 389.224 478.266 388.829 477.638 388.596C477.01 388.363 476.32 388.302 475.654 388.423C474.988 388.543 474.377 388.838 473.898 389.271C473.418 389.704 473.093 390.255 472.962 390.854C472.832 391.453 472.902 392.074 473.164 392.637C473.426 393.201 473.869 393.681 474.435 394.019C475.001 394.356 475.666 394.534 476.345 394.531C477.252 394.528 478.121 394.201 478.761 393.623C479.4 393.045 479.76 392.262 479.76 391.447Z" fill="#A8A8A8"/>
<path d="M520.666 341.774H497.672V399.595H520.666V341.774Z" fill="#A8A8A8"/>
<path d="M514.907 346.518H503.418V380.884H514.907V346.518Z" fill="#8C8C8C"/>
<path d="M512.592 391.447C512.592 390.837 512.39 390.24 512.013 389.733C511.636 389.226 511.101 388.831 510.474 388.597C509.847 388.364 509.157 388.303 508.492 388.422C507.826 388.541 507.215 388.834 506.735 389.266C506.255 389.697 505.929 390.247 505.796 390.845C505.664 391.443 505.732 392.064 505.992 392.627C506.251 393.191 506.691 393.673 507.255 394.012C507.819 394.351 508.483 394.531 509.161 394.531C510.071 394.531 510.943 394.206 511.587 393.628C512.23 393.049 512.592 392.265 512.592 391.447Z" fill="#8C8C8C"/>
<path d="M558.047 194.428V190.238H549.341V174.655H542.512V190.238H389.658V174.655H382.829V190.238H371.324V194.428H382.829V259.786H371.324V263.976H382.829V329.348H371.324V333.539H382.829V398.896H371.324V403.087H382.829V474.642H389.658V403.087H542.512V474.642H549.341V403.087H558.047V398.896H549.341V333.539H558.047V329.348H549.341V263.976H558.047V259.786H549.341V194.428H558.047ZM542.512 398.896H389.658V333.539H542.512V398.896ZM542.512 329.348H389.658V263.976H542.512V329.348ZM542.512 259.786H389.658V194.428H542.512V259.786Z" fill="#A8A8A8"/>
<path d="M500.522 201.966H477.527V259.787H500.522V201.966Z" fill="#8C8C8C"/>
<path d="M494.761 206.709H483.271V241.076H494.761V206.709Z" fill="#8C8C8C"/>
<path d="M492.447 251.682C492.447 251.071 492.245 250.475 491.868 249.967C491.49 249.459 490.953 249.064 490.326 248.831C489.698 248.598 489.007 248.538 488.341 248.658C487.675 248.778 487.064 249.073 486.585 249.506C486.106 249.939 485.78 250.49 485.65 251.089C485.519 251.689 485.59 252.309 485.852 252.873C486.114 253.436 486.556 253.917 487.122 254.254C487.689 254.591 488.353 254.77 489.033 254.767C489.94 254.763 490.808 254.436 491.448 253.858C492.088 253.28 492.447 252.498 492.447 251.682Z" fill="#8C8C8C"/>
<path d="M473.545 201.966H450.551V259.787H473.545V201.966Z" fill="#8C8C8C"/>
<path d="M467.802 206.709H456.312V241.076H467.802V206.709Z" fill="#8C8C8C"/>
<path d="M462.057 254.752C463.943 254.752 465.471 253.378 465.471 251.682C465.471 249.987 463.943 248.612 462.057 248.612C460.171 248.612 458.643 249.987 458.643 251.682C458.643 253.378 460.171 254.752 462.057 254.752Z" fill="#8C8C8C"/>
<path d="M446.586 201.966H423.592V259.787H446.586V201.966Z" fill="#A8A8A8"/>
<path d="M440.825 206.709H429.336V241.076H440.825V206.709Z" fill="#8C8C8C"/>
<path d="M435.082 254.752C436.968 254.752 438.497 253.378 438.497 251.682C438.497 249.987 436.968 248.612 435.082 248.612C433.197 248.612 431.668 249.987 431.668 251.682C431.668 253.378 433.197 254.752 435.082 254.752Z" fill="#8C8C8C"/>
<path d="M532.205 201.966H509.211V259.787H532.205V201.966Z" fill="#8C8C8C"/>
<path d="M526.46 206.709H514.971V241.076H526.46V206.709Z" fill="#8C8C8C"/>
<path d="M520.715 254.752C522.601 254.752 524.13 253.378 524.13 251.682C524.13 249.987 522.601 248.612 520.715 248.612C518.829 248.612 517.301 249.987 517.301 251.682C517.301 253.378 518.829 254.752 520.715 254.752Z" fill="#8C8C8C"/>
<path d="M417.864 201.966H394.869V259.787H417.864V201.966Z" fill="#A8A8A8"/>
<path d="M412.102 206.709H400.613V241.076H412.102V206.709Z" fill="#8C8C8C"/>
<path d="M406.358 254.752C408.243 254.752 409.772 253.378 409.772 251.682C409.772 249.987 408.243 248.612 406.358 248.612C404.472 248.612 402.943 249.987 402.943 251.682C402.943 253.378 404.472 254.752 406.358 254.752Z" fill="#8C8C8C"/>
<path d="M510.537 172.284H441.424C443.736 174.71 444.964 177.821 444.871 181.014C444.958 184.207 443.731 187.316 441.424 189.744H510.537C513.112 189.744 515.581 188.824 517.402 187.187C519.223 185.55 520.246 183.329 520.246 181.014C520.246 178.699 519.223 176.478 517.402 174.841C515.581 173.204 513.112 172.284 510.537 172.284Z" fill="#D4D4D4" stroke="white" stroke-miterlimit="10"/>
<path d="M513.256 172.633V189.205C515.247 188.669 516.995 187.573 518.242 186.077C519.488 184.582 520.168 182.766 520.182 180.897C520.158 179.036 519.473 177.23 518.227 175.743C516.981 174.256 515.239 173.166 513.256 172.633Z" fill="#9C9C9C" stroke="white" stroke-miterlimit="10"/>
<path d="M510.537 153.85H441.424C443.731 156.278 444.958 159.387 444.871 162.579C444.958 165.772 443.731 168.881 441.424 171.309H510.537C513.112 171.309 515.581 170.39 517.402 168.752C519.223 167.115 520.246 164.895 520.246 162.579C520.246 160.264 519.223 158.044 517.402 156.407C515.581 154.769 513.112 153.85 510.537 153.85Z" fill="#D4D4D4" stroke="white" stroke-miterlimit="10"/>
<path d="M513.256 154.198V170.843C515.25 170.307 517 169.208 518.247 167.71C519.494 166.211 520.172 164.392 520.182 162.521C520.172 160.649 519.494 158.83 518.247 157.332C517 155.833 515.25 154.735 513.256 154.198Z" fill="#9C9C9C" stroke="white" stroke-miterlimit="10"/>
<path d="M440.518 130.191H417.523V188.012H440.518V130.191Z" fill="#A8A8A8"/>
<path d="M434.759 134.935H423.27V169.301H434.759V134.935Z" fill="#A8A8A8"/>
<path d="M432.428 179.908C432.428 179.301 432.228 178.707 431.853 178.202C431.478 177.697 430.945 177.304 430.321 177.072C429.697 176.839 429.01 176.778 428.348 176.897C427.686 177.015 427.077 177.308 426.6 177.737C426.122 178.166 425.797 178.713 425.665 179.309C425.533 179.904 425.601 180.522 425.859 181.083C426.118 181.644 426.556 182.123 427.117 182.46C427.679 182.798 428.339 182.978 429.014 182.978C429.463 182.98 429.908 182.902 430.323 182.748C430.738 182.595 431.116 182.368 431.433 182.083C431.751 181.798 432.002 181.458 432.173 181.085C432.344 180.712 432.43 180.312 432.428 179.908Z" fill="#A8A8A8"/>
<path d="M532.205 270.961H509.211V328.782H532.205V270.961Z" fill="#A8A8A8"/>
<path d="M526.46 275.719H514.971V310.085H526.46V275.719Z" fill="#8C8C8C"/>
<path d="M524.13 320.692C524.13 320.085 523.929 319.491 523.554 318.986C523.179 318.482 522.646 318.088 522.022 317.856C521.398 317.623 520.711 317.563 520.049 317.681C519.387 317.8 518.778 318.092 518.301 318.521C517.823 318.951 517.498 319.498 517.366 320.093C517.235 320.689 517.302 321.306 517.561 321.867C517.819 322.428 518.257 322.907 518.818 323.245C519.38 323.582 520.04 323.762 520.715 323.762C521.619 323.758 522.485 323.434 523.125 322.859C523.764 322.284 524.125 321.505 524.13 320.692Z" fill="#8C8C8C"/>
<path d="M505.553 270.961H482.559V328.782H505.553V270.961Z" fill="#A8A8A8"/>
<path d="M499.792 275.719H488.303V310.085H499.792V275.719Z" fill="#8C8C8C"/>
<path d="M497.463 320.692C497.463 320.085 497.263 319.491 496.888 318.986C496.513 318.482 495.98 318.088 495.356 317.856C494.732 317.623 494.045 317.563 493.383 317.681C492.721 317.8 492.112 318.092 491.635 318.521C491.157 318.951 490.832 319.498 490.7 320.093C490.569 320.689 490.636 321.306 490.895 321.867C491.153 322.428 491.591 322.907 492.152 323.245C492.714 323.582 493.374 323.762 494.049 323.762C494.498 323.762 494.942 323.683 495.356 323.528C495.77 323.374 496.146 323.148 496.463 322.863C496.781 322.578 497.032 322.239 497.204 321.867C497.375 321.494 497.463 321.095 497.463 320.692Z" fill="#8C8C8C"/>
<path d="M450.535 270.961H427.541V328.782H450.535V270.961Z" fill="#A8A8A8"/>
<path d="M444.774 275.719H433.285V310.085H444.774V275.719Z" fill="#8C8C8C"/>
<path d="M442.444 320.692C442.444 320.085 442.244 319.491 441.869 318.986C441.493 318.482 440.96 318.088 440.336 317.856C439.712 317.623 439.026 317.563 438.363 317.681C437.701 317.8 437.093 318.092 436.615 318.521C436.138 318.951 435.813 319.498 435.681 320.093C435.549 320.689 435.617 321.306 435.875 321.867C436.134 322.428 436.571 322.907 437.133 323.245C437.694 323.582 438.354 323.762 439.03 323.762C439.478 323.762 439.922 323.683 440.336 323.528C440.75 323.374 441.127 323.148 441.444 322.863C441.761 322.578 442.012 322.239 442.184 321.867C442.356 321.494 442.444 321.095 442.444 320.692Z" fill="#8C8C8C"/>
<path d="M478.885 270.961H455.891V328.782H478.885V270.961Z" fill="#A8A8A8"/>
<path d="M473.126 275.719H461.637V310.085H473.126V275.719Z" fill="#8C8C8C"/>
<path d="M470.796 320.692C470.796 320.085 470.595 319.491 470.22 318.986C469.845 318.482 469.312 318.088 468.688 317.856C468.064 317.623 467.377 317.563 466.715 317.681C466.053 317.8 465.444 318.092 464.967 318.521C464.489 318.951 464.164 319.498 464.032 320.093C463.901 320.689 463.968 321.306 464.227 321.867C464.485 322.428 464.923 322.907 465.484 323.245C466.046 323.582 466.706 323.762 467.381 323.762C467.83 323.762 468.274 323.683 468.688 323.528C469.102 323.374 469.478 323.148 469.796 322.863C470.113 322.578 470.364 322.239 470.536 321.867C470.707 321.494 470.796 321.095 470.796 320.692Z" fill="#8C8C8C"/>
<path d="M237.178 341.774H214.184V399.595H237.178V341.774Z" fill="#A8A8A8"/>
<path d="M231.417 346.518H219.928V380.884H231.417V346.518Z" fill="#A8A8A8"/>
<path d="M225.672 394.561C227.558 394.561 229.087 393.186 229.087 391.491C229.087 389.795 227.558 388.421 225.672 388.421C223.786 388.421 222.258 389.795 222.258 391.491C222.258 393.186 223.786 394.561 225.672 394.561Z" fill="#A8A8A8"/>
<path d="M269.994 341.774H247V399.595H269.994V341.774Z" fill="#A8A8A8"/>
<path d="M264.249 346.518H252.76V380.884H264.249V346.518Z" fill="#A8A8A8"/>
<path d="M258.504 394.561C260.39 394.561 261.919 393.186 261.919 391.491C261.919 389.795 260.39 388.421 258.504 388.421C256.619 388.421 255.09 389.795 255.09 391.491C255.09 393.186 256.619 394.561 258.504 394.561Z" fill="#A8A8A8"/>
<path d="M302.826 341.774H279.832V399.595H302.826V341.774Z" fill="#A8A8A8"/>
<path d="M297.083 346.518H285.594V380.884H297.083V346.518Z" fill="#A8A8A8"/>
<path d="M291.338 394.561C293.224 394.561 294.753 393.186 294.753 391.491C294.753 389.795 293.224 388.421 291.338 388.421C289.452 388.421 287.924 389.795 287.924 391.491C287.924 393.186 289.452 394.561 291.338 394.561Z" fill="#A8A8A8"/>
<path d="M335.66 341.774H312.666V399.595H335.66V341.774Z" fill="#A8A8A8"/>
<path d="M329.899 346.518H318.41V380.884H329.899V346.518Z" fill="#A8A8A8"/>
<path d="M327.586 391.447C327.586 390.836 327.384 390.239 327.006 389.732C326.629 389.224 326.092 388.829 325.464 388.596C324.836 388.363 324.146 388.302 323.48 388.423C322.814 388.543 322.203 388.838 321.724 389.271C321.245 389.704 320.919 390.255 320.789 390.854C320.658 391.453 320.728 392.074 320.99 392.637C321.253 393.201 321.695 393.681 322.261 394.019C322.827 394.356 323.492 394.534 324.171 394.531C325.078 394.528 325.947 394.201 326.587 393.623C327.227 393.045 327.586 392.262 327.586 391.447Z" fill="#A8A8A8"/>
<path d="M204.651 174.655H197.822V474.642H204.651V174.655Z" fill="#A8A8A8"/>
<path d="M364.335 174.655H357.506V474.642H364.335V174.655Z" fill="#A8A8A8"/>
<path d="M373.041 190.238H186.318V194.429H373.041V190.238Z" fill="#A8A8A8"/>
<path d="M373.041 259.786H186.318V263.976H373.041V259.786Z" fill="#A8A8A8"/>
<path d="M373.041 329.349H186.318V333.539H373.041V329.349Z" fill="#A8A8A8"/>
<path d="M373.041 398.896H186.318V403.087H373.041V398.896Z" fill="#A8A8A8"/>
<path d="M315.514 201.966H292.52V259.787H315.514V201.966Z" fill="#A8A8A8"/>
<path d="M309.753 206.709H298.264V241.076H309.753V206.709Z" fill="#A8A8A8"/>
<path d="M307.439 251.682C307.439 251.071 307.238 250.475 306.86 249.967C306.482 249.459 305.946 249.064 305.318 248.831C304.69 248.598 303.999 248.538 303.333 248.658C302.668 248.778 302.056 249.073 301.577 249.506C301.098 249.939 300.773 250.49 300.642 251.089C300.512 251.689 300.582 252.309 300.844 252.873C301.106 253.436 301.548 253.917 302.115 254.254C302.681 254.591 303.346 254.77 304.025 254.767C304.932 254.763 305.8 254.436 306.44 253.858C307.08 253.28 307.439 252.498 307.439 251.682Z" fill="#A8A8A8"/>
<path d="M288.555 201.966H265.561V259.787H288.555V201.966Z" fill="#A8A8A8"/>
<path d="M282.794 206.709H271.305V241.076H282.794V206.709Z" fill="#8C8C8C"/>
<path d="M277.049 254.752C278.935 254.752 280.464 253.378 280.464 251.682C280.464 249.987 278.935 248.612 277.049 248.612C275.163 248.612 273.635 249.987 273.635 251.682C273.635 253.378 275.163 254.752 277.049 254.752Z" fill="#8C8C8C"/>
<path d="M261.58 201.966H238.586V259.787H261.58V201.966Z" fill="#A8A8A8"/>
<path d="M255.819 206.709H244.33V241.076H255.819V206.709Z" fill="#8C8C8C"/>
<path d="M250.075 254.752C251.96 254.752 253.489 253.378 253.489 251.682C253.489 249.987 251.96 248.612 250.075 248.612C248.189 248.612 246.66 249.987 246.66 251.682C246.66 253.378 248.189 254.752 250.075 254.752Z" fill="#8C8C8C"/>
<path d="M347.213 201.966H324.219V259.787H347.213V201.966Z" fill="#A8A8A8"/>
<path d="M341.454 206.709H329.965V241.076H341.454V206.709Z" fill="#8C8C8C"/>
<path d="M335.709 254.752C337.595 254.752 339.124 253.378 339.124 251.682C339.124 249.987 337.595 248.612 335.709 248.612C333.824 248.612 332.295 249.987 332.295 251.682C332.295 253.378 333.824 254.752 335.709 254.752Z" fill="#A8A8A8"/>
<path d="M232.858 201.966H209.863V259.787H232.858V201.966Z" fill="#A8A8A8"/>
<path d="M227.097 206.709H215.607V241.076H227.097V206.709Z" fill="#8C8C8C"/>
<path d="M221.352 254.752C223.238 254.752 224.766 253.378 224.766 251.682C224.766 249.987 223.238 248.612 221.352 248.612C219.466 248.612 217.938 249.987 217.938 251.682C217.938 253.378 219.466 254.752 221.352 254.752Z" fill="#8C8C8C"/>
<path d="M232.858 132.127H209.863V189.948H232.858V132.127Z" fill="#A8A8A8"/>
<path d="M227.097 136.87H215.607V171.237H227.097V136.87Z" fill="#8C8C8C"/>
<path d="M221.352 184.913C223.238 184.913 224.766 183.539 224.766 181.843C224.766 180.148 223.238 178.773 221.352 178.773C219.466 178.773 217.938 180.148 217.938 181.843C217.938 183.539 219.466 184.913 221.352 184.913Z" fill="#8C8C8C"/>
<path d="M258.117 132.127H235.123V189.948H258.117V132.127Z" fill="#A8A8A8"/>
<path d="M252.372 136.87H240.883V171.237H252.372V136.87Z" fill="#8C8C8C"/>
<path d="M246.627 184.913C248.513 184.913 250.042 183.539 250.042 181.843C250.042 180.148 248.513 178.773 246.627 178.773C244.742 178.773 243.213 180.148 243.213 181.843C243.213 183.539 244.742 184.913 246.627 184.913Z" fill="#8C8C8C"/>
<path d="M323.361 191.097V170.422H259.055V191.097H323.361Z" fill="#A8A8A8"/>
<path d="M318.086 185.917V175.587H279.881V185.917H318.086Z" fill="#8C8C8C"/>
<path d="M268.149 183.822C268.824 183.822 269.484 183.642 270.046 183.304C270.607 182.967 271.045 182.487 271.303 181.926C271.562 181.366 271.629 180.748 271.498 180.153C271.366 179.557 271.041 179.01 270.563 178.581C270.086 178.151 269.477 177.859 268.815 177.741C268.153 177.622 267.466 177.683 266.842 177.915C266.218 178.148 265.685 178.541 265.31 179.046C264.935 179.551 264.734 180.144 264.734 180.752C264.739 181.565 265.1 182.343 265.739 182.918C266.379 183.493 267.245 183.818 268.149 183.822Z" fill="#8C8C8C"/>
<path d="M347.213 270.961H324.219V328.782H347.213V270.961Z" fill="#A8A8A8"/>
<path d="M341.454 275.719H329.965V310.085H341.454V275.719Z" fill="#A8A8A8"/>
<path d="M339.124 320.692C339.124 320.085 338.923 319.491 338.548 318.986C338.173 318.482 337.64 318.088 337.016 317.856C336.392 317.623 335.705 317.563 335.043 317.681C334.381 317.8 333.772 318.092 333.295 318.521C332.817 318.951 332.492 319.498 332.361 320.093C332.229 320.689 332.296 321.306 332.555 321.867C332.813 322.428 333.251 322.907 333.812 323.245C334.374 323.582 335.034 323.762 335.709 323.762C336.158 323.762 336.602 323.683 337.016 323.528C337.43 323.374 337.807 323.148 338.124 322.863C338.441 322.578 338.692 322.239 338.864 321.867C339.035 321.494 339.124 321.095 339.124 320.692Z" fill="#A8A8A8"/>
<path d="M320.547 270.961H297.553V328.782H320.547V270.961Z" fill="#A8A8A8"/>
<path d="M314.786 275.719H303.297V310.085H314.786V275.719Z" fill="#A8A8A8"/>
<path d="M312.456 320.692C312.456 320.085 312.255 319.491 311.88 318.986C311.505 318.482 310.972 318.088 310.348 317.856C309.724 317.623 309.038 317.563 308.375 317.681C307.713 317.8 307.105 318.092 306.627 318.521C306.15 318.951 305.824 319.498 305.693 320.093C305.561 320.689 305.628 321.306 305.887 321.867C306.145 322.428 306.583 322.907 307.144 323.245C307.706 323.582 308.366 323.762 309.041 323.762C309.49 323.762 309.934 323.683 310.348 323.528C310.762 323.374 311.139 323.148 311.456 322.863C311.773 322.578 312.024 322.239 312.196 321.867C312.367 321.494 312.456 321.095 312.456 320.692Z" fill="#A8A8A8"/>
<path d="M265.528 270.961H242.533V328.782H265.528V270.961Z" fill="#A8A8A8"/>
<path d="M259.766 275.719H248.277V310.085H259.766V275.719Z" fill="#A8A8A8"/>
<path d="M257.436 320.692C257.436 320.085 257.236 319.491 256.861 318.986C256.486 318.482 255.952 318.088 255.328 317.856C254.705 317.623 254.018 317.563 253.356 317.681C252.693 317.8 252.085 318.092 251.607 318.521C251.13 318.951 250.805 319.498 250.673 320.093C250.541 320.689 250.609 321.306 250.867 321.867C251.126 322.428 251.563 322.907 252.125 323.245C252.686 323.582 253.346 323.762 254.022 323.762C254.47 323.762 254.914 323.683 255.328 323.528C255.743 323.374 256.119 323.148 256.436 322.863C256.753 322.578 257.005 322.239 257.176 321.867C257.348 321.494 257.436 321.095 257.436 320.692Z" fill="#A8A8A8"/>
<path d="M293.879 270.961H270.885V328.782H293.879V270.961Z" fill="#A8A8A8"/>
<path d="M288.118 275.719H276.629V310.085H288.118V275.719Z" fill="#A8A8A8"/>
<path d="M285.788 320.692C285.788 320.085 285.587 319.491 285.212 318.986C284.837 318.482 284.304 318.088 283.68 317.856C283.056 317.623 282.37 317.563 281.707 317.681C281.045 317.8 280.437 318.092 279.959 318.521C279.482 318.951 279.156 319.498 279.025 320.093C278.893 320.689 278.96 321.306 279.219 321.867C279.477 322.428 279.915 322.907 280.476 323.245C281.038 323.582 281.698 323.762 282.373 323.762C282.822 323.762 283.266 323.683 283.68 323.528C284.094 323.374 284.471 323.148 284.788 322.863C285.105 322.578 285.356 322.239 285.528 321.867C285.699 321.494 285.788 321.095 285.788 320.692Z" fill="#A8A8A8"/>
<path d="M50.844 341.774H27.8496V399.595H50.844V341.774Z" fill="#A8A8A8"/>
<path d="M45.0829 346.518H33.5938V380.884H45.0829V346.518Z" fill="#8C8C8C"/>
<path d="M39.3538 394.561C41.2395 394.561 42.7682 393.186 42.7682 391.491C42.7682 389.795 41.2395 388.421 39.3538 388.421C37.4681 388.421 35.9395 389.795 35.9395 391.491C35.9395 393.186 37.4681 394.561 39.3538 394.561Z" fill="#8C8C8C"/>
<path d="M83.6761 341.774H60.6816V399.595H83.6761V341.774Z" fill="#A8A8A8"/>
<path d="M77.9149 346.518H66.4258V380.884H77.9149V346.518Z" fill="#8C8C8C"/>
<path d="M72.1878 394.561C74.0735 394.561 75.6022 393.186 75.6022 391.491C75.6022 389.795 74.0735 388.421 72.1878 388.421C70.3021 388.421 68.7734 389.795 68.7734 391.491C68.7734 393.186 70.3021 394.561 72.1878 394.561Z" fill="#8C8C8C"/>
<path d="M116.51 341.774H93.5156V399.595H116.51V341.774Z" fill="#8C8C8C"/>
<path d="M110.749 346.518H99.2598V380.884H110.749V346.518Z" fill="#A8A8A8"/>
<path d="M105.004 394.561C106.89 394.561 108.419 393.186 108.419 391.491C108.419 389.795 106.89 388.421 105.004 388.421C103.118 388.421 101.59 389.795 101.59 391.491C101.59 393.186 103.118 394.561 105.004 394.561Z" fill="#A8A8A8"/>
<path d="M149.342 341.774H126.348V399.595H149.342V341.774Z" fill="#A8A8A8"/>
<path d="M143.581 346.518H132.092V380.884H143.581V346.518Z" fill="#8C8C8C"/>
<path d="M137.836 394.561C139.722 394.561 141.251 393.186 141.251 391.491C141.251 389.795 139.722 388.421 137.836 388.421C135.951 388.421 134.422 389.795 134.422 391.491C134.422 393.186 135.951 394.561 137.836 394.561Z" fill="#8C8C8C"/>
<path d="M18.317 174.655H11.4883V474.642H18.317V174.655Z" fill="#A8A8A8"/>
<path d="M178.016 174.655H171.188V474.642H178.016V174.655Z" fill="#A8A8A8"/>
<path d="M186.722 190.238H0V194.429H186.722V190.238Z" fill="#A8A8A8"/>
<path d="M186.722 259.786H0V263.976H186.722V259.786Z" fill="#A8A8A8"/>
<path d="M186.722 329.349H0V333.539H186.722V329.349Z" fill="#A8A8A8"/>
<path d="M186.722 398.896H0V403.087H186.722V398.896Z" fill="#A8A8A8"/>
<path d="M129.196 201.966H106.201V259.787H129.196V201.966Z" fill="#8C8C8C"/>
<path d="M123.434 206.709H111.945V241.076H123.434V206.709Z" fill="#A8A8A8"/>
<path d="M121.121 251.682C121.121 251.072 120.92 250.476 120.543 249.969C120.166 249.461 119.63 249.066 119.003 248.832C118.376 248.599 117.687 248.538 117.021 248.657C116.356 248.776 115.744 249.07 115.265 249.501C114.785 249.932 114.458 250.482 114.326 251.08C114.193 251.679 114.261 252.299 114.521 252.863C114.781 253.426 115.22 253.908 115.784 254.247C116.349 254.586 117.012 254.767 117.69 254.767C118.6 254.767 119.473 254.442 120.116 253.863C120.759 253.285 121.121 252.5 121.121 251.682Z" fill="#A8A8A8"/>
<path d="M102.221 201.966H79.2266V259.787H102.221V201.966Z" fill="#A8A8A8"/>
<path d="M96.4598 206.709H84.9707V241.076H96.4598V206.709Z" fill="#8C8C8C"/>
<path d="M90.7308 254.752C92.6165 254.752 94.1451 253.378 94.1451 251.682C94.1451 249.987 92.6165 248.612 90.7308 248.612C88.8451 248.612 87.3164 249.987 87.3164 251.682C87.3164 253.378 88.8451 254.752 90.7308 254.752Z" fill="#8C8C8C"/>
<path d="M75.262 201.966H52.2676V259.787H75.262V201.966Z" fill="#A8A8A8"/>
<path d="M69.5008 206.709H58.0117V241.076H69.5008V206.709Z" fill="#8C8C8C"/>
<path d="M63.7562 254.752C65.6419 254.752 67.1705 253.378 67.1705 251.682C67.1705 249.987 65.6419 248.612 63.7562 248.612C61.8705 248.612 60.3418 249.987 60.3418 251.682C60.3418 253.378 61.8705 254.752 63.7562 254.752Z" fill="#8C8C8C"/>
<path d="M160.879 201.966H137.885V259.787H160.879V201.966Z" fill="#A8A8A8"/>
<path d="M155.12 206.709H143.631V241.076H155.12V206.709Z" fill="#8C8C8C"/>
<path d="M149.391 254.752C151.277 254.752 152.805 253.378 152.805 251.682C152.805 249.987 151.277 248.612 149.391 248.612C147.505 248.612 145.977 249.987 145.977 251.682C145.977 253.378 147.505 254.752 149.391 254.752Z" fill="#8C8C8C"/>
<path d="M95.6992 170.029V190.704H160.006V170.029H95.6992Z" fill="#A8A8A8"/>
<path d="M100.99 175.194V185.524H139.212V175.194H100.99Z" fill="#8C8C8C"/>
<path d="M151.009 177.289C150.33 177.286 149.665 177.465 149.099 177.802C148.533 178.139 148.09 178.62 147.828 179.183C147.566 179.746 147.496 180.367 147.626 180.966C147.757 181.566 148.082 182.117 148.562 182.55C149.041 182.982 149.652 183.278 150.318 183.398C150.984 183.518 151.674 183.458 152.302 183.225C152.93 182.992 153.467 182.596 153.844 182.089C154.222 181.581 154.424 180.984 154.424 180.374C154.424 179.558 154.064 178.776 153.425 178.198C152.785 177.62 151.916 177.293 151.009 177.289Z" fill="#8C8C8C"/>
<path d="M93.3047 149.717V170.393H157.611V149.717H93.3047Z" fill="#A8A8A8"/>
<path d="M98.5801 154.883V165.213H136.802V154.883H98.5801Z" fill="#8C8C8C"/>
<path d="M148.598 156.978C147.923 156.978 147.263 157.158 146.701 157.495C146.14 157.832 145.702 158.312 145.443 158.873C145.185 159.434 145.117 160.051 145.249 160.646C145.381 161.242 145.706 161.789 146.184 162.218C146.661 162.648 147.27 162.94 147.932 163.059C148.594 163.177 149.281 163.116 149.905 162.884C150.528 162.652 151.062 162.258 151.437 161.753C151.812 161.248 152.012 160.655 152.012 160.048C152.014 159.644 151.928 159.244 151.757 158.87C151.586 158.497 151.335 158.158 151.017 157.872C150.7 157.587 150.322 157.361 149.907 157.207C149.492 157.054 149.047 156.976 148.598 156.978Z" fill="#8C8C8C"/>
<path d="M46.5393 201.966H23.5449V259.787H46.5393V201.966Z" fill="#A8A8A8"/>
<path d="M40.7782 206.709H29.2891V241.076H40.7782V206.709Z" fill="#8C8C8C"/>
<path d="M35.0335 254.752C36.9192 254.752 38.4479 253.378 38.4479 251.682C38.4479 249.987 36.9192 248.612 35.0335 248.612C33.1478 248.612 31.6191 249.987 31.6191 251.682C31.6191 253.378 33.1478 254.752 35.0335 254.752Z" fill="#8C8C8C"/>
<path d="M160.879 270.961H137.885V328.782H160.879V270.961Z" fill="#A8A8A8"/>
<path d="M155.12 275.719H143.631V310.085H155.12V275.719Z" fill="#8C8C8C"/>
<path d="M152.804 320.692C152.808 320.081 152.609 319.482 152.233 318.973C151.857 318.463 151.322 318.066 150.694 317.83C150.067 317.595 149.376 317.533 148.709 317.651C148.042 317.77 147.429 318.064 146.948 318.496C146.467 318.928 146.14 319.479 146.008 320.079C145.877 320.679 145.946 321.3 146.208 321.864C146.469 322.429 146.911 322.91 147.478 323.248C148.045 323.586 148.71 323.765 149.39 323.762C150.294 323.758 151.16 323.433 151.8 322.858C152.439 322.284 152.8 321.505 152.804 320.692Z" fill="#8C8C8C"/>
<path d="M134.213 270.961H111.219V328.782H134.213V270.961Z" fill="#8C8C8C"/>
<path d="M128.468 275.719H116.979V310.085H128.468V275.719Z" fill="#A8A8A8"/>
<path d="M126.137 320.692C126.137 320.085 125.937 319.491 125.562 318.986C125.187 318.482 124.653 318.088 124.03 317.856C123.406 317.623 122.719 317.563 122.057 317.681C121.395 317.8 120.786 318.092 120.309 318.521C119.831 318.951 119.506 319.498 119.374 320.093C119.242 320.689 119.31 321.306 119.568 321.867C119.827 322.428 120.265 322.907 120.826 323.245C121.388 323.582 122.048 323.762 122.723 323.762C123.627 323.758 124.493 323.434 125.133 322.859C125.772 322.284 126.133 321.505 126.137 320.692Z" fill="#A8A8A8"/>
<path d="M51.9925 270.961H28.998V328.782H51.9925V270.961Z" fill="#8C8C8C"/>
<path d="M46.2469 275.719H34.7578V310.085H46.2469V275.719Z" fill="#A8A8A8"/>
<path d="M43.9166 320.692C43.9166 320.085 43.7164 319.491 43.3412 318.986C42.966 318.482 42.4328 318.088 41.8089 317.856C41.185 317.623 40.4985 317.563 39.8361 317.681C39.1738 317.8 38.5654 318.092 38.0879 318.521C37.6104 318.951 37.2852 319.498 37.1535 320.093C37.0218 320.689 37.0894 321.306 37.3478 321.867C37.6062 322.428 38.0438 322.907 38.6053 323.245C39.1668 323.582 39.827 323.762 40.5023 323.762C41.4065 323.758 42.2725 323.434 42.9119 322.859C43.5513 322.284 43.9124 321.505 43.9166 320.692Z" fill="#A8A8A8"/>
<path d="M79.1936 270.961H56.1992V328.782H79.1936V270.961Z" fill="#8C8C8C"/>
<path d="M73.45 275.719H61.9609V310.085H73.45V275.719Z" fill="#A8A8A8"/>
<path d="M71.1198 320.692C71.1198 320.085 70.9195 319.491 70.5443 318.986C70.1692 318.482 69.6359 318.088 69.012 317.856C68.3881 317.623 67.7016 317.563 67.0393 317.681C66.377 317.8 65.7686 318.092 65.2911 318.521C64.8136 318.951 64.4884 319.498 64.3566 320.093C64.2249 320.689 64.2925 321.306 64.5509 321.867C64.8093 322.428 65.247 322.907 65.8085 323.245C66.37 323.582 67.0301 323.762 67.7054 323.762C68.6096 323.758 69.4756 323.434 70.115 322.859C70.7544 322.284 71.1155 321.505 71.1198 320.692Z" fill="#A8A8A8"/>
<path d="M107.545 270.961H84.5508V328.782H107.545V270.961Z" fill="#8C8C8C"/>
<path d="M101.8 275.719H90.3105V310.085H101.8V275.719Z" fill="#A8A8A8"/>
<path d="M99.4694 320.692C99.4694 320.085 99.2691 319.491 98.8939 318.986C98.5188 318.482 97.9855 318.088 97.3616 317.856C96.7377 317.623 96.0512 317.563 95.3889 317.681C94.7266 317.8 94.1182 318.092 93.6407 318.521C93.1632 318.951 92.838 319.498 92.7062 320.093C92.5745 320.689 92.6421 321.306 92.9005 321.867C93.159 322.428 93.5966 322.907 94.1581 323.245C94.7196 323.582 95.3797 323.762 96.055 323.762C96.9592 323.758 97.8252 323.434 98.4646 322.859C99.104 322.284 99.4651 321.505 99.4694 320.692Z" fill="#A8A8A8"/>
<path d="M90.0504 475.225H55.5669L50.3887 423.82H95.2286L90.0504 475.225Z" fill="#F9C09B" stroke="#263238" stroke-linecap="round" stroke-linejoin="round"/>
<path d="M95.1486 421.958H50.4543C49.1495 421.958 48.0918 422.909 48.0918 424.082V424.286C48.0918 425.459 49.1495 426.41 50.4543 426.41H95.1486C96.4534 426.41 97.5112 425.459 97.5112 424.286V424.082C97.5112 422.909 96.4534 421.958 95.1486 421.958Z" fill="white" stroke="#263238" stroke-linecap="round" stroke-linejoin="round"/>
<path d="M52.5742 350.198C53.2619 348.807 54.2975 347.577 55.6002 346.604" stroke="#263238" stroke-linecap="round" stroke-linejoin="round"/>
<path d="M64.5173 419.179C64.5173 419.179 74.7118 417.652 81.9289 406.957C89.146 396.263 78.9677 390.953 62.3974 378.309C52.0896 370.467 49.8403 361.577 50.9407 355.029" stroke="#263238" stroke-linecap="round" stroke-linejoin="round"/>
<path d="M86.2158 417.433C89.9944 415.317 92.7188 411.971 93.8213 408.092C95.9573 400.817 92.9798 392.437 81.0862 385.569C69.1925 378.702 62.8168 376.839 57.2988 370.292" stroke="#263238" stroke-linecap="round" stroke-linejoin="round"/>
<path d="M77.6875 420.313C79.5646 420.051 81.3936 419.562 83.1246 418.858" stroke="#263238" stroke-linecap="round" stroke-linejoin="round"/>
<path d="M226.789 337.701C219.086 329.975 215.947 321.376 218.277 309.576C222.322 289.206 247.178 266.552 247.178 252.308C247.178 238.064 258.262 204.89 292.131 202.926C326 200.962 343.185 216.268 350.386 249.791C357.587 283.314 357.231 289.177 365.613 304.818C369.06 311.264 372.959 317.768 374.383 324.882C377.215 338.996 360.176 345.892 348.12 349.777C314.268 360.66 271.904 367.848 240.025 348.133C235.166 345.143 230.722 341.641 226.789 337.701Z" fill="#263238" stroke="#263238" stroke-linecap="round" stroke-linejoin="round"/>
<path d="M349.447 275.704C351.293 276.471 353.224 277.062 355.208 277.465" stroke="white" stroke-miterlimit="10" stroke-linecap="round"/>
<path d="M303.006 229.436C303.006 229.436 316.356 257.808 332.133 267.09C335.677 269.171 338.784 270.83 341.47 272.168" stroke="white" stroke-miterlimit="10" stroke-linecap="round"/>
<path d="M282.406 238.181C274.736 250.097 260.123 268.983 240.479 276.912" stroke="white" stroke-miterlimit="10" stroke-linecap="round"/>
<path d="M288.426 227.792C288.426 227.792 287.488 229.713 285.691 232.812" stroke="white" stroke-miterlimit="10" stroke-linecap="round"/>
<path d="M252.616 277.465C252.616 277.465 227.696 299.784 230.771 325.974" stroke="white" stroke-miterlimit="10" stroke-linecap="round"/>
<path d="M259.299 282.324C259.299 282.324 247.761 310.711 251.402 328.723" stroke="white" stroke-miterlimit="10" stroke-linecap="round"/>
<path d="M270.173 310.697C270.173 310.697 212.695 324.65 208.342 326.047C203.989 327.443 204.62 336.392 204.62 338.341C204.62 340.291 191.885 398.956 191.885 398.956C187.809 401.266 183.96 403.885 180.38 406.783C175.412 410.974 177.273 416.561 177.273 417.958C177.273 419.354 177.58 419.907 176.027 421.304C174.473 422.701 171.059 420.198 171.69 428.855C172.321 437.512 168.891 457.955 177.58 459.017C186.27 460.079 190.639 459.308 203.374 455.394C210.873 453.148 217.18 448.482 221.077 442.299V475.269H377.038C377.038 475.269 392.88 433.642 393.818 406.274C394.757 378.906 398.786 338.661 393.203 331.125C387.621 323.588 358.089 315.207 331.988 312.414C305.886 309.62 274.833 309.576 270.173 310.697Z" fill="#F9C09B"/>
<mask id="mask0_1067_4088" style="mask-type:luminance" maskUnits="userSpaceOnUse" x="171" y="310" width="226" height="166">
<path d="M270.173 310.697C270.173 310.697 212.695 324.65 208.342 326.047C203.989 327.443 204.62 336.392 204.62 338.341C204.62 340.291 191.885 398.956 191.885 398.956C187.809 401.266 183.96 403.885 180.38 406.783C175.412 410.974 177.273 416.561 177.273 417.958C177.273 419.354 177.58 419.907 176.027 421.304C174.473 422.701 171.059 420.198 171.69 428.855C172.321 437.512 168.891 457.955 177.58 459.017C186.27 460.079 190.639 459.308 203.374 455.394C210.873 453.148 217.18 448.482 221.077 442.299V475.269H377.038C377.038 475.269 392.88 433.642 393.818 406.274C394.757 378.906 398.786 338.661 393.203 331.125C387.621 323.588 358.089 315.207 331.988 312.414C305.886 309.62 274.833 309.576 270.173 310.697Z" fill="white"/>
</mask>
<g mask="url(#mask0_1067_4088)">
<g style="mix-blend-mode:multiply" opacity="0.24">
<path d="M387.264 326.557C388.074 327.415 388.413 328.143 387.718 328.434C385.582 329.35 375.549 332.26 374.335 336.087C373.122 339.913 373.623 324.447 371.293 328.972C368.963 333.497 365.807 351.408 353.04 387.52C342.829 416.343 337.295 453.183 340.742 475.226H377.038C377.038 475.226 392.88 433.599 393.818 406.231C394.757 378.863 398.786 338.618 393.203 331.082C391.586 329.226 389.565 327.686 387.264 326.557Z" fill="black"/>
</g>
<path d="M272.341 302.869C270.166 304.188 268.445 306.027 267.374 308.18C265.205 312.079 246.871 342.532 245.318 343.929C243.764 345.326 253.7 345.049 257.745 343.376C261.791 341.703 269.234 341.703 269.234 341.703L276.387 346.722L298.443 354.55C298.443 354.55 308.378 348.119 313.346 344.496C318.314 340.873 320.499 339.462 320.499 339.462C324.812 340.775 328.975 342.461 332.926 344.496C337.894 347.29 336.033 348.687 337.894 347.29C339.755 345.893 338.833 343.099 336.276 339.186C333.719 335.272 326.033 313.767 316.388 305.721C306.744 297.675 283.83 295.042 272.341 302.869Z" fill="#F9C09B" stroke="#263238" stroke-linecap="round" stroke-linejoin="round"/>
<path d="M317.391 372.432L360.273 372.708L359.334 383.606L337.278 393.66L317.391 383.882V372.432Z" fill="#F9C09B" stroke="#263238" stroke-linecap="round" stroke-linejoin="round"/>
<path d="M221.078 369.07L263.96 369.347L263.021 380.245L240.966 390.298L221.078 380.521V369.07Z" fill="#F9C09B" stroke="#263238" stroke-linecap="round" stroke-linejoin="round"/>
<g style="mix-blend-mode:multiply" opacity="0.24">
<path d="M221.595 452.63C221.595 452.63 219.168 370.016 220.996 360.704C222.825 351.393 210.041 323.501 210.64 338.283C211.239 353.066 215.494 375.342 215.85 380.885C216.206 386.428 201.513 383.693 202.727 390.808C203.941 397.923 212.436 397.908 214.912 408.864C217.388 419.82 196.643 419.253 196.643 425.276C196.643 431.3 203.957 439.491 197.872 444.424C191.788 449.356 188.357 442.751 188.357 442.751C190.523 447.94 190.939 453.587 189.555 458.988C194.266 458.116 198.9 456.94 203.423 455.467C210.922 453.221 217.229 448.555 221.126 442.372V454.245L221.595 452.63Z" fill="black"/>
</g>
</g>
<path d="M270.173 310.697C270.173 310.697 212.695 324.65 208.342 326.047C203.989 327.443 204.62 336.392 204.62 338.341C204.62 340.291 191.885 398.956 191.885 398.956C187.809 401.266 183.96 403.885 180.38 406.783C175.412 410.974 177.273 416.561 177.273 417.958C177.273 419.354 177.58 419.907 176.027 421.304C174.473 422.701 171.059 420.198 171.69 428.855C172.321 437.512 168.891 457.955 177.58 459.017C186.27 460.079 190.639 459.308 203.374 455.394C210.873 453.148 217.18 448.482 221.077 442.299V475.269H377.038C377.038 475.269 392.88 433.642 393.818 406.274C394.757 378.906 398.786 338.661 393.203 331.125C387.621 323.588 358.089 315.207 331.988 312.414C305.886 309.62 274.833 309.576 270.173 310.697Z" stroke="#263238" stroke-linecap="round" stroke-linejoin="round"/>
<path d="M221.077 394.488V442.823C221.077 442.823 218.278 412.094 210.834 404.266" stroke="#263238" stroke-linecap="round" stroke-linejoin="round"/>
<path d="M179.15 420.547C179.15 420.547 195.624 425.858 199.038 436.741C202.452 447.624 198.423 454.622 198.423 454.622" stroke="#263238" stroke-linecap="round" stroke-linejoin="round"/>
<path d="M159.44 438.865C159.44 438.865 171.463 433.947 172.385 433.045C173.308 432.143 183.891 432.594 188.308 442.721C192.726 452.847 189.522 457.707 187.321 458.798C185.121 459.889 173.583 462.916 170.395 462.916C167.207 462.916 153.809 442.619 159.44 438.865Z" fill="#F9C09B" stroke="#263238" stroke-linecap="round" stroke-linejoin="round"/>
<path d="M274.202 307.903C274.202 307.903 268.927 474.833 271.095 474.833H309.009C309.009 474.833 309.317 353.153 311.793 341.702C314.268 330.252 320.191 309.853 319.252 304.266C318.314 298.679 276.079 301.749 276.079 301.749C275.128 303.708 274.495 305.781 274.202 307.903Z" fill="white"/>
<mask id="mask1_1067_4088" style="mask-type:luminance" maskUnits="userSpaceOnUse" x="270" y="300" width="50" height="175">
<path d="M274.202 307.903C274.202 307.903 268.927 474.833 271.095 474.833H309.009C309.009 474.833 309.317 353.153 311.793 341.702C314.268 330.252 320.191 309.853 319.252 304.266C318.314 298.679 276.079 301.749 276.079 301.749C275.128 303.708 274.495 305.781 274.202 307.903Z" fill="white"/>
</mask>
<g mask="url(#mask1_1067_4088)">
<path d="M274.202 307.903C274.202 307.903 268.927 474.833 271.095 474.833H309.009C309.009 474.833 309.317 353.153 311.793 341.702C314.268 330.252 320.191 309.853 319.252 304.266C318.314 298.679 276.079 301.749 276.079 301.749C275.128 303.708 274.495 305.781 274.202 307.903Z" fill="#F9C09B"/>
<path opacity="0.7" d="M274.202 307.903C274.202 307.903 268.927 474.833 271.095 474.833H309.009C309.009 474.833 309.317 353.153 311.793 341.702C314.268 330.252 320.191 309.853 319.252 304.266C318.314 298.679 276.079 301.749 276.079 301.749C275.128 303.708 274.495 305.781 274.202 307.903Z" fill="white"/>
</g>
<path d="M274.202 307.903C274.202 307.903 268.927 474.833 271.095 474.833H309.009C309.009 474.833 309.317 353.153 311.793 341.702C314.268 330.252 320.191 309.853 319.252 304.266C318.314 298.679 276.079 301.749 276.079 301.749C275.128 303.708 274.495 305.781 274.202 307.903Z" stroke="#263238" stroke-linecap="round" stroke-linejoin="round"/>
<path d="M311.567 343.084C299.13 346.678 285.831 347.116 273.135 344.35C271.711 394.256 269.575 474.832 271.096 474.832H309.01C309.01 474.832 309.301 360.791 311.567 343.084Z" fill="white"/>
<mask id="mask2_1067_4088" style="mask-type:luminance" maskUnits="userSpaceOnUse" x="270" y="343" width="42" height="132">
<path d="M311.567 343.084C299.13 346.678 285.831 347.116 273.135 344.35C271.711 394.256 269.575 474.832 271.096 474.832H309.01C309.01 474.832 309.301 360.791 311.567 343.084Z" fill="white"/>
</mask>
<g mask="url(#mask2_1067_4088)">
<path d="M309.092 457.867C309.092 453.298 309.092 448.133 309.189 442.59H270.789C270.789 448.177 270.644 453.328 270.611 457.867H309.092Z" fill="#263238"/>
<path d="M271.388 413.49C271.275 418.728 271.162 423.835 271.064 428.767H309.351C309.351 423.777 309.448 418.655 309.513 413.49H271.388Z" fill="#263238"/>
<path d="M272.052 384.391C271.922 389.468 271.793 394.575 271.68 399.668H309.658C309.739 394.459 309.82 389.323 309.917 384.391H272.052Z" fill="#263238"/>
<path d="M272.827 355.291C272.698 360.194 272.552 365.316 272.406 370.568H310.223C310.369 364.85 310.547 359.67 310.741 355.291H272.827Z" fill="#263238"/>
</g>
<path d="M311.567 343.084C299.13 346.678 285.831 347.116 273.135 344.35C271.711 394.256 269.575 474.832 271.096 474.832H309.01C309.01 474.832 309.301 360.791 311.567 343.084Z" stroke="#263238" stroke-linecap="round" stroke-linejoin="round"/>
<path d="M292.229 235.765C292.229 235.765 286.63 251.682 262.406 265.941C262.406 265.941 260.788 285.772 267.374 300.569C273.96 315.366 291.291 327.108 298.751 325.711C306.21 324.315 320.806 309.226 325.774 298.62C330.742 288.013 330.758 269.011 330.758 269.011C330.758 269.011 305.579 254.257 292.229 235.765Z" fill="white" stroke="#263238" stroke-linecap="round" stroke-linejoin="round"/>
<path d="M290.367 289.745C290.367 289.745 289.736 298.955 291.289 299.799C292.843 300.643 295.642 300.352 295.95 297.282" stroke="#263238" stroke-linecap="round" stroke-linejoin="round"/>
<path d="M287.26 305.604C287.26 305.604 296.888 307.277 302.163 304.483" stroke="#263238" stroke-linecap="round" stroke-linejoin="round"/>
<path d="M287.067 262.173C287.067 262.173 274.025 259.045 268.426 267.775" stroke="#263238" stroke-linecap="round" stroke-linejoin="round"/>
<path d="M299.607 268.865C299.607 268.865 308.653 260.674 321.404 268.065" stroke="#263238" stroke-linecap="round" stroke-linejoin="round"/>
<path d="M272.033 279.677C272.033 279.677 277.94 284.711 287.568 281.132" stroke="#263238" stroke-linecap="round" stroke-linejoin="round"/>
<path d="M301.5 280.869C301.5 280.869 309.591 284.23 316.403 280.316" stroke="#263238" stroke-linecap="round" stroke-linejoin="round"/>
<path d="M278.134 293.644C285.338 293.644 291.177 288.393 291.177 281.917C291.177 275.44 285.338 270.189 278.134 270.189C270.931 270.189 265.092 275.44 265.092 281.917C265.092 288.393 270.931 293.644 278.134 293.644Z" stroke="#263238" stroke-width="0.75" stroke-linecap="round" stroke-linejoin="round"/>
<path d="M309.267 293.644C316.47 293.644 322.31 288.393 322.31 281.917C322.31 275.44 316.47 270.189 309.267 270.189C302.064 270.189 296.225 275.44 296.225 281.917C296.225 288.393 302.064 293.644 309.267 293.644Z" stroke="#263238" stroke-width="0.75" stroke-linecap="round" stroke-linejoin="round"/>
<path d="M291.176 281.917H296.208" stroke="#263238" stroke-width="0.75" stroke-linecap="round" stroke-linejoin="round"/>
<path d="M322.311 281.917H329.948" stroke="#263238" stroke-width="0.75" stroke-linecap="round" stroke-linejoin="round"/>
<path d="M261.596 281.917H265.059" stroke="#263238" stroke-width="0.75" stroke-linecap="round" stroke-linejoin="round"/>
<path d="M283.037 282.644C283.037 282.644 286.355 282.775 283.248 283.808C280.141 284.841 277.001 284.332 273.781 281.873C273.781 281.873 279.947 282.601 283.037 282.644Z" fill="#263238" stroke="#263238" stroke-linecap="round" stroke-linejoin="round"/>
<path d="M305.53 281.946C305.53 281.946 302.294 281.684 305.158 283.066C308.022 284.448 311.275 284.332 314.867 282.251C314.818 282.324 308.605 282.324 305.53 281.946Z" fill="#263238" stroke="#263238" stroke-linecap="round" stroke-linejoin="round"/>
<path d="M354.674 379.124L349.706 333.031C349.706 333.031 339.14 331.081 335.418 328.84C331.696 326.6 327.327 323.821 327.327 323.821C327.327 323.821 324.851 325.77 322.99 323.821C321.129 321.871 315.223 318.001 314.284 314.873C313.346 311.744 319.883 307.598 323.913 302.593C327.942 297.587 332.311 292.815 335.418 293.092C338.525 293.368 351.875 305.604 358.768 315.164C365.662 324.723 368.396 327.167 368.704 330.528C369.011 333.889 375.177 350.898 375.177 350.898L376.795 379.677L354.674 379.124Z" fill="white" stroke="#263238" stroke-linecap="round" stroke-linejoin="round"/>
<path d="M327.328 323.82C327.328 323.82 321.211 318.393 321.211 316.764" stroke="#263238" stroke-linecap="round" stroke-linejoin="round"/>
<path d="M344.107 352.454L350.014 382.063L356.486 349.093L381.649 346.591C381.649 346.591 381.423 381.787 381.423 390.72C381.423 399.654 385.775 440.451 387.021 454.739C388.267 469.027 379.869 473.654 368.38 474.003C356.891 474.352 347.554 464.793 343.832 445.515C340.11 426.236 344.447 391.04 342.586 385.177C340.725 379.313 332.877 355.292 332.877 355.292L344.107 352.454Z" fill="#F9C09B"/>
<mask id="mask3_1067_4088" style="mask-type:luminance" maskUnits="userSpaceOnUse" x="332" y="346" width="56" height="129">
<path d="M344.107 352.454L350.014 382.063L356.486 349.093L381.649 346.591C381.649 346.591 381.423 381.787 381.423 390.72C381.423 399.654 385.775 440.451 387.021 454.739C388.267 469.027 379.869 473.654 368.38 474.003C356.891 474.352 347.554 464.793 343.832 445.515C340.11 426.236 344.447 391.04 342.586 385.177C340.725 379.313 332.877 355.292 332.877 355.292L344.107 352.454Z" fill="white"/>
</mask>
<g mask="url(#mask3_1067_4088)">
<g style="mix-blend-mode:multiply" opacity="0.24">
<path d="M372.329 473.654C381.698 472.403 388.073 467.238 386.989 454.739C385.743 440.495 381.39 399.712 381.39 390.72C381.39 381.729 381.698 346.591 381.698 346.591L377.62 346.998C375.274 354.026 362.199 395.274 368.849 424.723C376.164 457.009 382.248 460.283 372.507 473.421L372.329 473.654Z" fill="black"/>
</g>
</g>
<path d="M344.107 352.454L350.014 382.063L356.486 349.093L381.649 346.591C381.649 346.591 381.423 381.787 381.423 390.72C381.423 399.654 385.775 440.451 387.021 454.739C388.267 469.027 379.869 473.654 368.38 474.003C356.891 474.352 347.554 464.793 343.832 445.515C340.11 426.236 344.447 391.04 342.586 385.177C340.725 379.313 332.877 355.292 332.877 355.292L344.107 352.454Z" stroke="#263238" stroke-linecap="round" stroke-linejoin="round"/>
<path d="M146.575 467.834C146.575 467.834 145.83 472.33 150.361 473.348C154.892 474.367 165.783 471.82 166.689 469.725C166.958 469.151 167.035 468.518 166.908 467.905C166.781 467.292 166.458 466.726 165.977 466.277H156.041C156.041 466.277 148.549 464.196 146.575 467.834Z" fill="white" stroke="#263238" stroke-linecap="round" stroke-linejoin="round"/>
<path d="M102.092 419.353L143.275 445.077L146.349 441.396L104.972 415.454L102.092 419.353Z" fill="#263238" stroke="#263238" stroke-linecap="round" stroke-linejoin="round"/>
<path d="M111.655 425.319L114.859 421.652L104.972 415.454L102.092 419.353L111.655 425.319Z" fill="white" stroke="#263238" stroke-linecap="round" stroke-linejoin="round"/>
<path d="M153.032 467.441C159.479 467.168 165.613 464.866 170.363 460.937C177.742 454.477 178.243 450.156 168.275 440.873C158.307 431.59 136.511 442.459 135.815 446.562C135.119 450.665 153.032 467.441 153.032 467.441Z" fill="white" stroke="#263238" stroke-linecap="round" stroke-linejoin="round"/>
<path d="M175.087 450.665C175.087 450.665 172.272 455.947 169.602 457.94C166.932 459.933 162.692 460.472 160.184 457.256C157.676 454.041 155.103 444.06 152.918 443.856C150.733 443.652 139.843 440.437 136.736 436.581C133.629 432.725 133.791 429.743 140.636 431.576C147.481 433.409 165.799 435.548 165.799 435.548C165.799 435.548 170.136 437.89 173.145 446.111" fill="white"/>
<path d="M175.087 450.665C175.087 450.665 172.272 455.947 169.602 457.94C166.932 459.933 162.692 460.472 160.184 457.256C157.676 454.041 155.103 444.06 152.918 443.856C150.733 443.652 139.843 440.437 136.736 436.581C133.629 432.725 133.791 429.743 140.636 431.576C147.481 433.409 165.799 435.548 165.799 435.548C165.799 435.548 170.136 437.89 173.145 446.111" stroke="#263238" stroke-linecap="round" stroke-linejoin="round"/>
<path d="M139.859 463.032C140.83 464.109 144.018 468.983 145.523 469.318C147.028 469.652 156.268 464.371 159.828 460.34C163.388 456.31 156.753 450.723 154.86 449.937C152.967 449.152 139.859 463.032 139.859 463.032Z" fill="white" stroke="#263238" stroke-linecap="round" stroke-linejoin="round"/>
<path d="M135.151 448.482C135.151 448.482 127.06 452.847 128.986 455.845C130.911 458.842 137.384 463.396 139.455 462.596C141.527 461.795 155.475 455.961 155.411 452.775C155.346 449.588 155.119 445.791 147.983 446.314C143.635 446.642 139.335 447.368 135.151 448.482Z" fill="white" stroke="#263238" stroke-linecap="round" stroke-linejoin="round"/>
<path d="M127.061 436.391C127.061 436.391 123.128 443.579 126.737 446.692C130.345 449.806 152.628 449.733 153.761 446.067C154.893 442.4 146.543 441.615 140.411 439.243C134.278 436.871 127.918 434.689 127.061 436.391Z" fill="white" stroke="#263238" stroke-linecap="round" stroke-linejoin="round"/>
<path d="M213.471 473.829C213.471 473.829 212.856 464.328 203.535 460.981C194.214 457.635 189.23 459.017 168.42 464.051C155.306 467.135 141.875 469.007 128.338 469.638V473.829H213.471Z" fill="white" stroke="#263238" stroke-linecap="round" stroke-linejoin="round"/>
<path d="M213.131 473.829C213.131 473.829 213.746 464.328 223.067 460.981C232.387 457.635 237.355 459.017 258.181 464.051C271.29 467.135 284.715 469.007 298.247 469.638V473.829H213.131Z" fill="white" stroke="#263238" stroke-linecap="round" stroke-linejoin="round"/>
<path d="M301.711 472.155H126.17V475.225H301.711V472.155Z" fill="#263238" stroke="#263238" stroke-linecap="round" stroke-linejoin="round"/>
<path d="M23.8027 475.224H587.999" stroke="#263238" stroke-linecap="round" stroke-linejoin="round"/>
<path d="M581.527 390.864H461.91L421.213 475.5H540.829L581.527 390.864Z" fill="white" stroke="#263238" stroke-linecap="round" stroke-linejoin="round"/>
<path d="M586.187 390.864H466.57L425.873 475.5H545.489L586.187 390.864Z" fill="#263238" stroke="#263238" stroke-linecap="round" stroke-linejoin="round"/>
<path d="M515.602 442.371C512.528 446.736 506.767 448.453 502.738 446.154C498.709 443.855 497.883 438.457 500.99 434.077C504.097 429.698 509.826 428.01 513.936 430.294C518.046 432.579 518.677 438.006 515.602 442.371Z" fill="white" stroke="#F9C09B" stroke-linecap="round" stroke-linejoin="round"/>
<path d="M422.766 472.154H335.465V475.224H422.766V472.154Z" fill="white" stroke="#263238" stroke-linecap="round" stroke-linejoin="round"/>
</svg>