<svg width="554" height="391" viewBox="0 0 554 391" fill="none" xmlns="http://www.w3.org/2000/svg">
<path d="M532.377 383.183H541.311" stroke="#263238" stroke-miterlimit="10"/>
<path d="M4.56836 383.183H529.22" stroke="#263238" stroke-miterlimit="10"/>
<g opacity="0.3">
<path d="M96.1429 102.538C96.2364 102.538 94.2408 96.1184 94.0693 95.7087C92.1282 91.21 85.9464 83.7577 80.8949 84.4918C77.2544 85.0211 75.2198 88.9991 76.0305 92.7466C76.8413 96.494 80.435 99.4391 83.5454 100.942C87.1937 102.726 96.1351 102.538 96.1429 102.538Z" fill="black"/>
<path d="M19.4425 155.088C23.3403 154.353 30.7382 148.796 30.746 148.796C30.7538 148.796 25.9284 144.588 25.5932 144.366C21.6954 141.805 12.793 139.312 8.94199 142.966C6.17459 145.604 6.47862 150.153 9.04333 152.791C11.608 155.429 16.0905 155.711 19.4425 155.088Z" fill="black"/>
<path d="M36.2335 176.95C39.7103 175.174 45.1125 168.26 45.5413 167.713C49.1451 171.118 52.9526 174.255 56.9383 177.103C59.2769 178.811 61.6156 180.373 64.0244 181.944C62.8317 181.406 61.7637 180.936 61.6078 180.885C57.2267 179.528 48.0436 179.716 45.2373 184.351C43.2026 187.697 44.5902 192.034 47.7084 193.801C50.8266 195.568 55.2077 194.578 58.2869 193.007C61.3661 191.436 66.0824 185.614 67.3531 184.069L70.1283 185.853C74.5873 188.67 79.0463 191.47 83.3416 194.39C84.8539 195.406 86.3117 196.464 87.7772 197.523C86.7171 197.045 85.8206 196.669 85.6725 196.609C81.2992 195.252 72.1083 195.44 69.3019 200.075C67.2595 203.421 68.6549 207.758 71.7653 209.525C74.8757 211.292 79.2646 210.302 82.3438 208.731C85.423 207.16 89.7261 201.902 91.1917 200.066C92.6572 201.202 94.1306 202.337 95.5026 203.481C96.4302 204.335 97.3657 205.026 98.2544 205.905L100.905 208.466C102.534 210.174 104.226 211.881 105.785 213.545C106.868 214.706 107.89 215.842 108.903 216.96C107.406 215.927 104.436 213.972 104.171 213.844C100.032 211.77 90.9188 210.43 87.4888 214.553C85.0098 217.523 85.7894 221.996 88.6192 224.301C91.4489 226.606 95.9235 226.316 99.1898 225.274C102.776 224.122 108.848 218.445 109.605 217.737C111.304 219.615 112.933 221.459 114.453 223.234C118.616 228.083 122.085 232.411 124.782 235.877L127.332 233.478C124.541 230.063 120.939 225.744 116.628 220.938C114.913 219.026 113.042 217.011 111.109 214.962C112.578 212.657 113.924 210.26 115.139 207.783C118.866 208.799 126.264 207.783 127.222 207.672C127.69 210.233 128.119 212.794 128.493 215.184C129.413 221.032 130.052 226.196 130.567 230.448L133.545 227.656C133.007 223.849 132.328 219.453 131.455 214.587C130.995 211.958 130.45 209.149 129.896 206.272C130.808 205.88 138.237 202.627 140.81 199.674C143.149 197.002 145.487 192.845 144.942 188.978C144.396 185.111 141.137 182.328 137.59 183.352C132.656 184.769 129.507 194.219 129.257 199.187C129.257 199.486 129.405 202.687 129.538 204.71C129.296 203.532 129.07 202.388 128.805 201.185C128.298 198.803 127.729 196.438 127.121 193.886L126.115 190.198C125.804 188.952 125.336 187.689 124.938 186.417C123.972 183.497 122.865 180.595 121.688 177.692C123.598 177.197 130.348 175.345 133.061 173.074C135.774 170.804 138.635 167.099 138.627 163.189C138.619 159.279 135.782 155.984 132.134 156.36C127.067 156.94 122.646 165.75 121.711 170.641C121.649 170.94 121.337 174.525 121.204 176.497C120.487 174.79 119.778 173.015 118.998 171.282C116.745 166.279 114.321 161.294 111.935 156.309C111.203 154.781 110.493 153.253 109.768 151.725C110.454 151.554 118.523 149.539 121.563 147.004C124.26 144.75 127.137 141.029 127.121 137.119C127.105 133.209 124.284 129.914 120.635 130.29C115.568 130.87 111.14 139.68 110.205 144.563C110.135 144.93 109.69 150.086 109.636 151.392C108.077 148.028 106.518 144.648 105.099 141.259C103.18 136.686 101.535 131.981 100.172 127.174C100.492 127.097 108.919 125.04 112.029 122.436C114.734 120.183 117.603 116.461 117.595 112.551C117.587 108.641 114.75 105.346 111.101 105.722C106.034 106.302 101.614 115.112 100.679 119.995C100.616 120.319 100.273 124.263 100.156 126.115H99.8603C98.6108 121.24 97.7604 116.252 97.3189 111.211C97.0461 108.437 96.9214 105.773 96.859 103.17C98.4649 102.965 105.793 101.923 108.833 99.9257C111.748 98.005 114.968 94.6844 115.35 90.7662C115.732 86.8479 113.253 83.2626 109.581 83.237C104.483 83.237 99.2054 91.4405 97.7867 96.1782C97.7087 96.4343 97.1864 99.1489 96.8356 101.129C96.8356 99.9599 96.7888 98.7477 96.8356 97.6209C96.8356 93.4039 97.1162 89.5455 97.3657 86.1223C97.5216 84.1846 97.7009 82.4261 97.8802 80.7871C99.3613 79.6859 105.27 75.153 107.094 71.9007C108.919 68.6483 110.33 64.1496 109.028 60.4875C107.726 56.8254 104 54.8876 100.733 56.7229C96.2042 59.2838 94.9803 69.2373 95.7131 74.1543C95.7754 74.5811 97.467 81.1029 97.545 81.0432L97.5606 81.0859C97.3579 82.6566 97.1552 84.3468 96.9681 86.2077C96.6485 89.6223 96.3133 93.4893 96.1886 97.7319C96.0283 102.286 96.1116 106.847 96.438 111.39C96.7849 116.49 97.544 121.546 98.7065 126.5L98.7533 126.67C97.9737 125.287 95.6351 121.548 95.4012 121.241C92.4389 117.46 84.6824 112.065 79.9818 114.233C76.5985 115.786 75.5929 120.208 77.2845 123.623C78.9761 127.037 83.1467 128.804 86.5066 129.359C90.2952 129.974 98.2856 127.473 98.917 127.268C100.216 132.276 101.817 137.184 103.711 141.959C104.803 144.742 105.98 147.516 107.188 150.274C106.463 149.104 105.808 148.063 105.707 147.926C102.737 144.153 94.9803 138.758 90.2874 140.918C86.9042 142.48 85.8985 146.893 87.5824 150.308C89.2662 153.722 93.4446 155.489 96.8044 156.036C100.164 156.582 107.071 154.61 108.872 154.055C109.347 155.114 109.815 156.172 110.291 157.222C112.582 162.267 114.898 167.295 117.026 172.297C117.805 174.065 118.452 175.832 119.138 177.599C118.499 176.557 117.946 175.686 117.852 175.567C114.882 171.785 107.126 166.399 102.433 168.559C99.0495 170.112 98.0439 174.534 99.7277 177.949C101.412 181.363 105.598 183.122 108.958 183.677C112.317 184.231 118.546 182.439 120.698 181.79C121.352 183.625 122.007 185.452 122.561 187.262C122.919 188.508 123.34 189.678 123.636 190.95C123.933 192.221 124.26 193.434 124.564 194.663C125.079 197.045 125.624 199.503 126.076 201.851C126.396 203.472 126.677 205.026 126.965 206.597C126.24 204.83 124.743 201.407 124.627 201.133C122.385 197.504 119.331 194.565 115.755 192.597C115.531 192.18 115.27 191.788 114.976 191.428C112.598 188.576 108.451 188.175 106.003 191.171C102.612 195.329 104.74 205.12 107.04 209.422C107.172 209.67 108.926 212.248 110.057 213.844C109.277 212.991 108.498 212.197 107.671 211.352C106.042 209.644 104.374 208.039 102.589 206.281L99.8836 203.814C99.0027 202.96 97.966 202.201 96.9993 201.373C94.723 199.52 92.322 197.77 89.8976 196.054C91.2384 194.492 95.9313 188.867 97.0617 185.341C98.192 181.816 98.7143 177.01 96.7187 173.732C94.723 170.454 90.7161 169.463 87.8864 172.024C83.9497 175.575 84.7058 185.606 86.3819 190.232C86.4832 190.523 88.0267 193.698 88.9076 195.423C87.4342 194.407 85.9687 193.382 84.4408 192.409C80.0519 189.601 75.5227 186.903 71.0169 184.189L66.8931 181.628C67.3764 181.073 73.0905 174.525 74.3534 170.53C75.4682 167.022 76.0061 162.207 74.0104 158.929C72.0148 155.651 68.0079 154.661 65.1781 157.222C61.2804 160.773 61.9976 170.795 63.6736 175.43C63.7983 175.78 66.0122 180.347 66.6437 181.474C63.6268 179.622 60.6333 177.744 57.7568 175.763C53.8511 173.109 50.1066 170.181 46.5469 166.996C46.773 166.74 52.7833 159.928 54.054 155.899C55.1687 152.391 55.7066 147.576 53.711 144.298C51.7153 141.02 47.7084 140.03 44.8787 142.591C40.9809 146.142 41.6981 156.164 43.3741 160.799C43.4833 161.106 45.1827 164.581 46.0246 166.22L45.7985 166.424C42.2806 163.083 39.0454 159.4 36.1321 155.421C34.5107 153.27 33.0607 151.153 31.6965 148.993C32.936 147.849 38.5253 142.557 40.0533 139.057C41.5188 135.693 42.5322 130.973 40.8328 127.473C39.1334 123.973 35.3058 122.487 32.2578 124.69C27.9936 127.737 27.7364 137.793 28.9369 142.616C28.9992 142.881 29.9347 145.459 30.6363 147.32C30.036 146.355 29.3968 145.365 28.8355 144.418C26.7308 140.892 25.0002 137.512 23.4878 134.507C22.6381 132.799 21.9287 131.229 21.2271 129.752C21.9054 127.934 24.548 120.584 24.4389 116.777C24.3298 112.969 23.2306 108.351 20.2917 106.08C17.3528 103.81 13.2757 104.45 11.4828 107.95C8.98043 112.807 12.9873 121.864 16.0743 125.526C16.3472 125.842 21.0401 130.264 21.0712 130.17L21.118 130.059C21.7338 131.493 22.4199 133.021 23.1916 134.677C24.6494 137.725 26.3098 141.148 28.3678 144.742C30.5311 148.645 32.9024 152.404 35.4695 156.001C38.3311 160.043 41.5165 163.797 44.9878 167.218L45.1125 167.329C43.7561 166.663 39.8895 164.922 39.5777 164.828C35.2045 163.462 26.0136 163.65 23.2072 168.294C21.1648 171.64 22.5602 175.977 25.6706 177.744C28.781 179.511 33.1542 178.521 36.2335 176.95Z" fill="black"/>
<path opacity="0.3" d="M19.4425 155.088C23.3403 154.353 30.7382 148.796 30.746 148.796C30.7538 148.796 25.9284 144.588 25.5932 144.366C21.6954 141.805 12.793 139.312 8.94199 142.966C6.17459 145.604 6.47862 150.153 9.04333 152.791C11.608 155.429 16.0905 155.711 19.4425 155.088Z" fill="black"/>
<path opacity="0.3" d="M96.1429 102.538C96.2364 102.538 94.2408 96.1184 94.0693 95.7087C92.1282 91.21 85.9464 83.7577 80.8949 84.4918C77.2544 85.0211 75.2198 88.9991 76.0305 92.7466C76.8413 96.494 80.435 99.4391 83.5454 100.942C87.1937 102.726 96.1351 102.538 96.1429 102.538Z" fill="black"/>
<path opacity="0.3" d="M36.2335 176.95C39.7103 175.174 45.1125 168.26 45.5413 167.713C49.1451 171.118 52.9526 174.255 56.9383 177.103C59.2769 178.811 61.6156 180.373 64.0244 181.944C62.8317 181.406 61.7637 180.936 61.6078 180.885C57.2267 179.528 48.0436 179.716 45.2373 184.351C43.2026 187.697 44.5902 192.034 47.7084 193.801C50.8266 195.568 55.2077 194.578 58.2869 193.007C61.3661 191.436 66.0824 185.614 67.3531 184.069L70.1283 185.853C74.5873 188.67 79.0463 191.47 83.3416 194.39C84.8539 195.406 86.3117 196.464 87.7772 197.523C86.7171 197.045 85.8206 196.669 85.6725 196.609C81.2992 195.252 72.1083 195.44 69.3019 200.075C67.2595 203.421 68.6549 207.758 71.7653 209.525C74.8757 211.292 79.2646 210.302 82.3438 208.731C85.423 207.16 89.7261 201.902 91.1917 200.066C92.6572 201.202 94.1306 202.337 95.5026 203.481C96.4302 204.335 97.3657 205.026 98.2544 205.905L100.905 208.466C102.534 210.174 104.226 211.881 105.785 213.545C106.868 214.706 107.89 215.842 108.903 216.96C107.406 215.927 104.436 213.972 104.171 213.844C100.032 211.77 90.9188 210.43 87.4888 214.553C85.0098 217.523 85.7894 221.996 88.6192 224.301C91.4489 226.606 95.9235 226.316 99.1898 225.274C102.776 224.122 108.848 218.445 109.605 217.737C111.304 219.615 112.933 221.459 114.453 223.234C118.616 228.083 122.085 232.411 124.782 235.877L127.332 233.478C124.541 230.063 120.939 225.744 116.628 220.938C114.913 219.026 113.042 217.011 111.109 214.962C112.578 212.657 113.924 210.26 115.139 207.783C118.866 208.799 126.264 207.783 127.222 207.672C127.69 210.233 128.119 212.794 128.493 215.184C129.413 221.032 130.052 226.196 130.567 230.448L133.545 227.656C133.007 223.849 132.328 219.453 131.455 214.587C130.995 211.958 130.45 209.149 129.896 206.272C130.808 205.88 138.237 202.627 140.81 199.674C143.149 197.002 145.487 192.845 144.942 188.978C144.396 185.111 141.137 182.328 137.59 183.352C132.656 184.769 129.507 194.219 129.257 199.187C129.257 199.486 129.405 202.687 129.538 204.71C129.296 203.532 129.07 202.388 128.805 201.185C128.298 198.803 127.729 196.438 127.121 193.886L126.115 190.198C125.804 188.952 125.336 187.689 124.938 186.417C123.972 183.497 122.865 180.595 121.688 177.692C123.598 177.197 130.348 175.345 133.061 173.074C135.774 170.804 138.635 167.099 138.627 163.189C138.619 159.279 135.782 155.984 132.134 156.36C127.067 156.94 122.646 165.75 121.711 170.641C121.649 170.94 121.337 174.525 121.204 176.497C120.487 174.79 119.778 173.015 118.998 171.282C116.745 166.279 114.321 161.294 111.935 156.309C111.203 154.781 110.493 153.253 109.768 151.725C110.454 151.554 118.523 149.539 121.563 147.004C124.26 144.75 127.137 141.029 127.121 137.119C127.105 133.209 124.284 129.914 120.635 130.29C115.568 130.87 111.14 139.68 110.205 144.563C110.135 144.93 109.69 150.086 109.636 151.392C108.077 148.028 106.518 144.648 105.099 141.259C103.18 136.686 101.535 131.981 100.172 127.174C100.492 127.097 108.919 125.04 112.029 122.436C114.734 120.183 117.603 116.461 117.595 112.551C117.587 108.641 114.75 105.346 111.101 105.722C106.034 106.302 101.614 115.112 100.679 119.995C100.616 120.319 100.273 124.263 100.156 126.115H99.8603C98.6108 121.24 97.7604 116.252 97.3189 111.211C97.0461 108.437 96.9214 105.773 96.859 103.17C98.4649 102.965 105.793 101.923 108.833 99.9257C111.748 98.005 114.968 94.6844 115.35 90.7662C115.732 86.8479 113.253 83.2626 109.581 83.237C104.483 83.237 99.2054 91.4405 97.7867 96.1782C97.7087 96.4343 97.1864 99.1489 96.8356 101.129C96.8356 99.9599 96.7888 98.7477 96.8356 97.6209C96.8356 93.4039 97.1162 89.5455 97.3657 86.1223C97.5216 84.1846 97.7009 82.4261 97.8802 80.7871C99.3613 79.6859 105.27 75.153 107.094 71.9007C108.919 68.6483 110.33 64.1496 109.028 60.4875C107.726 56.8254 104 54.8876 100.733 56.7229C96.2042 59.2838 94.9803 69.2373 95.7131 74.1543C95.7754 74.5811 97.467 81.1029 97.545 81.0432L97.5606 81.0859C97.3579 82.6566 97.1552 84.3468 96.9681 86.2077C96.6485 89.6223 96.3133 93.4893 96.1886 97.7319C96.0283 102.286 96.1116 106.847 96.438 111.39C96.7849 116.49 97.544 121.546 98.7065 126.5L98.7533 126.67C97.9737 125.287 95.6351 121.548 95.4012 121.241C92.4389 117.46 84.6824 112.065 79.9818 114.233C76.5985 115.786 75.5929 120.208 77.2845 123.623C78.9761 127.037 83.1467 128.804 86.5066 129.359C90.2952 129.974 98.2856 127.473 98.917 127.268C100.216 132.276 101.817 137.184 103.711 141.959C104.803 144.742 105.98 147.516 107.188 150.274C106.463 149.104 105.808 148.063 105.707 147.926C102.737 144.153 94.9803 138.758 90.2874 140.918C86.9042 142.48 85.8985 146.893 87.5824 150.308C89.2662 153.722 93.4446 155.489 96.8044 156.036C100.164 156.582 107.071 154.61 108.872 154.055C109.347 155.114 109.815 156.172 110.291 157.222C112.582 162.267 114.898 167.295 117.026 172.297C117.805 174.065 118.452 175.832 119.138 177.599C118.499 176.557 117.946 175.686 117.852 175.567C114.882 171.785 107.126 166.399 102.433 168.559C99.0495 170.112 98.0439 174.534 99.7277 177.949C101.412 181.363 105.598 183.122 108.958 183.677C112.317 184.231 118.546 182.439 120.698 181.79C121.352 183.625 122.007 185.452 122.561 187.262C122.919 188.508 123.34 189.678 123.636 190.95C123.933 192.221 124.26 193.434 124.564 194.663C125.079 197.045 125.624 199.503 126.076 201.851C126.396 203.472 126.677 205.026 126.965 206.597C126.24 204.83 124.743 201.407 124.627 201.133C122.385 197.504 119.331 194.565 115.755 192.597C115.531 192.18 115.27 191.788 114.976 191.428C112.598 188.576 108.451 188.175 106.003 191.171C102.612 195.329 104.74 205.12 107.04 209.422C107.172 209.67 108.926 212.248 110.057 213.844C109.277 212.991 108.498 212.197 107.671 211.352C106.042 209.644 104.374 208.039 102.589 206.281L99.8836 203.814C99.0027 202.96 97.966 202.201 96.9993 201.373C94.723 199.52 92.322 197.77 89.8976 196.054C91.2384 194.492 95.9313 188.867 97.0617 185.341C98.192 181.816 98.7143 177.01 96.7187 173.732C94.723 170.454 90.7161 169.463 87.8864 172.024C83.9497 175.575 84.7058 185.606 86.3819 190.232C86.4832 190.523 88.0267 193.698 88.9076 195.423C87.4342 194.407 85.9687 193.382 84.4408 192.409C80.0519 189.601 75.5227 186.903 71.0169 184.189L66.8931 181.628C67.3764 181.073 73.0905 174.525 74.3534 170.53C75.4682 167.022 76.0061 162.207 74.0104 158.929C72.0148 155.651 68.0079 154.661 65.1781 157.222C61.2804 160.773 61.9976 170.795 63.6736 175.43C63.7983 175.78 66.0122 180.347 66.6437 181.474C63.6268 179.622 60.6333 177.744 57.7568 175.763C53.8511 173.109 50.1066 170.181 46.5469 166.996C46.773 166.74 52.7833 159.928 54.054 155.899C55.1687 152.391 55.7066 147.576 53.711 144.298C51.7153 141.02 47.7084 140.03 44.8787 142.591C40.9809 146.142 41.6981 156.164 43.3741 160.799C43.4833 161.106 45.1827 164.581 46.0246 166.22L45.7985 166.424C42.2806 163.083 39.0454 159.4 36.1321 155.421C34.5107 153.27 33.0607 151.153 31.6965 148.993C32.936 147.849 38.5253 142.557 40.0533 139.057C41.5188 135.693 42.5322 130.973 40.8328 127.473C39.1334 123.973 35.3058 122.487 32.2578 124.69C27.9936 127.737 27.7364 137.793 28.9369 142.616C28.9992 142.881 29.9347 145.459 30.6363 147.32C30.036 146.355 29.3968 145.365 28.8355 144.418C26.7308 140.892 25.0002 137.512 23.4878 134.507C22.6381 132.799 21.9287 131.229 21.2271 129.752C21.9054 127.934 24.548 120.584 24.4389 116.777C24.3298 112.969 23.2306 108.351 20.2917 106.08C17.3528 103.81 13.2757 104.45 11.4828 107.95C8.98043 112.807 12.9873 121.864 16.0743 125.526C16.3472 125.842 21.0401 130.264 21.0712 130.17L21.118 130.059C21.7338 131.493 22.4199 133.021 23.1916 134.677C24.6494 137.725 26.3098 141.148 28.3678 144.742C30.5311 148.645 32.9024 152.404 35.4695 156.001C38.3311 160.043 41.5165 163.797 44.9878 167.218L45.1125 167.329C43.7561 166.663 39.8895 164.922 39.5777 164.828C35.2045 163.462 26.0136 163.65 23.2072 168.294C21.1648 171.64 22.5602 175.977 25.6706 177.744C28.781 179.511 33.1542 178.521 36.2335 176.95Z" fill="black"/>
</g>
<g opacity="0.3">
<path d="M468.627 41.4867C468.55 41.4867 470.335 35.7331 470.483 35.3831C472.237 31.3539 477.772 24.6784 482.301 25.3272C483.051 25.4574 483.767 25.7592 484.403 26.2129C485.039 26.6665 485.581 27.262 485.993 27.9603C486.405 28.6586 486.678 29.4441 486.794 30.2657C486.91 31.0872 486.866 31.9263 486.666 32.7283C485.926 36.1428 482.714 38.7038 479.931 40.0781C476.665 41.6574 468.627 41.4867 468.627 41.4867Z" fill="black"/>
<path d="M537.406 88.6078C533.882 87.9505 527.271 82.9652 527.271 82.9652C527.271 82.9652 531.59 79.1921 531.894 78.9958C535.379 76.6824 543.369 74.463 546.815 77.7409C547.374 78.3029 547.819 78.9877 548.12 79.7506C548.422 80.5135 548.573 81.3374 548.564 82.1686C548.556 82.9998 548.387 83.8196 548.069 84.5746C547.752 85.3297 547.292 86.0029 546.721 86.5505C544.375 88.9663 540.407 89.1712 537.406 88.6078Z" fill="black"/>
<path d="M544.523 46.3268C544.136 45.6114 543.615 44.9935 542.995 44.5135C542.374 44.0335 541.669 43.7021 540.923 43.541C540.178 43.3799 539.41 43.3927 538.67 43.5785C537.93 43.7644 537.233 44.1191 536.627 44.6195C533.992 46.6512 533.017 50.8682 532.916 54.2059C532.815 57.5437 535.177 64.2106 535.785 65.8411C535.185 67.1642 534.522 68.5727 533.766 70.1093C532.409 72.7982 530.858 75.8287 528.964 78.9957C528.465 79.8493 527.896 80.703 527.35 81.5566C527.981 79.8493 528.823 77.5786 528.909 77.3396C529.985 73.0714 529.759 64.0143 525.931 61.2826C525.285 60.8475 524.563 60.5663 523.811 60.4572C523.059 60.3482 522.294 60.4138 521.567 60.6497C520.84 60.8857 520.166 61.2867 519.589 61.8267C519.013 62.3666 518.547 63.0335 518.222 63.7838C516.74 66.9167 517.645 71.1507 518.954 74.1641C520.326 77.3055 525.339 82.0517 526.446 83.0761C525.222 84.9797 523.928 86.909 522.47 88.8382C519.868 92.3918 516.979 95.683 513.84 98.6721L513.638 98.4929C514.417 97.0246 515.914 93.9088 515.976 93.6356C517.481 89.4784 518.151 80.4896 514.628 77.314C514.029 76.8024 513.339 76.4347 512.602 76.2348C511.865 76.0349 511.098 76.0074 510.351 76.154C509.604 76.3006 508.893 76.618 508.265 77.0856C507.637 77.5532 507.107 78.1604 506.708 78.8676C504.922 81.8042 505.398 86.1236 506.404 89.2735C507.557 92.9015 512.928 99.0136 513.131 99.2441C509.94 102.099 506.583 104.725 503.083 107.106C500.502 108.882 497.813 110.563 495.108 112.228C495.661 111.212 497.665 107.106 497.774 106.807C499.278 102.65 499.957 93.6613 496.425 90.4857C495.828 89.9743 495.138 89.6067 494.402 89.4068C493.665 89.207 492.899 89.1796 492.152 89.3262C491.405 89.4728 490.695 89.7902 490.068 90.2577C489.441 90.7252 488.911 91.3323 488.513 92.0393C486.72 94.9759 487.203 99.2953 488.201 102.445C489.331 105.988 494.437 111.835 494.89 112.365C493.658 113.116 492.434 113.875 491.195 114.618C487.149 117.051 483.095 119.467 479.151 121.994C477.786 122.847 476.477 123.786 475.151 124.691C475.931 123.146 477.326 120.303 477.42 120.039C478.917 115.89 479.595 106.893 476.071 103.717C475.472 103.206 474.782 102.839 474.044 102.64C473.307 102.44 472.54 102.413 471.793 102.561C471.045 102.708 470.335 103.027 469.707 103.495C469.08 103.963 468.549 104.571 468.151 105.279C466.366 108.216 466.841 112.535 467.847 115.685C468.853 118.835 473.062 123.889 474.263 125.289C472.072 126.825 469.936 128.396 467.894 130.061C467.029 130.795 466.101 131.486 465.306 132.246L462.889 134.465C461.283 136.036 459.771 137.496 458.329 139.007C457.588 139.766 456.902 140.501 456.193 141.243C457.206 139.809 458.773 137.496 458.898 137.274C460.956 133.415 462.866 124.64 459.818 120.909C459.296 120.306 458.665 119.83 457.965 119.512C457.264 119.193 456.51 119.04 455.752 119.062C454.994 119.083 454.249 119.28 453.564 119.638C452.88 119.996 452.272 120.508 451.781 121.14C451.511 121.464 451.271 121.815 451.063 122.19C447.852 123.96 445.111 126.606 443.104 129.873C442.964 130.112 441.631 133.185 440.976 134.764C441.233 133.364 441.483 131.964 441.756 130.496C442.161 128.396 442.644 126.185 443.112 124.051C443.385 122.95 443.665 121.84 443.946 120.722C444.227 119.603 444.585 118.528 444.905 117.418C445.404 115.796 445.996 114.157 446.581 112.51C448.506 113.09 454.189 114.678 457.105 114.217C460.02 113.756 463.832 112.177 465.376 109.095C465.762 108.38 466.006 107.583 466.092 106.757C466.179 105.931 466.105 105.095 465.876 104.302C465.647 103.51 465.269 102.779 464.765 102.158C464.261 101.536 463.643 101.038 462.951 100.695C458.742 98.7575 451.788 103.589 449.13 106.978C449.044 107.089 448.553 107.832 447.976 108.796C448.592 107.217 449.2 105.629 449.871 104.05C451.781 99.5599 453.854 95.0527 455.904 90.5284C456.333 89.5894 456.754 88.6418 457.175 87.6943C458.797 88.1894 464.971 89.965 467.995 89.4699C471.02 88.9748 474.723 87.4297 476.266 84.348C476.652 83.6325 476.897 82.8359 476.983 82.0101C477.069 81.1843 476.995 80.3479 476.767 79.5554C476.538 78.7629 476.159 78.0321 475.655 77.4105C475.151 76.789 474.533 76.2907 473.842 75.9482C469.632 74.0104 462.679 78.842 460.02 82.231C459.927 82.3505 459.334 83.2895 458.687 84.3309C459.779 81.8554 460.831 79.3713 461.806 76.8787C463.506 72.5986 464.941 68.1981 466.101 63.707C466.67 63.8948 473.834 66.1313 477.233 65.5764C480.25 65.0899 483.96 63.5448 485.504 60.4546C485.883 59.7365 486.121 58.9398 486.204 58.1153C486.286 57.2909 486.211 56.4566 485.983 55.6657C485.755 54.8748 485.379 54.1445 484.879 53.5214C484.379 52.8982 483.766 52.3959 483.079 52.0462C478.87 50.1085 471.916 54.9486 469.258 58.3376C469.071 58.5766 466.966 61.9655 466.249 63.2033L466.296 63.0497C467.337 58.6083 468.018 54.0749 468.33 49.5024C468.623 45.4217 468.698 41.3258 468.556 37.2355C468.463 33.4454 468.159 29.9796 467.878 26.9065C467.707 25.2504 467.527 23.7395 467.34 22.3309L467.426 22.3907C467.496 22.4419 468.985 16.5945 469.063 16.2103C469.718 11.8055 468.627 2.85938 464.557 0.580155C463.873 0.221362 463.128 0.0244116 462.369 0.00212855C461.611 -0.0201545 460.857 0.132729 460.156 0.450824C459.455 0.76892 458.823 1.24509 458.301 1.84834C457.78 2.45159 457.38 3.16838 457.128 3.95204C455.951 7.2471 457.269 11.3531 458.859 14.1957C460.449 17.0384 465.789 21.17 467.114 22.1602C467.278 23.6285 467.442 25.1992 467.582 26.9406C467.808 30.0052 468.034 33.471 468.058 37.2526C468.058 38.2599 468.058 39.344 468.058 40.394C467.746 38.6184 467.278 36.1856 467.208 35.9551C465.937 31.6869 461.198 24.3285 456.629 24.3541C455.878 24.3863 455.142 24.5896 454.467 24.9508C453.791 25.3121 453.192 25.8234 452.707 26.4522C452.223 27.0811 451.863 27.8136 451.651 28.6032C451.439 29.3928 451.38 30.222 451.477 31.0381C451.82 34.5466 454.712 37.5258 457.323 39.2501C459.935 40.9745 466.615 41.9732 468.058 42.161C467.995 44.4915 467.886 46.8817 467.644 49.3658C467.245 53.8841 466.481 58.3548 465.36 62.7253H465.103C464.994 61.018 464.69 57.5266 464.635 57.2449C463.793 52.8657 459.826 44.961 455.281 44.4403C454.524 44.3776 453.764 44.4899 453.05 44.7698C452.336 45.0497 451.683 45.491 451.135 46.0649C450.586 46.6389 450.154 47.3327 449.867 48.1014C449.579 48.8701 449.442 49.6964 449.465 50.5267C449.465 54.0523 452.03 57.3559 454.454 59.3875C457.245 61.718 464.799 63.5704 465.087 63.6557C463.865 67.9645 462.389 72.1818 460.667 76.2811C459.405 79.3201 458.017 82.3505 456.598 85.3724C456.551 84.1858 456.154 79.5676 456.091 79.2347C455.25 74.8641 451.282 66.9593 446.737 66.4301C445.98 66.3663 445.22 66.4774 444.506 66.7562C443.791 67.0351 443.138 67.4753 442.589 68.0485C442.04 68.6217 441.607 69.3149 441.318 70.0832C441.03 70.8515 440.892 71.6776 440.914 72.508C440.914 76.0421 443.478 79.3371 445.903 81.3773C448.623 83.648 455.858 85.4577 456.473 85.6456C455.826 87.0114 455.187 88.3857 454.525 89.7601C452.381 94.2247 450.214 98.6977 448.202 103.179C447.501 104.733 446.869 106.295 446.222 107.849C446.098 106.082 445.817 102.872 445.77 102.599C444.928 98.2282 440.96 90.3235 436.416 89.7943C435.659 89.7305 434.899 89.8416 434.184 90.1204C433.47 90.3992 432.817 90.8395 432.268 91.4127C431.718 91.9858 431.286 92.6791 430.997 93.4474C430.708 94.2156 430.571 95.0418 430.592 95.8722C430.592 99.4063 433.157 102.701 435.582 104.742C438.006 106.782 444.063 108.438 445.778 108.873C444.726 111.477 443.728 114.089 442.863 116.701C442.512 117.836 442.083 118.972 441.81 120.116L440.906 123.428C440.36 125.707 439.853 127.833 439.394 129.967C439.16 131.051 438.957 132.075 438.739 133.125C438.856 131.315 439.004 128.439 438.996 128.183C438.77 123.718 435.94 115.241 431.52 113.978C430.782 113.788 430.015 113.771 429.27 113.928C428.525 114.085 427.819 114.412 427.197 114.888C426.575 115.365 426.052 115.979 425.662 116.691C425.272 117.404 425.024 118.198 424.933 119.023C424.434 122.514 426.492 126.211 428.636 128.609C430.974 131.256 437.624 134.175 438.443 134.525C437.92 137.086 437.437 139.647 437.016 141.986C436.236 146.348 435.628 150.283 435.145 153.689H438.115C438.52 150.411 439.027 146.664 439.674 142.524C440.009 140.373 440.391 138.11 440.812 135.788C441.662 135.908 448.304 136.796 451.64 135.882C452.729 138.104 453.937 140.253 455.257 142.319C453.519 144.154 451.843 145.964 450.307 147.68C448.397 149.805 446.643 151.828 445.053 153.655H448.951C450.003 152.392 451.11 151.094 452.287 149.703C453.651 148.115 455.109 146.459 456.637 144.769C457.308 145.409 462.757 150.497 465.992 151.53C468.915 152.46 472.875 152.767 475.463 150.676C476.093 150.198 476.623 149.58 477.017 148.861C477.412 148.143 477.663 147.34 477.754 146.508C477.845 145.675 477.773 144.83 477.543 144.03C477.314 143.23 476.931 142.493 476.422 141.866C473.304 138.17 465.181 139.374 461.47 141.235C461.229 141.354 458.57 143.104 457.23 144.026C458.149 143.01 459.062 142.003 460.036 140.962C461.431 139.451 462.952 137.906 464.409 136.403L466.748 134.132C467.527 133.339 468.385 132.69 469.211 131.956C470.443 130.906 471.76 129.89 473.109 128.874C474.426 130.521 478.363 135.276 481.037 136.642C483.711 138.008 487.679 139.007 490.524 137.351C491.207 136.988 491.812 136.471 492.3 135.835C492.788 135.198 493.148 134.457 493.357 133.658C493.566 132.859 493.619 132.021 493.512 131.198C493.406 130.375 493.142 129.586 492.738 128.883C490.205 124.725 481.965 124.555 478.044 125.775C477.911 125.818 477.108 126.168 476.157 126.629C477.467 125.681 478.776 124.725 480.133 123.812C483.984 121.251 487.983 118.69 491.982 116.18L494.469 114.584C495.568 115.975 499.801 121.166 502.599 122.6C505.398 124.034 509.233 124.964 512.086 123.308C512.768 122.944 513.372 122.427 513.86 121.791C514.347 121.154 514.707 120.413 514.916 119.614C515.125 118.816 515.178 117.978 515.072 117.155C514.966 116.333 514.703 115.544 514.3 114.84C511.759 110.683 503.527 110.512 499.598 111.733C499.458 111.733 498.499 112.194 497.431 112.68C499.583 111.272 501.711 109.838 503.784 108.344C507.36 105.802 510.774 102.999 514.004 99.9526C514.386 100.448 519.235 106.654 522.345 108.241C525.105 109.65 528.987 110.606 531.832 108.95C532.514 108.586 533.118 108.069 533.606 107.432C534.093 106.796 534.453 106.054 534.662 105.256C534.871 104.457 534.924 103.62 534.818 102.797C534.712 101.975 534.449 101.186 534.046 100.482C531.513 96.3161 523.273 96.1539 519.352 97.3746C519.071 97.46 515.61 99.0136 514.386 99.6197L514.503 99.5172C517.61 96.4425 520.461 93.0716 523.024 89.4443C525.335 86.2072 527.475 82.8269 529.431 79.3201C531.263 76.0933 532.76 73.0202 534.062 70.2885C534.764 68.8117 535.372 67.4374 535.933 66.1484C535.93 66.1796 535.93 66.211 535.933 66.2423C535.933 66.3276 540.174 62.3667 540.415 62.085C543.175 58.8071 546.769 50.6889 544.523 46.3268Z" fill="black"/>
<path opacity="0.3" d="M537.406 88.6078C533.882 87.9505 527.271 82.9652 527.271 82.9652C527.271 82.9652 531.59 79.1921 531.894 78.9958C535.379 76.6824 543.369 74.463 546.815 77.7409C547.374 78.3029 547.819 78.9877 548.12 79.7506C548.422 80.5135 548.573 81.3374 548.564 82.1686C548.556 82.9998 548.387 83.8196 548.069 84.5746C547.752 85.3297 547.292 86.0029 546.721 86.5505C544.375 88.9663 540.407 89.1712 537.406 88.6078Z" fill="black"/>
<path opacity="0.3" d="M468.627 41.4867C468.55 41.4867 470.335 35.7331 470.483 35.3831C472.237 31.3539 477.772 24.6784 482.301 25.3272C483.051 25.4574 483.767 25.7592 484.403 26.2129C485.039 26.6665 485.581 27.262 485.993 27.9603C486.405 28.6586 486.678 29.4441 486.794 30.2657C486.91 31.0872 486.866 31.9263 486.666 32.7283C485.926 36.1428 482.714 38.7038 479.931 40.0781C476.665 41.6574 468.627 41.4867 468.627 41.4867Z" fill="black"/>
<path opacity="0.3" d="M544.523 46.3268C544.136 45.6114 543.615 44.9935 542.995 44.5135C542.374 44.0335 541.669 43.7021 540.923 43.541C540.178 43.3799 539.41 43.3927 538.67 43.5785C537.93 43.7644 537.233 44.1191 536.627 44.6195C533.992 46.6512 533.017 50.8682 532.916 54.2059C532.815 57.5437 535.177 64.2106 535.785 65.8411C535.185 67.1642 534.522 68.5727 533.766 70.1093C532.409 72.7982 530.858 75.8287 528.964 78.9957C528.465 79.8493 527.896 80.703 527.35 81.5566C527.981 79.8493 528.823 77.5786 528.909 77.3396C529.985 73.0714 529.759 64.0143 525.931 61.2826C525.285 60.8475 524.563 60.5663 523.811 60.4572C523.059 60.3482 522.294 60.4138 521.567 60.6497C520.84 60.8857 520.166 61.2867 519.589 61.8267C519.013 62.3666 518.547 63.0335 518.222 63.7838C516.74 66.9167 517.645 71.1507 518.954 74.1641C520.326 77.3055 525.339 82.0517 526.446 83.0761C525.222 84.9797 523.928 86.909 522.47 88.8382C519.868 92.3918 516.979 95.683 513.84 98.6721L513.638 98.4929C514.417 97.0246 515.914 93.9088 515.976 93.6356C517.481 89.4784 518.151 80.4896 514.628 77.314C514.029 76.8024 513.339 76.4347 512.602 76.2348C511.865 76.0349 511.098 76.0074 510.351 76.154C509.604 76.3006 508.893 76.618 508.265 77.0856C507.637 77.5532 507.107 78.1604 506.708 78.8676C504.922 81.8042 505.398 86.1236 506.404 89.2735C507.557 92.9015 512.928 99.0136 513.131 99.2441C509.94 102.099 506.583 104.725 503.083 107.106C500.502 108.882 497.813 110.563 495.108 112.228C495.661 111.212 497.665 107.106 497.774 106.807C499.278 102.65 499.957 93.6613 496.425 90.4857C495.828 89.9743 495.138 89.6067 494.402 89.4068C493.665 89.207 492.899 89.1796 492.152 89.3262C491.405 89.4728 490.695 89.7902 490.068 90.2577C489.441 90.7252 488.911 91.3323 488.513 92.0393C486.72 94.9759 487.203 99.2953 488.201 102.445C489.331 105.988 494.437 111.835 494.89 112.365C493.658 113.116 492.434 113.875 491.195 114.618C487.149 117.051 483.095 119.467 479.151 121.994C477.786 122.847 476.477 123.786 475.151 124.691C475.931 123.146 477.326 120.303 477.42 120.039C478.917 115.89 479.595 106.893 476.071 103.717C475.472 103.206 474.782 102.839 474.044 102.64C473.307 102.44 472.54 102.413 471.793 102.561C471.045 102.708 470.335 103.027 469.707 103.495C469.08 103.963 468.549 104.571 468.151 105.279C466.366 108.216 466.841 112.535 467.847 115.685C468.853 118.835 473.062 123.889 474.263 125.289C472.072 126.825 469.936 128.396 467.894 130.061C467.029 130.795 466.101 131.486 465.306 132.246L462.889 134.465C461.283 136.036 459.771 137.496 458.329 139.007C457.588 139.766 456.902 140.501 456.193 141.243C457.206 139.809 458.773 137.496 458.898 137.274C460.956 133.415 462.866 124.64 459.818 120.909C459.296 120.306 458.665 119.83 457.965 119.512C457.264 119.193 456.51 119.04 455.752 119.062C454.994 119.083 454.249 119.28 453.564 119.638C452.88 119.996 452.272 120.508 451.781 121.14C451.511 121.464 451.271 121.815 451.063 122.19C447.852 123.96 445.111 126.606 443.104 129.873C442.964 130.112 441.631 133.185 440.976 134.764C441.233 133.364 441.483 131.964 441.756 130.496C442.161 128.396 442.644 126.185 443.112 124.051C443.385 122.95 443.665 121.84 443.946 120.722C444.227 119.603 444.585 118.528 444.905 117.418C445.404 115.796 445.996 114.157 446.581 112.51C448.506 113.09 454.189 114.678 457.105 114.217C460.02 113.756 463.832 112.177 465.376 109.095C465.762 108.38 466.006 107.583 466.092 106.757C466.179 105.931 466.105 105.095 465.876 104.302C465.647 103.51 465.269 102.779 464.765 102.158C464.261 101.536 463.643 101.038 462.951 100.695C458.742 98.7575 451.788 103.589 449.13 106.978C449.044 107.089 448.553 107.832 447.976 108.796C448.592 107.217 449.2 105.629 449.871 104.05C451.781 99.5599 453.854 95.0527 455.904 90.5284C456.333 89.5894 456.754 88.6418 457.175 87.6943C458.797 88.1894 464.971 89.965 467.995 89.4699C471.02 88.9748 474.723 87.4297 476.266 84.348C476.652 83.6325 476.897 82.8359 476.983 82.0101C477.069 81.1843 476.995 80.3479 476.767 79.5554C476.538 78.7629 476.159 78.0321 475.655 77.4105C475.151 76.789 474.533 76.2907 473.842 75.9482C469.632 74.0104 462.679 78.842 460.02 82.231C459.927 82.3505 459.334 83.2895 458.687 84.3309C459.779 81.8554 460.831 79.3713 461.806 76.8787C463.506 72.5986 464.941 68.1981 466.101 63.707C466.67 63.8948 473.834 66.1313 477.233 65.5764C480.25 65.0899 483.96 63.5448 485.504 60.4546C485.883 59.7365 486.121 58.9398 486.204 58.1153C486.286 57.2909 486.211 56.4566 485.983 55.6657C485.755 54.8748 485.379 54.1445 484.879 53.5214C484.379 52.8982 483.766 52.3959 483.079 52.0462C478.87 50.1085 471.916 54.9486 469.258 58.3376C469.071 58.5766 466.966 61.9655 466.249 63.2033L466.296 63.0497C467.337 58.6083 468.018 54.0749 468.33 49.5024C468.623 45.4217 468.698 41.3258 468.556 37.2355C468.463 33.4454 468.159 29.9796 467.878 26.9065C467.707 25.2504 467.527 23.7395 467.34 22.3309L467.426 22.3907C467.496 22.4419 468.985 16.5945 469.063 16.2103C469.718 11.8055 468.627 2.85938 464.557 0.580155C463.873 0.221362 463.128 0.0244116 462.369 0.00212855C461.611 -0.0201545 460.857 0.132729 460.156 0.450824C459.455 0.76892 458.823 1.24509 458.301 1.84834C457.78 2.45159 457.38 3.16838 457.128 3.95204C455.951 7.2471 457.269 11.3531 458.859 14.1957C460.449 17.0384 465.789 21.17 467.114 22.1602C467.278 23.6285 467.442 25.1992 467.582 26.9406C467.808 30.0052 468.034 33.471 468.058 37.2526C468.058 38.2599 468.058 39.344 468.058 40.394C467.746 38.6184 467.278 36.1856 467.208 35.9551C465.937 31.6869 461.198 24.3285 456.629 24.3541C455.878 24.3863 455.142 24.5896 454.467 24.9508C453.791 25.3121 453.192 25.8234 452.707 26.4522C452.223 27.0811 451.863 27.8136 451.651 28.6032C451.439 29.3928 451.38 30.222 451.477 31.0381C451.82 34.5466 454.712 37.5258 457.323 39.2501C459.935 40.9745 466.615 41.9732 468.058 42.161C467.995 44.4915 467.886 46.8817 467.644 49.3658C467.245 53.8841 466.481 58.3548 465.36 62.7253H465.103C464.994 61.018 464.69 57.5266 464.635 57.2449C463.793 52.8657 459.826 44.961 455.281 44.4403C454.524 44.3776 453.764 44.4899 453.05 44.7698C452.336 45.0497 451.683 45.491 451.135 46.0649C450.586 46.6389 450.154 47.3327 449.867 48.1014C449.579 48.8701 449.442 49.6964 449.465 50.5267C449.465 54.0523 452.03 57.3559 454.454 59.3875C457.245 61.718 464.799 63.5704 465.087 63.6557C463.865 67.9645 462.389 72.1818 460.667 76.2811C459.405 79.3201 458.017 82.3505 456.598 85.3724C456.551 84.1858 456.154 79.5676 456.091 79.2347C455.25 74.8641 451.282 66.9593 446.737 66.4301C445.98 66.3663 445.22 66.4774 444.506 66.7562C443.791 67.0351 443.138 67.4753 442.589 68.0485C442.04 68.6217 441.607 69.3149 441.318 70.0832C441.03 70.8515 440.892 71.6776 440.914 72.508C440.914 76.0421 443.478 79.3371 445.903 81.3773C448.623 83.648 455.858 85.4577 456.473 85.6456C455.826 87.0114 455.187 88.3857 454.525 89.7601C452.381 94.2247 450.214 98.6977 448.202 103.179C447.501 104.733 446.869 106.295 446.222 107.849C446.098 106.082 445.817 102.872 445.77 102.599C444.928 98.2282 440.96 90.3235 436.416 89.7943C435.659 89.7305 434.899 89.8416 434.184 90.1204C433.47 90.3992 432.817 90.8395 432.268 91.4127C431.718 91.9858 431.286 92.6791 430.997 93.4474C430.708 94.2156 430.571 95.0418 430.592 95.8722C430.592 99.4063 433.157 102.701 435.582 104.742C438.006 106.782 444.063 108.438 445.778 108.873C444.726 111.477 443.728 114.089 442.863 116.701C442.512 117.836 442.083 118.972 441.81 120.116L440.906 123.428C440.36 125.707 439.853 127.833 439.394 129.967C439.16 131.051 438.957 132.075 438.739 133.125C438.856 131.315 439.004 128.439 438.996 128.183C438.77 123.718 435.94 115.241 431.52 113.978C430.782 113.788 430.015 113.771 429.27 113.928C428.525 114.085 427.819 114.412 427.197 114.888C426.575 115.365 426.052 115.979 425.662 116.691C425.272 117.404 425.024 118.198 424.933 119.023C424.434 122.514 426.492 126.211 428.636 128.609C430.974 131.256 437.624 134.175 438.443 134.525C437.92 137.086 437.437 139.647 437.016 141.986C436.236 146.348 435.628 150.283 435.145 153.689H438.115C438.52 150.411 439.027 146.664 439.674 142.524C440.009 140.373 440.391 138.11 440.812 135.788C441.662 135.908 448.304 136.796 451.64 135.882C452.729 138.104 453.937 140.253 455.257 142.319C453.519 144.154 451.843 145.964 450.307 147.68C448.397 149.805 446.643 151.828 445.053 153.655H448.951C450.003 152.392 451.11 151.094 452.287 149.703C453.651 148.115 455.109 146.459 456.637 144.769C457.308 145.409 462.757 150.497 465.992 151.53C468.915 152.46 472.875 152.767 475.463 150.676C476.093 150.198 476.623 149.58 477.017 148.861C477.412 148.143 477.663 147.34 477.754 146.508C477.845 145.675 477.773 144.83 477.543 144.03C477.314 143.23 476.931 142.493 476.422 141.866C473.304 138.17 465.181 139.374 461.47 141.235C461.229 141.354 458.57 143.104 457.23 144.026C458.149 143.01 459.062 142.003 460.036 140.962C461.431 139.451 462.952 137.906 464.409 136.403L466.748 134.132C467.527 133.339 468.385 132.69 469.211 131.956C470.443 130.906 471.76 129.89 473.109 128.874C474.426 130.521 478.363 135.276 481.037 136.642C483.711 138.008 487.679 139.007 490.524 137.351C491.207 136.988 491.812 136.471 492.3 135.835C492.788 135.198 493.148 134.457 493.357 133.658C493.566 132.859 493.619 132.021 493.512 131.198C493.406 130.375 493.142 129.586 492.738 128.883C490.205 124.725 481.965 124.555 478.044 125.775C477.911 125.818 477.108 126.168 476.157 126.629C477.467 125.681 478.776 124.725 480.133 123.812C483.984 121.251 487.983 118.69 491.982 116.18L494.469 114.584C495.568 115.975 499.801 121.166 502.599 122.6C505.398 124.034 509.233 124.964 512.086 123.308C512.768 122.944 513.372 122.427 513.86 121.791C514.347 121.154 514.707 120.413 514.916 119.614C515.125 118.816 515.178 117.978 515.072 117.155C514.966 116.333 514.703 115.544 514.3 114.84C511.759 110.683 503.527 110.512 499.598 111.733C499.458 111.733 498.499 112.194 497.431 112.68C499.583 111.272 501.711 109.838 503.784 108.344C507.36 105.802 510.774 102.999 514.004 99.9526C514.386 100.448 519.235 106.654 522.345 108.241C525.105 109.65 528.987 110.606 531.832 108.95C532.514 108.586 533.118 108.069 533.606 107.432C534.093 106.796 534.453 106.054 534.662 105.256C534.871 104.457 534.924 103.62 534.818 102.797C534.712 101.975 534.449 101.186 534.046 100.482C531.513 96.3161 523.273 96.1539 519.352 97.3746C519.071 97.46 515.61 99.0136 514.386 99.6197L514.503 99.5172C517.61 96.4425 520.461 93.0716 523.024 89.4443C525.335 86.2072 527.475 82.8269 529.431 79.3201C531.263 76.0933 532.76 73.0202 534.062 70.2885C534.764 68.8117 535.372 67.4374 535.933 66.1484C535.93 66.1796 535.93 66.211 535.933 66.2423C535.933 66.3276 540.174 62.3667 540.415 62.085C543.175 58.8071 546.769 50.6889 544.523 46.3268Z" fill="black"/>
</g>
<path d="M80.6136 294.412V282.393L71.259 281.855C70.8593 279.933 70.2385 278.074 69.4115 276.323L75.6479 268.692L67.8524 260.198L61.1794 266.78C59.5614 265.72 57.8239 264.896 56.011 264.33L55.5277 254.316H44.6296L44.1463 264.33C42.405 264.872 40.7337 265.656 39.1728 266.66L32.1568 259.703L24.3613 268.239L30.894 276.187C30.1387 277.765 29.5477 279.432 29.1322 281.155L18.998 281.735V293.755L29.4128 294.361C29.8452 295.868 30.4145 297.323 31.1122 298.706L23.917 307.456L31.7125 315.992L39.7185 308.104C40.9105 308.825 42.1637 309.417 43.4603 309.871L43.9982 321.814H54.9742L55.5355 310.238C56.9215 309.847 58.2689 309.306 59.558 308.625L67.486 316.427L75.2815 307.934L68.5774 299.773C69.4338 298.277 70.1321 296.679 70.6588 295.01L80.6136 294.412ZM50.1176 300.217C47.7626 300.218 45.4601 299.455 43.5014 298.023C41.5426 296.592 40.0157 294.556 39.1137 292.174C38.2118 289.792 37.9754 287.17 38.4345 284.641C38.8935 282.111 40.0274 279.788 41.6926 277.964C43.3579 276.141 45.4796 274.899 47.7895 274.397C50.0993 273.894 52.4934 274.153 54.6688 275.14C56.8442 276.128 58.7033 277.8 60.0107 279.945C61.3181 282.09 62.0151 284.611 62.0136 287.19C62.0136 288.901 61.7059 290.595 61.108 292.175C60.5102 293.756 59.634 295.192 58.5293 296.401C57.4247 297.611 56.1133 298.57 54.67 299.225C53.2267 299.88 51.6798 300.217 50.1176 300.217Z" fill="#F9C09B" stroke="#263238" stroke-linecap="round" stroke-linejoin="round"/>
<path d="M62.2397 231.592L61.1795 221.28L53.119 221.792C52.6079 220.186 51.9138 218.658 51.0532 217.242L55.7304 210.037L48.3247 203.558L43.1719 209.909C41.6822 209.168 40.1095 208.645 38.4946 208.356L37.2006 199.819L27.7836 200.972L28.2436 209.619C26.8341 210.274 25.504 211.117 24.2835 212.129L17.6183 206.905L11.7093 215.014L18.0081 221.143C17.4971 222.577 17.1337 224.069 16.9245 225.591L8.28711 227.161L9.3395 237.473L18.3277 236.893C18.8279 238.143 19.4444 239.333 20.1674 240.444L14.7574 248.707L22.1631 255.187L28.3059 247.546C29.394 248.036 30.5215 248.413 31.6736 248.673L33.2327 258.917L42.634 257.79L42.0961 247.794C43.2555 247.314 44.368 246.707 45.417 245.984L52.9007 251.849L58.8175 243.748L52.3472 237.439C52.9489 236.077 53.4091 234.646 53.7192 233.171L62.2397 231.592ZM36.5769 239.778C34.5576 240.026 32.5166 239.613 30.7118 238.59C28.9071 237.568 27.4197 235.982 26.4378 234.034C25.4559 232.086 25.0235 229.863 25.1952 227.646C25.367 225.429 26.1353 223.317 27.4029 221.578C28.6705 219.839 30.3806 218.551 32.3168 217.876C34.2531 217.201 36.3286 217.17 38.2809 217.787C40.2332 218.404 41.9747 219.641 43.2851 221.341C44.5956 223.042 45.4162 225.13 45.6431 227.341C45.9454 230.306 45.1603 233.282 43.4604 235.614C41.7604 237.946 39.2847 239.444 36.5769 239.778Z" fill="white" stroke="#263238" stroke-linecap="round" stroke-linejoin="round"/>
<path d="M545.474 184.651H535.122C532.767 184.651 530.857 186.742 530.857 189.321V200.657C530.857 203.236 532.767 205.327 535.122 205.327H545.474C547.829 205.327 549.738 203.236 549.738 200.657V189.321C549.738 186.742 547.829 184.651 545.474 184.651Z" stroke="#263238" stroke-linecap="round" stroke-linejoin="round"/>
<path d="M545.474 158.965H535.122C532.767 158.965 530.857 161.055 530.857 163.634V174.971C530.857 177.549 532.767 179.64 535.122 179.64H545.474C547.829 179.64 549.738 177.549 549.738 174.971V163.634C549.738 161.055 547.829 158.965 545.474 158.965Z" stroke="#263238" stroke-linecap="round" stroke-linejoin="round"/>
<path d="M545.474 133.287H535.122C532.767 133.287 530.857 135.378 530.857 137.957V149.293C530.857 151.872 532.767 153.962 535.122 153.962H545.474C547.829 153.962 549.738 151.872 549.738 149.293V137.957C549.738 135.378 547.829 133.287 545.474 133.287Z" stroke="#263238" stroke-linecap="round" stroke-linejoin="round"/>
<path d="M523.476 184.651H513.124C510.769 184.651 508.859 186.742 508.859 189.321V200.657C508.859 203.236 510.769 205.327 513.124 205.327H523.476C525.831 205.327 527.74 203.236 527.74 200.657V189.321C527.74 186.742 525.831 184.651 523.476 184.651Z" stroke="#263238" stroke-linecap="round" stroke-linejoin="round"/>
<path d="M21.0791 71.1936L25.1094 66.7717C25.4109 66.4575 25.6518 66.0804 25.8181 65.6626C25.9844 65.2448 26.0726 64.7947 26.0776 64.339C26.0826 63.8833 26.0041 63.4311 25.847 63.0091C25.6898 62.587 25.4571 62.2037 25.1626 61.8818C24.868 61.5598 24.5176 61.3056 24.1319 61.1343C23.7462 60.9629 23.3331 60.8779 22.917 60.8841C22.5008 60.8903 22.09 60.9877 21.7088 61.1706C21.3275 61.3534 20.9835 61.618 20.6971 61.9487L16.6669 66.362L12.6366 61.9487C12.0476 61.3347 11.2628 60.9971 10.4497 61.0077C9.63658 61.0183 8.85941 61.3763 8.2839 62.0054C7.70838 62.6345 7.38006 63.4849 7.36894 64.3753C7.35782 65.2657 7.66477 66.1256 8.22435 66.7717L12.2546 71.1936L8.22435 75.6069C7.63925 76.2476 7.31055 77.1166 7.31055 78.0227C7.31055 78.9288 7.63925 79.7978 8.22435 80.4385C8.80945 81.0792 9.60302 81.4392 10.4305 81.4392C11.2579 81.4392 12.0515 81.0792 12.6366 80.4385L16.6669 76.0167L20.6971 80.4385C20.9868 80.7558 21.3308 81.0074 21.7093 81.1791C22.0878 81.3508 22.4935 81.4392 22.9033 81.4392C23.313 81.4392 23.7187 81.3508 24.0972 81.1791C24.4757 81.0074 24.8197 80.7558 25.1094 80.4385C25.3991 80.1213 25.6289 79.7446 25.7857 79.3301C25.9425 78.9156 26.0232 78.4714 26.0232 78.0227C26.0232 77.5741 25.9425 77.1298 25.7857 76.7153C25.6289 76.3008 25.3991 75.9242 25.1094 75.6069L21.0791 71.1936Z" stroke="#263238" stroke-linecap="round" stroke-linejoin="round"/>
<path d="M45.712 51.5687L48.8302 48.1541C49.0534 47.9097 49.2304 47.6196 49.3512 47.3003C49.472 46.981 49.5341 46.6388 49.5341 46.2931C49.5341 45.9475 49.472 45.6053 49.3512 45.286C49.2304 44.9667 49.0534 44.6766 48.8302 44.4322C48.607 44.1878 48.3421 43.994 48.0505 43.8617C47.7589 43.7295 47.4464 43.6614 47.1308 43.6614C46.8152 43.6614 46.5027 43.7295 46.2111 43.8617C45.9195 43.994 45.6546 44.1878 45.4314 44.4322L42.3132 47.8468L39.195 44.4322C38.9734 44.1808 38.7082 43.9802 38.415 43.8423C38.1218 43.7044 37.8064 43.6319 37.4873 43.629C37.1682 43.6261 36.8518 43.6929 36.5565 43.8255C36.2613 43.958 35.9931 44.1537 35.7677 44.4011C35.5423 44.6485 35.3642 44.9426 35.2438 45.2662C35.1234 45.5899 35.0632 45.9365 35.0665 46.2859C35.0699 46.6354 35.1369 46.9806 35.2635 47.3013C35.3901 47.6221 35.5738 47.912 35.804 48.1541L38.9222 51.5687L35.804 54.9832C35.3918 55.4836 35.1708 56.1382 35.1867 56.8119C35.2025 57.4855 35.454 58.1268 35.8891 58.6033C36.3243 59.0798 36.9099 59.3552 37.5251 59.3725C38.1402 59.3899 38.738 59.1479 39.195 58.6966L42.3132 55.282L45.4314 58.6966C45.8839 59.1749 46.4898 59.4396 47.1187 59.4339C47.7476 59.4282 48.3494 59.1525 48.7946 58.6661C49.2399 58.1796 49.493 57.5213 49.4997 56.8326C49.5063 56.1439 49.266 55.4799 48.8302 54.9832L45.712 51.5687Z" stroke="#263238" stroke-linecap="round" stroke-linejoin="round"/>
<path d="M72.7628 350.412L75.881 346.998C76.2932 346.497 76.5141 345.843 76.4983 345.169C76.4825 344.495 76.231 343.854 75.7959 343.378C75.3607 342.901 74.7751 342.626 74.1599 342.608C73.5447 342.591 72.947 342.833 72.49 343.284L69.3718 346.699L66.2536 343.284C65.7966 342.833 65.1988 342.591 64.5837 342.608C63.9685 342.626 63.3829 342.901 62.9477 343.378C62.5126 343.854 62.2611 344.495 62.2453 345.169C62.2294 345.843 62.4504 346.497 62.8626 346.998L65.9807 350.412L62.8626 353.827C62.6324 354.069 62.4487 354.359 62.3221 354.68C62.1955 355 62.1285 355.345 62.1251 355.695C62.1218 356.044 62.182 356.391 62.3024 356.715C62.4228 357.038 62.6009 357.332 62.8263 357.58C63.0517 357.827 63.3198 358.023 63.6151 358.155C63.9104 358.288 64.2268 358.355 64.5459 358.352C64.865 358.349 65.1804 358.276 65.4736 358.138C65.7668 358.001 66.032 357.8 66.2536 357.549L69.3718 354.134L72.49 357.549C72.9435 358.026 73.5499 358.289 74.1788 358.282C74.8078 358.274 75.4089 357.997 75.8532 357.51C76.2974 357.022 76.5492 356.363 76.5544 355.674C76.5596 354.986 76.3178 354.322 75.881 353.827L72.7628 350.412Z" stroke="#263238" stroke-linecap="round" stroke-linejoin="round"/>
<path d="M506.091 319.125L509.209 315.711C509.645 315.214 509.885 314.55 509.878 313.861C509.872 313.172 509.618 312.514 509.173 312.028C508.728 311.541 508.126 311.266 507.497 311.26C506.868 311.254 506.263 311.519 505.81 311.997L502.692 315.412L499.574 311.997C499.117 311.546 498.519 311.304 497.904 311.321C497.288 311.339 496.703 311.614 496.268 312.09C495.833 312.567 495.581 313.208 495.565 313.882C495.549 314.556 495.77 315.21 496.183 315.711L499.301 319.125L496.183 322.54C495.77 323.04 495.549 323.695 495.565 324.368C495.581 325.042 495.833 325.683 496.268 326.16C496.703 326.636 497.288 326.912 497.904 326.929C498.519 326.946 499.117 326.704 499.574 326.253L502.692 322.838L505.81 326.253C506.263 326.731 506.868 326.996 507.497 326.99C508.126 326.985 508.728 326.709 509.173 326.223C509.618 325.736 509.872 325.078 509.878 324.389C509.885 323.7 509.645 323.036 509.209 322.54L506.091 319.125Z" stroke="#263238" stroke-linecap="round" stroke-linejoin="round"/>
<path d="M525.641 319.125L528.76 315.71C528.989 315.468 529.172 315.177 529.298 314.856C529.424 314.535 529.49 314.19 529.493 313.84C529.496 313.491 529.435 313.145 529.314 312.821C529.193 312.498 529.014 312.204 528.788 311.957C528.562 311.711 528.293 311.516 527.998 311.384C527.702 311.252 527.386 311.186 527.067 311.19C526.748 311.193 526.432 311.267 526.139 311.405C525.847 311.544 525.582 311.745 525.361 311.997L522.243 315.412L519.124 311.997C518.667 311.546 518.07 311.304 517.454 311.321C516.839 311.339 516.254 311.614 515.818 312.09C515.383 312.567 515.132 313.208 515.116 313.882C515.1 314.555 515.321 315.21 515.733 315.71L518.851 319.125L515.733 322.54C515.321 323.04 515.1 323.695 515.116 324.368C515.132 325.042 515.383 325.683 515.818 326.16C516.254 326.636 516.839 326.912 517.454 326.929C518.07 326.946 518.667 326.704 519.124 326.253L522.243 322.838L525.361 326.253C525.582 326.505 525.847 326.706 526.139 326.845C526.432 326.983 526.748 327.057 527.067 327.06C527.386 327.064 527.702 326.998 527.998 326.866C528.293 326.734 528.562 326.539 528.788 326.293C529.014 326.046 529.193 325.752 529.314 325.429C529.435 325.106 529.496 324.759 529.493 324.41C529.49 324.06 529.424 323.715 529.298 323.394C529.172 323.073 528.989 322.782 528.76 322.54L525.641 319.125Z" stroke="#263238" stroke-linecap="round" stroke-linejoin="round"/>
<path d="M514.207 42.1788L517.325 38.7642C517.761 38.2676 518.001 37.6035 517.994 36.9149C517.988 36.2262 517.735 35.5678 517.289 35.0814C516.844 34.595 516.242 34.3192 515.614 34.3135C514.985 34.3078 514.379 34.5726 513.926 35.0509L510.808 38.4655L507.69 35.0509C507.472 34.786 507.207 34.5725 506.911 34.4234C506.615 34.2743 506.294 34.1927 505.969 34.1835C505.643 34.1743 505.319 34.2378 505.017 34.37C504.714 34.5022 504.439 34.7005 504.209 34.9527C503.979 35.2049 503.798 35.5058 503.677 35.837C503.556 36.1683 503.498 36.523 503.507 36.8795C503.515 37.2361 503.59 37.5871 503.726 37.9111C503.862 38.2351 504.057 38.5253 504.299 38.7642L507.417 42.1788L504.299 45.5934C504.069 45.8355 503.885 46.1254 503.758 46.4461C503.632 46.7669 503.565 47.1121 503.561 47.4615C503.558 47.8109 503.618 48.1576 503.739 48.4812C503.859 48.8049 504.037 49.099 504.263 49.3463C504.488 49.5937 504.756 49.7894 505.051 49.922C505.347 50.0546 505.663 50.1213 505.982 50.1185C506.301 50.1156 506.617 50.043 506.91 49.9051C507.203 49.7672 507.468 49.5667 507.69 49.3152L510.808 45.9007L513.926 49.3152C514.377 49.8088 514.988 50.0861 515.626 50.0861C516.263 50.0861 516.874 49.8088 517.325 49.3152C517.776 48.8217 518.029 48.1523 518.029 47.4543C518.029 46.7563 517.776 46.0869 517.325 45.5934L514.207 42.1788Z" stroke="#263238" stroke-linecap="round" stroke-linejoin="round"/>
<path d="M451.71 28.4844H117.65V341.839H451.71V28.4844Z" fill="white" stroke="#263238" stroke-linecap="round" stroke-linejoin="round"/>
<path d="M288.184 28.4844H117.65V341.839H288.184V28.4844Z" fill="#F9C09B" stroke="#263238" stroke-linecap="round" stroke-linejoin="round"/>
<path d="M437.304 267.309H293.695V329.949H437.304V267.309Z" fill="#F9C09B" stroke="#263238" stroke-linecap="round" stroke-linejoin="round"/>
<path d="M310.318 295.428C315.725 294.038 319.079 288.111 317.81 282.191C316.541 276.27 311.129 272.597 305.722 273.986C300.315 275.376 296.961 281.303 298.23 287.224C299.499 293.144 304.911 296.817 310.318 295.428Z" fill="#263238" stroke="#263238" stroke-linecap="round" stroke-linejoin="round"/>
<path d="M311.883 281.001C311.883 280.156 311.655 279.331 311.226 278.629C310.798 277.927 310.189 277.38 309.477 277.057C308.765 276.734 307.981 276.65 307.225 276.814C306.469 276.979 305.775 277.386 305.23 277.983C304.684 278.579 304.313 279.34 304.163 280.168C304.012 280.996 304.09 281.854 304.385 282.634C304.68 283.414 305.179 284.081 305.82 284.55C306.461 285.019 307.215 285.269 307.986 285.269C309.019 285.269 310.011 284.819 310.742 284.019C311.473 283.218 311.883 282.133 311.883 281.001Z" fill="white" stroke="#263238" stroke-linecap="round" stroke-linejoin="round"/>
<path d="M308.039 286.045C306.341 286.047 304.713 286.787 303.513 288.103C302.313 289.419 301.639 291.202 301.639 293.062C301.639 293.113 301.639 293.164 301.639 293.216C303.439 294.843 305.701 295.733 308.035 295.733C310.369 295.733 312.631 294.843 314.431 293.216C314.431 293.164 314.431 293.113 314.431 293.062C314.431 291.204 313.758 289.422 312.56 288.106C311.361 286.791 309.736 286.049 308.039 286.045Z" fill="white" stroke="#263238" stroke-linecap="round" stroke-linejoin="round"/>
<path d="M326.787 279.977H382.829" stroke="#263238" stroke-linecap="round" stroke-linejoin="round"/>
<path d="M348.975 290.996H420.085" stroke="#263238" stroke-linecap="round" stroke-linejoin="round"/>
<path d="M326.787 290.996H344.795" stroke="#263238" stroke-linecap="round" stroke-linejoin="round"/>
<path d="M326.787 301.65H420.084" stroke="#263238" stroke-linecap="round" stroke-linejoin="round"/>
<path d="M413.217 312.312H420.085" stroke="#263238" stroke-linecap="round" stroke-linejoin="round"/>
<path d="M326.787 312.312H408.398" stroke="#263238" stroke-linecap="round" stroke-linejoin="round"/>
<path d="M204.547 142.812H127.559V192.571H204.547V142.812Z" fill="white"/>
<path d="M204.554 191.291V192.571H203.385" stroke="#263238" stroke-linecap="round" stroke-linejoin="round"/>
<path d="M200.976 192.571H129.936" stroke="#263238" stroke-linecap="round" stroke-linejoin="round" stroke-dasharray="3.09 3.09"/>
<path d="M128.728 192.571H127.559V191.291" stroke="#263238" stroke-linecap="round" stroke-linejoin="round"/>
<path d="M127.559 188.807V145.331" stroke="#263238" stroke-linecap="round" stroke-linejoin="round" stroke-dasharray="2.91 2.91"/>
<path d="M127.559 144.093V142.812H128.728" stroke="#263238" stroke-linecap="round" stroke-linejoin="round"/>
<path d="M131.137 142.812H202.177" stroke="#263238" stroke-linecap="round" stroke-linejoin="round" stroke-dasharray="3.09 3.09"/>
<path d="M203.385 142.812H204.554V144.093" stroke="#263238" stroke-linecap="round" stroke-linejoin="round"/>
<path d="M204.555 146.578V190.046" stroke="#263238" stroke-linecap="round" stroke-linejoin="round" stroke-dasharray="2.91 2.91"/>
<path d="M288.029 142.812H211.041V192.571H288.029V142.812Z" fill="white"/>
<path d="M288.029 191.291V192.571H286.859" stroke="#263238" stroke-linecap="round" stroke-linejoin="round"/>
<path d="M284.458 192.571H213.418" stroke="#263238" stroke-linecap="round" stroke-linejoin="round" stroke-dasharray="3.09 3.09"/>
<path d="M212.21 192.571H211.041V191.291" stroke="#263238" stroke-linecap="round" stroke-linejoin="round"/>
<path d="M211.041 188.807V145.331" stroke="#263238" stroke-linecap="round" stroke-linejoin="round" stroke-dasharray="2.91 2.91"/>
<path d="M211.041 144.093V142.812H212.21" stroke="#263238" stroke-linecap="round" stroke-linejoin="round"/>
<path d="M214.619 142.812H285.659" stroke="#263238" stroke-linecap="round" stroke-linejoin="round" stroke-dasharray="3.09 3.09"/>
<path d="M286.859 142.812H288.029V144.093" stroke="#263238" stroke-linecap="round" stroke-linejoin="round"/>
<path d="M288.029 146.578V190.046" stroke="#263238" stroke-linecap="round" stroke-linejoin="round" stroke-dasharray="2.91 2.91"/>
<path d="M451.71 28.4844H117.65V43.1755H451.71V28.4844Z" fill="#263238" stroke="#263238" stroke-linecap="round" stroke-linejoin="round"/>
<path d="M451.703 28.4844H287.881V43.1755H451.703V28.4844Z" fill="#F9C09B" stroke="#263238" stroke-linecap="round" stroke-linejoin="round"/>
<path d="M418.314 39.3435C419.98 39.3435 421.331 37.8644 421.331 36.0399C421.331 34.2154 419.98 32.7363 418.314 32.7363C416.648 32.7363 415.297 34.2154 415.297 36.0399C415.297 37.8644 416.648 39.3435 418.314 39.3435Z" fill="white" stroke="#263238" stroke-linecap="round" stroke-linejoin="round"/>
<path d="M429.525 39.3435C431.191 39.3435 432.542 37.8644 432.542 36.0399C432.542 34.2154 431.191 32.7363 429.525 32.7363C427.859 32.7363 426.508 34.2154 426.508 36.0399C426.508 37.8644 427.859 39.3435 429.525 39.3435Z" fill="white" stroke="#263238" stroke-linecap="round" stroke-linejoin="round"/>
<path d="M440.734 39.3435C442.4 39.3435 443.751 37.8644 443.751 36.0399C443.751 34.2154 442.4 32.7363 440.734 32.7363C439.067 32.7363 437.717 34.2154 437.717 36.0399C437.717 37.8644 439.067 39.3435 440.734 39.3435Z" fill="#263238" stroke="#263238" stroke-linecap="round" stroke-linejoin="round"/>
<path d="M288.169 76.0498H127.699V125.809H288.169V76.0498Z" fill="white"/>
<path d="M288.169 124.528V125.809H287" stroke="#263238" stroke-linecap="round" stroke-linejoin="round"/>
<path d="M284.637 125.808H130.045" stroke="#263238" stroke-linecap="round" stroke-linejoin="round" stroke-dasharray="3.03 3.03"/>
<path d="M128.869 125.809H127.699V124.528" stroke="#263238" stroke-linecap="round" stroke-linejoin="round"/>
<path d="M127.699 122.044V78.5684" stroke="#263238" stroke-linecap="round" stroke-linejoin="round" stroke-dasharray="2.91 2.91"/>
<path d="M127.699 77.3303V76.0498H128.869" stroke="#263238" stroke-linecap="round" stroke-linejoin="round"/>
<path d="M131.223 76.0498H285.823" stroke="#263238" stroke-linecap="round" stroke-linejoin="round" stroke-dasharray="3.03 3.03"/>
<path d="M287 76.0498H288.169V77.3303" stroke="#263238" stroke-linecap="round" stroke-linejoin="round"/>
<path d="M288.17 79.8145V123.282" stroke="#263238" stroke-linecap="round" stroke-linejoin="round" stroke-dasharray="2.91 2.91"/>
<path d="M272.075 330.84C278.284 329.36 282.222 322.648 280.871 315.848C279.519 309.049 273.39 304.737 267.18 306.217C260.971 307.697 257.033 314.409 258.385 321.208C259.736 328.007 265.866 332.32 272.075 330.84Z" fill="white" stroke="#263238" stroke-linecap="round" stroke-linejoin="round" stroke-dasharray="3 3"/>
<path d="M240.308 328.1C245.129 323.566 245.68 315.611 241.54 310.332C237.399 305.053 230.135 304.45 225.314 308.984C220.494 313.518 219.942 321.473 224.083 326.751C228.223 332.03 235.488 332.634 240.308 328.1Z" fill="white" stroke="#263238" stroke-linecap="round" stroke-linejoin="round" stroke-dasharray="3 3"/>
<path d="M163.9 68.1026H133.63C132.882 68.1037 132.141 67.9433 131.45 67.6307C130.759 67.318 130.13 66.8592 129.601 66.2804C129.072 65.7016 128.652 65.0143 128.366 64.2577C128.079 63.5011 127.932 62.69 127.932 61.871C127.932 60.216 128.532 58.6288 129.601 57.4586C130.669 56.2883 132.119 55.6309 133.63 55.6309H163.9C165.411 55.6309 166.861 56.2883 167.929 57.4586C168.998 58.6288 169.599 60.216 169.599 61.871C169.599 62.69 169.451 63.5011 169.165 64.2577C168.878 65.0143 168.458 65.7016 167.929 66.2804C167.4 66.8592 166.771 67.318 166.08 67.6307C165.389 67.9433 164.648 68.1037 163.9 68.1026Z" fill="white" stroke="#263238" stroke-linecap="round" stroke-linejoin="round" stroke-dasharray="3 3"/>
<path d="M218.976 68.1026H188.706C187.958 68.1037 187.218 67.9433 186.526 67.6307C185.835 67.318 185.207 66.8592 184.677 66.2804C184.148 65.7016 183.728 65.0143 183.442 64.2577C183.155 63.5011 183.008 62.69 183.008 61.871C183.008 60.216 183.608 58.6288 184.677 57.4586C185.746 56.2883 187.195 55.6309 188.706 55.6309H218.976C219.724 55.6309 220.465 55.7923 221.156 56.106C221.847 56.4197 222.474 56.8795 223.003 57.4591C223.531 58.0386 223.95 58.7266 224.236 59.4836C224.522 60.2407 224.668 61.0519 224.667 61.871C224.667 63.5237 224.067 65.1087 223 66.2774C221.933 67.446 220.485 68.1026 218.976 68.1026Z" fill="white" stroke="#263238" stroke-linecap="round" stroke-linejoin="round" stroke-dasharray="3 3"/>
<path d="M274.043 68.1026H243.773C242.263 68.1026 240.814 67.4463 239.746 66.2779C238.678 65.1095 238.076 63.5245 238.074 61.871C238.074 60.216 238.675 58.6288 239.743 57.4586C240.812 56.2883 242.261 55.6309 243.773 55.6309H274.043C275.554 55.6309 277.003 56.2883 278.072 57.4586C279.141 58.6288 279.741 60.216 279.741 61.871C279.741 62.69 279.594 63.5011 279.307 64.2577C279.021 65.0143 278.601 65.7016 278.072 66.2804C277.542 66.8592 276.914 67.318 276.223 67.6307C275.531 67.9433 274.791 68.1037 274.043 68.1026Z" fill="white" stroke="#263238" stroke-linecap="round" stroke-linejoin="round" stroke-dasharray="3 3"/>
<path d="M329.088 68.1026H298.849C298.101 68.1037 297.36 67.9433 296.669 67.6307C295.977 67.318 295.349 66.8592 294.82 66.2804C294.291 65.7016 293.871 65.0143 293.584 64.2577C293.298 63.5011 293.15 62.69 293.15 61.871C293.15 60.216 293.751 58.6288 294.819 57.4586C295.888 56.2883 297.338 55.6309 298.849 55.6309H329.088C329.836 55.6309 330.576 55.7923 331.267 56.106C331.958 56.4197 332.586 56.8795 333.114 57.4591C333.643 58.0386 334.062 58.7266 334.347 59.4836C334.633 60.2407 334.779 61.0519 334.778 61.871C334.778 62.6893 334.631 63.4997 334.345 64.2557C334.059 65.0118 333.64 65.6987 333.112 66.2774C332.583 66.856 331.956 67.315 331.265 67.6282C330.575 67.9414 329.835 68.1026 329.088 68.1026Z" fill="#F9C09B" stroke="#263238" stroke-linecap="round" stroke-linejoin="round"/>
<path d="M384.185 68.1026H353.915C352.406 68.1026 350.959 67.446 349.891 66.2774C348.824 65.1087 348.225 63.5237 348.225 61.871C348.224 61.0519 348.37 60.2407 348.656 59.4836C348.941 58.7266 349.36 58.0386 349.889 57.4591C350.417 56.8795 351.045 56.4197 351.736 56.106C352.427 55.7923 353.167 55.6309 353.915 55.6309H384.185C384.934 55.6297 385.676 55.7903 386.368 56.1034C387.061 56.4165 387.69 56.876 388.22 57.4555C388.75 58.0351 389.17 58.7234 389.457 59.481C389.744 60.2387 389.892 61.0508 389.892 61.871C389.892 62.6908 389.744 63.5025 389.457 64.2597C389.17 65.0168 388.749 65.7046 388.219 66.2834C387.689 66.8623 387.06 67.321 386.368 67.6331C385.676 67.9453 384.934 68.1048 384.185 68.1026Z" fill="#F9C09B" stroke="#263238" stroke-linecap="round" stroke-linejoin="round"/>
<path d="M439.261 68.1026H408.991C408.243 68.1037 407.503 67.9433 406.811 67.6307C406.12 67.318 405.492 66.8592 404.962 66.2804C404.433 65.7016 404.013 65.0143 403.727 64.2577C403.44 63.5011 403.293 62.69 403.293 61.871C403.293 60.216 403.893 58.6288 404.962 57.4586C406.031 56.2883 407.48 55.6309 408.991 55.6309H439.261C440.773 55.6309 442.222 56.2883 443.291 57.4586C444.359 58.6288 444.96 60.216 444.96 61.871C444.958 63.5245 444.357 65.1095 443.288 66.2779C442.22 67.4463 440.771 68.1026 439.261 68.1026Z" fill="#F9C09B" stroke="#263238" stroke-linecap="round" stroke-linejoin="round"/>
<path d="M288.029 6.22168V358.246" stroke="#263238" stroke-miterlimit="10"/>
<path d="M335.799 142.601H342.83" stroke="#263238" stroke-linecap="round" stroke-linejoin="round"/>
<path d="M297.43 142.601H331.301" stroke="#263238" stroke-linecap="round" stroke-linejoin="round"/>
<path d="M297.43 152.681H342.831" stroke="#263238" stroke-linecap="round" stroke-linejoin="round"/>
<path d="M308.18 162.754H342.831" stroke="#263238" stroke-linecap="round" stroke-linejoin="round"/>
<path d="M297.43 162.754H303.682" stroke="#263238" stroke-linecap="round" stroke-linejoin="round"/>
<path d="M297.43 172.827H342.831" stroke="#263238" stroke-linecap="round" stroke-linejoin="round"/>
<path d="M297.43 182.909H342.831" stroke="#263238" stroke-linecap="round" stroke-linejoin="round"/>
<path d="M297.43 192.981H342.831" stroke="#263238" stroke-linecap="round" stroke-linejoin="round"/>
<path d="M326.811 203.062H342.83" stroke="#263238" stroke-linecap="round" stroke-linejoin="round"/>
<path d="M297.43 203.062H321.027" stroke="#263238" stroke-linecap="round" stroke-linejoin="round"/>
<path d="M297.43 213.136H364.299" stroke="#263238" stroke-linecap="round" stroke-linejoin="round"/>
<path d="M297.43 223.217H364.299" stroke="#263238" stroke-linecap="round" stroke-linejoin="round"/>
<path d="M324.238 233.291H364.299" stroke="#263238" stroke-linecap="round" stroke-linejoin="round"/>
<path d="M297.43 233.291H319.101" stroke="#263238" stroke-linecap="round" stroke-linejoin="round"/>
<path d="M297.43 243.372H364.299" stroke="#263238" stroke-linecap="round" stroke-linejoin="round"/>
<path d="M356.684 253.445H364.3" stroke="#263238" stroke-linecap="round" stroke-linejoin="round"/>
<path d="M297.43 253.445H352.185" stroke="#263238" stroke-linecap="round" stroke-linejoin="round"/>
<path d="M372.891 213.136H439.76" stroke="#263238" stroke-linecap="round" stroke-linejoin="round"/>
<path d="M406.793 223.217H439.76" stroke="#263238" stroke-linecap="round" stroke-linejoin="round"/>
<path d="M372.891 223.217H402.615" stroke="#263238" stroke-linecap="round" stroke-linejoin="round"/>
<path d="M372.891 233.291H439.76" stroke="#263238" stroke-linecap="round" stroke-linejoin="round"/>
<path d="M421.246 243.372H439.76" stroke="#263238" stroke-linecap="round" stroke-linejoin="round"/>
<path d="M372.891 243.372H415.142" stroke="#263238" stroke-linecap="round" stroke-linejoin="round"/>
<path d="M372.891 253.445H439.76" stroke="#263238" stroke-linecap="round" stroke-linejoin="round"/>
<path d="M300.525 126.918V84.4492H293.229V79.5322H313.692V84.4492H306.559V126.918H300.525Z" fill="#263238"/>
<path d="M317.83 126.918V79.5322H334.606V84.4492H323.872V100.131H332.579V104.809H323.872V122.18H334.715V126.918H317.83Z" fill="#263238"/>
<path d="M336.883 126.918L345.91 102.12L337.039 79.5322H342.651L349.223 96.2636L355.202 79.5322H360.815L351.733 102.64L361.244 126.918H355.631L348.615 109.077L342.519 126.918H336.883Z" fill="#263238"/>
<path d="M370.084 126.918V84.4492H362.764V79.5322H383.227V84.4492H376.117V126.918H370.084Z" fill="#263238"/>
<path d="M552.53 238.849H488.412V287.233H552.53V238.849Z" fill="white" stroke="#263238" stroke-linecap="round" stroke-linejoin="round"/>
<path d="M552.53 287.241H488.412V294.045H552.53V287.241Z" fill="#F9C09B" stroke="#263238" stroke-linecap="round" stroke-linejoin="round"/>
<path d="M533.205 264.176L511.658 250.543V277.8L533.205 264.176Z" fill="#263238" stroke="#263238" stroke-linecap="round" stroke-linejoin="round"/>
<path d="M451.704 101.241L396.566 98.3047L392.855 181.808L451.704 184.949V101.241Z" fill="#263238" stroke="#263238" stroke-linecap="round" stroke-linejoin="round"/>
<path d="M500.346 95.2663L392.529 89.5127L388.813 173.019L496.629 178.773L500.346 95.2663Z" fill="white" stroke="#263238" stroke-linecap="round" stroke-linejoin="round"/>
<path d="M498.437 138.212L479.268 117.528L447.758 150.803L432.003 137.854L388.824 172.989L496.636 178.734L498.437 138.212Z" fill="#F9C09B" stroke="#263238" stroke-linecap="round" stroke-linejoin="round"/>
<path d="M419.275 123.708C424.988 122.083 428.416 115.694 426.932 109.438C425.448 103.182 419.614 99.428 413.901 101.053C408.188 102.678 404.76 109.067 406.243 115.323C407.727 121.579 413.562 125.333 419.275 123.708Z" fill="#F9C09B" stroke="#263238" stroke-linecap="round" stroke-linejoin="round"/>
<path d="M448.577 134.712C448.577 134.712 444.874 136.667 444.188 138.921C443.502 141.175 443.361 144.487 442.403 145.537C441.444 146.587 436.221 149.301 436.221 150.496C436.221 151.691 438.006 153.962 438.006 153.962C438.006 153.962 437.593 163.429 438.965 164.931C440.337 166.434 445.981 167.04 445.981 167.04L445.84 173.656C445.84 173.656 449.138 173.502 454.626 173.656C460.114 173.809 462.18 174.108 462.18 174.108L462.32 161.474C462.32 161.474 469.047 157.112 469.336 150.198C469.624 143.283 464.659 136.966 459.311 134.559C453.963 132.152 448.577 134.712 448.577 134.712Z" fill="white" stroke="#263238" stroke-linecap="round" stroke-linejoin="round"/>
<path d="M455.305 129.445C455.305 129.445 456.404 125.843 454.525 125.689C452.646 125.536 444.633 132.006 446.012 134.712C447.392 137.418 452.599 136.061 452.186 137.572C451.773 139.083 448.343 141.029 448.889 142.83C449.435 144.632 450.401 147.491 450.269 147.952C450.136 148.413 447.517 149.753 447.798 150.812C448.078 151.87 447.657 152.459 448.577 152.613C449.497 152.767 452.015 149.156 453.8 150.812C455.585 152.468 456.544 157.274 455.585 159.348C454.626 161.423 454.073 162.199 455.585 163.856C457.098 165.512 462.601 166.562 463.381 165.213C464.16 163.864 471.176 159.493 472.439 154.534C473.702 149.574 473.398 141.729 469.828 138.144C467.255 135.67 464.448 133.503 461.455 131.682C461.455 131.682 463.24 129.42 461.728 128.822C460.216 128.225 456.404 128.549 455.305 129.445Z" fill="#263238" stroke="#263238" stroke-linecap="round" stroke-linejoin="round"/>
<path d="M450.401 152.068C450.401 152.068 453.387 149.507 454.299 152.631C455.211 155.756 451.96 159.947 450.089 160.314C448.218 160.681 446.698 158.607 446.901 158.291" stroke="#263238" stroke-linecap="round" stroke-linejoin="round"/>
<path d="M444.648 142.729C444.648 142.729 446.091 141.713 447.112 143.736" stroke="#263238" stroke-linecap="round" stroke-linejoin="round"/>
<path d="M445.466 146.817C445.325 147.833 444.936 148.61 444.6 148.525C444.265 148.439 444.101 147.603 444.242 146.587C444.382 145.571 444.772 144.794 445.107 144.879C445.442 144.965 445.606 145.81 445.466 146.817Z" fill="#263238"/>
<path d="M438.693 156.208C438.693 156.208 441.57 157.326 443.417 154.851" stroke="#263238" stroke-linecap="round" stroke-linejoin="round"/>
<path d="M464.323 170.428C464.323 170.428 451.944 168.917 449.645 169.25C447.345 169.583 442.309 171.93 440.625 173.1C439.67 173.755 438.797 174.544 438.029 175.447C438.029 175.447 451.328 174.278 456.068 174.944C460.186 175.669 464.268 176.621 468.299 177.795C468.299 177.795 466.007 171.094 464.323 170.428Z" fill="#BDBDBD" stroke="#263238" stroke-linecap="round" stroke-linejoin="round"/>
<path d="M495.21 191.352C495.21 191.352 491.39 183.524 491.234 181.475C491.078 179.427 492.302 174.774 492.606 173.793C492.91 172.811 492.606 169.106 493.83 169.61C495.054 170.113 495.21 171.445 495.21 172.623C495.21 173.801 494.594 175.295 494.594 176.132C494.594 176.968 496.933 173.955 496.933 173.955C497.028 172.378 497.231 170.812 497.541 169.268C497.845 168.602 499.529 168.099 500.137 169.106C500.745 170.113 500.916 173.793 500.916 173.793C501.49 176.163 501.951 178.565 502.296 180.989C502.452 182.995 499.848 188.526 499.388 188.859C498.929 189.192 498.78 192.709 498.78 192.709L495.21 191.352Z" fill="white" stroke="#263238" stroke-linecap="round" stroke-linejoin="round"/>
<path d="M401.18 158.204C401.18 158.204 398.125 147.32 396.753 145.143C395.381 142.967 393.541 141.797 392.465 140.457C391.389 139.117 390.485 135.438 389.105 137.111C387.725 138.784 388.801 141.294 389.261 141.797C389.721 142.301 385.434 144.981 385.434 145.818C385.434 146.654 386.813 148.328 386.993 148.831C387.172 149.335 388.676 154.516 389.596 154.858C390.516 155.199 394.18 157.197 394.18 157.197L397.392 161.388L401.18 158.204Z" fill="white" stroke="#263238" stroke-linecap="round" stroke-linejoin="round"/>
<path d="M389.262 141.798L392.622 145.819" stroke="#263238" stroke-linecap="round" stroke-linejoin="round"/>
<path d="M429.072 241.904C429.072 241.904 428.168 264.261 428.168 273.404C428.168 282.546 431.559 346.373 431.559 349.48C431.559 352.587 433.687 373.032 433.687 373.032C433.687 373.032 431.013 373.211 431.013 374.125C431.013 375.038 431.348 379.426 431.348 379.426C429.46 381.298 427.32 382.842 425.003 384.001C421.495 385.649 420.489 386.742 421.495 388.022C422.5 389.303 432.346 390.404 436.361 389.857C440.375 389.311 443.034 389.303 443.377 388.022C443.693 385.722 443.862 383.4 443.883 381.074C443.883 380.348 444.881 377.42 445.053 374.859C445.224 372.298 444.881 371.564 444.881 369.191C444.881 366.818 452.342 281.197 452.342 281.197L468.837 325.16L483.921 374.125C483.921 374.125 482.915 374.859 483.251 375.772C483.586 376.686 486.423 384.181 486.423 384.181C486.423 384.181 486.26 387.843 486.759 388.21C487.258 388.577 490.43 389.49 495.279 389.67C500.128 389.849 506.629 389.123 506.466 388.022C506.302 386.921 503.628 385.461 502.459 384.369C501.289 383.276 496.448 376.507 496.448 376.507C496.078 375.017 495.631 373.552 495.108 372.119C494.772 371.564 492.94 368.644 492.94 368.644C492.94 368.644 486.618 323.401 485.784 320.456C484.95 317.511 473.935 263.168 473.935 263.168L470.334 244.277L429.072 241.904Z" fill="#263238" stroke="#263238" stroke-linecap="round" stroke-linejoin="round"/>
<path d="M438.03 175.449C438.03 175.449 427.943 176.789 424.419 178.129C420.895 179.469 409.748 180.639 409.748 180.639C409.748 180.639 402.865 157.531 402.405 157.368C401.945 157.206 397.205 157.369 396.753 159.375L396.293 161.389C396.293 161.389 400.729 199.385 401.493 201.229C402.257 203.072 403.784 202.74 404.852 202.569C405.92 202.398 426.259 199.555 426.259 199.555L427.67 240.453C427.665 241.368 427.863 242.27 428.247 243.083C428.855 244.261 435.886 249.28 449.957 248.947C464.028 248.614 470.904 247.24 471.356 245.934C471.808 244.628 470.748 239.566 470.576 238.567C470.405 237.568 474.552 216.295 474.552 216.295C474.552 216.295 495.958 229.356 499.497 229.527C503.037 229.698 503.169 224.67 503.013 223.159C502.857 221.648 499.038 189.346 499.038 189.346C498.132 188.523 497.002 188.051 495.826 188.006H493.994L491.702 207.588C491.702 207.588 482.347 193.699 480.999 191.181C479.297 187.98 477.198 185.053 474.762 182.483C472.757 180.708 470.607 179.14 468.339 177.796C468.339 177.796 459.889 170.924 438.03 175.449Z" fill="#BDBDBD" stroke="#263238" stroke-linecap="round" stroke-linejoin="round"/>
<path d="M476.625 197.891L477.015 194.365" stroke="#263238" stroke-linecap="round" stroke-linejoin="round"/>
<path d="M474.566 216.294L476.211 201.577" stroke="#263238" stroke-linecap="round" stroke-linejoin="round"/>
<path d="M452.295 203.951C453.332 207.366 454.252 210.78 454.844 213.623" stroke="#263238" stroke-linecap="round" stroke-linejoin="round"/>
<path d="M445.365 183.822C445.365 183.822 448.819 192.828 451.703 202.039" stroke="#263238" stroke-linecap="round" stroke-linejoin="round"/>
<path d="M455.148 206.086C456.633 210.512 457.61 215.123 458.056 219.813" stroke="#263238" stroke-linecap="round" stroke-linejoin="round"/>
<path d="M425.83 195.552L424.73 185.325" stroke="#263238" stroke-linecap="round" stroke-linejoin="round"/>
<path d="M426.259 199.555L425.986 197.02" stroke="#263238" stroke-linecap="round" stroke-linejoin="round"/>
<path d="M409.748 180.639C409.748 180.639 405.92 181.646 404.393 184.659" stroke="#263238" stroke-linecap="round" stroke-linejoin="round"/>
<path d="M497.797 214.145L499.333 215.792" stroke="#263238" stroke-linecap="round" stroke-linejoin="round"/>
<path d="M491.693 207.588L496.246 212.479" stroke="#263238" stroke-linecap="round" stroke-linejoin="round"/>
<path d="M237.093 196.184H117.791V283.281H237.093V196.184Z" fill="#263238" stroke="#263238" stroke-linecap="round" stroke-linejoin="round"/>
<path d="M231.978 187.716H92.8125V275.06H231.978V187.716Z" fill="white" stroke="#263238" stroke-linecap="round" stroke-linejoin="round"/>
<path d="M92.8125 275.06L231.978 187.716" stroke="#263238" stroke-linecap="round" stroke-linejoin="round"/>
<path d="M92.8125 187.716L231.978 275.06" stroke="#263238" stroke-linecap="round" stroke-linejoin="round"/>
<path d="M150.523 209.603C151.17 212.021 151.493 214.528 151.482 217.047C151.373 220.769 151.903 222.861 152.543 223.876C153.182 224.892 155.092 225.968 154.102 226.779C153.112 227.59 151.132 229.109 151.132 229.109C150.568 232.22 149.861 235.297 149.011 238.329C148.06 241.231 142.432 237.475 142.432 237.475C142.432 237.475 140.202 242.366 139.984 243.638C139.766 244.91 139.353 245.038 139.353 245.038L126.716 240.77L128.275 234.718C128.275 234.718 125.406 224.252 125.726 216.467C126.046 208.682 135.977 203.79 141.216 204.012C146.454 204.234 150.523 209.603 150.523 209.603Z" fill="white" stroke="#263238" stroke-linecap="round" stroke-linejoin="round"/>
<path d="M150.734 221.461C150.734 222.238 150.547 222.861 150.314 222.861C150.08 222.861 149.885 222.238 149.885 221.461C149.885 220.684 150.08 220.069 150.314 220.069C150.547 220.069 150.734 220.692 150.734 221.461Z" fill="#263238"/>
<path d="M148.723 219.138C148.723 219.138 149.993 217.508 151.163 218.438" stroke="#263238" stroke-linecap="round" stroke-linejoin="round"/>
<path d="M147.654 230.304C147.654 230.304 148.722 231.815 150.102 231.234" stroke="#263238" stroke-linecap="round" stroke-linejoin="round"/>
<path d="M155.513 207.973C154.707 210.703 153.273 213.161 151.35 215.11C149.403 216.868 147.171 218.209 144.77 219.062C144.77 219.062 145.511 219.916 144.661 220.232C143.812 220.547 142.432 219.378 141.582 220.112C140.732 220.846 138.604 228.367 139.454 232.208C140.304 236.05 144.872 235.23 144.872 235.23C144.872 235.23 139.774 240.232 135.845 240.582C131.916 240.932 123.629 237.791 121.719 235.58C119.809 233.369 116.941 225.575 118.539 220.923C120.137 216.271 122.998 207.555 125.968 204.414C128.938 201.272 135.525 199.061 138.713 198.831C141.902 198.6 145.729 199.411 148.068 201.622C150.407 203.833 151.467 206.155 151.888 206.155C152.309 206.155 155.731 206.343 155.513 207.973Z" fill="#263238" stroke="#263238" stroke-linecap="round" stroke-linejoin="round"/>
<path d="M144.575 221.81C144.575 221.81 142.876 219.949 141.605 220.103C140.334 220.256 139.796 226.727 140.755 228.127C141.714 229.527 143.943 228.357 143.943 228.357" stroke="#263238" stroke-linecap="round" stroke-linejoin="round"/>
<path d="M125.672 239.37C125.672 239.37 141.708 244.603 142.043 245.303C142.378 246.003 143.641 250.655 143.641 250.655L123.139 242.512L125.672 239.37Z" fill="#BDBDBD" stroke="#263238" stroke-linecap="round" stroke-linejoin="round"/>
<path d="M192.573 275.914C192.573 275.914 196.338 272.5 197.593 271.928C198.848 271.356 202.481 271.791 203.611 272.064C204.741 272.337 206.729 270.972 208 271.518C209.271 272.064 208.779 272.756 208 273.575C207.231 274.279 206.388 274.881 205.49 275.368H209.645C209.645 275.368 209.645 275.539 209.645 276.631C209.604 277.064 209.483 277.482 209.289 277.861C209.094 278.24 208.831 278.571 208.514 278.834C207.626 280.179 206.522 281.335 205.256 282.248C203.12 283.759 199.113 282.248 197.609 281.557C196.468 281.081 195.291 280.716 194.093 280.464L192.588 281.011L190.959 275.931L192.573 275.914Z" fill="white" stroke="#263238" stroke-linecap="round" stroke-linejoin="round"/>
<path d="M205.489 275.367L203.174 276.332" stroke="#263238" stroke-linecap="round" stroke-linejoin="round"/>
<path d="M99.9001 251.192C99.9001 251.192 100.025 246.386 100.15 245.567C100.274 244.747 101.155 240.624 100.929 239.523C100.703 238.422 97.8109 234.717 97.538 233.479C97.2652 232.241 97.1639 229.356 96.5402 228.673C95.9166 227.99 94.529 228.537 94.2795 229.774C94.139 230.404 94.0555 231.047 94.0301 231.695L94.4043 235.537C94.2628 235.594 94.1115 235.617 93.9611 235.604C93.8107 235.591 93.6647 235.542 93.5333 235.461C93.4019 235.379 93.2883 235.268 93.2004 235.133C93.1125 234.999 93.0525 234.845 93.0245 234.683C92.6503 233.445 92.4008 232.344 92.4008 232.344C92.4008 232.344 89.5165 233.445 89.7659 234.956C89.9099 235.844 90.1185 236.717 90.3896 237.568C90.3896 237.568 88.3861 243.057 89.3918 244.295C90.3974 245.533 93.5312 248.964 93.9053 249.511C94.5276 251.033 95.0715 252.592 95.5346 254.18L99.9001 251.192Z" fill="white" stroke="#263238" stroke-linecap="round" stroke-linejoin="round"/>
<path d="M94.3809 235.537C94.8437 235.618 95.2853 235.806 95.6754 236.091C96.0655 236.375 96.3951 236.748 96.6416 237.185" stroke="#263238" stroke-linecap="round" stroke-linejoin="round"/>
<path d="M105.668 296.649C105.668 296.649 100.991 307.225 99.4318 313.269C97.8727 319.313 98.9251 326.586 100.687 333.312C102.449 340.039 108.482 367.646 108.482 367.646C108.482 367.646 87.2864 373.826 86.2886 374.099C85.2908 374.373 83.7785 372.179 82.2739 372.589C80.0746 373.419 77.9352 374.429 75.8738 375.61C75.2502 376.02 69.4815 370.941 68.2264 371.078C66.9714 371.214 63.8376 372.998 61.9901 374.919C60.1425 376.84 51.8559 379.042 50.2033 381.791C48.5506 384.54 47.1864 385.205 48.0673 385.905C48.9482 386.605 73.5274 384.54 75.6556 384.54C77.7837 384.54 108.015 386.324 112.146 386.05C116.278 385.777 122.686 384.813 123.185 383.848C123.684 382.883 123.808 359.946 124.564 352.955C125.321 345.963 125.344 337.162 125.344 337.162C125.344 337.162 137.63 336.198 146.158 333.586C154.686 330.973 158.366 329.881 158.366 329.881L154.203 368.764C154.203 368.764 151.817 372.179 151.817 372.742V379.862C151.817 379.862 150.063 385.624 150.687 386.042C151.311 386.46 159.59 389.61 162.1 389.883C164.61 390.156 174.393 389.883 175.516 389.337C176.638 388.791 177.145 387.135 176.771 386.452C176.397 385.769 172.756 384.804 171.883 383.84C171.01 382.875 165.358 377.386 165.358 377.386C165.358 377.386 165.74 373.545 165.483 372.717C165.226 371.889 164.61 368.047 164.61 368.047L176.397 329.736C176.397 329.736 180.294 313.517 180.029 312.296C179.764 311.075 178.4 309.957 177.691 309.41C176.981 308.864 157.251 305.996 151.732 306.525C148.186 306.863 144.626 307 141.068 306.935L138.183 299.525C138.183 299.525 128.408 301.446 119.879 299.662C111.351 297.878 106.463 294.31 106.463 294.31L105.668 296.649Z" fill="#263238" stroke="#263238" stroke-linecap="round" stroke-linejoin="round"/>
<path d="M141.535 308.6L144.794 317.247" stroke="#858585" stroke-linecap="round" stroke-linejoin="round"/>
<path d="M159.715 328.78C159.715 328.78 169.373 325.622 172.889 322.6" stroke="#858585" stroke-linecap="round" stroke-linejoin="round"/>
<path d="M101.404 327.688C101.404 327.688 109.683 336.062 123.855 336.471" stroke="#858585" stroke-linecap="round" stroke-linejoin="round"/>
<path d="M109.309 369.618C110.63 372.084 112.432 374.2 114.586 375.816" stroke="#858585" stroke-linecap="round" stroke-linejoin="round"/>
<path d="M123.123 242.511C123.123 242.511 109.177 250.373 108.678 251.192C108.179 252.012 104.578 262.452 104.578 262.452L100.189 248.452C100.189 248.452 96.2911 249.306 95.3011 250.783C94.7088 251.661 94.1622 252.576 93.6641 253.523C93.6641 253.523 96.7823 274.941 96.7823 275.359C96.7823 275.777 96.0027 278.517 96.907 280.301C97.8113 282.086 100.54 287.438 103.424 287.711C106.308 287.984 107.189 286.755 107.189 286.755C107.189 286.755 105.685 291.424 104.929 293.891C104.172 296.358 104.679 297.468 105.934 297.878C107.189 298.288 117.097 303.23 125.501 303.64C133.904 304.05 138.418 302.129 139.291 300.9C140.063 299.61 140.576 298.155 140.796 296.632C141.045 295.394 146.315 283.998 146.315 283.998C146.315 283.998 158.858 295.949 161.368 296.905C163.878 297.861 193.22 282.214 193.22 282.214C193.22 282.214 194 279.328 192.963 277.945C191.926 276.562 190.96 275.342 190.203 275.478C189.447 275.615 165.624 281.24 165.624 281.24C165.624 281.24 151.46 257.21 150.579 255.973C149.698 254.735 143.641 250.629 143.641 250.629L123.123 242.511Z" fill="#BDBDBD" stroke="#263238" stroke-linecap="round" stroke-linejoin="round"/>
<path d="M146.298 284.014L141.66 278.525" stroke="#263238" stroke-linecap="round" stroke-linejoin="round"/>
<path d="M135.76 285.858C136.56 286.574 137.457 287.15 138.418 287.566" stroke="#263238" stroke-linecap="round" stroke-linejoin="round"/>
<path d="M127.738 269.46C127.738 269.46 129.508 278.15 133.764 283.707" stroke="#263238" stroke-linecap="round" stroke-linejoin="round"/>
<path d="M123.598 283.605C123.598 283.605 130.122 289.649 135.517 291.015" stroke="#263238" stroke-linecap="round" stroke-linejoin="round"/>
<path d="M108.303 263.331C108.238 262.308 108.238 261.281 108.303 260.258" stroke="#263238" stroke-linecap="round" stroke-linejoin="round"/>
<path d="M107.172 286.764C107.172 286.764 108.676 279.892 108.801 275.914C108.871 273.797 108.653 270.092 108.474 266.771" stroke="#263238" stroke-linecap="round" stroke-linejoin="round"/>
<path d="M98.6515 275.12L97.3887 277.835" stroke="#263238" stroke-linecap="round" stroke-linejoin="round"/>
<path d="M104.538 262.451L99.5566 273.173" stroke="#263238" stroke-linecap="round" stroke-linejoin="round"/>
</svg>