<svg width="51" height="59" viewBox="0 0 51 59" fill="none" xmlns="http://www.w3.org/2000/svg">
<path d="M21.5517 47.9321H7.50781V27.9643C7.50781 22.5966 8.44407 18.5172 10.3166 15.726C12.3764 12.8274 15.8405 11.1634 20.7091 10.734V20.2348C19.0238 20.2348 17.6194 21.04 16.4959 22.6503C15.9341 23.5091 15.6533 25.1731 15.6533 27.6422V30.7018H21.5517V47.9321ZM43.4602 47.9321H29.4163V27.9643C29.4163 22.5966 30.2589 18.6782 31.9442 16.2091C34.1912 12.9884 37.749 11.1634 42.6175 10.734V20.2348C39.7151 20.2348 38.0767 21.8988 37.7022 25.2268C37.6085 25.6562 37.5617 26.4613 37.5617 27.6422V30.7018H43.4602V47.9321Z" fill="#9BA0A7"/>
</svg>