<svg width="36" height="38" viewBox="0 0 36 38" fill="none" xmlns="http://www.w3.org/2000/svg">
<path d="M35.4481 19.1539C35.4481 29.3499 27.6671 37.6154 18.0688 37.6154C8.47044 37.6154 0.689453 29.3499 0.689453 19.1539C0.689453 8.95783 8.47044 0.692322 18.0688 0.692322C27.6671 0.692322 35.4481 8.95783 35.4481 19.1539Z" fill="#D9D9D9"/>
<path d="M18.0686 18.7198C19.1248 18.7198 20.1378 18.2564 20.8847 17.4315C21.6316 16.6067 22.0512 15.488 22.0512 14.3214C22.0512 13.1549 21.6316 12.0362 20.8847 11.2113C20.1378 10.3865 19.1248 9.92307 18.0686 9.92307C17.0123 9.92307 15.9993 10.3865 15.2524 11.2113C14.5055 12.0362 14.0859 13.1549 14.0859 14.3214C14.0859 15.488 14.5055 16.6067 15.2524 17.4315C15.9993 18.2564 17.0123 18.7198 18.0686 18.7198ZM18.0686 20.6522C12.7734 20.6522 9.37891 23.8794 9.37891 25.4506V28.3846H26.7582V25.4506C26.7582 23.5505 23.5446 20.6522 18.0686 20.6522Z" fill="black"/>
</svg>